<svg xmlns="http://www.w3.org/2000/svg" xmlns:xlink="http://www.w3.org/1999/xlink" viewBox="0 0 478.9 193.1" focusable="false"><path d="M1-3h476.6v194.2H1z"/><defs><path id="a" d="M1-3h476.6v194.2H1z"/></defs><clipPath id="b"><use xlink:href="#a" overflow="visible"/></clipPath><path d="M465.4 55.8H460c-.1-.4-.2-1.4-.8-2.5-2-4.4-6.4-5.5-9.6-5.5-6.1.1-10.7 4.2-12.1 10.7-.2.9-.4 2.2-.4 4.4 0 3.7.7 8.3 3.8 12 1.7 2 3.5 2.8 4.2 3.1.9.4 2.6.9 4.7.9 1.4 0 2.3-.2 2.9-.3 4.3-1.1 6.1-4 7-5.8.4-1 1-2.8 1-5.3v-.8h-11.4v-4.6H466v20.8h-4.1c-.1-3.4-.1-4.6-.4-6.4-.6 1.3-1.6 3.3-4.4 5.2-1.6 1-4.1 2.2-7.9 2.2-2.5 0-4.9-.4-7.1-1.4-2.1-.9-4.1-2.3-5.6-4.1-1.7-1.9-2.9-4.1-3.7-6.5-.9-2.5-1.3-5.3-1.3-7.9 0-5.8 1.7-13.6 8.7-18.1 4-2.6 8.5-2.7 9.6-2.7 3.7 0 8.5 1 12 5 .3.3.4.6.7.8 2.3 2.9 2.7 5.7 2.9 6.8M394 44h5.6L413 64.8c1.1 1.7 1.9 3 3 4.7.3.5.6.9.9 1.4 1 1.7 1.6 2.9 2.6 4.5-.1-.8-.1-1.4-.1-2.2-.1-3.2-.2-5.5-.2-8.8V43.9h5.2v38.7h-5.5l-12.4-19c-1.6-2.5-2.7-4.3-4.3-6.9-1-1.6-1.7-2.7-2.6-4.3-.2-.4-.3-.7-.5-1v.7c.1 3.7.1 6.3.1 10v20.5H394V44zm-39.6 0h5.5v23.4c0 3.4.2 5.3.9 6.9 1.3 2.6 4 4.4 8.5 4.4 3.1 0 7.6-.7 9.1-5.1.5-1.3.7-2.9.7-5.8 0-.8-.1-1.6-.1-2.5V44h5.5v23.7c-.1 3.9.1 8.9-4.4 12.7-.3.2-.5.4-1.1.8-.9.6-2.6 1.5-4.8 2-2.3.5-4.5.5-5.2.5-3.3 0-7.3-.5-10.6-3.3-.8-.7-1.9-1.8-2.8-3.7-1.2-2.5-1.5-5.3-1.5-10.4 0-.8 0-1.6.1-2.4l.2-19.9zm-33.6.1h29.3V49h-12v33.8h-5.5V49h-11.8v-4.9zm-25.5 0h25.9V49h-20.4v11.6H318v4.8h-17.2v17.5h-5.5V44.1zm-15.7 0h5.4v38.7h-5.4V44.1zm-34.1 0h29.4v4.8h-12v33.9h-5.5V48.9h-11.9v-4.8zM243.7 56h-5.4c-.3-2-.8-4.4-3.1-6.2-2.5-1.9-6-1.9-6.4-1.9-3.5-.1-5.9 1-7.4 2.6-1 1.3-1.1 2.6-1.1 3 0 1.3.5 2.1.9 2.6 1.6 2.2 5 2.8 6.8 3.3l4.6 1c1.2.3 2 .4 3.1.8 4.4 1.3 6.4 2.9 7.8 5 1.6 2.5 1.5 5.1 1.5 5.7 0 .8 0 4.2-2.7 7.2-3.5 4-8.9 4.5-12.5 4.5s-8-.5-11.6-3.6l-.1-.1c-2.2-1.9-3.3-4-4-6-.4-1.3-.7-2.7-.8-3.1-.2-.8-.1-1.4-.2-1.8h5.6c.1.8.2 3.2 1.9 5.5.6.9 1.1 1.4 1.4 1.6 1.6 1.4 4.1 2.5 7.9 2.5 3.2 0 5.4-.7 6.7-1.5.7-.4 1-.8 1.4-1.1 1.6-1.8 1.7-3.6 1.6-4.1 0-.9-.3-2.1-1-3-1.5-1.8-4-2.5-5.5-2.9-1.3-.4-2.3-.6-3.6-.9l-3.6-.8c-2.2-.6-5.2-1.3-7.4-2.8-1.1-.8-1.9-1.5-2.6-2.8-1.1-2-1.2-3.9-1.2-4.5 0-1 0-5.8 4.6-8.9 1.9-1.3 5.2-2.5 9.8-2.4 7.1.1 11.1 3 13.1 7.1.9 1.7 1.2 3.2 1.3 3.8.2 1.1.2 2 .2 2.2M183 62.2V48.9h10.4c.9 0 1.5 0 2.4.2.5.1 3.7.4 5.1 3.6.5 1.1.5 2.3.5 2.6 0 1.7-.5 2.8-.9 3.6-.2.2-.7 1-1.5 1.7-2.1 1.6-5 1.7-7.1 1.7l-8.9-.1zm-5.4-18.1v38.7h5.4V66.7h9.9c1.3.1 2.8.1 4.1 1 .8.5 1.6 1.3 2.2 2.8.6 1.6.8 4.3.8 4.4.2 2.2.2 4.4.7 6.6.1.5.2.8.4 1.3h6.6c-.5-.9-1-1.6-1.4-3.3-.2-.7-.3-1.2-.4-2.5-.2-2.1-.3-5.5-.9-7.7-.1-.6-.6-2.6-2.7-4.2-.4-.3-.8-.5-1.5-.9 2.8-1.2 6-4 6.2-9.2 0-1.9-.3-4.1-1.6-6-.3-.4-.9-1.4-2-2.2-3.2-2.6-7.6-2.6-10.8-2.6l-15-.1zm-39.2.1h5.5v23.4c0 3.4.2 5.3.9 6.9 1.3 2.6 4 4.4 8.5 4.4 3.1 0 7.6-.7 9.1-5.1.5-1.3.7-2.9.7-5.8 0-.8-.1-1.6-.1-2.5V44.2h5.5v23.7c0 3.9.1 8.9-4.4 12.7-.3.2-.5.4-1.1.8-.9.6-2.6 1.5-4.8 2s-4.5.5-5.2.5c-3.3 0-7.3-.5-10.5-3.3-.8-.7-1.9-1.8-2.8-3.7-1.1-2.5-1.5-5.3-1.5-10.4 0-.8 0-1.6.1-2.4l.1-19.9zm-33.6 0h29.4V49h-12v33.9h-5.5V49h-11.9v-4.8zm-18.6 0h5.5V78h20v4.9H86.3l-.1-38.7zm-39.6 0h5.5v23.4c0 3.4.2 5.3.9 6.9 1.3 2.6 4 4.4 8.5 4.4 3.1 0 7.6-.7 9.1-5.1.5-1.3.7-2.9.7-5.8 0-.8-.1-1.6-.1-2.5V44.2h5.5v23.7c-.1 3.9.1 8.9-4.4 12.7-.3.2-.5.4-1.1.8-.9.6-2.5 1.5-4.8 2-2.2.5-4.5.5-5.2.5-3.3 0-7.3-.5-10.5-3.3-.8-.7-1.9-1.8-2.8-3.7-1.1-2.5-1.5-5.3-1.5-10.4 0-.8 0-1.6.1-2.4l.1-19.9zm-35.3 0h5.5V63l18.5-18.8h7.1L26.6 59.8 44 82.9h-6.7L23.1 63.4l-6.1 6v13.5h-5.5l-.2-38.7zm454.5 60.6h-5.4c-.3-2-.8-4.4-3.1-6.2-2.4-1.9-6-1.9-6.4-1.9-3.5-.1-5.9 1-7.4 2.6-1 1.3-1.1 2.6-1.1 3 0 1.2.5 2.1.9 2.6 1.6 2.2 5 2.9 6.8 3.3l4.6 1c1.2.3 2 .4 3.2.8 4.3 1.3 6.4 2.9 7.8 5 1.6 2.5 1.5 5.1 1.5 5.7 0 .8 0 4.2-2.7 7.3-3.5 3.9-8.9 4.5-12.5 4.5-3.6 0-8-.5-11.7-3.6l-.1-.1c-2.2-1.9-3.3-4-4-6-.4-1.3-.7-2.7-.8-3.1-.2-.8-.1-1.4-.2-1.7h5.6c.1.8.2 3.2 1.9 5.5.6.9 1.1 1.4 1.4 1.7 1.6 1.4 4.1 2.5 7.9 2.5 3.2.1 5.4-.7 6.7-1.5.7-.4 1-.8 1.4-1.1 1.6-1.8 1.7-3.6 1.6-4.1 0-.9-.3-2.1-1-2.9-1.5-1.8-4-2.5-5.6-2.9-1.3-.4-2.3-.6-3.6-.9l-3.6-.8c-2.2-.6-5.2-1.3-7.4-2.8-1.2-.8-1.9-1.5-2.6-2.8-1.2-2-1.2-3.9-1.2-4.6 0-1 0-5.7 4.5-8.9 1.9-1.3 5.2-2.5 9.8-2.3 7.1.1 11.1 2.9 13.1 7 .9 1.7 1.2 3.2 1.3 3.8.4.7.4 1.7.4 1.9m-63.2-11.9h27v4.9H408v11.5h19.7v4.6H408v12.9h22.3v4.8h-27.8l.1-38.7zM370 97.8h6c.2 0 3.8 0 6.1.5.5.2 2.5.7 4.2 2.4 2.3 2.1 3.7 5.9 3.6 11.3 0 5.1-1.1 8.6-2.8 10.7-.9 1.2-2 1.9-2.4 2.1-3.1 2.1-6.8 2-7.7 2h-7v-29zm-5.5-4.9v38.7h11.4c.7 0 5 .2 8.3-.9 2.3-.8 3.8-1.8 4.8-2.5.8-.6 1.9-1.7 3.2-3.7 2.5-3.8 3.2-8.3 3.2-12.2 0-.9.1-7.4-2.9-12.2-.8-1.2-1.6-2.2-2.8-3.3-.5-.4-1.2-.9-1.3-1-2.8-2-6.2-2.8-12.3-2.8l-11.6-.1zm101.3 60.8h-5.4c-.3-2-.8-4.4-3.1-6.2-2.4-1.9-6-1.9-6.4-1.9-3.5 0-5.9 1-7.4 2.6-1 1.3-1.1 2.6-1.1 3 0 1.2.5 2.1.9 2.6 1.6 2.2 5 2.9 6.8 3.3l4.6 1 3.2.8c4.3 1.3 6.4 2.9 7.8 5 1.6 2.5 1.5 5.1 1.5 5.7 0 .8 0 4.2-2.7 7.3-3.5 3.9-8.9 4.5-12.5 4.5-3.6 0-8-.5-11.7-3.6l-.1-.1c-2.2-1.9-3.3-4-4-6-.4-1.2-.7-2.7-.8-3.1-.2-.8-.1-1.4-.2-1.8h5.6c.1.8.2 3.2 1.9 5.6.6.9 1.1 1.4 1.4 1.6 1.6 1.4 4.1 2.5 7.9 2.5 3.2.1 5.4-.7 6.7-1.5.7-.4 1-.8 1.4-1.2 1.6-1.8 1.7-3.6 1.6-4 0-.9-.3-2.1-1-3-1.5-1.8-4-2.5-5.6-2.9-1.3-.4-2.3-.6-3.6-.9l-3.6-.8c-2.2-.6-5.2-1.3-7.4-2.9-1.2-.8-1.9-1.5-2.6-2.8-1.2-2-1.2-3.9-1.2-4.5 0-1 0-5.8 4.5-8.9 1.9-1.3 5.2-2.5 9.8-2.4 7.1.1 11.1 3 13.1 7.1.9 1.7 1.2 3.2 1.3 3.8.4.9.4 1.9.4 2.1m-63.1-11.9h27v4.9h-21.6v11.5h19.7v4.6h-19.7v12.9h22.3v4.8h-27.8l.1-38.7zm-32.6 4.9h6c.2 0 3.8-.1 6.1.5.5.2 2.5.7 4.2 2.4 2.3 2.1 3.7 5.9 3.6 11.3 0 5.1-1.1 8.6-2.8 10.7-.9 1.2-2 1.8-2.4 2.1-3.1 2.1-6.8 2-7.7 2h-7v-29zm-5.5-4.9v38.7H376c.7 0 5 .2 8.2-.9 2.3-.8 3.8-1.8 4.8-2.5.8-.6 1.9-1.7 3.2-3.7 2.5-3.8 3.2-8.3 3.2-12.2 0-.9.1-7.4-2.9-12.2-.8-1.1-1.6-2.2-2.8-3.3-.5-.4-1.2-.9-1.3-1-2.8-2-6.2-2.8-12.3-2.8l-11.5-.1zm-40.3.1h5.5l13.4 20.8c1.1 1.7 1.9 3 2.9 4.7.3.6.6.9.9 1.4 1 1.7 1.6 2.9 2.6 4.6-.1-.8-.1-1.4-.1-2.2-.1-3.2-.2-5.5-.2-8.8v-20.5h5.2v38.7H349l-12.2-19.1c-1.7-2.5-2.7-4.3-4.3-6.9-1-1.6-1.7-2.7-2.6-4.3-.2-.4-.3-.7-.6-1l.1.7c.1 3.7.1 6.3.1 10v20.5h-5.2v-38.6zm-39.7 0h5.5v23.4c0 3.4.2 5.3.9 6.9 1.3 2.6 4 4.4 8.5 4.4 3.1 0 7.6-.7 9.1-5.1.5-1.3.6-2.9.6-5.8v-23.8h5.5v23.7c0 3.9.1 8.9-4.4 12.7-.3.2-.5.4-1.1.8-.9.6-2.6 1.5-4.8 2-2.2.5-4.4.4-5.1.4-3.3 0-7.3-.5-10.6-3.3-.8-.7-1.9-1.8-2.8-3.7-1.1-2.5-1.5-5.3-1.5-10.4 0-.8 0-1.6.1-2.4l.1-19.8zM252.3 163h9.2c4.3 0 6.9.2 8.7 2.5.7.8 1.3 2 1.3 3.9 0 1.3-.4 2.7-1.5 4-2.2 2.4-5.4 2.4-7.7 2.4h-10.1l.1-12.8zm0-16.2h10.4c.3 0 1.4 0 2.4.1 1.5.2 2.6.7 3.2 1.1 1.1.8 2.1 2.3 2.1 4.5 0 .4 0 2.1-1.2 3.6-.9 1.2-2.3 2-4.7 2.2-.7.1-1.2.1-1.8.1h-10.3l-.1-11.6zm-5.2-4.9v38.7h14.3c1.1-.1 1.8-.1 2.9-.1 5.7-.3 8.9-1.7 11-5 1.2-1.9 1.7-4.1 1.7-6 0-2-.4-4.4-2.1-6.4-1.8-2.1-4-2.7-4.5-2.8.2-.2 1.2-.5 2-1.2 2.7-2.1 3.5-4.8 3.5-7.4 0-.7 0-3.6-2.3-6.2-.8-.9-1.5-1.3-1.9-1.5-3.5-2.2-8.8-2.1-12.3-2.1h-12.3z" clip-path="url(#b)" fill="#fff"/></svg>