<svg id="Ebene_2" data-name="Ebene 2" xmlns="http://www.w3.org/2000/svg" viewBox="0 0 203.3 201.68"><defs><style>.cls-1{fill:#1df6aa}</style></defs><g id="left"><path class="cls-1" d="M172.53 7.04c-.03-.1-.07-.21-.14-.37.04.16.09.28.14.37ZM155.71 12.62l.1-.26c-.11.08-.12.17-.1.26ZM182.4 3.29s.01.06.02.09c.15-.06.36-.14.69-.27l-.71.17ZM120.98 26.81l.2-.12c-.1.04-.18.04-.2.12ZM141.66 18.59c.01.18-.07.28-.14.38.14-.04.23-.12.14-.38ZM191.16 8.39l-.52-.38c.12.22.32.4.52.38ZM199.66 1.56s-.04-.06-.08-.1c0 .05.04.08.08.1ZM194.9 1.36c-.06.09-.11.22-.16.36.11-.07.25-.14.16-.36ZM194.69 1.91c.02-.06.04-.13.06-.19-.06.05-.11.1-.06.19ZM.72 90.09c-.29.12-.33.62-.41 1.06l.41-1.06ZM90.54 41.66l-.04-.24c-.02.1 0 .17.04.24ZM2.6 94.71h-.25c.11.04.19.03.25 0ZM186.79 12.28c-.03.64-.89.32-.64.81.25-.22.85-.06.64-.81ZM93.59 63.77l-.17.12c.09-.04.14-.08.17-.12ZM2.6 94.71h.28c-.07-.08-.13-.14-.19-.21-.01.1-.04.17-.09.21ZM58.89 57.22h.01c0-.04.01-.07.02-.12l-.03.13ZM56.81 57.24l.28-.34c-.22.04-.27.18-.28.34ZM.31 91.16l-.23.61c.13-.13.19-.36.23-.61ZM39.14 66.99c.05-.04.1-.09.13-.15-.07.03-.12.08-.13.15ZM143.08 18.25c.06.03.13.02.2.04-.04-.12-.09-.2-.2-.04ZM137.28 37.82v.01-.01ZM137.64 36.86c-.26 0-.38.5-.35.95.21-.1.35-.31.35-.95ZM135.72 38.27s.07.02.11.02c-.05-.02-.08-.03-.11-.02ZM149.61 32.57s-.02-.04-.03-.05c0 .02 0 .03.02.05h.01ZM147 33.98a.67.67 0 0 0-.29-.13c.09.08.2.13.29.13ZM129.83 42.99v-.02s0 .01-.01.01h.02Z"/><path class="cls-1" d="M106.69 59.18c2.36-1.55 5.1-4.19 7.74-5.14.02-1.3.8-1.73 1.47-2.36l.77 1.33.44-.77c.48.28-.38.51.35.79l-.18-.98c.3.46 1.86-.53 1.24 1.01l2.57-1.28c.59-.24-.24-1.31.56-1.28.33.34-.09.39.21.85 2.39.08.85-3.74 2.92-4l-.06.26c.12-.51.71-.75.62-.95-.92-1.27.06.91-.89.36-.53-1.19.35-.96-.12-1.83.62.21.53-.57.86-.82.98.42 1.59-.53 2.51.15.12-.52-.12-1.83.5-2.2.92.68.33.92 1.12.95l-.24-.73c.57-.15.58.08.72.4.57-.25 0-1.16.9-1.07l-.06.85c.38-.51.65-.5 1.39-.8.18.4-.12.51-.39.5.89.81.45-.76.71-.76-.21-.26-.77-.15-.86-.94.41-.05.29-1.29.95-.62l-.06.84c.48-.89-.03-1.04.95-1.2-.02.07.09.23.14.38.1-1.13 1.19-.7 2.02-1.03l-.06.26c.2-.39.08-1.08.27-1.12-.65-.16-.62-.42-.99-1.05 1.15.82.26-1.74 1.57-1.57.18.39.18.98-.3.7.24 1.31.68 2.3.36 3.13.24-.45.59-.82.74-.3l-.42-1.12c.21-.14.42-.16.59-.25-.24-.72-1-.88-.7-1.57.41-.64.86.94.71.41.59-.82-.24-1.31.71-1.34-.03.13-.09.39-.21.32.77.15 1.27-.87 2.07.33.06.33.24.72-.03.71l-.09-.2c-.15 1.23.38-.51.77.74-.39-.67.47-.9.89-.95l-.5-.73c0-2.93.71 1.58 1.72.71.47-.89-.39-.08-.21-.85.56-.11 1.1.49 1.65-.21.36.21.98.42 1.45 1.28.26-.57 1.54-.27 1.36-1.25-1.12-.36-.29 1.29-1.74.59l-.18-.98c.63-.26 1.2-1.08 1.77-.98-.17-.13-.32-.33-.35-.54.71-.76.53-1.74 1.5-1.9.5.73-.06.84-.39 1.09.86.36.59-.24 1.57-.4.39.66-.59.24-.35.96l.83-.68s.04.09.07.14c-.44-1.21.76-.26 1.17-.88 1.36-.67.8-2.31 1.09-3.6.36.21.56.47.62.8-.59-.34-.33.03-.3.38.4-.35 1.56.63 1.54 1.22.56-.69-.56-.47-.3-1.05l1.03-.42c-.41-.53-.83-.48-.53-1.19.35-.38.62-.37 1.21-.61.06.33.62.8.18.98.38.08.83-.1.71-.75-.89-.22.77-1.01-.15-1.69l.89.22c-.15.06.03.46-.24.45.62.8.38-.51.56-.7.31.06.91-.14 1.13.18.07-.34.65-.39.97.02.21-.32-.27-.59-.33-.92l1.03-.42c.3.47 1.07 1.79 1.01 2.05.15-.64-.59-1.52 0-1.76.15 1.11 1.12.36 1.21 1.73.68.54 1.59.05 1.98-.46-.06-.91-.77-.15-1.12-.95 1.3-.99.32-3.18 1.56-3.33l-.38-.08c.44-.77.41-.63.47-1.48.3 1.05 2.04 2.21 3.02 1.47-.15-.53-1.07-.62-1.27-1.47l.65-.5c.09.05.09.25.06.42.47-.66 1.82.66 1.45-.56l1.36 1.08-.56-.47c-.15-.52.5-1.02.56-1.28.47-.9.95-.62 1.66-.2-.33-.33-1.1-1.08-.59-1.51.77 1.56 1.51-.03 1.89.79.22-.14.88.14.59-.52l.45.99c-.62-1.38.26-1.75.8-2.31.77 1.91.65-.5 1.78 1.03-.5-1.31.91-1.07.5-2.19.47-.31 1.01.88 1.33 1.21v-.58c.55.46 1.54.08 2.3.2l-.03-1.36.44.4c-.06-.32.3-.7-.18-.98l.31-.08c-.58-1.22.23-.53.54-1.33.23.13.34.43.29.66.29-.13.48.55.83.88-.35-.21-.06-2.67-1.1-2.83-.3-.47-.03-1.05.35-.97l.71 1-.24-1.31c.35-.38.89.22 1.3.17-.33.25.24 2.48 1.16 1.99-.42.38-.36 1.11-.5 1.46.21-.05.36 0 .29.61.56-.7-.09-.79.56-1.28.44.99.8 1.2 1.6 1.22l-.83-.48a.749.749 0 0 1-.04-.31c-.23-.02-.36-.14-.58-.5.15-.06.23-1.62.65-1.09-1.48-1.15.68-1.8-.24-2.48-.06-.32.42-.63.71-.17-.23 1.03 1 .88 1.25 1.6.08-.39-.83-.48-.71-1 .33-.24.89.22 1.24.43l-.06.26.77.16c-.15-.53-.95-.55-.56-1.06.24.14.62-.37.8.03.09.79.71 1.58.36 1.97.33-.25 1.42-.93.5-1.61l.45-.18c-.47-.28-1.6-.64-.8-1.2l.09.2.23-1.03.51.37c-.13-.24-.15-.52.08-.61.2.26.47.27.65.67.62-.37.32-.84.27-1.16.33-.25.56-.11.68.54.56-.12 1.36-.67 1.95-.33.44-.77-.24-.14-.18-.99 1.42 1.41 2.51-.43 3.48-1.18-1.03-1.33.21-.31-.27-1.76 0 .58 1.6.64.86 1.52l.5-.44c.8.62-.65 1.08.5 1.9.62-.37.24-2.2 1.27-2.04.27 1.17.41-.64.8.61.03.46-.24.45-.41.64l.24.14c1.57-.4-.21-1.44.17-2.53.8-.56 1.09.49 1.39.96.24.14.59-.24.68-.63-.21.9-1.3-.17-1.39-.96.98 1.01 1.33-.54 1.33-1.13-1.86-.65-.88.36-2.72-.42.03.46.59 1.52-.32 1.42.17-.75-.33-.58-.54-.69.44.55-.35.5-.44.86-.44-.4-.3-1.63-1.12-1.53l.59 1.52c-.38-.08-.41-1.12-.83-.48-.06-.91-.68-1.13 0-1.75-1.57-.77-1.12 1.39-1.59 2.29.03-.13-.06-.33-.03-.46.03.46-.26.58-.44.77-.65-.09.06-.85-.27-1.18l-.77.43s-.06-.06-.07-.09c-.11.3-.24.53-.49.21 0-.58-.15-1.11-.18-1.57l-.32 1.42c-.15-.52-1.09-.49-.68-1.13l-1.12.81-.59-.93c-.21.32-.12.52.29.46-.53-.02-1 2.63-1.74.6-.56 1.28-1.06 1.13-1.98 2.21.44-1.35-1.6-.63-.86-1.52-.77-.15-.35.96-.71 1.34-.62-.21-.92-1.26-.65-1.84l-.3.71-.09-.2-.18.78c-.74-.28-.59-.93-1.15-.82l.33.92-.59-.34c.32.33.12.65-.21.9l-.09-.2-.35.38c.17-.74-.49.01-.6-.71-.39.14-.4.16-.99.65l.41.53c-.62.95-.48-.86-1.21-.56l.38.66c-1.6-.64-1.42 1.51-2.54 1.15.35-.37-.15-1.11-.06-.91-.53.57-1.68.92-1.95 2.08-.74-.87-.95-1.13-1.86-1.23-.47.31-.5.44-.38 1.1-.68-.14-1.31.89-1.69.18.17.63-.5.1-.52.72l-.2-.27.38.66c-1.63-1.09-1.03 1.59-2.57.7l.06-.26-.23.45c-.21-.27-.15-.53-.33-.93l-1.77.72.59.35c-.32.25-.24 1.03-.86.82.17-1.36-.59.24-1.09-.49l.23-.45q-.47.31-.09.98c-.53.56-1.1-1.08-1.33-.05l.44-.18c.32.33.3 1.05 0 1.17-.12-.07-.47-.28-.3-.47-.38.51-1.33.55-1.42.93-.38-.07-.53-.6-.48-.86-.8 1.14-.56.11-1.36 1.26l-.18-.4-.15.65-.95-.55.44.41c-.32.25-.41.63-.95.62l-.12-.65c-.86.82-1.66-.38-2.22.91-.12-.07-.06-.33-.03-.46-.44 1.35-1.19-.69-1.54.86-.04-.22-.26-.41-.31-.59l-.22.58-.36-.79.24 1.31-.65-.67.03.45c-1.18-1.27-1.24.16-2.39-.66l.59.93c-.5 2.78-4.02.58-5.37 2.42l-.35-.79-.3 1.29c-.71-.41-.09-.78-.41-1.12-.59.83.24 1.31-.59 2-.74-.28-.12-.65-.03-1.04-.69.82-1.77 1.89-2.61 1.77.04.11.07.27.12.3-.41.64-1.36.67-1.98 1.04-.16-.36-.03-.5.09-.65-.26.07-.69-.02-.71.44l-.09-.79c-.56.11-1.21 1.2-1.71.46.21.27.48.86.03 1.04-.83-1.07-.91 1.08-1.92.78-.06-.32.41-.63.26-.58-.5-.14-.53.57-.65 1.09l-.15-.52-1.27 1.45c-.83-1.07-1.42.93-1.74 0-.59.24.74.28.09.78-.44-.4-.53.57-.89-.22l.03-.13-.47.31-.06-.91c-.35.38-.29 1.3-.02 1.89-.62-.22-1.03.42-1.57-.18l.06-.26c-1.01.88-2.96-1.14-3.22.61-.12-.07-.21-.27-.06-.33l-.74.31-.12-.66-.74 1.47-.18-.39c-.86.23-1.98 1.04-2.92 1.66l.06-.26c-.8 1.14-1.24.16-1.83.98-.02-.12-.02-.17 0-.21l-.71.38-.03-.46c-.12 1.1-2.07-.33-1.39.21-.12.52-.42 1.22-.27 1.75-.77.43-.44-.4-1.09-.49-.59.24-.35.96-1.3 1l-.18-.4c-.33.25-.41.64-.88.95l.06-.26c-.41 1.22-1.59-.63-1.39 1.38-.5-.14-1.03.42-1.39-.37-.77 1.01-1.45 1.64-2.3 2.46-.8-1.19-.18.19-1.15-.23l.39.66c-1.39.81-3.88-.06-5.32 1l-.39-.66.06.91c-1.86.53-4.19 1.36-5.55 2.03-.26.58-.53 1.74-1.36 1.84l.03-.13c-1.03 1.01-2.18 1.94-3.72 2.22-.06-.33-.3-.47-.24-.73.06.91-.77.43-1.06.55l.59.34c-.06.84-.92.49-1.36.08l-.24 1.04c-.07-.05-.19-.12-.25-.23l.07.42-.77-.74c-.06.26-.74.89-.56 1.87-.21-.27-.89-.22-.53-.6l-2.33.83.5.15c.38.66-.06 1.43-.56 1.28.17-.77-.45-.99-.89-1.4-.11.52.56.47.59.93-.15.65-.83 1.28-1.18 1.07l.09-.39c-.38.51-1.21-.56-1.69-.25-.18.78-.76.43-.08 1.56-.53.57-.65-.67-.92-.68-.03.71-1.12.81-1.53.27.5 1.9-2.07.26-1.48 1.77l-.94-.55c.18.4.51 1.32.15 1.7-.62-.22-.86-.94-1.18-1.28l.45 1.58c-3.13-.37-5.73 2.22-8.95 2.24-1 .88-2.12 2.27-3.57 2.74l.06-.26-1.54.28 1.3.18c-.21.31-.3.71-.59.83-1.77.13-4.1.38-5.54 2.02-.34 2.25-1.51-1.08-2.03.69.02-.2-.06-.45-.06-.66-.93 1.16-1.45 1.77-2.17 3.35-.68-1.71-.77.43-1.09-.49l.23.72c-.47-.27-1.18-.1-1.33-.63l-.12 1.1-.39-.66c-.73.3-1.98 1.62-3.04.42-1.24 1.91-4.16 2.98-6.5 3.82-.03.71-.65 1.08-1.12 1.39l-.94-.55c-.39.51-.41 1.81-1.15 1.52-.04-.1-.06-.17-.05-.24-.43.43-1.15.24-1.25 1.24-.59.24-1.36.08-1.57-.76.62 1.38-1.3.41-1.3.41S4.16 79.18.71 90.11c.09.79-.35 1.55.3 2.22-.39.51-1.21-.56-.98.16.92.1.65 1.84 1.75 2.34l-.36.38c.15.52.32-.84.65.08l-.5-1.31c.45.01.77.18 1.11.54.09-.66-.55-2.46.62-2.11l-.18.19c.62-.37.8.61 1.04.75l-.15.06.86.36c-.62-.21-.8 1.14-.48.89.95-.04-.35-.2.15-.65.33-.24.56.47.74.87l.62-.37c.27.59-.44.18.12.65l.5-1.02c.89 1.4.53-1.15 1.59.05-.41.64.3.47.45.99l1.39-.8c.24.14-.15.64.03.46.47.27.26-.58.41-.64.33.34 1.06-.55 1.51.44 1.3.17-.21-1.44.97-1.34.42.53-.65.5.06.91l.83-.69c.06.33.3 1.05-.12 1.1 2.93-.49 5.86 1.95 7.78 0 .68.54 0 .59 0 1.17 1.21-1.78 3.13.36 4.52-.43l-.27-.59c2.9.81 4.76-1.47 7.38-1.84l-.47-.27c.03-.72.5-1.02.74-1.47.2.27.35 1.38.89.81-.24-.14-.62-.22-.68-.54 2.69.55 6.59-1.87 10.14-2.72 4.08-2.6 9.31-3.79 13.35-6.26-.62.37-1.06-1.2-.41-1.12 2.54 1.77 2.1-1.56 4.28-.57 2.07-2.01 5.32-1 6.68-4.01l.39.67c.5.14.35-.38.68-.63l.09.2c.98-.17 1.65-1.38 2.31-1.29l-.36-.79c.47-.32.56.47.86-.23l.18.4.23-1.04c.62 1.39 1.48-.6 2.19-.19.53-.57 1.47-1.77 2.6-1.99.53.61 1.74 0 2.69-.04 1.42-.93 3.46-2.23 5.49-2.94l-.48-.86.47-.31c.09.2.21.26.18.4.89.81 1-.88 1.71-.46-.65-.67-.41.05-.71.17-.62-.21-.65-1.26.12-1.1l.09.2.15-.65c.39.67.89.81 1.27 1.47 1.57-.98 2.1-2.73 3.96-3.25.21.85 1.12-.8 1.45.7.77-1.01-.71-.99-.71-2.17.3-.12.41-.64.71-.17.03.39.64.69.47.93l.63-.44c.12.07.06.33.03.46 1-1.46 2.9-.36 3.75-1.76-.15-.53-.56.11-.71-.42.77-1.6 1.54.31 2.36-.96l.09.78c.15-.65.03-1.3.92-1.08.5.73-.21.9-.32 1.42.44-.18 1.42-.92.74-1.47.38-.51.92.09 1.3.17-.09-.2-.74-.28-.62-.8.92.09 1.98-.46 2.87-.82.09.2.3.46.27.59.17-1.36.97.42 1.8-.27Z"/><path class="cls-1" d="m150.02 32.52-.4.05c.09.17.17.38.11.65l.3-.7ZM133.49 40.16c-.01.08-.03.16-.02.27.07-.08.05-.18.02-.27ZM130.23 43.51c.2-.31-.16-.39-.4-.52.07.16.17.35.4.52ZM158.2 25.85c-.02.1 0 .23.08.38 0-.18-.03-.3-.08-.38ZM183.96 13.68c-.05-.02-.09-.03-.16-.07.05.05.1.07.16.07ZM181.94 13.16c-.07.03-.15.1-.23.25.15-.02.21-.13.23-.25ZM152.17 29.22c-.08.07-.15.18-.14.38.14-.09.15-.24.14-.38ZM181.5 13.73l-.4.09c.02.05.04.09.07.16l.33-.25ZM184.46 13.55c-.15.04-.34.14-.5.13.28.12.43.06.5-.13ZM167.06 20.17s-.02.02-.03.04c-.11.47 0 .25.03-.04ZM180.62 15.85h-.06v.27l.06-.26ZM186.15 13.09c-.06.05-.1.12-.11.23.07 0 .15 0 .25-.01-.07-.09-.11-.16-.14-.22ZM172.99 18.71c-.04-.34-.11-.56-.18-.71-.11.07-.12.24.18.71Z"/><g><path class="cls-1" d="M176.68 179.2c.06-.08.13-.18.21-.33-.1.13-.17.23-.21.33ZM162.13 169.1l.27-.08c-.13-.04-.21 0-.27.08ZM185.6 184.85s-.04.04-.06.07c.14.09.32.21.63.39l-.57-.46ZM129.94 149.83l.22.09c-.09-.05-.14-.12-.22-.09ZM148.92 161.44c-.13.12-.27.12-.39.11.12.09.23.11.39-.11ZM186.78 194.92v-.65c-.12.22-.14.5 0 .65ZM197.35 197.62s.02-.07.03-.13c-.04.04-.04.08-.03.13ZM194.65 193.7c-.1 0-.24.05-.38.09.12.04.27.11.38-.09ZM194.08 193.85c.06-.02.13-.04.19-.06-.08-.02-.15-.03-.19.06ZM7.15 91.59c-.26-.16-.69.11-1.1.31l1.1-.31ZM99.79 134.38l.16-.18a.28.28 0 0 0-.16.18ZM4.59 95.86l-.14-.2c.03.12.08.18.14.2ZM181.05 193.76c-.53.36-.79-.52-1.03-.03.33.07.56.65 1.03.03ZM83.94 150.09l-.2-.06c.08.05.14.07.2.06ZM4.59 95.86l.16.23c.03-.1.04-.19.06-.28-.09.05-.16.07-.22.05ZM68.36 118.39h.01c.04-.02.07-.03.11-.06l-.12.05ZM67.09 116.74c.14 0 .28.01.44.02-.16-.15-.3-.11-.44-.02ZM6.06 91.89l-.63.18c.18.02.4-.07.63-.18ZM48.69 108.46c.07.01.13.02.2.02-.07-.04-.13-.05-.2-.02ZM150.04 162.37c.02.07.06.12.09.18.07-.11.11-.2-.09-.18ZM130.91 169.47ZM131.89 169.18c-.15-.22-.63 0-.98.29.21.1.46.1.98-.29ZM129.61 168.5l.05.1c-.01-.05-.02-.08-.05-.1ZM142.5 176.19s.02-.04.03-.05c-.01.02-.02.03-.03.04ZM139.81 174.95c0-.12-.03-.23-.07-.32 0 .12.01.23.07.32ZM122.3 166.61s.01-.01.01-.02h-.02v.02Z"/><path class="cls-1" d="M95.46 157.82c2.66.96 6.41 1.57 8.75 3.11 1.06-.76 1.86-.4 2.77-.24l-.6 1.41.88-.11c.06.55-.64 0-.42.76l.68-.73c-.19.52 1.54 1.17-.07 1.6l2.57 1.29c.55.33.9-.98 1.36-.32-.07.46-.36.16-.56.68 1.38 1.96 3.51-1.57 4.95-.06l-.24.11c.48-.22 1.03.12 1.13-.08.47-1.5-.69.59-.82-.49.63-1.14.98-.29 1.39-1.19.2.63.77.09 1.17.2.25 1.04 1.38.95 1.39 2.1.48-.22 1.39-1.19 2.06-.92 0 1.14-.54.81-.09 1.47l.44-.63c.46.36.29.51.11.82.54.3.92-.7 1.4.08l-.71.46c.64 0 .79.22 1.47.63-.21.38-.48.21-.63 0-.11 1.19.88-.1 1.03.11.09-.32-.34-.7.24-1.25.29.3 1.21-.54 1.06.38l-.71.46c1-.16.82-.65 1.53.04-.07.03-.13.21-.22.34.97-.6 1.27.54 2.03 1l-.24.11c.43-.07.91-.58 1.06-.45-.26-.61-.03-.75.25-1.42.04 1.41 1.55-.83 2.2.31-.21.38-.68.73-.74.19-.9.98-1.43 1.93-2.29 2.16.5-.08 1.01-.02.68.41l.65-1c.24.08.38.24.55.32.43-.62.1-1.33.84-1.51.76-.05-.24 1.25.1.81 1.01-.02.9-.98 1.5-.24-.12.05-.36.16-.38.02.34.71 1.46.49.98 1.85-.23.25-.43.62-.59.41l.11-.19c-1.07.62.63 0-.13 1.06.3-.71 1-.16 1.29.14l.28-.84c2.34-1.76-.84 1.52.47 1.8 1-.16-.17-.36.56-.68.43.38.26 1.17 1.16 1.2.05.41.25 1.04-.16 1.93.62-.13 1.14 1.06 1.82.33-.38-1.11-1.21.54-1.52-1.04l.67-.73c.59.35 1.58.31 1.85.83 0-.21.07-.45.22-.61 1.03.11 1.71-.62 2.42.06-.28.84-.71.46-1.1.34.23.9.55.33 1.26 1.01-.3.71-.55-.33-.98.3l1.04.25s-.04.09-.07.14c.71-1.08.66.46 1.41.4 1.35.69 2.33-.75 3.54-1.29.05.41-.04.73-.27.98-.08-.68-.22-.25-.48 0 .52.11.44 1.63-.05 1.96.89.03.04-.74.66-.87l.96.58c.18-.65-.11-.95.63-1.14.51.06.67.28 1.21.6-.23.25-.27.98-.67.73.16.36.58.6 1.03.11-.35-.85 1.27 0 1.26-1.14l.35.85c-.14-.08-.35.3-.5.08-.27.98.63 0 .89.03.13.28.66.65.54 1.01.32-.15.7.29.56.79.38-.03.31-.57.54-.81l.96.57c-.19.52-.79 1.93-1.04 2.04.6-.27.86-1.39 1.41-1.05-.8.79.38 1.11-.66 2.01-.03.86.92 1.3 1.55 1.31.7-.6-.34-.71.08-1.47 1.57.44 2.73-1.65 3.6-.75l-.16-.35c.88-.11.75-.05 1.47-.51-.66.87-.55 2.96.64 3.3.33-.44-.14-1.23.41-1.9l.79.22c.01.1-.15.22-.3.3.81-.02.57 1.85 1.32.82l-.05 1.74.04-.73c.33-.43 1.12-.21 1.36-.32 1-.16 1.06.39 1.16 1.2.07-.46.2-1.52.86-1.38-.79 1.56.92 1.19.5 1.99.24.1.42.79.77.16l-.52.95c.73-1.33 1.55-.84 2.33-.75-1.07 1.77.79.22.24 2.04.75-1.19 1.41.09 2.05-.92.53.19-.1 1.33-.17 1.79l.47-.35c-.04.71.86 1.28 1.22 1.96l1.07-.84-.06.6c.22-.24.74-.19.68-.73l.25.21c.63-1.19.56-.13 1.38-.36.03.26-.14.53-.35.63.28.15-.15.71-.2 1.19-.05-.41 2.1-1.65 1.61-2.58.19-.52.82-.65.99-.3l-.37 1.17.9-.97c.51.06.35.84.64 1.14-.39-.11-1.84 1.68-.9 2.12-.56-.1-1.1.38-1.47.48.17.14.21.29-.31.6.89.03.57-.54 1.36-.32-.52.95-.48 1.36-.02 2.01l-.11-.95c.08-.11.16-.18.22-.22-.12-.19-.1-.37.05-.76.14.08 1.43-.78 1.26-.14.03-1.87 1.84-.54 1.84-1.68.22-.24.75-.05.56.47-.97.43-.1 1.33-.54 1.96.36-.17-.11-.96.37-1.17.39.11.35.84.4 1.25l-.24.11.33.71c.33-.44-.12-1.09.51-1.09.03.27.67.27.46.65-.58.54-.84 1.52-1.36 1.46.39.11 1.6.57 1.59-.57l.41.25c-.06-.54-.45-1.66.48-1.36l-.1.19.97-.43v.63c.13-.25.33-.43.55-.3-.09.32.06.54-.15.92.67.27.86-.24 1.09-.48.39.11.43.38-.03.87.43.38 1.35.68 1.43 1.37.88-.11-.03-.27.68-.74-.28 1.98 1.85 1.75 3.04 2.08.45-1.63.38-.02 1.25-1.27-.47.35.45 1.66-.7 1.6l.65.14c-.01 1.01-1.26.13-1.22 1.55.67.28 1.9-1.13 2.39-.21-.78.92.76-.05 0 1-.35.3-.5.08-.76.05l.03.27c1.26 1.01 1.03-1.03 2.13-1.38.93.3.27 1.17.07 1.69.03.27.55.33.91.17-.85.38-.64-1.15-.07-1.69-.22 1.39 1.23.74 1.7.39-.6-1.88-.82-.49-1.3-2.43-.35.3-.86 1.38-1.33.59.7-.31.27-.61.23-.85-.18.68-.61.01-.95.17.06-.6 1.13-1.22.55-1.82l-.86 1.38c-.17-.36.65-1-.11-.95.69-.6.49-1.22 1.4-1.06-.33-1.71-1.78-.06-2.78.1.12-.05.23-.24.35-.3-.35.3-.62.14-.88.11-.32-.57.71-.46.78-.93l-.8-.36c0-.06.02-.08.03-.11-.31.09-.57.13-.46-.27.47-.35.8-.79 1.15-1.08l-1.33.59c.33-.43-.27-1.17.49-1.22l-1.32-.41.39-1.03c-.38.03-.48.22-.19.51-.3-.43-2.71.78-1.52-1.03-1.36.32-1.55-.17-2.95-.26 1.34-.45-.45-1.66.7-1.6-.34-.71-.98.3-1.5.24-.2-.62.46-1.49 1.08-1.63l-.74.19.11-.19-.73.32c-.22-.76.39-1.03-.04-1.41l-.54.81-.08-.67c-.07.46-.45.49-.84.38l.1-.19-.52-.05c.69-.31-.3-.39.2-.91-.35-.23-.37-.22-1.12-.4l-.18.65c-1.13.07.4-.9-.28-1.31l-.3.7c-.45-1.66-2.06-.22-2.45-1.34.51.06.8-.79.69-.6-.78-.08-1.75-.8-2.83-.31.25-1.11.34-1.44-.13-2.23-.53-.19-.65-.14-1.11.35-.3-.63-1.5-.52-1.16-1.25-.4.51-.38-.33-.89.01l.09-.32-.3.7c-.1-1.96-1.89.13-2.1-1.64l.24-.11-.5.08c.09-.33.33-.44.54-.82l-1.64-.98.08.68c-.39-.11-.97.43-1.17-.2 1.19-.68-.55-.32-.26-1.17l.5-.08q-.53-.19-.83.52c-.77-.09.21-1.52-.76-1.09l.41.25c-.07.46-.66.87-.93.71-.01-.14-.06-.54.2-.52-.64 0-1.23-.73-1.59-.57-.17-.35.16-.79.4-.9-1.39.05-.43-.38-1.82-.33l.21-.38-.61.27-.13-1.09-.06.6c-.39-.11-.75.05-1.06-.39l.45-.49c-1.17-.19-.69-1.55-2.05-1.23-.01-.14.23-.25.35-.3-1.34.45-.16-1.36-1.61-.71.15-.17.17-.45.29-.6l-.59.17.42-.76-.91.98.15-.93-.35.29c.31-1.71-.87-.9-.91-2.31l-.39 1.03c-2.52 1.27-2.88-2.87-5.16-2.85l.42-.76-1.21.54c-.1-.82.57-.54.65-1-1.02.02-.91.98-1.95.73-.22-.76.45-.49.82-.65-1.07-.06-2.57-.28-2.98-1.03-.07.1-.17.21-.16.28-.76.05-1.35-.68-2.02-.96.19-.35.38-.33.58-.32-.21-.16-.4-.57-.78-.3l.58-.55c-.43-.38-1.68-.25-1.4-1.09-.09.33-.41.9-.81.65.36-1.3-1.41-.09-1.78-1.07.22-.24.75-.05.62-.14-.19-.48-.77-.08-1.26.13l.33-.43-1.93-.14c.36-1.3-1.59-.58-1.05-1.39-.55-.33.22.76-.57.54.06-.59-.77-.08-.36-.84l.12-.05-.53-.19.7-.6c-.52-.05-1.21.54-1.52 1.11-.2-.63-.96-.58-.8-1.36l.24-.11c-1.31-.28-.86-3.05-2.42-2.21-.01-.14.09-.33.23-.25l-.69-.41.46-.49-1.62.29.21-.38c-.7-.55-2.02-.96-3.08-1.34l.24-.11c-1.39.05-.87-.9-1.88-.88.08-.09.13-.11.17-.12l-.73-.35.35-.3c-.95.57-.98-1.85-1-.98-.49.22-1.23.4-1.56.83-.81-.35.06-.6-.26-1.17-.55-.32-.98.29-1.58-.44l.21-.38c-.39-.11-.76.05-1.29-.14l.24-.11c-1.23.4-.45-1.66-1.94-.28-.19-.49-.96-.57-.54-1.33-1.27 0-2.18-.17-3.35-.37.48-1.36-.26-.03-.51-1.06l-.3.7c-1.48-.63-2.28-3.14-3.99-3.65l.3-.71-.69.59c-1.54-1.17-3.6-2.54-4.95-3.23-.62.14-1.71.62-2.29.02l.12-.06c-1.42-.22-2.87-.58-4.01-1.64.23-.25.2-.52.44-.63-.7.6-.8-.35-1.08-.52l.08.68c-.71.46-.94-.44-.88-1.04l-.97.43c0-.09-.01-.22.03-.34l-.29.31.13-1.06c-.24.11-1.15-.06-1.83.68.09-.33-.35-.84.16-.79l-2.06-1.37.18.49c-.3.7-1.18.81-1.36.32.72-.33.52-.95.58-1.55-.48.22-.04.73-.39 1.03-.61.27-1.52.11-1.56-.3l.36-.16c-.64 0-.28-1.31-.81-1.5-.73.32-.81-.35-1.3.87-.77-.09.15-.92 0-1.14-.59.41-1.32-.41-1.14-1.06-1.22 1.54-1.45-1.5-2.31-.12l-.13-1.09c-.21.38-.75 1.2-1.27 1.14-.2-.63.24-1.25.31-1.71l-1 1.3c-1.59-2.73-5.21-3.25-7.16-5.82-1.31-.27-3.09-.33-4.34-1.21l.24-.11-1.14-1.06.64 1.15c-.38.02-.74.19-1.02.02-1.17-1.34-2.76-3.05-4.94-3.22-2 1.07-.04-1.86-1.77-1.21.17-.1.33-.32.49-.44-1.49-.05-2.28-.1-3.98.27.96-1.57-.81-.36-.26-1.17l-.44.62c-.06-.54-.63-1.01-.3-1.44l-.95.57.3-.71c-.68-.41-2.48-.61-2.16-2.18-2.27.16-4.88-1.54-6.95-2.91-.59.41-1.26.13-1.79-.06l-.13-1.09c-.64 0-1.69.75-1.91 0 .05-.09.1-.15.16-.18-.6-.09-.88-.77-1.74-.26-.55-.33-.88-1.04-.33-1.71-.73 1.33-1.11-.8-1.11-.8S17.97 87.76 7.17 91.56c-.57.55-1.45.65-1.6 1.57-.64 0-.28-1.3-.71-.68.47.79-1.08 1.63-.82 2.8l-.52-.06c-.33.43.86-.24.32.57l.75-1.19c.26.37.32.72.23 1.21.58-.32 1.64-1.91 2.06-.78l-.26-.03c.67.28 0 1.01.02 1.28l-.14-.08.23.9c-.2-.63-1.39.05-1 .15.6.74-.05-.4.61-.27.39.11-.04.73-.25 1.11l.67.28c-.31.57-.41-.25-.45.49l1.12-.21c-.58 1.55 1.24-.27.91 1.31-.76.05-.2.52-.53.95l1.47.63c.03.27-.6.27-.35.3.07.54.62-.14.76-.05-.08.47 1.08.52.55 1.47.64 1.14 1.03-1.03 1.65-.03-.18.65-.79-.22-.69.6l1.05.25c-.23.25-.66.87-.95.57 2.14 2.05 1.95 5.85 4.67 6.22-.03.87-.47.35-.94.7 2.15-.1 1.59 2.73 3.06 3.36l.32-.57c1.09 2.8 4.03 2.92 5.9 4.8l-.07-.54c.59-.41 1.12-.21 1.62-.29-.09.32-.89 1.11-.12 1.2-.03-.27-.2-.63.03-.87 1.18 2.48 5.45 4.15 8.26 6.47 4.52 1.7 8.62 5.17 13.02 6.93-.67-.27.32-1.57.64-1 .11 3.1 2.5.74 3.03 3.08 2.85.45 3.99 3.66 7.21 2.94l-.3.71c.18.48.52.05.91.16l-.11.19c.72.68 2.09.5 2.42 1.07l.42-.76c.54.19-.04.73.7.55l-.21.38.97-.43c-.74 1.33 1.37.82 1.46 1.64.77.08 2.3.12 3.15.88-.16.79 1.05 1.39 1.65 2.13 1.59.58 3.85 1.43 5.65 2.63l.41-.9.53.19c-.1.19-.09.32-.21.38-.11 1.19 1.31.27 1.4 1.09.15-.92-.29-.3-.56-.46-.2-.62.62-1.28.95-.56l-.11.19.61-.27c-.3.71-.12 1.2-.41 1.9 1.73.66 3.44.04 4.97 1.22-.56.68 1.32.42.31 1.58 1.27 0 .37-1.16 1.31-1.87.27.17.76-.05.56.47-.29.25-.17.93-.47.93l.73.24c.01.14-.23.25-.35.3 1.77-.07 2.03 2.1 3.66 1.95.33-.43-.43-.38-.09-.82 1.74-.35.67 1.42 2.19 1.31l-.57.54c.61-.27 1.06-.76 1.41.09-.29.84-.85.38-1.33.59.41.25 1.59.58 1.62-.29.64 0 .48.79.64 1.14.11-.19-.22-.76.27-.97.47.79 1.56 1.31 2.37 1.8-.1.19-.19.51-.31.57 1.19-.68.25 1.03 1.29 1.28Z"/><path class="cls-1" d="m142.79 176.48-.28-.29c-.09.17-.2.36-.46.48l.74-.18ZM126.76 167.85c-.07.04-.15.08-.23.15.1 0 .17-.07.23-.15ZM122.12 167.24c.37-.03.22-.36.18-.63-.08.15-.17.35-.18.63ZM153.04 179.02c-.1.04-.19.13-.26.3.15-.1.22-.2.26-.3ZM178.23 192.33c-.01-.05-.03-.09-.04-.17 0 .07 0 .12.04.17ZM177.43 190.4c-.07-.04-.17-.06-.34-.03.1.11.23.09.34.03ZM146.72 176.22c-.11-.02-.23 0-.39.11.15.06.28-.02.39-.11ZM176.71 190.4l-.31-.26c-.03.05-.05.09-.08.15l.4.11ZM178.63 192.65c-.13-.09-.31-.19-.4-.32.07.3.21.38.4.32ZM162.89 182.7h-.05c-.44.2-.2.14.05 0ZM174.49 190.96s-.02-.04-.03-.05l-.21.16.24-.11ZM180.02 193.73c-.08-.02-.15-.01-.25.05.04.06.09.12.16.19.03-.11.06-.18.09-.24ZM167.62 186.58c.25-.24.38-.42.46-.56-.12-.05-.26.04-.46.56Z"/></g></g></svg>