<svg xmlns="http://www.w3.org/2000/svg" viewBox="0 0 300 300" style="enable-background:new 0 0 300 300" xml:space="preserve"><path d="M188.9 166c-.6 0-1.1.1-1.8.1-7.1.9-13.3 7.1-19.5 10.5-26.2 18.2-59.2 22.5-90.5 22.8-12.7 1-36.9-1.9-38.2 15.1-8.8-.4-15.2-6.7-15.6 11.5-.4 19.2 9 13.8 16.2 12.7 0 0-1 17.1 9.9 14.8 0 0-1 12.8 10.2 9.5 1.9 15.5 4.9 37.2 11.2 51.7 2.3 5.3 7.1 5.5 11.8 5.1 8-.6 22.3 1.6 17.9-6.6-10.2-18.9-9.8-17.9-9.9-59.1 36 3 67.7 12.2 89.9 32.2 7.8 7 15.4 6.1 20-10.9 8.6-31.5 7.1-63 .3-90.3-3-12-3.4-19.1-11.9-19.1z" style="fill:#ffe1e1" transform="translate(-17.059 -92.821)"/><path d="M129.1 266.4c-15.2-4.2-29.7-6.2-61.6-6.3-6.5 0-12.6 1.4-13.4 1.3-3.6-.4-6-3.1-7-7.8-.4-1.9-.6-8.9-.3-14.4.1-2.8.1-5.1 0-7.3-.1-1.8-.2-5.6-.2-8.6 0-5.9.1-6.9 1.3-9.6.6-1.4 2.2-3.5 3.1-4 1.2-.7 7.3-1.9 13-2.5 5.6-.6 9-.8 18.7-1 26.2-.7 28-.7 34-1.7 23.2-3.8 57.7-24.4 68.8-33.9-10.4 38.1-11.8 60-7.2 90 1.2 14.8 6.9 14.1 9.2 23-34.4-9.9-34.5-10.6-58.4-17.2z" style="fill:#311b92" transform="translate(-17.059 -92.821)"/><path d="M169.541 70.379c-.6 0-1.1.1-1.8.1-7.1.9-12.1 9.1-18.4 12.5-26.5 18.6-59.8 23-91.5 23.3-12.8 1-37.5-3.8-38.9 13.6-8.9-.4-15.2-4.9-15.7 13.6-.4 19.6 9.1 16.1 16.4 14.9 0 0-1 15.6 10 13.3 0 0-1 13.1 10.4 9.8 1.9 15.9 4.8 38.1 11.3 52.9 2.4 5.4 7.2 5.7 11.9 5.3 8.1-.7 27-.2 22.4-8.5-10.4-19.3-10.7-16.5-10.8-58.8 36.4 3 64.8 12.5 87.3 33 7.9 7.2 17.8 6.1 22.5-11.3 8.7-32.4 7.3-64.9.4-92.8-2.8-12.3-6.9-21-15.5-20.9zm-.8 4.1c9.1.1 14.2 12 15.9 27.3 3 25.9 6.3 41.5-2.9 80.1-1.3 5.5-6.9 17-16.4 11.2-8.6-5.2-7.1-18.4-8.9-28-3.1-26.1-3-53.1 3.3-78.7 1.6-4.3.3-11.9 9-11.9zm.4 3.3c-7.2 0-9 21.9-9.5 30-1.3 20.4-2.4 29.3-.3 56.8 2.4 26.4 14.8 37.8 20.4 10.6 5.5-27 6.4-76.6-2.4-90.2-3.2-5.2-6-7.2-8.2-7.2zm-11.6 3.6-.1.5c-4.9 14.4-6.9 45.3-6 68 .9 12.4 2.1 24.9 6.1 36.6-40.7-33.8-82.6-29.1-126.4-29.9-9.6-1.8-6.5-15.5-6.6-23-.1-7.1-2.6-17.4 4.2-21.5 16-4.1 42.6-2.3 58.4-3.6 21.8-1.9 59.9-15.6 70.4-27.1zm12.2 1.2c8.4.2 12.2 29.5 11.9 51.2-.7 13.5-4.9 62.2-13.4 50.9-7.5-9.9-5.3-33.5-6.4-45.8 7.1 10.2 12.8-3 8.4-12-3.8-5.3-8.9 2.4-8.9 2.4 1.3-9.4.4-46.1 7.9-46.7h.5zm-153.3 42.1c2.3 0 4.1.6 4.1.6l.1 16.4s-14.6 5.8-13.8-7.3c.5-8.1 5.7-9.7 9.6-9.7zm18.5 36.6c9.8 1.5 10.5 0 36 1.1.2 16-3.1 37.4 5.6 51.1 9.8 15.4 5 10.2-12 12.9-12.1 1.9-15.3-20.7-17.3-31.4-1.7-9.2-2.5-18.5-3.2-27.8-4.2.8-12.3 2-9.1-5.9z"/><path d="m188.9 210.8 59.2-43.4-41.5 49.8 106-16.2-95.3 25.3 87.4 31.8-77.2-13.3 47.6 26.7-75.1-29.6 26.7 46.9-38.3-46.3s9.3-6.3 9.3-15c.2-9.5-8.8-16.7-8.8-16.7h0z" style="fill:#f50057;stroke:#000;stroke-width:2;stroke-linecap:round;stroke-linejoin:round" transform="translate(-17.059 -92.821)"/></svg>