<?xml version="1.0" encoding="UTF-8" standalone="no"?>
<!-- Created with Inkscape (http://www.inkscape.org/) -->

<svg
   width="170.99341mm"
   height="92.734612mm"
   viewBox="0 0 170.99341 92.734612"
   version="1.1"
   id="svg5"
   inkscape:version="1.1 (c68e22c387, 2021-05-23)"
   sodipodi:docname="Zeichnung2.svg"
   xmlns:inkscape="http://www.inkscape.org/namespaces/inkscape"
   xmlns:sodipodi="http://sodipodi.sourceforge.net/DTD/sodipodi-0.dtd"
   xmlns="http://www.w3.org/2000/svg"
   xmlns:svg="http://www.w3.org/2000/svg">
  <sodipodi:namedview
     id="namedview7"
     pagecolor="#ffffff"
     bordercolor="#666666"
     borderopacity="1.0"
     inkscape:pageshadow="2"
     inkscape:pageopacity="0.0"
     inkscape:pagecheckerboard="0"
     inkscape:document-units="mm"
     showgrid="false"
     inkscape:zoom="0.89571167"
     inkscape:cx="183.09463"
     inkscape:cy="231.10115"
     inkscape:window-width="1920"
     inkscape:window-height="1002"
     inkscape:window-x="-8"
     inkscape:window-y="-8"
     inkscape:window-maximized="1"
     inkscape:current-layer="layer2" />
  <defs
     id="defs2" />
  <g
     inkscape:groupmode="layer"
     id="layer2"
     inkscape:label="Hintergrund"
     transform="translate(-17.05853,-92.821206)">
    <path
       style="fill:#3827a1;fill-opacity:1;stroke:none;stroke-width:0.123442;stroke-opacity:1"
       d="m 80.24328,152.85485 c -8.828522,-2.43963 -17.249909,-3.64097 -35.832258,-3.66797 -3.788728,-0.006 -7.290299,0.83969 -7.781271,0.78109 -2.087288,-0.24909 -3.489436,-1.78924 -4.094446,-4.49746 -0.248045,-1.11033 -0.338169,-5.19334 -0.184978,-8.38025 0.08045,-1.67354 0.0772,-2.97246 -0.01065,-4.27754 -0.0694,-1.0308 -0.129936,-3.26605 -0.13453,-4.96719 -0.0092,-3.41736 0.07131,-4.00637 0.769474,-5.62757 0.367028,-0.85227 1.261763,-2.00314 1.805258,-2.32201 0.708935,-0.41593 4.276021,-1.10344 7.547202,-1.45461 3.292464,-0.35344 5.218454,-0.45927 10.882819,-0.59808 15.287855,-0.37464 16.250789,-0.42307 19.764367,-0.99434 13.473719,-2.19068 33.553683,-14.22057 39.991443,-19.721517 -6.08098,22.194927 -6.84118,34.883097 -4.19914,52.347937 0.70164,8.61184 3.97693,8.18192 5.3631,13.41096 -19.94768,-5.77188 -19.975129,-6.18728 -33.88639,-10.03145 z"
       id="path1587"
       sodipodi:nodetypes="sccssscssssscccs" />
  </g>
  <g
     inkscape:label="Ebene 1"
     inkscape:groupmode="layer"
     id="layer1"
     transform="translate(-17.05853,-92.821206)">
    <path
       id="path890"
       style="fill:#000000;stroke-width:0.999999"
       d="m 429.75195,350.82031 c -1.25582,-3.1e-4 -2.55539,0.084 -3.90039,0.25586 -15.72676,2.00967 -26.57966,19.99267 -40.42773,27.50195 -58.25506,40.90734 -131.48772,50.59945 -201.13672,51.375 -28.32155,2.32434 -82.35379,-8.31295 -85.435548,29.83008 -19.6134,-0.97118 -33.487393,-10.87238 -34.349609,29.91016 -0.911278,43.10305 20.015608,35.31426 36.123047,32.77344 0,0 -2.148071,34.28304 21.96875,29.17773 0,0 -2.12245,28.74164 22.76367,21.44727 4.14056,34.92068 10.73822,83.70681 24.94141,116.3125 5.18101,11.89383 15.69389,12.49051 26.20117,11.65429 17.84587,-1.42027 59.2682,-0.35526 49.38867,-18.78125 -22.82639,-42.57282 -23.53298,-36.31429 -23.88476,-129.20703 79.96234,6.72049 142.56225,27.65921 191.98047,72.70313 17.42059,15.87862 39.21345,13.4699 49.42578,-24.76172 19.0128,-71.17777 16.04427,-142.65302 0.92578,-204.00586 -6.69476,-27.16825 -15.74666,-46.18085 -34.58399,-46.18555 z m -1.8789,9.05274 c 20.20467,0.10155 31.21785,26.37366 35.08593,60.04687 6.55272,57.04434 13.83513,91.25897 -6.44921,176.09961 -2.88356,12.06066 -15.16334,37.37968 -36.0625,24.6875 -18.81094,-11.424 -15.66241,-40.54229 -19.62305,-61.50586 -6.794,-57.5156 -6.53257,-116.74869 7.20703,-173.24609 3.59218,-9.28835 0.88569,-26.17732 19.8418,-26.08203 z m 1.08398,7.22265 c -15.80272,-0.0259 -19.76639,48.14014 -20.89453,65.9961 -2.84202,44.98291 -5.24835,64.49802 -0.66016,124.95508 5.37941,58.12346 32.59252,83.19067 44.8086,23.16406 12.09985,-59.45571 14.14208,-168.50161 -5.1543,-198.29102 -7.31467,-11.29226 -13.26204,-15.81629 -18.09961,-15.82422 z m -25.60742,7.91992 -0.31641,1.01758 c -10.61378,31.75624 -15.185,99.65517 -13.2207,149.64649 1.9005,27.15575 4.62673,54.63358 13.43359,80.55078 -89.63297,-74.24632 -181.6609,-63.97507 -277.95703,-65.75586 -21.23672,-4.01484 -14.2369,-33.97481 -14.57812,-50.68164 -0.31794,-15.56553 -5.7582,-38.25091 9.24609,-47.17774 35.27333,-8.89598 93.80203,-5.13297 128.35936,-8.05712 48.20924,-4.07932 131.84311,-34.22958 155.03322,-59.54249 z m 26.79883,2.53907 c 18.48697,0.50575 26.9069,64.98688 26.24414,112.54297 -1.53309,29.75656 -10.74346,136.73311 -29.51758,111.98828 -16.48872,-21.73263 -11.58672,-73.74426 -13.97266,-100.76172 15.67703,22.38879 28.09346,-6.67291 18.46485,-26.35352 -8.33292,-11.69658 -19.4375,5.3125 -19.4375,5.3125 2.8303,-20.66986 0.96756,-101.35845 17.33008,-102.70312 0.29852,-0.0245 0.59522,-0.0334 0.88867,-0.0254 z M 92.871094,470.29688 c 5.086499,-0.01 9.087886,1.1875 9.087886,1.1875 l 0.2754,36.18359 c 0,0 -31.931457,12.72186 -30.324224,-16.14258 0.993534,-17.84298 12.483438,-21.21185 20.960938,-21.22851 z m 40.765626,80.29687 c 21.57185,3.30369 23.16088,0.01 79.16016,2.50195 0.58497,35.2602 -6.78562,82.22497 12.35546,112.46289 21.41078,33.82349 11.00064,22.47769 -26.44336,28.35157 -26.70059,4.18854 -33.70524,-45.653 -38,-69.04102 -3.70908,-20.19863 -5.61227,-40.71277 -7.11718,-61.19531 -8.99671,1.80631 -26.99628,4.48471 -19.95508,-13.08008 z"
       transform="scale(0.26458333)"
       sodipodi:nodetypes="sscccscccssscssssssssccssscssscccccscscscscccscsccssccsssccc" />
    <path
       style="fill:#ff0d44;fill-opacity:1;stroke:#000000;stroke-width:2;stroke-linecap:round;stroke-linejoin:round;stroke-miterlimit:4;stroke-dasharray:none;stroke-opacity:1"
       d="m 115.01941,120.5343 34.4345,-25.270614 -24.15625,28.987504 61.75598,-9.45244 -55.45435,14.7038 50.83315,18.48478 -44.95163,-7.77201 27.72718,15.54402 -43.69131,-17.22445 15.54402,27.30706 -22.28018,-26.96547 c 0,0 5.40444,-3.67739 5.44698,-8.71322 0.046,-5.44441 -5.20809,-9.62896 -5.20809,-9.62896 z"
       id="path9070"
       sodipodi:nodetypes="cccccccccccsc" />
  </g>
</svg>
