<svg id="Ebene_2" data-name="Ebene 2" xmlns="http://www.w3.org/2000/svg" viewBox="0 0 288.1 400"><defs><style>.cls-1{fill:none;stroke-width:1.39px;stroke:#000;stroke-linecap:round;stroke-linejoin:round}</style></defs><g id="kopien"><g id="adr"><path d="M283.1 97.23c3.38 68.83-5.26 134.61-16.78 203.44-5.54 33.28-13.24 66.5-25.04 97.95-14.24-3.94-30.19-4.83-44.37-5.49-22.32-1.05-44.81 1.22-67.13.06-17.72-.89-33.68-5.32-50.79-8.54-15.56-2.88-31.46-4.05-47.41-4.22-8.47-.06-20.88 2.16-30.19 2.27 10.25-21.3 18.17-43.76 27.03-66 22.76-57.41 23.65-111.32 23.65-173.49 0-39.38 6.31-101-14.12-133.78 22.82 9.43 56.66 11.15 82.42 9.98 37.94-1.72 78.77-.67 116.71-4.66 11.63-1.22 37.67-12.59 49.52-13.37h.06c.78 30.06-5.1 65.39-3.54 95.84Z" style="fill:#e8e8e8;stroke-width:2.77px;stroke:#000;stroke-linecap:round;stroke-linejoin:round"/><path class="cls-1" d="M100.53 71.19c2.54-6.6 6.78-13.65 9.9-20.25 3.63 6.91 6.01 15.2 8.66 22.41.66-.49.83-1.21.53-2.16"/><path class="cls-1" d="M105.48 60.57c3.46 1.4 7.13 1.66 10.61 2.83M129.52 63.4c-3.57-2.69-12.34-2.56-10.64 4.28.95 3.85 9.16 5.83 10.64 2.09M131.64 52.07c-.09.15-2.06 22.6-.71 23.37M135.18 60.57c1.19 2 2.03 9.44 2.71 12.65-2.22-7.52 1.32-9.65 7.19-9.82M152.86 64.82c1.95 1.28 8.84-.79 6.04-4.28-2.71-3.37-7.37 2.41-8.11 4.69-3.89 12.06 8.65 7.86 14.09 5.25M179.02 59.86c-2.24-1.11-8.42-.61-9.05 2.99-.76 4.33 3.94 3.44 5.86 5.51 5.89 6.34-2.37 7.25-6.01 7.08M193.87 60.57c-3.59-.7-8.94 1.44-7.45 5.69.99 2.81 6.48 2.72 8.23 5.64-2.73 4.73-10.82 2.73-13.5 1.41M201.65 65.53c11.46 6.25 3.76-15.4-.03-.35-3.14 12.45 8.19 8.91 13.46 4.6M215.08 58.45c1.81 5.55 1.04 11.93 2.12 17.49 0-4.36 3.18-24.81 10.26-15.02 3.05 4.21-2.98 8.16-.55 11.17 2.78 3.45 7.83-1.55 8.68-3.02M81.08 118.64c.73-2.54 1.76-5.43 1.42-8.28 0 2.71 1.24 4.94 3.53 6.07.67-1.5 2.69-2.89 3.36-4.05 2.11 5.22 17.2.6 23.53 5.98.38-.09.75-.86 1.21-1.01 5.66 1.81 12.09-3.08 17.87-.83M80.38 125.01c-.73.15-1.43.09-2.12-.16 13.59-2.32 26.49 5.2 39.59 2.28M118.56 127.14c1.93-.72 6.25-.91 8.31-.6.37.89 1.31 1.74 1.74 2.63.57-.51 1.94-1.32 2.72-1.96 3.12.95 9.54 2.52 11.98.64M78.96 135.63c-.31.62-.58 1.27-.79 1.93 4.24-10.46 7.41 6 12.64-1.82.43 1.16 1.81 2.18 2.26 3.34.72-.42 3.19-.77 2.86-.62M108.66 137.05c-.41 1.31-1.01 1.96-.56 3.31.58-1.15 1.82-2.09 2.55-3.08.29.88.66 1.6.97 2.48 1.07-.35 2.93-.14 4.15-.5.4.97 1.13 1.6 1.5 2.64 4.64-1.45 8.24 2.13 12.6-.6M189.27 115.1c-.11 1.4.37 2.38 1.45 2.92.3-.32 1.12-1.31 1.34-1.61 3.85 3.59 7.95 1.59 10.78 4.97.59-.6 2.11-1.15 2.88-1.93.83.21 1.42 1.06 1.93 1.31M215.44 121.47c2.04-3.69 6.45-4.79 8.49-.62 3.65-4.17 12.04.18 17.68-1.5M188.57 132.09c13.76-4.4 31.14 6.94 44.55 0M240.18 135.63c2.37-.44 5.44-.79 7.65-1.26 1.8 1.68-1.39-1.15-.58-.16M186.44 147.67c3.79-2.47 15.95 1.42 22.63 1.42M215.44 150.5c1.36-.44 8.91-3 10.95-2.78 3.29.37 2.56 2.1 5.01 2.72 3.87.96 8.44 1.34 12.32.06M80.38 181.66c7.2-.65 13.4 1.46 19.08 5.04 5.66-5.64 12.44.96 18.4-2.92M122.1 184.49c5.16.57 8.26 1.17 13.44 0M78.96 192.28c2.33 0 6.21-.67 8.52-.04 1.82.5 2.48 3.07 3.64 3.47 3.04 1.06 8.65 1.1 11.17-.6M110.08 195.82c1.63.31 3.3.05 4.24-.71M80.38 205.02c-.47.74 1.39-1.48 1.59-1.9 1.79 2.51 13.2 5 15.38 4.02M103.71 206.44c3.91-.01 5.93 3.91 9.9.62 2.42 1.02 1.79.86 4.24.73 3.16 2.71 11.4.67 16.27 2.19M188.57 183.07c.59-.14 1.58.69 2.85-.64.34.59.47 1.38.81 1.95 4.91-.93 7.5 4.48 11.19 3.64M210.49 185.2c1.06 1.21 2.12.12 2.24 2 2.75-.53 5.52-.45 8.37.13M224.63 187.32c1.18-.24 2.36-.47 3.54-.71M229.58 188.03c6 .91 13.76-1.56 20.51 0M182.91 199.36c1.01-.29.84-1.07 1.98-.61.39 1.92 1.64 3.5 1.68 5.48.76-.71 3.16-1.61 4.12-2.81 1.9 1.98 3.44 2.08 5.66 1.48M202 203.61c2.32-.26 11.56-1.27 14.14 0M217.56 201.48c-.5 1.17-.72 2.38-.65 3.63 5.53-3.38 11.7-2.77 17.62-.79M187.15 214.94c4.52-1.12 8.77 4.87 15.06 4.04.11-.71-.43-.64-1.63.21M213.31 218.48c5.89-.32 18.27-2.84 24.04-.71M73.31 248.92c.26-.03 1.64.63 2.69.11.16 1.49 1.03 2.25.95 3.93 1.22-1.72 3.44-2.7 4.84-4.1 1.41 2.93 3.01 3.1 4.94 3.66.7.2 2.71-2.83 4.56-2.16 1.38.5 1.34 4.04 1.79 4.26 5.07 2.56 8.89 1.3 14.89 2.09M111.49 254.59c2.78-4.42 9.93-1.47 14.9-3.66.66.25.87.76.65 1.54M74.72 263.79c9.04.9 18.26 2.34 28.28 4.25M74.01 273c-.27-.08-.1-2.8.1.6 6.58-1.88 8.93 1.77 15.45-2.01M100.88 272.29c1.63 1.13 3.6 1.57 5.65.64 5.21 4.56 19.2-2.81 21.22 1.49M187.15 252.46c.48 1.09 1.28 1.54 1.57 2.75 5.77-1.72 12.1-1.4 17.87.11 2.33.61 5.63 1.89 7.77 2.11 1.26.13 10.46-.82 6.72-.72M229.58 256c1.94.34 3.96.34 4.95 0M173.72 263.79a6.68 6.68 0 0 0 2.97 2.32c5.33-5.27 8.15 5.38 11.88 1.22M193.52 266.62c4.25 0 10.18-3.84 13.44-.71M177.96 280.08c6.56 2.34 11.64-.14 18.03-.68 2.04-.17 3.88-1.75 6.06-1.51 1.21.13 2.05 2.93 2.4 2.93 3.24-.06 5.1-3.16 8.74-2.73 2.07 6.77 8.59.96 12.85.58M64.82 304.15c-1.26 1.62-2.31 4.43-2.74 6.25 1.08-.52 3.64-.58 4.75-1.2-.2 1.2.38 2.83.21 4.05 1.63.32 2.79-.26 4.14-1.31M79.67 309.81c.94-.24 1.89-.47 2.83-.71M87.45 309.81c5.64.16 7.3 2 12.02 2.12M103.71 313.35c6.67 1.78 15.57.2 21.21 3.54M61.29 319.02c-.49 1.31-.88 2.24-.58 3.5 3.5-2.57 8.18-4.33 10.48.11 1.54-1.34 3.89-1.42 5.51-2.1.11 1.35 1.09 2.5.96 4.06 5.33-1.81 6.63-1.84 12.27-1.32 5.03.46 11.25.51 15.91-1.42M57.75 328.93c.7-.55 1.37-1.07 2.12-1.48 1.77 1.6 2.8 3.88 2.94 6.34 5.48.28 13.87 2.3 18.28-1.31M86.03 336.01c1.43-1.41 13.61 1.88 17.32 2.85 6.12 1.59 13.84 1.07 19.45 4.23"/></g></g></svg>