<svg id="Ebene_2" data-name="Ebene 2" xmlns="http://www.w3.org/2000/svg" viewBox="0 0 302.82 400.01"><defs><style>.cls-2,.cls-4{stroke:#939393;stroke-miterlimit:10;stroke-width:1.67px;fill:none}.cls-4{stroke:#000}</style></defs><g id="kopien"><g id="checkliste"><path d="M261.45 186.07c-1.6 18.41 4.37 35.54 4.32 53.98-.08 31.73-4.3 62.66-5.95 94.08-.6 11.56-.52 23.44-1.61 35.03-.53 5.61-1.01 11.24-1.8 16.72-.43 3.03-2.03 11.38-1.86 12.73-9.01 1.29-18.32-.08-28.07-.08-40.34-.02-80.83-4.57-121-9.03-25.21-2.8-50.43-3.2-75.68-5.33-9.13-.79-19.51-5.13-28.84-5.31a.09.09 0 0 0-.1 0c.3-16.74 13.93-35.3 17.07-51.72 4.49-23.47 5.78-49.93 3.81-73.77-1.75-20.98-4.7-40.55-4.65-61.77.03-16.57-3.49-32.64-3.42-49.12.12-33.27 1.18-64.5 11.07-96.69 3.11-10.12 7.38-30.28 14.39-36.34h.03c9.22.12 17.42 2.14 26.46 2.56 15.66.74 30.58-3.59 46.07-4.27 39.28-1.74 76.37 9.23 115.5 3.27 24.3-3.69 50.94-5.04 74.23-10.12l.25.15c-9.21 15.28-16.75 29.42-22.57 47.15-8.69 26.44-9.72 53.53-14.11 80.64-3.06 18.82-1.89 38.27-3.54 57.25Z" style="stroke:#000;fill:#e5e5e5;stroke-miterlimit:10;stroke-width:1.67px"/><path class="cls-4" d="M80.74 34.54c.21-3.45-6.7-1.4-8.94.14-2.96 2.04-5.94 6.75-6.93 10.13-3.5 11.87 7.03 17.33 15.87 7.99M89.23 31.12c-.63 7.21-2.99 14.89-3.96 22.33-1.97-3.53 3.74-12.96 9.54-10.27 1.17 7.05-7.03 25.65 8.57 8.47M109.03 47.09c2.62 1.2 9.52-.19 7.6-4.23s-5.95.05-7.17 1.96c-6.83 10.58 3.02 18.14 12.02 6.84M137.32 41.96c-3.28-3.93-9.34 4.63-10.14 8.29-2.46 11.2 8.77 6.92 13.54 1.41M153.73 30.55c-1.76-2.31-3.58 8.7-4.09 10.99-.63 2.83-1.58 5.53-2.16 8.43-.46 2.31-1.38 5.41-.54 5.11"/><path class="cls-4" d="M148.64 44.24c3.15-4.28 11.41-10.38 16.41-13.12M155.43 39.11c1.09 5.12 1.27 13.3 1.13 17.68M171.27 31.12c-1.95 7.65-4.17 16.72-6.72 23.85 4.9.07 9.76-4.93 12.94-8.45M185.99 39.11c.47 3.96-2.68 8.7-3.27 13.12-1.34 10.02 5.68 6.25 9.49 0M189.95 25.42c.33 2.4-1.97 5.25 0 7.41M205.22 42.53c-1.11-1.42-7.02.15-6.24 4.01.66 3.22 5.31 2.19 6.97 4.99 4.6 7.79-6.58 5.47-10.28 4.58-.68-1.01-1.46-2.16-1.77-3.31M217.67 29.98c.68-2.7-.9 3.64-1.13 4.69-.75 3.46-1.62 6.89-1.98 10.39-.41 4.05-2.32 9.9-.19 13.35 3.9.96 7.33-1.76 10.09-3.91"/><path class="cls-4" d="M209.75 38.54c4.53 1.7 11.77-.77 15.28-.57"/><path class="cls-2" d="M43.96 88.16c.11-.58.07-1.15-.11-1.7-4.9 6.1-5.47 16.29-6.56 23.89.63-.21.43-.61 1.01-1.1"/><path class="cls-2" d="M38.3 85.31c3.79 1.08 7.36 2.08 11.6 2.28 3.69.17 8.65-1.59 11.6-.57"/><path class="cls-2" d="M61.5 86.45c-.21 2.71-2.38 7.28-2.83 10.84-.52 4.11.82 7.95.57 11.98M33.21 110.4c4.77 0 9.2-2.41 14.02-2.28 4.03.11 7.54 1.93 11.65 1.88-.4.59-1.03.54-1.91-.17M38.3 122.95c.91 4.04-5.42 18.83-1.13 21.1"/><path class="cls-2" d="M32.08 124.66c6.16-.8 17.74-1.08 23.76 1.14"/><path class="cls-2" d="M55.84 122.38c.43 4.58-.94 9.14-1.13 13.73-.14 3.32.74 7.52.57 9.65"/><path class="cls-2" d="M34.34 145.19c7.48-2.06 19.82-2.38 26.59.57M33.58 167.07c-6.59 4.22-3.25 22.38.34 22.57M31.87 166.34c7.77 1.29 15.49.53 23.98.53"/><path class="cls-2" d="M29.82 189.11c2.75 1.26 23.02.19 23.76-2.28"/><path class="cls-2" d="M56.41 164.59c2.07 5.84-7.81 21.81-1.51 25.06M36.04 215.35c6.69-2.23 16.2-3.95 22.07-3.99M36.04 215.35c1.7 7.41 5.66 22.24 5.66 27.95M41.7 241.59c3.61.97 12.69-1.22 16.93-2.32.07-.61-.11-1.17-.52-1.67M56.41 211.93c-1.86 8.1-.75 21.19 3.98 27.78M38.87 267.82c-.39-.64-.04-1.25-.93-1.74 5.21.61 10.01-2.07 15.08-2.54 3.52-.33 6.69.71 10.18.29"/><path class="cls-2" d="M37.74 264.97c.75 2.48 1.41 8.34 2.23 12.11.62 2.82.86 14.4 1.16 14.7"/><path class="cls-2" d="M40 290.64c4.01 2.04 15.94 1.99 18.67-1.71"/><path class="cls-2" d="M61.5 263.26c-1.96 10.69-9.64 18.12-2.83 28.01M38.87 314.59c-.03.19-4.42 17.56-1.13 17.68"/><path class="cls-2" d="M37.17 330.56c4.06-.22 8-.77 11.85-1.03 2.99-.2 6.74 1.19 9.08-.11M37.74 314.59c5.78.14 11.44-2.81 16.97-1.14"/><path class="cls-2" d="M57.6 311.17c-.94 7.76-4.26 11.77-.91 19.39M76.78 105.84c3.44-4.73 3.95-9.94 6.82-14.66-.3 3.5 1.86 10.36 6.2 8.39M94.32 93.29c.36 2.02 1.34 3.48 2.95 4.36.74-1.45 2.18-2.1 3.13-3.16 3.62 8.46 6.24 2.18 13.07 1.74.91 3.78 5.66 3.49 8.01 1.62M126.01 102.99c2.52-5.42 4.54-10.69 6.68-16.13.86 5.63 0 12.75 2.91 17.73 2.94-3.67 4.78-8.4 6.29-12.88-.34 8.13 1.97 9.11 9.39 5.2 4.83 6.46 6.91 2.98 13.02-1.18-.65 1.81.04 3.13.3 4.94 3.29 0 6.16-2.45 9.4-3.36.44 1.72 1.64 2.98 2.48 4.48 2.41-1.23 4.46-.55 4.95 2.25 3.39-4.09 4.72-9.87 8.03-14.01-1.65 3.22-1.81 7.75.46 10.75 8.29-6.23 14.09-2.48 21.57 3.89-5.31 3.16-12.62 8.97-14.85 1.87-3.71-11.81 4.85-8.49 10.36-7.02 10 2.66 29.27-.17 38.96-2.8M78.48 129.79c-.68-1.3-1.67-1.95-2.96-1.92-4.22 4.55-2.69 9.14-2.01 14.42.88-4-3.6-15.41 5.01-10.99 3.03 1.55 4.96 8.53 8.15 8.8 2.6.22 6.78-6.07 8.69-7.86.59 12.64 10.55 3.7 15.45.84 4.59 8.08 8.28 8.61 16.96 4.72.83 1.32.98 3.14.63 4.46-2.5.12-11.66-.72-12.67-3.55-1.75-4.91 4.81-8.72 8.58-8.13 4.62.72 7.28 7.01 11.92 7.67 3.25.46 5.57-1.46 8.5-2.56 2.45 2.01 5.14-.73 7.75-1.79.61 2.13 1.48 4.16 2.48 6.14 2.41-1.53 4.55-4.26 6.61-6.31-.02 3.48 1.39 9.08 5.16 5.73M79.04 185.69c3.28-4.88 1.91-11.61 6.11-15.97 1.59 3.4 2.48 8.86 5.66 10.8 4.64-5.65 4.38-4.67 9.42-1.67 5.81 3.45 10.05 1.03 15.57-2.81 1.84 2.32 3.49 6.36 6.75 6.88 3.95.62 6.97-4.37 11.04-2.66 2.26.94 3.78 3.66 6.58 4.74 2 .77 2.45.09 4.07 1.79 1.55-3.17 3.33-6.51 6.04-9.07 0 3.25.84 6.5 2.85 8.99 3.74-3.37 8.76-3.57 13.38-4.47 7.06-1.39 14.51-2.74 21.73-3.96M79.61 235.31c.94-3.97-.32-7.65 1.12-11.78 1.46 3.47 1.6 7.98 3.85 11.02 2.8-2.7 4.29-6.05 6.22-9.33.89 6.09 3.5 8.56 8.14 7.48 3.08-.71 2.49-2.47 5.22-1.86s4.1 4.34 7.07 5.01c.52-4.75-5.13-8.05-4.94-13 4.67.3 10.47 1.99 9.64 7.88 3.07-3.89 9.11-6.6 11.38-11.4 2.94-6.24-2.96-10.09-2.93-15.3 6.24-.88 11.92 4.92 11.72 11.14-.19 5.72-6.23 9.99-4.04 15.94 2.54-.86 5.26-1.29 7.61-2.69.6 11.36 15.82-6.65 13.71 3.42.65.2 1.8.15 2.48 0 .26-.54.49-1.1.69-1.67M171.27 235.88c2.09-7.92 2.1-16.43 4.51-24.35 2.6 7.21 1.69 16.08 6.78 22.17 3.84-1.87 3.45-6.22 5-9.66.95 3.46 2.09 10.97 6.65 11.6 4.23.59 4.06-3.37 6.93-5.4 4.92 5.81 20.87 1.67 27.85 1.65M82.44 288.36c.13.86-.07 1.31-.61 1.34.03-4.1 1.17-8.93 3.92-11.96 0 .18-.06.32-.22.42 2.73-5.32 1.21-7.35-.98-12.57-1.36 3.86 3.21 15.84 6.89 17.93 3.88 2.2 4.96-.49 9.01-.76.77 2.57 1.3 5.21 1.34 7.86 2.64-3.95 3.42-2.48 6.16-2.84.49-.06 2.25 1.59 3.64 1.42 1.51-.19 5.14-5.26 6.1-6.53 2.24 1.86 3.83 1.71 6.28 1.74 1.89.02 3.71-2.25 5.92-1.15 1.89.95 1.35 3.96 2.7 5.19 3.25 2.96 6.98.45 9.8 3.86 1.39-1.36 2.85-2.07 4.56-2.8M162.79 289.5c3.71-7.05 1.64-18.28 3.43-26.07 1.05 6.35 2.98 12.56 2.88 19.19 1.39-.84 3.26-1.63 4.34-2.77 1.1 3.67 1.32 4.89 4.84 5.55 2.19.41 4.88-2.18 7.34-1.59 1.08.26 1.29 2.64 2.8 3.02 4.68 1.17 22.36-6.15 23.59-1.89M81.87 336.84c-3.05-1.98-.63-16.91.55-20.93 3.15 6.33 3.59 14.55 7.94 20.11 7.11 9.1 10.71-.06 13.01-7.56 1.35 2.42 3.28 4.69 5.89 5.6 3.36 1.17 8.1-1.87 10.55 1.51-3.92 1.79-10.75 2.7-13.74-1.13 1.32-7.14 13.04-4.63 17.81-4.02 7.37.95 9.04-2.15 15.6-4.41 1.39 2.91 7.38 5.56 10.53 5.08 3.14-.47 4.27-2.98 7.02-4.96.52 4.12 1 8.83 3.37 12.3.3-.67.8-1.33 1.12-1.98 2.83 9.13 2.63 25.83-5.16 32.28-5.71-3.29-4.69-12.53-.29-16.38 2.95-2.57 6.49-3.38 9.21-6.68 3.25-3.96 6.92-10.49 7.68-15.69-1.91 1.77-2.61 4.46-2.13 6.98 4.03-1.38 6.29-5.61 10.16-7.4 5.75-2.65 3.1-.52 7.82.72 8.54 2.24 17.56-.3 26.04-1.95 0 .33-.18 2-.02 1.1"/><path d="M58.72 115.56c-5.5 1.35-9.92 6.2-12.94 10.83-1.08 1.66-2.04 5.1-3.3 7.6-2.33-2.21-5.34-3.85-8.14-3.96-4.84-.2-4.72 7.12 0 7.51.57.05 3.96 2.79 4.23 3.52.89 2.42 3.32 3.57 5.67 2.33 3.59-1.89 5.01-5.88 6.87-9.25 2.78-5.04 7.31-8.07 11.57-11.71 3.27-2.79-.28-7.77-3.97-6.87Z" style="fill:#007000"/></g></g></svg>