<svg id="Ebene_2" data-name="Ebene 2" xmlns="http://www.w3.org/2000/svg" viewBox="0 0 376.99 400"><defs><style>.cls-1{fill:#ffe1e1;stroke:#311b92;stroke-width:3px}.cls-1,.cls-2,.cls-3,.cls-4{stroke-miterlimit:10}.cls-2{fill:none}.cls-2,.cls-3,.cls-4{stroke:#000;stroke-width:1.69px}.cls-3{fill:#311b92}.cls-4{fill:#00f59f}</style></defs><g id="kopien"><g id="shirt"><path class="cls-2" d="M254.79.83s-.03.02-.05.03"/><path class="cls-4" d="M260.98 1.7c-3.15 5.75-7.74 8.91-17.32 13.21-24.22 10.85-51.34 17.56-79.4 16.18-26.38-1.3-43.17-8.59-61.78-22.42 4.1-1.57 6.41-2.87 8.1-3.74 13.41 11.98 32.16 16.13 48.08 18.42 29.9 4.3 69.65-6 96.08-22.47 3.42.35 4.05.83 6.16.83h.08Z"/><path class="cls-2" d="M254.74.87c-.08-.02-.17-.02-.27-.03"/><path class="cls-4" d="M72.41 166.52c-.88 2.11-1.92 4.22-3 6.31-9.38-7.12-24.77-15.75-36.44-20.02-9.68-3.56-22.3-2.72-31.62-8.57-.94-2.55-.32-5.47 0-8.7 4.79 1.69 6.43 2.55 10.69 3.85 8.77 2.65 20.41 6.54 29.28 9.19 12.11 3.59 22.16 9.11 31.1 17.95Z"/><path class="cls-2" d="M81.28 124.34v-.02"/><path class="cls-3" d="m372.5 85.93-.13.12c-5.45 4-8.8 9.18-11.77 15.5-3.12 6.66-4.81 12.94-7.93 19.47-4.23 8.77-11.42 15.28-16.56 23.13-9.68-6.14-24.13-21.3-30.47-27.39-6.31-6.04-13.66-10.02-19.82-15.82 10.44 16.26 13.68 45.2 18.6 63.81 10.46 39.45 17.05 65.98 22.38 109.64 1.77 14.5 5.52 41.49 5.93 58.92.02.91.05 1.8.1 2.7h-.1c-12.94.91-29.51 5.9-40.73 8.01-24.03 4.54-43.56 3.61-66.08 10.09-.67.2-1.37.39-2.04.59-19.78 5.75-48.81 11.89-68.45 20.8-17.84 8.1-45.47 16.87-70.34 18.01 1.13-20.86 2.65-41.59-.05-62.7-3.29-25.59-.66-51.97-.67-77.89 0-20.63-3.04-39.84-.86-60.32 2.31-21.69 3.39-46.82-2.23-68.25-2.14 11.35-4.6 22.48-6.49 34.33-.42 2.66-1.28 5.28-2.38 7.86-8.94-8.84-18.99-14.35-31.1-17.95-8.87-2.65-20.51-6.54-29.28-9.19-4.27-1.3-5.9-2.16-10.69-3.85 1.3-13.63 7.1-33.57 11.4-44.06 4.71-11.52 11.99-21.34 16.63-32.79 2.68-6.65 2.33-11.98 7.49-20.12v-.02c8.29-8.7 42.26-22.08 62.35-28.2.99-.71 2.12-1.25 3.27-1.69 18.6 13.83 35.4 21.12 61.78 22.42 28.06 1.38 55.18-5.33 79.4-16.18 9.58-4.3 14.17-7.46 17.32-13.21 15.43-.06 41.33 7.69 59.08 9.35 4.32.41 8.28 2.52 11.03 5.88 9.53 11.67 14.72 29.17 23.04 38.37 7.81 8.62 8.5 20.53 17.84 30.09.19.19.35.37.54.54Z"/><path class="cls-4" d="M375.76 88.78c-8.58 9.78-15.48 23.55-19.61 33.79-3.58 8.87-9.66 16.31-15.31 23.9h-.02c-1.37-.42-2.95-1.23-4.71-2.33 5.14-7.84 12.33-14.35 16.56-23.13 3.12-6.53 4.81-12.8 7.93-19.47 2.97-6.33 6.32-11.5 11.77-15.5l.13-.12c1.08 1.08 2.18 2.04 3.25 2.85Z"/><path class="cls-3" d="M285.82 100.93c-4.32-4.08-8.06-9.07-10.41-16.29"/><path class="cls-2" d="M285.82 100.93s-.02-.03-.03-.05"/><path class="cls-4" d="M333.54 344c-4.79.05-9.65-.03-12.92.44-12.73 1.8-25.25 4.82-37.74 6.8-19.06 3.02-37.17 3.2-55.43 8.26h-.02c-.67.17-1.32.35-1.99.56-2.72.81-5.43 1.72-8.15 2.77-20.12 7.81-44.94 15.11-65.53 22.69-15.23 5.58-31.79 9.33-47.79 11.66-3.51.51-11.27 1.05-19.18 1.89.1-1.86.19-3.71.3-5.57 24.88-1.15 52.5-9.92 70.34-18.01 19.63-8.91 48.66-15.05 68.45-20.8.67-.2 1.37-.39 2.04-.59 22.51-6.48 42.04-5.55 66.08-10.09 11.22-2.11 27.79-7.1 40.73-8.01h.1c.12 2.75.35 5.43.71 8.01Z"/><path class="cls-3" d="M79.12 117.29c.83 2.29 1.53 4.64 2.16 7.03v.02"/><path class="cls-2" d="M336.11 144.14c-.08.12-.15.24-.24.35"/><g id="hand"><path class="cls-4" d="M175.33 179.8c-1.94 2.29-3.3 3.83-6.29 4.51-3.51.81-5.25-2.54-6.61-6.05a90.49 90.49 0 0 0-4.99-10.84c-1.44-2.65-2.97-4.24-.73-6.68-1.47-1.41-2.66-2.96-3.95-4.77-2.71-3.79-5.37-7.33-6.13-12.25-.36-2.3-.68-4.61-.56-6.91.05-1.08.36-2.17.6-3.26-4.84-2.61-11.44-6.92-11.8-13.43-.36-6.66 1.64-16.9 7.65-19.93 1.66-.84 4.8-2.15 6.61-1.2 2.22 1.16 1.89 3.25 2.05 5.25.33 3.83 4.03 7.11 4.85 11.23.51 2.58.26 4.96.41 7.56.12 2.25 1.92 4.2 1.99 5.97l-.11.14c.78 1.12 1.14 2.81 1.84 4.05 2.34 4.12 5.66 6.78 5.57 11.96-.08 4.28-.8 4.59 2.25 7.5 3.3 3.15 4.42 5.45 5.25 10.07.68 3.79.63 7.99 2.5 11.44 1.79 3.28 1.72 3.16-.39 5.64Z"/><path class="cls-2" d="M195.53 79.54c-.43-.56-.75-1.1-1.03-1.58"/><path class="cls-4" d="M196.95 100.09c.09 3.59-2.96 7.02-.8 9.93 1.21 1.63 1.83 1.2 2.09 3.57.31 2.9-.37 5.56-.76 8.42-.34 2.5-.69 5.64.21 8.05.57 1.54 1.6 2.21 2.15 3.76.48 1.34.9 3.42 1.14 4.81.32 1.87-1.09 4.43-.21 6.13.46.88 1.86 1.21 2.48 2.27 1.01 1.71.67 3.05.57 5-.23 4.73.53 9.31.71 14.08.09 2.57.36 7.42-1.58 9.4-1.66 1.7-5.05 1.3-7.22.43-3.37-1.33-3.49-2.22-4.17-5.79-.45-2.34-.39-4.84-.7-7.1-.35-2.54-1.77-5.22-2.52-7.75-.87-2.93.05-4.17.57-6.88.72-3.78-1.08-1.58-2.56-3.23-.74-.83-.35-3.96-.45-5.13-.42-4.56-2.35-8.33-3.15-12.73-.45-2.47-1.27-5.54-1.46-7.96-.12-1.52.65-3.07 1.54-4.49-1.52-1.84-2.72-4.27-3.53-5.81-2.93-5.59-2.72-10.43-1.09-16.42 1.22-4.48 2.16-9.2 5.77-12.08 2.02-1.62 4.39-3.59 6.8-4.36 2.27-.73 2.81.22 3.72 1.76l-.09.06c.99 1.79 2.03 3.91 2.71 5.9 1.86 5.35-.33 10.73-.18 16.17ZM235.9 128.29c.25 2.82 1.63 5.37 1.45 8.32-.11 1.91-.97 3.54-1.09 5.44-.09 1.43.37 2.79.46 4.21.18 2.75-.69 5.46-.63 8.14.04 1.71.91 3.46.98 5.08.09 2-.45 2.75.16 4.67.63 2 1.04 1.85.32 4-.84 2.51-1.7 4.65-2.04 7.35-.3 2.33-.22 4.86-.81 7.13-1.26 4.79-3.71 2.87-6.18.93-3.15-2.46-4.79-3.63-5.74-7.78-.97-4.23-.97-8.59.08-12.64.79-3.05-.37-6.12-.58-9.42-.24-3.99-.57-8.05-.62-12.05-.03-2.32 1.08-3.95.85-6.13-.13-1.37-.91-3.69-1.35-5.05-3.5-10.68-8.1-22.31-.41-32.4 1.43-1.88 3.16-3.22 4.43-5.27 1.33-2.14 1.4-2.25 3.68-2.46 1.88-.17 3.19-.22 4.84 1.46.91.93 1.23 1.82 1.36 2.75v.08c.02.15.04.29.05.45.16 1.4.59 2.76.88 4.39.52 2.94.69 6.19.67 9.17-.05 6.72-1.35 12.82-.75 19.64Z"/><path class="cls-4" d="M274.21 141.47c-.35 6.25-2.29 12.81-4.47 18.06-1.26 1.7-2.18 8.01-2.52 9.75-.77 3.9-.94 7.45-1.23 11.38-.28 3.74-1.67 7.63-2.39 11.3-.61 3.12.34 6.46-.36 9.49-.63 2.77-2.01 4.95-1.83 7.93.07 1.14.56 1.93.38 3.01-.11.64-.82 1.51-1.01 2.17-.51 1.75-.13 1.94.29 3.6.42 1.68.41 1.21.18 2.84-.25 1.82-.92 3.42-.98 5.23-.1 2.71.63 4.34-.57 6.82-2.28 4.7-5.59 5.78-3.24 11.43.92 2.22 1.16 4.49 1.34 6.83-.93 2.49-.86 5.25-1.67 7.87-1.02 3.3-1.94 7.07-2.35 10.55-.62 5.2-.68 9.58-3.26 14.1-2.69 4.71-6.49 7.18-10.3 10.76-4.35 4.1-11.17 8.17-16.85 4.57-2.74-1.74-4.48-4.02-7.95-4.23-2.97-.19-5.53 2.28-7.41 4.63-3.71 4.66-8.75 3.9-14.14 3.63-5.1-.24-10.51-1.99-14.91-5.05-4.54-3.17-6.69-8.37-9.36-13.13-1.68-2.98-4.3-5.41-6.61-8-1.62-1.81-2.8-2.61-4.89-3.48-.9-.38-3.17-1.17-3.85-1.92-.82-.9-.62-2.85-.82-3.93-.33-1.78-1.14-3.14-1.61-4.82l-.09-.02c.6-4.66 3.91-8.69 2.83-13.84 3.38.91 7.12-3.26 7.98-6.4.78-2.84-.8-4.09 1.66-5.86 2.3-1.66 5.11-1.82 7.55-3.02 2.15-1.05 4.14-2.72 5.05-4.79.49-1.12.25-2.34 1.59-3.17.73-.47 2.52-.17 3.51-.84 3.31-2.24 2.87-5.37-.47-7.47-1.9-1.19-4.53-.92-6.22-2.14-1.74-1.25-2.86-5.04-3.86-6.93-.61-1.14-.91-2.38-1.86-3.36-.85-.87-2.3-1.31-2.86-2.55-1.63-3.58.74-9.23 2.76-11.92 3.29-4.4 7.39-3.85 12.04-5.17 1.83-.52 3-1.01 4.83-1.2 1.75-.18 2.97-1.34 4.48-1.64 1.93-.39 3.61 1.39 5.26 2.18 2.59 1.23 3.79.5 6.71-.54 5.39-1.93 10.55 3.63 15.64 5.41 1.41.49 2.57.18 4.13.98 1.88.96 2.56.95 4.56 1.32 2.48.45 6.28 2.2 8.31 3.66 2.08 1.51 1.25 4.3 2.95 6.07 1.42 1.48 4.12 1.5 5.78 3.12.78.75 1.36 1.29 1.91 1.67l.54-.23c.98.78 2.89-.08 3.6-.98 1.16-1.46.61-4.05.39-5.81-.44-3.52 1.54-5.1 2.9-8.12 1.23-2.73.76-4.59.46-7.49-.56-5.34-.45-10.88 1.76-15.7 1.94-4.23 2.09-9.99 1.25-14.68-1.08-6-.93-10.46 1.93-15.91 1.58-3.02 3.98-4.32 7.03-5.12 2.96-.77 5.39-2.16 7.47.97 1.52 2.29 1.03 5.42.89 8.1Z"/><path class="cls-2" d="m269.74 159.53-.21.5M269.76 159.51l-.02.02M246.23 206.59c-.08-.05-.15-.1-.23-.16"/><path class="cls-4" d="M152.33 255.29c-1.93 4.71-8.02 3.77-11.73 1.95-2.77-1.34-5.09-3.47-8.04-4.51-1.89-.67-5.08-.29-6.69-1.16-2.35-1.27-1.32-4.43-3.49-5.81-1.99-1.26-3.06.37-5-1.25-2.05-1.72-1.64-4.41-3.71-5.93-3.08-2.28-6.41-1.87-8.6-5.73-1.27-2.23-1.68-6.39-1.71-8.92-.04-4.26 1.03-7.65 4.77-9.34 5.45-2.47 10.68 1.32 14.66 5.53 4.84 5.11 6.54 11.89 12.53 15.9 4.13 2.77 10.86 2.66 12.02 5.33 5.22.22 6.63 9.95 5 13.91Z"/></g><path class="cls-1" d="M136.25 111.72c2.12 3.52 3.15 7.52 5.19 10.67.12.25.24.5.36.76.36.76.72 1.52 1.07 2.28.17.38.32.72.45 1l.4.88-5.92 1-.84.14c-2.03.88-3.75 1.18-5.15.86-.18-.04-.35-.09-.51-.15-2.64-1.08-3.48-3.34-3.74-5.66-1.54 1.94-.12 4.13-1.1 5.91-.18.18-.44.3-.79.37s-.81.06-1.39-.02l-1.37.22-1.5.23-1.33.21c-2.24.63-6.24 1.67-6.88 1.16-1.38-3.37-2.37-7-2.93-10.71-.05-.31-.09-.62-.13-.93-.05-5.64-3.03-16.46 5.98-14.61.26-.02.51-.05.76-.07 2.54-.23 4.95-.5 7.37-.77-.15.25-.27.51-.37.78-.1.27-.18.54-.24.82-.24.95-.29 1.85-.19 2.68.02.17.05.33.08.49.21 1.16.92 2.25 1.63 3.35-.13-1.16-.26-2.32.89-3.77.08-.14.16-.27.24-.41.31-.55.6-1.14.75-1.8.1-.24.2-.48.29-.73.09-.25.16-.5.22-.75.29-.76.48-1.27.48-1.27l2.06-.12c.41-.02.87-.05 1.36-.08.41-.04.81-.09 1.2-.13 2.63-.29 5.4-1.77 8.36-1.52-.25 2.97-2.96 5.03-4.2 8.05-.08.2-.14.4-.2.61-.05.21-.1.42-.13.65l-.22.39ZM159.11 126.18c-3.07 0-5.91.9-8.62.27-.25-.05-.5-.11-.73-.17-1.64-.45-2.79-1.25-3.63-2.47-.17-.25-.34-.53-.49-.82-.35-.75-.65-1.5-.89-2.24-.08-.25-.16-.5-.23-.75-.16-.29-.29-.58-.41-.86-.26-2.17-1.17-5-.42-7.65 0-.3 0-.6-.01-.9s-.04-.61-.07-.93c0-.23.02-.46.04-.68.02-.27.05-.54.09-.8.35-4.74 6.02-6.55 10.08-7.16.28-.05.56-.1.86-.14.91-.15 1.89-.28 2.95-.41.21-.03.42-.05.64-.08 3.5.32 7.5-.76 10.58.51.16.07.32.14.48.22 1.51-.09 1.19 2.3 2.8 2.93.09.16.17.32.25.47 1.07 2.2 1.37 4.6 1.98 6.71l.15.48c1.32 2.26-.1 5.36.13 7.48-.04.18-.08.35-.14.52-.49 1.51-1.64 2.51-2.65 3.48-.22.17-.44.34-.67.5-1.61 1.1-3.46 1.77-5.31 2.03-.29.04-.58.07-.86.09-1.94.17-3.68.36-5.25.32-.21.01-.42.03-.64.05Zm-.39-17.87c-.17.26-.31.52-.42.78-.09.28-.17.57-.24.85-.18.27-.32.54-.44.81-.69 2.4.15 4.65 1.57 6.84.13-.13.25-.25.35-.38 1.53-1.89-.21-3.89.01-5.93-.04-.25-.09-.49-.14-.73-.05-.24-.1-.47-.16-.7 0-.23 0-.45.02-.68.02-.23.06-.46.12-.69-.17-.18-.39-.22-.68-.19ZM208.69 120.44c-3.36.2-6.84.6-10.44.5-.12 0-.23.01-.35.02-1.33.08-2.49.21-3.07.28-.78-1.68.12-4.13-.72-6.38l-1.74.2c-.32 2.39.46 4.06.82 6.55l.03.36s-2.91.39-6.01.8l-.62.08c-2.2-.44-5.49 1.69-6.2.6-.6-.48-.95-1.17-1.14-1.98-.04-.16-.07-.33-.1-.5-.05-3.84.65-8.03-1.28-11.72-.04-.17-.07-.34-.11-.51s-.07-.34-.11-.51l-.09-.44-.09-.44c-.4-2.9-2.46-5.61-.98-8.12 1.99-3.16 6.25-1.88 9.71-2.01h.29c.68-.02 1.34-.07 1.97-.18.33-.04.64-.08.93-.12l1.87-.24.41 4.83.03.39c.52 1.43-.25 5.04.91 4.91 2.9-.33-.39-3.48.72-5.66 0-.13-.01-.26-.02-.38l-.22-4.01s1.81-.16 4.1-.36l.37-.03c2.64-.38 6.57-2 8.51-.45 1.23.45.97 3.42 1.05 5.6l.03.37c.31 3.79.71 8.59 1.02 12.36 0 .11.02.21.03.32.15 1.65.41 3.97.47 5.79v.11ZM236.08 117.43c-1.17-.11-2.33.02-3.4.42-.19-.02-.38-.03-.57-.05-3.96-.31-7.29.1-10.85 1.1l-.36.03c-.13.01-.26.02-.39.04-8.61 2.69-7.52-3.3-8.54-9.69l-.04-.37c-.49-4.64-1.02-9.61-1.31-12.29l-.05-.45c.72-.88-.51-1.33.36-1.63l.38-.05 1.76-.24c.1-.01.2-.03.31-.04 3.52-1.31 7.64-1.18 11.12-1.58.1.87.2 1.74.31 2.58.02.17.05.33.07.5.98 3.81.86 7.94 1.33 12.13.02.15.03.3.05.45.18-.06.35-.11.53-.16s.35-.1.52-.15c2.38-.66 4.49-.88 7.09-1.02.1-.02.19-.03.28-.05l1.17-.19.04 3.8v.39c.89 2.06-.66 4 .19 6.18v.31ZM251.26 98.15c.32.27.39.85.45 1.43.58-.07 1.74-.2 2.47-.27.12-.02.23-.05.35-.07 2.46.33 5.03-2.89 6.45-.7 2.06 2.89 1.35 4.87-.51 5.96-.14.08-.29.16-.45.24-1.74 1.15-4.19.26-6.65 1.15-.17.03-.27.05-.27.05s0 .29.01.58c3.03 1.37 6.25-1.34 9.14-.02.17.02.34.04.51.05.34.03.66.04.97.03l.04.4c.21 2 .76 7.34.76 7.34l-1.63.15-.46.04c-2.96.89-5.66 1.18-8.46 1.27-.18 0-.35.01-.53.01-1.84.22-3.68.44-5.56.59-.17.01-.34.03-.51.04-6.51 2-7.67-3.15-7.93-8.52-.02-.12-.03-.24-.05-.36-.18-1.46-.37-2.99-.56-4.49-.02-.14-.03-.28-.05-.42.51-3.42-.53-7.41-1.5-10.83 2.26-.25 4.51-.51 6.78-.72.16-.02.32-.03.49-.04 3.04.42 5.57-.16 8.08-.75l.5-.12c2.71-.45 6.64-2.07 8-.46 1.54 1.63 2.04 3.3 1.7 4.67-.03.14-.08.27-.13.4-1.31 2.53-4.14 3.44-7.13 2.63-.11.01-.22.03-.33.04l-.38.05c-1.07.07-2.23.2-3.36.58-.18.03-.28.05-.28.05ZM162.25 279.4c-3.54-.33-7.82-.2-10.85.34-1.79.32-2.12.48-2.04.9s.3.48 3.59.42c9.5-.1 10.75.71 11.65 5.74.17.95.26 1.8.26 2.57 0 .19 0 .38-.02.56-.26 4.85-5.6 5.8-9.81 6.61-.12.03-.25.05-.37.08-.63.13-1.29.25-1.99.38a51.105 51.105 0 0 1-2.74.41c-4.35.76-11.96 2.73-11.11-3.68-.02-.24-.04-.49-.07-.73l-.06-.7c-.01-.15-.03-.3-.04-.45.21-.45 0-1.63-.1-2.23 1.99.87 4.37.45 7.02.7.25 0 .5 0 .74-.01 1.73-.04 3.39-.17 4.78-.42.76-.14.93-.34.87-.72-.09-.48-.45-.52-2.18-.46-.71.02-1.38.03-2.01.03h-.37c-6.26 1.65-12.66-3.33-10.59-10.18.07-.23.15-.46.24-.68 3.2-8.07 16.68-6.25 24.21-7.24.18 0 .36.02.54.03.18.01.36.03.54.04l-.08 8.68ZM190.44 274.35q-.72.01-1.2.1c-.21.01-.42.03-.63.05-1.48.12-3.03.35-4.13 1.41-.59.11.42 2.37.66 3.42.03.14.05.28.08.43.16.87.33 1.79.51 2.73l.09.49c.36 2.43 1.59 5.89.61 7.29-2.06 2.2-6.42 1.76-9.92 1.93l-.44.06-3.52.45-.86-7.49-.06-.51c1.19-5.49-2.41-8.52-7.54-6.38-.11-.59-.32-1.78-.17-2.29l-.06-.44-.45-3.02-.06-.42c.06-1.06-.15-2.25-.15-2.25 3.94-1.93 7.61-1.97 11.7-2.71.22-.04.43-.07.65-.11 1.94-.32 3.86-.63 5.93-.93.16-.02.31-.05.47-.07l7.08-1.13.45 2.75c.03.15.05.31.08.47-.23.81-.12 1.55.08 2.27.05.18.11.36.16.54.1.89.32 2.07.57 2.83l.08.52ZM207.21 287.44c-.14.02-.29.05-.43.07-3.65.61-6.31.75-8.31.31-.2-.04-.38-.09-.57-.14-3.35-.74-4.58-3.92-5.29-7.1-.05-.23-.1-.45-.14-.68.04-3.58-2.38-6.83-.83-10.83.04-.17.08-.34.13-.51.43-1.49 1.25-2.64 2.58-3.58.15-.1.3-.21.46-.3 3.19-2.21 7.45-2.36 11.35-3.35.2-.11.41-.22.62-.32 3.97-1.86 8.71-.86 12 2.18.13.14.26.29.39.45.5.62.95 1.36 1.35 2.21.1.21.2.43.29.66.11.19.2.39.29.58s.17.4.25.6c.94 3.9 2.27 7.95 1.12 12.48-.07.21-.14.42-.23.62-.5 1.21-1.3 2.25-2.47 2.94-.17.11-.35.22-.54.33-.17.1-.35.19-.54.29-3.69 1.41-7.25 2.05-10.69 2.92-.13.03-.26.05-.82.15Zm-.78-18.02c-1.87 2.3.33 4.36-.02 6.11l.06.43c.04.28.07.55.1.8.03.14.06.27.09.4s.06.25.09.36c.03.14.07.26.1.38-.22 2.03 1.46 1.12 2.05 1.01-.18-.99-.28-1.57-.32-2.27 0-.14-.01-.29-.02-.44-.1-.44-.2-.85-.29-1.25-.04-.2-.09-.39-.13-.59-.41-1.98-.62-3.17-1.19-4.91-.15-.07-.32-.07-.53-.03ZM238.41 275.41c1.51 2.25.25 5.53-2.01 6.55-2.76 1.72-5.45.36-7.69 1.26-.21.06-.42.14-.62.22-.2.08-.41.18-.6.28-.25.04-.46.02-.59-.07-.72-.83-1.17-1.82-1.48-2.91-.06-.22-.12-.44-.17-.66-.43-4.64-1.27-9.38-2.51-14.13l-.12-.6-.34-1.68c-.03-.14-.05-.27-.08-.41-.4-1.37-.83-3.75-.83-3.75 5.13-2.14 10.58-2.5 15.94-3.54.22-.05.45-.09.67-.14.89-.19 1.78-.39 2.66-.59l.48-.09c5.54-1.05 8.12-.7 9.61 3.62.04.12.08.24.12.37-.1 3.71 3.12 8.03-1.19 11.04-.18.13-.35.26-.53.39-2.7 1.9-5.78 3.35-8.89 4.32-.22.07-.44.13-.66.2-.19.05-.38.1-.58.16-.2.05-.39.11-.59.16Zm-1.84-11.65c.53 1.54.85 3.32 1.17 5.1 1.67-.91 2.93-4.2.83-5.66-.59.11-1.19.21-1.6.39-.13.05-.26.11-.39.17ZM268.12 270.11c.18 1.87 1.79 4.04.71 4.84-1.95 2.8-6.91 2.46-10.25 3.39-.19.01-.38.02-.57.02-.75 0-1.46-.14-2.14-.48-.97-.29-.57-2.54-.77-4.51-.01-.13-.03-.26-.05-.39-.87-4.6-2.91-9.14-2.96-14.08a6887.785 6887.785 0 0 1-1.04-5.18s.41-.08 1.11-.22c.18-.03.37-.07.58-.11 4.73-.91 9.48-1.76 13.91-2.7.22-.05.45-.1.68-.15.26-.05.5-.1.74-.14a19.202 19.202 0 0 1 2.4-.86c2.84-1.12 5.33-.79 7.21.5.17.12.34.24.5.38 2.38 1 2.31 4.08 3.01 5.97.04.2.08.4.11.6.56 3.15.43 5.45-.88 7.29-.1.14-.21.28-.32.42-2.95 2.95-6.09 3.78-9.78 4.8-.23.06-.46.13-.7.19q-.45.29-1.1.31c-.13.04-.26.07-.4.11Zm-1.85-11.9c.46 1.61.76 3.22 1.05 4.82.03.18.06.36.1.53 1.19-.21 1.57-1.51 2-2.03.06-.21.1-.43.13-.64.11-1.09-.25-2.25-.7-3.09-.59.11-1.78.32-2.18.26-.12.05-.25.1-.38.15ZM296.69 261.56l-5.54.78c-.17.02-.34.05-.5.07-1.32.31-3.1.63-4.52.63-.23.03-.44.06-.63.09l-.9.13s-.57-2.53-1.24-5.49l-.11-.47c-2.59-4.57-1.93-9.58 2.3-10.66.22-.06.46-.1.7-.14 3.29.26 6.26-.27 9.12-1.4 1.12 2.86-.13 6.15.83 8.9l.03.48c.24 3.68.47 7.07.47 7.07Zm-10.88 11.47c-1.79-5.69.54-9.78 6.67-9.59.16-.03.31-.07.47-.1 2.62-.59 4.9-1.09 4.9-1.09l.24 1.02.16.69c.34 2.62 2.65 5.27 1.08 6.77-1.46 2.1-4.85.25-7.88 1.41-.22.04-.44.08-.66.11-1.55.27-3.16.53-4.58.73-.25.03-.39.05-.39.05Z"/></g></g></svg>