<svg id="Ebene_2" data-name="Ebene 2" xmlns="http://www.w3.org/2000/svg" viewBox="0 0 221.71 400"><defs><style>.cls-2{fill:#fff}.cls-4{fill:#313131}.cls-9{fill:none;stroke:#000;stroke-linecap:round;stroke-linejoin:round;stroke-width:1.34px}</style></defs><g id="kopien"><g id="telefon"><path d="M219.96 331.65c1.6 6.89 1.31 14.15-.15 21.04-1.38 7.04-4.06 13.93-8.63 19.37-4.5 5.22-10.59 8.85-16.83 11.83-24.38 11.32-51.95 12.7-78.8 13.93-11.03.51-22.13 1.09-33.23 1.38-9.58.22-19.23.29-28.73-.87-7.18-.87-14.66-2.68-20.17-7.47-3.27-2.83-5.66-6.46-7.98-10.09-5.51-8.63-11.03-17.27-16.54-25.83-1.67-2.61-3.34-5.22-4.64-8.05-4.57-9.94-4.14-21.26-2.1-32.14.94 4.93 3.05 9.8 5.3 14.37 4.43 9.07 10.09 17.92 18.14 24.02 7.55 5.8 16.91 8.85 26.19 10.96 43.83 9.87 89.39.87 133.44-8.05 7.33-1.52 14.8-3.05 21.33-6.68 6.6-3.63 12.19-9.72 13.35-17.12 0-.22.07-.36.07-.58Z" style="fill:#363636"/><path d="M220.03 328.82c.07.94.07 1.89-.07 2.83 0 .22-.07.36-.07.58-1.16 7.4-6.75 13.5-13.35 17.12-6.53 3.63-14 5.15-21.33 6.68-44.04 8.92-89.61 17.92-133.44 8.05-9.29-2.1-18.65-5.15-26.19-10.96-8.05-6.1-13.71-14.95-18.14-24.02-2.25-4.57-4.35-9.43-5.3-14.37-.8-3.56-.94-7.18-.36-10.74 1.45-8.2 8.49-15.82 16.62-15.6-1.6.8-3.05 1.74-4.21 3.05-1.81 2.03-2.61 4.86-2.97 7.55-2.32 15.38 5.01 31.27 16.69 41.65 11.61 10.3 27.07 15.67 42.45 17.7 15.46 2.03 31.13.94 46.73-.07l12.84-.87c25.25-1.74 51.95-3.92 72.78-18.43 5.88-4.06 11.46-9.72 12.41-16.83.44-3.34-.07-6.46-1.38-9.43 1.96 2.32 3.48 4.93 4.57 7.76 1.02 2.61 1.74 5.51 1.74 8.34Z" style="fill:#5a5b5a"/><path d="M213.72 312.64v.07c1.31 2.97 1.81 6.1 1.38 9.43-.94 7.11-6.53 12.77-12.41 16.83-20.82 14.51-47.53 16.69-72.78 18.43l-12.84.87c-15.6 1.02-31.27 2.1-46.73.07-15.38-2.03-30.84-7.4-42.45-17.7-11.68-10.38-19.01-26.27-16.69-41.65.36-2.68 1.16-5.51 2.97-7.55 1.16-1.31 2.61-2.25 4.21-3.05.36-.15.8-.36 1.16-.51 9.94-4.64 20.75-7.4 31.71-8.2 1.16 6.6 2.47 13.28 3.77 19.88.07.44.15.8.22 1.23.73 3.41 1.23 7.47 3.56 9.51 2.47 2.1 6.02 2.47 9.29 2.54 1.45.07 2.9.07 4.35.07 12.77-.07 25.54-1.96 38.09-3.99 9.87-1.6 19.88-3.41 28.52-8.27 2.68-1.45 5.3-3.48 6.97-5.95.94-7.04.22-14.08-.94-21.12 8.63-1.31 17.7.51 25.76 4.06 9.87 4.28 18.58 10.96 27.14 17.56 6.17 4.72 12.77 10.59 15.75 17.41Z" style="fill:#292929"/><path d="M131.51 217.36c-.22-.44-.44-.87-.8-1.09-.29-.22-.73-.22-1.09-.22-4.93-.15-9.94.22-14.87 1.16-.73.07-1.45.29-1.96.8-.87.8-.87 2.1-.73 3.34.44 5.59.87 11.25 1.38 16.83.07 1.09.22 2.25.94 2.97.65.65 1.6.87 2.47 1.02 5.01.73 10.16.07 14.8-1.89 1.23-.51 2.47-1.16 3.05-2.32.51-1.02.44-2.25.36-3.41a88.87 88.87 0 0 0-2.76-14.44c-.15-.94-.44-1.89-.8-2.76Zm13.57 56.23c1.16 7.04 1.89 14.08.94 21.12-1.67 2.47-4.28 4.5-6.97 5.95-8.63 4.86-18.65 6.68-28.52 8.27-12.55 2.03-25.32 3.92-38.09 3.99-2.9-2.9-5.08-6.46-6.68-10.23-2.25-5.3-3.41-10.88-4.57-16.47-3.56-16.62-7.04-33.23-10.52-49.78-.73-3.27-1.38-6.46-1.74-9.8-.65-6.1-.15-11.25-1.45-17.34-1.16-5.66-2.25-11.32-3.27-16.98-4.93-27.94-7.47-56.23-10.09-84.46-1.45-15.82-2.97-31.71-3.99-47.53-.65-8.92-1.16-17.85.51-26.63 1.6-8.78 5.59-17.34 12.48-22.93 6.68-5.44 15.6-7.62 24.16-7.62 7.26-.07 16.49 1.31 23.6 2.83 7.91 4.06 12.6 10.23 17.03 17.92 4.93 8.56 6.82 18.5 8.49 28.23 2.9 17.2 5.22 34.54 7.47 51.81 6.82 52.53 8.78 105.36 18.79 157.38.8 4.06 1.67 8.13 2.39 12.26Zm-9.94-13.57c.15-3.27 1.23-14.95-2.18-16.69-1.67-.8-5.8.87-7.55 1.09-2.83.51-5.66.87-8.34 1.89-1.09.51-2.32 1.23-2.54 2.47-.07.73.22 1.38.51 2.1 1.23 2.97 2.03 6.1 2.32 9.36.29 4.06-.15 8.34 1.6 12.05 4.93-.51 9.22-3.63 13.21-6.6.8-.65 1.74-1.31 2.25-2.25.58-1.02.65-2.25.73-3.41Zm-4.57-52.03c.44-2.9 0-5.8-.51-8.63-.58-3.27-.44-12.19-3.77-14.08-3.7-2.1-12.92 1.67-16.54 2.97-.44.15-.8.29-1.09.58-.44.36-.65.87-.8 1.38-1.89 6.24 2.25 12.77 2.1 19.23 0 .8-.07 1.52.22 2.18.65 1.31 2.39 1.67 3.85 1.67 4.86 0 9.65-1.45 14.37-2.9.51-.15 1.02-.29 1.38-.65.51-.44.65-1.09.8-1.74Zm-3.63-27.94c.8-.73.8-2.03.65-3.19-.51-4.93-1.09-9.87-1.6-14.8-.51-4.28-1.23-5.8-5.66-5.51-3.92.22-7.84.94-11.61 2.1-1.16.44-2.39.87-3.19 1.74-1.16 1.23-1.38 3.12-1.09 4.86.22 1.67.87 3.34 1.09 5.01.22 2.32-.22 4.64-.07 6.97.15 2.25 1.23 4.79 3.41 5.59.94.29 1.96.29 2.97.22 4.57-.29 9.14-1.02 13.57-2.25.58-.15 1.09-.29 1.52-.73Zm-7.62-32.8c2.1-1.81 2.9-4.79 2.83-7.55-.07-2.76-.94-5.44-1.45-8.2-.44-2.03.07-6.97-1.38-8.2-1.74-1.52-6.82-.36-8.85-.07-2.83.36-5.66.8-8.49 1.16-.94.15-1.96.36-2.47 1.16-.36.58-.29 1.31-.29 1.96.36 4.93.73 9.8 1.16 14.73.07.8.15 1.6.44 2.39.58 1.74 2.25 2.97 3.99 3.56 1.74.65 3.63.73 5.44.8 3.19.15 6.6.22 9.07-1.74Zm-2.18-40.2c1.31-15.02-1.09-30.11-3.41-44.99-.94-5.59-.55-8.04-2.95-13.19-.65-1.45-1.6-2.97-3.05-3.48-1.09-.44-2.25-.22-3.41-.07-11.83 1.81-24.99-.23-36.89.78-9.14.8-18.39-2.18-27.39 0-1.02.22-2.1.58-2.76 1.38-.51.65-.65 1.45-.8 2.25-.29 2.47.18 7.41.54 9.87a908.03 908.03 0 0 0 7.84 48.04c.22 1.16.51 2.47 1.52 3.19.87.65 2.03.58 3.05.51 11.39-.73 22.78-1.45 34.18-2.18 2.61-.15 5.22-.29 7.84-.51 8.56-.51 17.12-1.09 25.69-1.6Zm-5.3 165.37c.87-6.17.73-13.42-1.6-19.37-2.18-5.59-8.92-2.83-13.71-2.32-2.61.29-5.59.73-7.11 2.9-1.31 1.96-.94 4.57-.51 6.82l1.74 9.8c.36 1.67.73 3.48 1.89 4.72 1.96 2.03 5.22 1.74 7.98 1.23 2.9-.44 5.8-.94 8.71-1.45.8-.07 1.67-.29 2.18-.94.22-.36.36-.87.44-1.38Zm-2.83-31.85c.15-4.06-.44-8.05-.51-12.05-.07-2.39.94-6.75-1.09-8.42-.65-.58-1.52-.51-2.39-.44-4.93.58-9.87 1.09-14.8 1.67-1.89.22-4.21.65-4.86 2.54-.29.8-.15 1.67 0 2.47.87 5.22 1.67 10.38 2.54 15.6.15.87.29 1.81.8 2.54.51.65 1.23 1.09 1.96 1.38 2.18.8 4.5.51 6.75.15l6.75-.87c1.6-.22 3.48-.58 4.28-1.96.51-.8.51-1.74.58-2.61Zm-4.64-26.63c1.23-1.16 1.16-3.12 1.02-4.79-.51-4.14-1.38-8.49-1.38-12.63 0-2.18.07-6.68-3.41-6.68-1.09-.29-2.32-.22-3.41-.07-4.35.58-8.71 1.23-12.99 2.18-.8.15-1.67.36-2.39.8-1.38.87-2.1 2.68-2.1 4.35-.07 1.67.44 3.34.8 5.01.51 2.32.8 4.72.94 7.11.15 2.61.29 5.88 2.61 7.11 1.02.51 2.1.51 3.19.51 5.08 0 10.09-.65 14.87-1.89.8-.22 1.67-.51 2.25-1.02ZM94.21 37.11c5.3-2.25 9.58-7.26 9-12.55-1.09-9.8-13.79-16.25-23.22-17.34-5.8-.65-11.75-1.31-17.49-.15-5.88 1.09-11.17 3.99-15.89 7.4-3.12 2.18-6.24 5.01-6.39 8.56-.15 2.03.73 4.06 2.03 5.73 3.99 5.08 11.1 7.18 17.85 8.42 5.59 1.09 11.25 1.74 16.98 2.03 5.8.36 11.9.22 17.12-2.1Zm6.89 146.43c.73-.94.73-2.32.65-3.56-.22-3.48-.58-6.97-1.09-10.45-.29-2.03-.36-6.46-2.1-7.98-1.89-1.67-5.37 0-7.55.36-3.34.51-6.82.73-10.23.58-.8 0-1.67-.07-2.39.36-1.09.65-1.23 2.18-1.31 3.48-.07 5.73.36 11.46 1.45 17.05.15 1.02.44 2.03 1.23 2.68.87.58 1.96.51 2.9.36 4.86-.44 9.72-.94 14.51-1.38 1.45-.15 3.05-.36 3.92-1.52Zm-2.61-32.22c.36-2.18.07-5.08-1.09-6.97-1.52-2.61-3.63-1.52-6.46-1.02-4.21.73-8.49 1.38-12.77 2.1-.87.15-1.89.36-2.39 1.09-.65.87-.36 2.1-.07 3.12.29 1.09.58 2.18 1.31 2.9 1.31 1.38 3.41 1.38 5.22 1.23 5.22-.29 10.45-.87 15.6-1.67.15-.07.29-.07.44-.15.15-.15.22-.44.22-.65Zm-3.34-17.63c.15-.44.07-.8 0-1.23-.22-1.74-1.09-7.98 1.09-8.42-7.55-1.96-16.04-.73-23.51 1.16.36 3.12 1.02 6.24 1.89 9.22.07.29.15.58.36.73.36.44.94.29 1.52.15 4.79-1.09 9.87-1.23 14.73-.44.73.15 1.52.29 2.25.15s1.45-.58 1.67-1.31ZM86.23 276.2c.22-.29.22-.65.22-1.02-.15-3.7-.51-7.47-1.09-11.17-.44-2.54-.58-7.76-2.32-9.87-1.74-2.1-6.31-.94-8.63-.73-4.14.36-8.2.94-12.26 1.67 0 4.28 2.83 8.13 3.12 12.34.22 2.47-.29 5.44 1.6 7.04.65.58 1.45.87 2.25 1.09 5.22 1.52 10.81 1.89 16.18 1.02.36 0 .73-.15.94-.36Zm-5.37-29.82c3.7-3.19 2.1-16.76 0-20.9-1.31-2.54-3.27-3.12-6.02-2.83-4.72.51-9.14 1.38-14 1.09-.87-.07-1.81-.15-2.61.29-1.52.8-1.74 2.9-1.67 4.64.29 5.37.94 10.67 2.1 15.82.29 1.16.58 2.32 1.52 2.97.73.58 1.67.65 2.54.65 5.15.22 10.3-.07 15.38-.8.94-.15 1.96-.29 2.76-.94Zm-3.48-31.71c.22-3.99-.07-7.98-.8-11.9-.44-2.18-1.16-8.49-3.48-9.43-.65-.29-1.38-.22-2.1-.22-5.22.36-10.52.65-15.75 1.02-.65 0-1.31.07-1.89.29-2.03.87-2.32 3.56-2.1 5.73.36 5.59 1.6 11.1 2.83 16.54.15.8.36 1.67 1.02 2.18.65.58 1.67.58 2.54.58 5.01 0 9.94-.22 14.95-.51 1.45-.07 3.19-.29 4.06-1.52.58-.73.73-1.81.73-2.76Zm-4.64-33.31c.07-4.43-.65-8.56-1.16-12.92-.51-4.06-1.6-4.86-6.02-4.64-4.79.22-9.58.44-14.37.65-.8.07-1.67.07-2.32.51-1.31.73-1.67 2.32-1.81 3.77-.65 5.44-.15 10.96 1.52 16.18.22.65.44 1.31.94 1.74s1.23.51 1.96.58c5.88.58 11.83.29 17.63-.87.73-.07 1.45-.29 2.03-.73 1.31-.87 1.52-2.68 1.6-4.28Zm-1.09-29.97c.87-6.24-1.38-12.7-1.52-18.94-.22-6.24-4.14-6.97-9.8-5.3-4.86 1.52-10.01 1.96-15.02 1.45-.73-.07-1.45-.15-2.1.22s-1.02 1.09-1.23 1.81c-.65 2.32 0 4.79.58 7.11.58 1.96 1.09 3.92 1.6 5.88.65 2.47 1.31 5.01 2.83 7.04 2.18 3.19 6.02 4.86 9.87 5.37 3.77.44 7.69-.22 11.46-1.02.65-.15 1.38-.29 1.96-.73.87-.65 1.16-1.81 1.38-2.9Z" style="fill:#6c6c6c"/><path d="M113.73 62.09c2.32 14.87 4.72 29.97 3.41 44.99-8.56.51-17.12 1.09-25.69 1.6-2.61.22-5.22.36-7.84.51-11.39.73-22.78 1.45-34.18 2.18-1.02.07-2.18.15-3.05-.51-1.02-.73-1.31-2.03-1.52-3.19-3.05-15.96-5.66-32-7.84-48.04-.36-2.47-.83-7.41-.54-9.87.15-.8.29-1.6.8-2.25.65-.8 1.74-1.16 2.76-1.38 9-2.18 18.25.8 27.39 0 11.9-1.02 25.06 1.03 36.89-.78 1.16-.15 2.32-.36 3.41.07 1.45.51 2.39 2.03 3.05 3.48 2.39 5.15 2 7.6 2.95 13.19Z" style="fill:#a8a7a8"/><path d="M103.22 24.59c.59 5.3-3.7 10.28-9 12.53-5.25 2.3-11.35 2.46-17.14 2.09-5.73-.27-11.41-.91-16.98-2.04-6.75-1.23-13.87-3.32-17.83-8.41-1.34-1.66-2.2-3.7-2.04-5.73.16-3.53 3.27-6.37 6.37-8.57 4.71-3.37 10.02-6.27 15.91-7.39 5.73-1.12 11.68-.48 17.46.16 9.43 1.07 22.12 7.55 23.24 17.35Z" style="fill:#3a3a3a"/><path d="M78.54 2.08c3.56.87 7.04 2.18 10.3 3.92-7.11-1.52-14.29-2.9-21.55-2.83-8.56 0-17.49 2.18-24.16 7.62-6.89 5.59-10.88 14.15-12.48 22.93-1.67 8.78-1.16 17.7-.51 26.63 1.02 15.82 2.54 31.71 3.99 47.53 2.61 28.23 5.15 56.52 10.09 84.46 1.02 5.66 2.1 11.32 3.27 16.98 1.31 6.1.8 11.25 1.45 17.34.36 3.34 1.02 6.53 1.74 9.8 3.48 16.54 6.97 33.16 10.52 49.78 1.16 5.59 2.32 11.17 4.57 16.47 1.6 3.77 3.77 7.33 6.68 10.23-1.45 0-2.9 0-4.35-.07-3.27-.07-6.82-.44-9.29-2.54-2.32-2.03-2.83-6.1-3.56-9.51-.07-.44-.15-.8-.22-1.23-1.31-6.6-2.61-13.28-3.77-19.88-3.41-18.5-6.39-37.15-9.07-55.73-3.19-22.49-5.88-44.99-8.49-67.48-.73-5.73-1.38-11.46-2.1-17.12-1.81-15.31-2.39-30.84-4.79-45.93-.15-.94-.29-1.81-.44-2.76-.07-.58-.22-1.23-.29-1.89-2.39-15.17-1.45-30.62-2.54-45.86-.29-3.77-.58-7.62 0-11.32.73-4.43 2.54-8.63 4.93-12.48 1.96-2.97 4.21-5.8 6.97-8.05 1.96-1.67 4.21-3.05 6.53-4.28C53.07.92 66.35-.9 78.54 2.08Z" style="fill:#474747"/><g id="lautsprech"><path d="M62.16 13.36c3.29 0 3.29 5.07 0 5.07s-3.24-5.07 0-5.07ZM70.15 13.36c3.29 0 3.29 5.07 0 5.07s-3.24-5.07 0-5.07ZM78.06 13.36c3.29 0 3.29 5.07 0 5.07s-3.24-5.07 0-5.07ZM85.54 13.76c3.29 0 3.29 5.07 0 5.07s-3.24-5.07 0-5.07ZM61.97 20.35c3.29 0 3.29 5.07 0 5.07s-3.24-5.07 0-5.07ZM69.96 20.35c3.29 0 3.29 5.07 0 5.07s-3.24-5.07 0-5.07ZM77.87 20.35c3.29 0 3.29 5.07 0 5.07s-3.24-5.07 0-5.07ZM54.25 20.35c3.29 0 3.29 5.07 0 5.07s-3.24-5.07 0-5.07ZM85.54 20.35c3.29 0 3.29 5.07 0 5.07s-3.24-5.07 0-5.07ZM70.11 27.4c3.29 0 3.29 5.07 0 5.07s-3.24-5.07 0-5.07ZM78.1 27.4c3.29 0 3.29 5.07 0 5.07s-3.24-5.07 0-5.07ZM86 27.4c3.29 0 3.29 5.07 0 5.07s-3.24-5.07 0-5.07ZM62.38 27.4c3.29 0 3.29 5.07 0 5.07s-3.24-5.07 0-5.07ZM92.95 20.35c3.29 0 3.29 5.07 0 5.07s-3.24-5.07 0-5.07Z"/></g><g id="tasten"><path class="cls-4" d="M132.96 243.34c3.41 1.74 2.32 13.42 2.18 16.69-.07 1.16-.15 2.39-.73 3.41-.51.94-1.45 1.6-2.25 2.25-3.99 2.97-8.27 6.1-13.21 6.6-1.74-3.7-1.31-7.98-1.6-12.05-.29-3.27-1.09-6.39-2.32-9.36-.29-.73-.58-1.38-.51-2.1.22-1.23 1.45-1.96 2.54-2.47 2.68-1.02 5.51-1.38 8.34-1.89 1.74-.22 5.88-1.89 7.55-1.09ZM132.31 220.12a88.87 88.87 0 0 1 2.76 14.44c.07 1.16.15 2.39-.36 3.41-.58 1.16-1.81 1.81-3.05 2.32-4.64 1.96-9.8 2.61-14.8 1.89-.87-.15-1.81-.36-2.47-1.02-.73-.73-.87-1.89-.94-2.97-.51-5.59-.94-11.25-1.38-16.83-.15-1.23-.15-2.54.73-3.34.51-.51 1.23-.73 1.96-.8a68.44 68.44 0 0 1 14.87-1.16c.36 0 .8 0 1.09.22.36.22.58.65.8 1.09.36.87.65 1.81.8 2.76ZM130.06 199.37c.51 2.83.94 5.73.51 8.63-.15.65-.29 1.31-.8 1.74-.36.36-.87.51-1.38.65-4.72 1.45-9.51 2.9-14.37 2.9-1.45 0-3.19-.36-3.85-1.67-.29-.65-.22-1.38-.22-2.18.15-6.46-3.99-12.99-2.1-19.23.15-.51.36-1.02.8-1.38.29-.29.65-.44 1.09-.58 3.63-1.31 12.84-5.08 16.54-2.97 3.34 1.89 3.19 10.81 3.77 14.08ZM127.59 176.88c.15 1.16.15 2.47-.65 3.19-.44.44-.94.58-1.52.73-4.43 1.23-9 1.96-13.57 2.25-1.02.07-2.03.07-2.97-.22-2.18-.8-3.27-3.34-3.41-5.59-.15-2.32.29-4.64.07-6.97-.22-1.67-.87-3.34-1.09-5.01-.29-1.74-.07-3.63 1.09-4.86.8-.87 2.03-1.31 3.19-1.74 3.77-1.16 7.69-1.89 11.61-2.1 4.43-.29 5.15 1.23 5.66 5.51.51 4.93 1.09 9.87 1.6 14.8ZM122.15 139.73c.07 2.76-.73 5.73-2.83 7.55-2.47 1.96-5.88 1.89-9.07 1.74-1.81-.07-3.7-.15-5.44-.8-1.74-.58-3.41-1.81-3.99-3.56-.29-.8-.36-1.6-.44-2.39-.44-4.93-.8-9.8-1.16-14.73 0-.65-.07-1.38.29-1.96.51-.8 1.52-1.02 2.47-1.16 2.83-.36 5.66-.8 8.49-1.16 2.03-.29 7.11-1.45 8.85.07 1.45 1.23.94 6.17 1.38 8.2.51 2.76 1.38 5.44 1.45 8.2ZM110.25 253.06c2.32 5.95 2.47 13.21 1.6 19.37-.07.51-.22 1.02-.44 1.38-.51.65-1.38.87-2.18.94-2.9.51-5.8 1.02-8.71 1.45-2.76.51-6.02.8-7.98-1.23-1.16-1.23-1.52-3.05-1.89-4.72l-1.74-9.8c-.44-2.25-.8-4.86.51-6.82 1.52-2.18 4.5-2.61 7.11-2.9 4.79-.51 11.54-3.27 13.71 2.32ZM108.51 228.54c.07 3.99.65 7.98.51 12.05-.07.87-.07 1.81-.58 2.61-.8 1.38-2.68 1.74-4.28 1.96l-6.75.87c-2.25.36-4.57.65-6.75-.15-.73-.29-1.45-.73-1.96-1.38-.51-.73-.65-1.67-.8-2.54-.87-5.22-1.67-10.38-2.54-15.6-.15-.8-.29-1.67 0-2.47.65-1.89 2.97-2.32 4.86-2.54 4.93-.58 9.87-1.09 14.8-1.67.87-.07 1.74-.15 2.39.44 2.03 1.67 1.02 6.02 1.09 8.42ZM105.39 209.17c.15 1.67.22 3.63-1.02 4.79-.58.51-1.45.8-2.25 1.02-4.79 1.23-9.8 1.89-14.87 1.89-1.09 0-2.18 0-3.19-.51-2.32-1.23-2.47-4.5-2.61-7.11-.15-2.39-.44-4.79-.94-7.11-.36-1.67-.87-3.34-.8-5.01 0-1.67.73-3.48 2.1-4.35.73-.44 1.6-.65 2.39-.8 4.28-.94 8.63-1.6 12.99-2.18 1.09-.15 2.32-.22 3.41.07 3.48 0 3.41 4.5 3.41 6.68 0 4.14.87 8.49 1.38 12.63ZM101.76 180c.07 1.23.07 2.61-.65 3.56-.87 1.16-2.47 1.38-3.92 1.52-4.79.44-9.65.94-14.51 1.38-.94.15-2.03.22-2.9-.36-.8-.65-1.09-1.67-1.23-2.68-1.09-5.59-1.52-11.32-1.45-17.05.07-1.31.22-2.83 1.31-3.48.73-.44 1.6-.36 2.39-.36 3.41.15 6.89-.07 10.23-.58 2.18-.36 5.66-2.03 7.55-.36 1.74 1.52 1.81 5.95 2.1 7.98.51 3.48.87 6.97 1.09 10.45ZM97.41 144.37c1.16 1.89 1.45 4.79 1.09 6.97 0 .22-.07.51-.22.65-.15.07-.29.07-.44.15-5.15.8-10.38 1.38-15.6 1.67-1.81.15-3.92.15-5.22-1.23-.73-.73-1.02-1.81-1.31-2.9-.29-1.02-.58-2.25.07-3.12.51-.73 1.52-.94 2.39-1.09 4.28-.73 8.56-1.38 12.77-2.1 2.83-.51 4.93-1.6 6.46 1.02ZM95.16 132.47c.07.44.15.8 0 1.23-.22.73-.94 1.16-1.67 1.31s-1.52 0-2.25-.15c-4.86-.8-9.94-.65-14.73.44-.58.15-1.16.29-1.52-.15-.22-.15-.29-.44-.36-.73-.87-2.97-1.52-6.1-1.89-9.22 7.47-1.89 15.96-3.12 23.51-1.16-2.18.44-1.31 6.68-1.09 8.42ZM86.45 275.2c0 .36 0 .73-.22 1.02-.22.22-.58.36-.94.36-5.37.87-10.96.51-16.18-1.02-.8-.22-1.6-.51-2.25-1.09-1.89-1.6-1.38-4.57-1.6-7.04-.29-4.21-3.12-8.05-3.12-12.34 4.06-.73 8.13-1.31 12.26-1.67 2.32-.22 6.89-1.38 8.63.73 1.74 2.1 1.89 7.33 2.32 9.87.58 3.7.94 7.47 1.09 11.17ZM80.86 225.49c2.1 4.14 3.7 17.7 0 20.9-.8.65-1.81.8-2.76.94-5.08.73-10.23 1.02-15.38.8-.87 0-1.81-.07-2.54-.65-.94-.65-1.23-1.81-1.52-2.97-1.16-5.15-1.81-10.45-2.1-15.82-.07-1.74.15-3.85 1.67-4.64.8-.44 1.74-.36 2.61-.29 4.86.29 9.29-.58 14-1.09 2.76-.29 4.72.29 6.02 2.83ZM76.58 202.78c.73 3.92 1.02 7.91.8 11.9 0 .94-.15 2.03-.73 2.76-.87 1.23-2.61 1.45-4.06 1.52-5.01.29-9.94.51-14.95.51-.87 0-1.89 0-2.54-.58-.65-.51-.87-1.38-1.02-2.18-1.23-5.44-2.47-10.96-2.83-16.54-.22-2.18.07-4.86 2.1-5.73.58-.22 1.23-.29 1.89-.29 5.22-.36 10.52-.65 15.75-1.02.73 0 1.45-.07 2.1.22 2.32.94 3.05 7.26 3.48 9.43ZM71.57 168.46c.51 4.35 1.23 8.49 1.16 12.92-.07 1.6-.29 3.41-1.6 4.28-.58.44-1.31.65-2.03.73a59.952 59.952 0 0 1-17.63.87c-.73-.07-1.45-.15-1.96-.58s-.73-1.09-.94-1.74a38.054 38.054 0 0 1-1.52-16.18c.15-1.45.51-3.05 1.81-3.77.65-.44 1.52-.44 2.32-.51 4.79-.22 9.58-.44 14.37-.65 4.43-.22 5.51.58 6.02 4.64ZM70.12 132.47c.15 6.24 2.39 12.7 1.52 18.94-.22 1.09-.51 2.25-1.38 2.9-.58.44-1.31.58-1.96.73-3.77.8-7.69 1.45-11.46 1.02-3.85-.51-7.69-2.18-9.87-5.37-1.52-2.03-2.18-4.57-2.83-7.04-.51-1.96-1.02-3.92-1.6-5.88-.58-2.32-1.23-4.79-.58-7.11.22-.73.58-1.45 1.23-1.81s1.38-.29 2.1-.22c5.01.51 10.16.07 15.02-1.45 5.66-1.67 9.58-.94 9.8 5.3Z"/></g><path class="cls-9" d="M213.72 312.71c1.31 2.97 1.81 6.1 1.38 9.43-.94 7.11-6.53 12.77-12.41 16.83-20.82 14.51-47.53 16.69-72.78 18.43l-12.84.87c-15.6 1.02-31.27 2.1-46.73.07-15.38-2.03-30.84-7.4-42.45-17.7-11.68-10.38-19.01-26.27-16.69-41.65.36-2.68 1.16-5.51 2.97-7.55 1.16-1.31 2.61-2.25 4.21-3.05.36-.15.8-.36 1.16-.51 9.94-4.64 20.75-7.4 31.71-8.2M145.08 273.6c8.63-1.31 17.7.51 25.76 4.06 9.87 4.28 18.58 10.96 27.14 17.56 6.17 4.72 12.77 10.59 15.75 17.41"/><path class="cls-9" d="M211.47 310.17c.8.8 1.52 1.6 2.25 2.47v.07c1.96 2.32 3.48 4.93 4.57 7.76 1.02 2.61 1.74 5.51 1.74 8.34.07.94.07 1.89-.07 2.83 0 .22-.07.36-.07.58-1.16 7.4-6.75 13.5-13.35 17.12-6.53 3.63-14 5.15-21.33 6.68-44.04 8.92-89.61 17.92-133.44 8.05-9.29-2.1-18.65-5.15-26.19-10.96-8.05-6.1-13.71-14.95-18.14-24.02-2.25-4.57-4.35-9.43-5.3-14.37-.8-3.56-.94-7.18-.36-10.74 1.45-8.2 8.49-15.82 16.62-15.6"/><path class="cls-9" d="M219.96 331.65c1.6 6.89 1.31 14.15-.15 21.04-1.38 7.04-4.06 13.93-8.63 19.37-4.5 5.22-10.59 8.85-16.83 11.83-24.38 11.32-51.95 12.7-78.8 13.93-11.03.51-22.13 1.09-33.23 1.38-9.58.22-19.23.29-28.73-.87-7.18-.87-14.66-2.68-20.17-7.47-3.27-2.83-5.66-6.46-7.98-10.09-5.51-8.63-11.03-17.27-16.54-25.83-1.67-2.61-3.34-5.22-4.64-8.05-4.57-9.94-4.14-21.26-2.1-32.14M72.45 312.93c12.77-.07 25.54-1.96 38.09-3.99 9.87-1.6 19.88-3.41 28.52-8.27 2.68-1.45 5.3-3.48 6.97-5.95"/><path class="cls-9" d="M90.9 6c-7.11-1.52-16.35-2.9-23.6-2.83-8.56 0-17.49 2.18-24.16 7.62-6.89 5.59-10.88 14.15-12.48 22.93-1.67 8.78-1.16 17.7-.51 26.63 1.02 15.82 2.54 31.71 3.99 47.53 2.61 28.23 5.15 56.52 10.09 84.46 1.02 5.66 2.1 11.32 3.27 16.98 1.31 6.1.8 11.25 1.45 17.34.36 3.34 1.02 6.53 1.74 9.8 3.48 16.54 6.97 33.16 10.52 49.78 1.16 5.59 2.32 11.17 4.57 16.47 1.6 3.77 3.77 7.33 6.68 10.23-1.45 0-2.9 0-4.35-.07-3.27-.07-6.82-.44-9.29-2.54-2.32-2.03-2.83-6.1-3.56-9.51-.07-.44-.15-.8-.22-1.23-1.31-6.6-2.61-13.28-3.77-19.88-3.41-18.5-6.39-37.15-9.07-55.73-3.19-22.49-5.88-44.99-8.49-67.48-.73-5.73-1.38-11.46-2.1-17.12-1.81-15.31-2.39-30.84-4.79-45.93-.15-.94-.29-1.81-.44-2.76-.07-.58-.22-1.23-.29-1.89-2.39-15.17-1.45-30.62-2.54-45.86-.29-3.77-.58-7.62 0-11.32.73-4.43 2.54-8.63 4.93-12.48 1.96-2.97 4.21-5.8 6.97-8.05 1.96-1.67 4.21-3.05 6.53-4.28C53.07.92 66.35-.9 78.54 2.08c3.56.87 8 1.09 12.36 3.92ZM146.02 294.71c.94-7.04.22-14.08-.94-21.12-.73-4.14-1.6-8.2-2.39-12.26-10.01-52.03-11.97-104.85-18.79-157.38-2.25-17.27-4.57-34.61-7.47-51.81-1.67-9.72-3.56-19.66-8.49-28.23-4.43-7.69-9.12-13.86-17.03-17.92"/><path class="cls-9" d="M117.14 107.07c-8.56.51-17.12 1.09-25.69 1.6-2.61.22-5.22.36-7.84.51-11.39.73-22.78 1.45-34.18 2.18-1.02.07-2.18.15-3.05-.51-1.02-.73-1.31-2.03-1.52-3.19-3.05-15.96-5.66-32-7.84-48.04-.36-2.47-.83-7.41-.54-9.87.15-.8.29-1.6.8-2.25.65-.8 1.74-1.16 2.76-1.38 9-2.18 22.55.43 31.69-.37 11.9-1.02 20.76 1.41 32.59-.41 1.16-.15 2.32-.36 3.41.07 1.45.51 2.39 2.03 3.05 3.48 2.39 5.15 2 7.6 2.95 13.19 2.32 14.87 4.72 29.97 3.41 44.99ZM103.21 24.57c.58 5.3-3.7 10.3-9 12.55-5.22 2.32-11.32 2.47-17.12 2.1-5.73-.29-11.39-.94-16.98-2.03-6.75-1.23-13.86-3.34-17.85-8.42-1.31-1.67-2.18-3.7-2.03-5.73.15-3.56 3.27-6.39 6.39-8.56 4.72-3.41 10.01-6.31 15.89-7.4 5.73-1.16 11.68-.51 17.49.15 9.43 1.09 22.13 7.55 23.22 17.34ZM71.65 151.41c-.22 1.09-.51 2.25-1.38 2.9-.58.44-1.31.58-1.96.73-3.77.8-7.69 1.45-11.46 1.02-3.85-.51-7.69-2.18-9.87-5.37-1.52-2.03-2.18-4.57-2.83-7.04-.51-1.96-1.02-3.92-1.6-5.88-.58-2.32-1.23-4.79-.58-7.11.22-.73.58-1.45 1.23-1.81s1.38-.29 2.1-.22c5.01.51 10.16.07 15.02-1.45 5.66-1.67 9.58-.94 9.8 5.3.15 6.24 2.39 12.7 1.52 18.94ZM122.15 139.73c.07 2.76-.73 5.73-2.83 7.55-2.47 1.96-5.88 1.89-9.07 1.74-1.81-.07-3.7-.15-5.44-.8-1.74-.58-3.41-1.81-3.99-3.56-.29-.8-.36-1.6-.44-2.39-.44-4.93-.8-9.8-1.16-14.73 0-.65-.07-1.38.29-1.96.51-.8 1.52-1.02 2.47-1.16 2.83-.36 5.66-.8 8.49-1.16 2.03-.29 7.11-1.45 8.85.07 1.45 1.23.94 6.17 1.38 8.2.51 2.76 1.38 5.44 1.45 8.2ZM72.74 181.38c-.07 1.6-.29 3.41-1.6 4.28-.58.44-1.31.65-2.03.73a59.952 59.952 0 0 1-17.63.87c-.73-.07-1.45-.15-1.96-.58s-.73-1.09-.94-1.74a38.054 38.054 0 0 1-1.52-16.18c.15-1.45.51-3.05 1.81-3.77.65-.44 1.52-.44 2.32-.51 4.79-.22 9.58-.44 14.37-.65 4.43-.22 5.51.58 6.02 4.64.51 4.35 1.23 8.49 1.16 12.92ZM101.76 180c.07 1.23.07 2.61-.65 3.56-.87 1.16-2.47 1.38-3.92 1.52-4.79.44-9.65.94-14.51 1.38-.94.15-2.03.22-2.9-.36-.8-.65-1.09-1.67-1.23-2.68-1.09-5.59-1.52-11.32-1.45-17.05.07-1.31.22-2.83 1.31-3.48.73-.44 1.6-.36 2.39-.36 3.41.15 6.89-.07 10.23-.58 2.18-.36 5.66-2.03 7.55-.36 1.74 1.52 1.81 5.95 2.1 7.98.51 3.48.87 6.97 1.09 10.45ZM126.94 180.07c-.44.44-.94.58-1.52.73-4.43 1.23-9 1.96-13.57 2.25-1.02.07-2.03.07-2.97-.22-2.18-.8-3.27-3.34-3.41-5.59-.15-2.32.29-4.64.07-6.97-.22-1.67-.87-3.34-1.09-5.01-.29-1.74-.07-3.63 1.09-4.86.8-.87 2.03-1.31 3.19-1.74 3.77-1.16 7.69-1.89 11.61-2.1 4.43-.29 5.15 1.23 5.66 5.51.51 4.93 1.09 9.87 1.6 14.8.15 1.16.15 2.47-.65 3.19ZM77.38 214.68c0 .94-.15 2.03-.73 2.76-.87 1.23-2.61 1.45-4.06 1.52-5.01.29-9.94.51-14.95.51-.87 0-1.89 0-2.54-.58-.65-.51-.87-1.38-1.02-2.18-1.23-5.44-2.47-10.96-2.83-16.54-.22-2.18.07-4.86 2.1-5.73.58-.22 1.23-.29 1.89-.29 5.22-.36 10.52-.65 15.75-1.02.73 0 1.45-.07 2.1.22 2.32.94 3.05 7.26 3.48 9.43.73 3.92 1.02 7.91.8 11.9ZM104.37 213.95c-.58.51-1.45.8-2.25 1.02-4.79 1.23-9.8 1.89-14.87 1.89-1.09 0-2.18 0-3.19-.51-2.32-1.23-2.47-4.5-2.61-7.11-.15-2.39-.44-4.79-.94-7.11-.36-1.67-.87-3.34-.8-5.01 0-1.67.73-3.48 2.1-4.35.73-.44 1.6-.65 2.39-.8 4.28-.94 8.63-1.6 12.99-2.18 1.09-.15 2.32-.22 3.41.07 3.48 0 3.41 4.5 3.41 6.68 0 4.14.87 8.49 1.38 12.63.15 1.67.22 3.63-1.02 4.79ZM130.57 208c-.15.65-.29 1.31-.8 1.74-.36.36-.87.51-1.38.65-4.72 1.45-9.51 2.9-14.37 2.9-1.45 0-3.19-.36-3.85-1.67-.29-.65-.22-1.38-.22-2.18.15-6.46-3.99-12.99-2.1-19.23.15-.51.36-1.02.8-1.38.29-.29.65-.44 1.09-.58 3.63-1.31 12.84-5.08 16.54-2.97 3.34 1.89 3.19 10.81 3.77 14.08.51 2.83.94 5.73.51 8.63ZM80.86 246.39c-.8.65-1.81.8-2.76.94-5.08.73-10.23 1.02-15.38.8-.87 0-1.81-.07-2.54-.65-.94-.65-1.23-1.81-1.52-2.97-1.16-5.15-1.81-10.45-2.1-15.82-.07-1.74.15-3.85 1.67-4.64.8-.44 1.74-.36 2.61-.29 4.86.29 9.29-.58 14-1.09 2.76-.29 4.72.29 6.02 2.83 2.1 4.14 3.7 17.7 0 20.9ZM109.02 240.58c-.07.87-.07 1.81-.58 2.61-.8 1.38-2.68 1.74-4.28 1.96l-6.75.87c-2.25.36-4.57.65-6.75-.15-.73-.29-1.45-.73-1.96-1.38-.51-.73-.65-1.67-.8-2.54-.87-5.22-1.67-10.38-2.54-15.6-.15-.8-.29-1.67 0-2.47.65-1.89 2.97-2.32 4.86-2.54 4.93-.58 9.87-1.09 14.8-1.67.87-.07 1.74-.15 2.39.44 2.03 1.67 1.02 6.02 1.09 8.42.07 3.99.65 7.98.51 12.05ZM132.31 220.12c.22.94.29 1.89.29 2.9"/><path class="cls-9" d="m131.29 216.49.22.87c.36.87.65 1.81.8 2.76a88.87 88.87 0 0 1 2.76 14.44c.07 1.16.15 2.39-.36 3.41-.58 1.16-1.81 1.81-3.05 2.32-4.64 1.96-9.8 2.61-14.8 1.89-.87-.15-1.81-.36-2.47-1.02-.73-.73-.87-1.89-.94-2.97-.51-5.59-.94-11.25-1.38-16.83-.15-1.23-.15-2.54.73-3.34.51-.51 1.23-.73 1.96-.8a68.44 68.44 0 0 1 14.87-1.16c.36 0 .8 0 1.09.22.36.22.58.65.8 1.09M135.14 260.03c-.07 1.16-.15 2.39-.73 3.41-.51.94-1.45 1.6-2.25 2.25-3.99 2.97-8.27 6.1-13.21 6.6-1.74-3.7-1.31-7.98-1.6-12.05-.29-3.27-1.09-6.39-2.32-9.36-.29-.73-.58-1.38-.51-2.1.22-1.23 1.45-1.96 2.54-2.47 2.68-1.02 5.51-1.38 8.34-1.89 1.74-.22 5.88-1.89 7.55-1.09 3.41 1.74 2.32 13.42 2.18 16.69ZM111.85 272.44c-.07.51-.22 1.02-.44 1.38-.51.65-1.38.87-2.18.94-2.9.51-5.8 1.02-8.71 1.45-2.76.51-6.02.8-7.98-1.23-1.16-1.23-1.52-3.05-1.89-4.72l-1.74-9.8c-.44-2.25-.8-4.86.51-6.82 1.52-2.18 4.5-2.61 7.11-2.9 4.79-.51 11.54-3.27 13.71 2.32 2.32 5.95 2.47 13.21 1.6 19.37ZM86.45 275.2c0 .36 0 .73-.22 1.02-.22.22-.58.36-.94.36-5.37.87-10.96.51-16.18-1.02-.8-.22-1.6-.51-2.25-1.09-1.89-1.6-1.38-4.57-1.6-7.04-.29-4.21-3.12-8.05-3.12-12.34 4.06-.73 8.13-1.31 12.26-1.67 2.32-.22 6.89-1.38 8.63.73 1.74 2.1 1.89 7.33 2.32 9.87.58 3.7.94 7.47 1.09 11.17ZM98.49 151.33c0 .22-.07.51-.22.65-.15.07-.29.07-.44.15-5.15.8-10.38 1.38-15.6 1.67-1.81.15-3.92.15-5.22-1.23-.73-.73-1.02-1.81-1.31-2.9-.29-1.02-.58-2.25.07-3.12.51-.73 1.52-.94 2.39-1.09 4.28-.73 8.56-1.38 12.77-2.1 2.83-.51 4.93-1.6 6.46 1.02 1.16 1.89 1.45 4.79 1.09 6.97ZM95.16 132.47c.07.44.15.8 0 1.23-.22.73-.94 1.16-1.67 1.31s-1.52 0-2.25-.15c-4.86-.8-9.94-.65-14.73.44-.58.15-1.16.29-1.52-.15-.22-.15-.29-.44-.36-.73-.87-2.97-1.52-6.1-1.89-9.22 7.47-1.89 15.96-3.12 23.51-1.16-2.18.44-1.31 6.68-1.09 8.42Z"/><path d="M52.15 140.28c1.83-2.91 5.85-4.2 9.03-2.9v2.61c0 .14 0 .3.1.41.16.19.46.12.69.04 1.41-.51 2.77-1.16 4.06-1.93-1.05-3.38-4.92-5.35-8.43-4.96-3.51.39-6.57 2.73-8.65 5.59-.83 1.14-2.48 4.49-.43 5.45 1.18.55 3.88-1.37 4.97-1.81 0-.3-1.16-2.77-1.33-2.5Z" style="fill:#80ad3e"/><path d="M118.33 138.1c.24-.72.26-1.55.23-2.32-.02-.72-.06-1.47-.46-2.07-.57-.85-1.69-1.1-2.7-1.28-1.31-.23-2.62-.47-3.93-.7-1.34-.24-2.73-.48-4.05-.15-1.55.39-2.83 1.54-3.7 2.88-.55.85-.97 1.81-1 2.82-.03 1.11.26 1.48 1.36 1.82m9.49-2.43c-1.82.14-4.39.23-6.22.34-.34-.47-1.3-1.46-.79-1.75.51-.29 2.49-1.27 3.08-1.25 1.33.05 2.79 0 4.05.34 1.45.77 1.37 2.2-.11 2.32Z" style="fill:#c43346"/><path class="cls-2" d="M80.41 146.92c2.79.63 4.46 2.4 6.66 3.96l-.25.03c2-2.42 3.89-4.96 6.55-6.73.19-.18.51-.21.68.02.4.79-1.25 1.13-1.76 1.09-.04 0-.07-.04-.07-.07.42-.32.9-.62 1.14-1.04l.59.6c-1.81 2.63-4.39 4.48-6.85 6.43-.07.07-.18.08-.25.03-2.37-1.26-4.7-1.98-6.51-4.2-.04-.05 0-.13.07-.11ZM78.05 131.91c.86-1.15 1.85-2.1 3-2.9 1.25-.65 2.38-1.49 3.1-2.74.1-.16.31-.2.47-.1 1.3 1.49 2.8 2.59 4.64 3.36.47.21 1.67.81 1.66 1.4-1.3-.48-2.73-.29-4-1-1.27-.68-2.33-1.83-2.82-3.19l.64.08c-.57.43-1.14.85-1.62 1.36-.92 1.06-1.71 2.31-3.01 2.98-.61.36-1.25.69-1.97.87-.06.02-.12-.06-.08-.11ZM54.2 177.15c2.21-3.5 5.31-5.93 7.64-9.16.06-.1.2-.13.29-.06.61 2.47.96 5.11 1.3 7.66.27 2.53.34 5.08.19 7.64-.22.54-.59-.32-.75-.52a.065.065 0 0 1 .02-.09c.25.04.46.31.68.44l-.33.15c-.61-2.48-1.02-4.98-1.22-7.49-.21-2.52-.16-5.06-.21-7.59l.39.1c-2.29 3.37-4.25 6.86-7.9 9-.06.04-.14-.04-.09-.1ZM84.7 170.89c.88-10.09 11.79-7.29 8.02 2.05-1.08 3.48-4.03 5.99-5.69 9.1l-.79-1.01c3.16-.62 6.34-1.14 9.56-1.4.07-.01.1.11.03.13-3.04 1.09-6.15 1.93-9.29 2.67-3.05-.03 3.16-5.91 3.69-6.79 1.4-1.79 2.89-3.91 2.83-6.28-.01-2.15-2.09-4.22-4.21-3.55-2.21.69-3.14 3.1-4.02 5.13-.03.07-.14.04-.13-.04ZM109.97 162.24c2.66-.52 5.25-1.13 7.77-1.96.5-.18.97.43.68.87-1.84 3-4.28 5.59-6.17 8.55l-.32-.26c1.73-1.59 4.15-1.91 6.43-1.95 6.82.4 4.64 8.63-.23 10.43-2.26.91-5.08.16-6.29-1.79-.04-.07.05-.14.11-.08 1.57 1.55 3.99 1.69 5.74.84 3.23-1.59 5.91-7.73.59-8.34-1.97-.15-4.49-.25-6.05 1.2-.17.18-.46-.06-.32-.26 2.01-2.88 3.47-6.1 5.53-8.95l.66.89c-2.63.77-5.39 1.15-8.11.97-.07 0-.09-.12 0-.13ZM64.57 197.5c-.04 4.65-2.27 8.69-4.27 12.75l-.45-.67c.97-.37 1.97-.63 2.98-.85 3.02-.72 6.19-.84 9.25-.26.07.01.07.12 0 .13-3.94.77-8.06 1.28-12.03 1.81-.4.11-.74-.35-.45-.67 2.5-2.44 2.37-6.08 3.53-9.17.37-1.06.77-2.11 1.31-3.12.03-.06.13-.04.13.03Z"/><path class="cls-2" d="M66.22 202.3c.66 1.59.43 3.21.07 4.81-.08 1.08.45 2.12.58 3.16.32 1.61.36 3.15 0 4.82-.01.06-.1.08-.13.02-.6-.99-.89-2.05-1.07-3.12-.3-1.63.26-3.26.19-4.88-.21-1.06-.58-2.13-.29-3.23.1-.54.24-1.07.52-1.59.03-.05.11-.05.13 0ZM88.67 210.34c.69 2.24 3.25 2 5.07 1.39 1.97-.54 3.71-1.55 4.41-3.55 1.28-3.17-1.58-6.25-4.8-5.89-.93.07-2 .48-2.24 1.07-.25.65-1.28.4-1.21-.28.16-2.83.41-5.65.82-8.46.04-.28.26-.48.53-.5 1.11-.09 2.23-.16 3.34-.2 1.12-.06 2.23-.09 3.36-.08.08 0 .09.12.02.13-2.17.55-4.36.98-6.57 1.35l.53-.55c-.12 2.8-.4 5.58-.75 8.35l-1.2-.34c.37-.69 1.01-1.06 1.58-1.26 5.78-1.8 10.01 5.81 5.61 9.87-2.21 1.85-8.32 3.04-8.63-1.05 0-.08.12-.08.13 0ZM122.57 189.73c-4.64.78-8.83 8.88-7.39 13.2 1.1 3.81 6.11 4.64 8.55 1.75 3.53-4.7-3.84-7.07-7.12-4.88-.69.52-1.24 1.32-1.26 2.26 0 .04-.03.07-.07.07-.4-.89.18-2.13.88-2.84 2.31-2.03 6.39-1.91 8.71.12 1.75 1.63 1.34 4.51-.2 6.1-3.16 3.36-8.56 1.67-9.91-2.43-1.85-4.64.63-10.47 4.91-12.86.89-.46 1.91-.69 2.88-.62.08 0 .08.12 0 .13ZM65.78 227.58c-.02.09-.04.04.14.04l.62-.09c2.87-.42 5.92-.66 8.8-.98.23-.07.42.22.25.39-3.01 3.5-3.16 8.42-4.58 12.65-.44 1.47-.92 2.94-1.59 4.34-.03.06-.14.04-.13-.04.41-6.25 1.88-12.34 5.92-17.27l.25.39c-2.43.91-5.02 1.45-7.63 1.22-.66-.04-1.29-.12-1.95-.25-.11-.03-.32-.09-.37-.32-.01-.15.1-.22.17-.24.09-.04.26.02.23.13 0 .09-.14.09-.13 0ZM95.32 225.46c-1.79 1.41-1.26 3.97.43 5.19 2.32 2.02 7.28 1.05 7.92 4.86.64 4.33-5.23 6.7-8.47 4.45-1.65-1.1-1.55-3.6-.49-4.99 1.18-1.89 3.37-2.78 4.83-4.23 3.51-3.45-.04-8.78-4.22-5.27Zm-.09-.1c4.9-4.31 9.5 2.09 5.33 6.37-2.18 2.23-5.89 3.08-5.45 6.42 1.46 3.92 9.16 1.89 7.84-2.49-.26-.94-.94-1.56-1.85-1.82-1.84-.49-4.31-.85-5.91-2.58-1.63-1.61-1.83-4.47.05-5.91ZM125.73 221.34c-3.31-.18-7.15 1.39-4.46 4.92.97 1.48 2.78.98 3.98.04 1.29-.95 1.83-2.95.85-4.26l.64-.21c.23 1.76.41 3.54.47 5.31.11 2.7.11 5.33-.19 8.03-.05.48-.28 1.14-.71 1.54-1.88 1.61-4.94 1.22-6.69-.19-.06-.05 0-.15.07-.11 1.6.73 3.42.74 4.88.08.69-.32 1.13-.67 1.15-1.47l.08-2.6c.14-3.07.21-7.49.25-10.61 0-.34.49-.46.64-.15 1.63 3-1.91 7.11-5.04 6.2-2.34-.96-3.47-4.56-1.17-6.18 1.55-1.19 3.55-.93 5.27-.49.08.02.06.13-.01.13ZM69.19 261.03c1.17-.05 2.32.31 3.24 1.02.81.84 1.58 1.61 2.67 2.1l-.58.06c.91-2.01 2.63-3.67 4.82-4.21.06-.02.11.06.08.11-1.23 1.82-2.63 3.18-4.26 4.58-.15.15-.4.29-.57.08-.89-1.58-2.81-1.54-4.12-2.55-.45-.31-.9-.62-1.32-1.06-.04-.04-.01-.12.05-.13Z"/><path class="cls-2" d="M73.67 258.95c1.4 1.17 1.89 3.04 1.17 4.71-.6 2.64-1.3 5.65-3.55 7.33.09-2.26 1.15-4.26 2.49-5.99.33-.42.58-.9.63-1.42 0-1.04-.56-1.9-.67-2.94-.1-.51-.21-1.04-.2-1.63 0-.06.08-.1.12-.06Z"/><path class="cls-2" d="M74.1 264.3c.64-.07 1.2.08 1.62.52.17.23.28.56.48.74.61.49 1.6.36 2.3.98.41.36.77.8.97 1.46.01.05-.01.09-.06.11-.69.06-1.24-.13-1.73-.39-.82-.44-1.05-1.4-1.73-1.8-.56-.18-1.13-.1-1.51-.68-.18-.22-.34-.47-.41-.83-.01-.05.02-.1.08-.11ZM96.99 257c-.98 1.51-.75 3.35-.64 5.07.17 1.76 0 3.53.21 5.14.21 1.99 1.5 4.06 3.46 4.87.39.17.73.19 1.01-.08.55-.57 1.03-1.37 1.46-2.09 2.06-3.63 2.59-8.2.47-11.89-.98-2.33-4.39-3.28-5.96-1.02Zm-.11-.07c1.56-2.49 5.73-2.19 7.16.4 2.7 3.91 1.86 9.39-.95 12.97-.7.77-1.38 2.15-2.52 2.32-2.46-.57-4.46-2.73-5.12-5.22-.4-1.81-.16-3.58.05-5.37.23-1.73.41-3.6 1.37-5.12ZM124.88 249.51c.56 1.9.15 3.78-.44 5.59-.23 1.86.23 3.76-.09 5.62-.19 1.23-.48 2.45-1.03 3.65-.03.06-.12.05-.13-.01-.86-3.27.3-6.16.83-9.3-.2-1.89-.21-3.81.73-5.56.03-.05.12-.05.13.01ZM129.86 249.72c-.22-.12-.42-.25-.61-.39l.49-.14c.22 1.87-.18 3.63-.73 5.38-.25 1.2 0 2.43.03 3.63v1.81c0 1.2-.18 2.4-.42 3.59l-.86-.14c.23-.46.5-.92.8-1.36.04-.06.13-.03.13.04-.08.55.22 1.96-.56 1.94a.424.424 0 0 1-.37-.36c-.18-1.26-.27-2.54-.13-3.8.21-2.45 1.24-4.77.8-7.25 0-1.26.32-2.5.78-3.69.05-.12.19-.19.31-.14.25.17.29.52.42.78.02.06-.05.12-.1.09Z"/><path class="cls-2" d="M120.35 253.33c1.65-.37 3.15-.37 4.78-.02 1.62.08 3.19-.7 4.79-.72 1.11-.07 2.25.04 3.37.31.12.03.2.15.17.28-.13.29-.57.38-.8.28-.06-.02-.06-.11 0-.13.17-.08.28-.22.29-.35l.23.43c-2.1.73-4.25.76-6.42.37-1.67-.3-3.19.78-4.87.37-.55-.17-1.1-.36-1.57-.68-.05-.03-.03-.12.03-.13ZM120.04 258.4c1.59-.79 3.27-.68 4.94-.45 1.68-.11 3.17-1.06 4.89-1.12 1.05-.05 2.84.23 3.28 1.33-1.15-.16-2.1-.07-3.16.09-1.55.29-3.36-.04-4.97.12-1.07.29-2.15.75-3.3.55-.56-.06-1.12-.15-1.68-.39-.06-.02-.06-.11 0-.13Z"/></g></g></svg>