<svg id="Ebene_2" data-name="Ebene 2" xmlns="http://www.w3.org/2000/svg" viewBox="0 0 222.32 400"><defs><style>.cls-1{fill:#9b511b}.cls-1,.cls-2,.cls-3,.cls-5,.cls-6,.cls-7,.cls-9{stroke:#000}.cls-1,.cls-2,.cls-3,.cls-6,.cls-7,.cls-9{stroke-width:.75px}.cls-1,.cls-3,.cls-5,.cls-6,.cls-9{stroke-linecap:round;stroke-linejoin:round}.cls-10{fill:#444141}.cls-11{fill:#e5ceba}.cls-12,.cls-2{fill:#d3baa9}.cls-2,.cls-7{stroke-miterlimit:10}.cls-6{fill:#e8833f}.cls-3{fill:#c46c30}.cls-17,.cls-7{fill:#eedaca}.cls-5,.cls-9{fill:none}.cls-5{stroke-width:.5px}.cls-21{fill:#aa907e}</style></defs><g id="kopien"><g id="git"><path class="cls-2" d="M38.6 11.98s-.43-1.58.54-2.09 1.73-.11 2.28 1.56 2 4.38 1.95 5.69c-.03.7-.41 2.11-1.56 1.69s-1.5-1.49-1.5-1.49l-1.71-5.36ZM42.55 23.99s-.43-1.55.53-2.06 1.7-.11 2.24 1.54 1.97 4.3 1.92 5.6c-.03.69-.41 2.08-1.54 1.66s-1.47-1.47-1.47-1.47l-1.68-5.28ZM46.5 37.32s-.44-1.6.55-2.12 1.75-.11 2.31 1.58 2.03 4.43 1.97 5.77c-.03.71-.42 2.14-1.58 1.71s-1.52-1.51-1.52-1.51l-1.73-5.43Z"/><path class="cls-3" d="M218.14 308.3c-3.61-9.19-9.82-17.19-17.1-23.88-7.26-6.68-15.57-12.11-24.04-17.18-3.83-2.28-7.86-4.65-10.12-8.49-2.76-4.64-2.37-10.38-1.62-15.8l.02-.24c.74-10.1-2.33-20.44-8.52-28.48-2.5-3.23-5.8-6.25-9.84-6.61-.41-.04-.81-.05-1.22-.02-6.34.24-11.85 6.49-18.29 5.8-2.48-.27-4.62-1.52-6.5-3.16-1.55-1.29-2.92-2.83-4.21-4.32l-2.74-3.18s-.09-.1-.13-.14l-.06-.07-2.4-2.79-.7-.8c.15.37 1.57 3.58 3.59 8.21 1.37 3.14 3.03 6.92 4.81 10.91 3.53 7.99 7.47 16.8 10.28 22.89.02.01.04.01.05 0 9.57 2.75 16.68 11.24 16.68 21.2 0 9.99-7.2 19.56-16.79 22.3-13.15 3.77-27.49-5.07-30.12-17.65-.77-3.67-.56-6.46 1.11-11.85.74-2.37 1.76-4.35 2.53-5.66-4.85-10.59-12.34-26.36-18.57-42.5-11.67 4.97-20.99 17.08-24.28 29.27-3.45 12.85-.2 27.33 8.45 37.45 4.31 5.05 8.74 9.98 11.86 15.5 1.95 3.43 3.4 7.08 3.99 11.16 1.56 10.67.36 21.54 1.01 32.31 1.35 22.31 10.82 48.78 30.56 59.27 9.59 5.09 19.83 7.02 28.34 7.66.45.03.91.06 1.35.1 6.72.41 15.75-1.43 21.17-2.29.76-.12 1.5-.25 2.22-.38 15.52-2.9 27.43-10 37.16-22.09 5.27-6.56 9.35-14.07 12.05-22.06 2.5-7.42 3.82-15.25 3.8-23.08 0-7.5-1.08-14.32-3.8-21.29Zm-95.69 7.52c-.04-1.97 1.26-2.68 2.85-3.53 9.72-5.23 20.22-9.42 30.42-13.62 1.33-.55 2.7-1.1 4.13-1.09 1.45.01 2.98.74 3.49 2.07.51 1.32-.08 2.86-1.09 3.86-1.01.99-2.35 1.55-3.65 2.08-5.74 2.35-11.48 4.71-17.22 7.08-4.91 2-10.6 5.52-15.79 6.48-1.69.3-1.46.54-2.39-1.03-.38-.63-.75-1.54-.76-2.3Z"/><path class="cls-10" d="M163.35 299.67c.51 1.32-.08 2.86-1.09 3.86-1.01.99-2.35 1.55-3.65 2.08-5.74 2.35-11.48 4.71-17.22 7.08-4.91 2-10.6 5.52-15.79 6.48-1.69.3-1.46.54-2.39-1.03-.38-.63-.75-1.54-.76-2.3-.04-1.97 1.26-2.68 2.85-3.53 9.72-5.23 20.22-9.42 30.42-13.62 1.33-.55 2.7-1.1 4.13-1.09 1.45.01 2.98.74 3.49 2.07Z"/><path class="cls-11" d="M145.72 207.62c-6.34.24-11.85 6.49-18.29 5.8-2.48-.27-4.62-1.52-6.5-3.16 3 1.9 7.65 1.71 11.01.75 2.87-.82 7.77-3.75 11.44-4.5.85.29 1.65.66 2.35 1.11Z"/><path d="M143.37 206.51c-3.66.75-8.57 3.68-11.44 4.5-3.36.96-8.01 1.15-11.01-.75-1.55-1.29-2.92-2.83-4.21-4.32l-2.74-3.18c2.4 2.54 8.3 5.3 11.62 5.03 3.44-.28 6.73-1.41 10.13-1.88 2.33-.34 5.2-.19 7.64.6Z" style="fill:#a55417"/><path class="cls-11" d="M129.43 240.96c9.57 2.75 16.68 11.24 16.68 21.2 0 9.99-7.2 19.56-16.79 22.3-13.15 3.77-27.49-5.07-30.12-17.65-.77-3.67-.56-6.46 1.11-11.85.74-2.37 1.76-4.35 2.53-5.66.63-1.07 1.08-1.67 1.08-1.67l1.67 4.43c-3.18 3.8-4.87 8.96-3.96 13.86.9 4.75 4.13 8.87 8.24 11.42 4.11 2.53 8.95 4.86 13.78 4.86 3.55-.02 7.22-1.88 10.35-3.58 4.87-2.66 8.09-8.03 8.41-13.6.52-8.7-4.11-15.81-11.37-19.21.13-.12.24-.23.37-.35-.89-1.36-1.57-2.9-1.98-4.49Z"/><path d="M131.04 245.8c7.26 3.4 11.9 10.52 11.37 19.21-.32 5.57-3.54 10.94-8.41 13.6-3.12 1.7-6.79 3.56-10.35 3.58-4.83 0-9.67-2.33-13.78-4.86-4.11-2.54-7.34-6.66-8.24-11.42-.91-4.9.78-10.06 3.96-13.86.04-.06.07-.1.11-.14 5.47-6.41 14.64-9.69 22.6-7.18.95.3 1.87.65 2.74 1.07Z" style="fill:#1e1d1d"/><path class="cls-10" d="m103.92 247.62-9.8-23 .49-.21 23.78-6.11.7-.25c3.53 7.99 7.47 16.8 10.28 22.89.02.01.04.01.05 0 .41 1.59 1.1 3.12 1.98 4.49-.13.12-.24.23-.37.35-.88-.42-1.79-.76-2.74-1.07-7.96-2.5-17.13.77-22.6 7.18-.04.04-.07.08-.11.14l-1.67-4.43Z"/><path class="cls-10" d="m119.09 218.06-.7.25-23.78 6.11-.49.21-4.52-10.6 1.31-.56 22.18-5.81 1.2-.51c1.37 3.14 3.03 6.92 4.81 10.91Z"/><path class="cls-10" d="M110.69 198.95c.15.37 1.57 3.58 3.59 8.21l-1.2.51-22.18 5.81-1.31.56-3.4-8c-.4-.99-.78-1.98-1.19-2.99l.59-.23 22.18-5.81 2.12-.86c.97 2.01 1.57 3.23 1.67 3.45l-.17.15-.7-.8Z"/><path class="cls-10" d="m109.89 196.15-2.12.86-22.18 5.81-.59.23c-1.4-3.56-2.81-7.14-4.21-10.75l1.1-.42 22.18-5.81.76-.37c2.09 4.37 3.85 8.01 5.06 10.46Z"/><path class="cls-10" d="m104.83 185.69-.76.37-22.18 5.81-1.1.42c-1.43-3.66-2.87-7.35-4.28-11.04l.08-.03 22.18-5.81.96-.46h.02c1.81 3.85 3.54 7.5 5.09 10.74Z"/><path class="cls-10" d="m99.72 174.95-.96.46-22.18 5.81-.08.03c-1.96-5.07-3.92-10.18-5.87-15.28l1.35-.52 20.57-5.51.15-.08c2.35 5.13 4.76 10.27 7.02 15.09Z"/><path class="cls-10" d="m92.71 159.87-.15.08-20.57 5.51-1.35.52c-1.59-4.18-3.19-8.37-4.79-12.58l.53-.2 20.57-5.51.24-.11c1.74 3.97 3.61 8.12 5.51 12.29Z"/><path class="cls-10" d="m87.19 147.57-.24.11-20.57 5.51-.53.2c-1.56-4.1-3.11-8.22-4.66-12.32l1.18-.44 18.97-5.21.6-.25c1.47 3.68 3.27 7.92 5.25 12.39Z"/><path class="cls-11" d="M144.19 399.4c-4.37.17-9.64.44-13.82-.08-.24-.02-.47-.04-.71-.08-4.41-.64-8.76-1.91-12.88-3.75-.6-.25-1.16-.53-1.75-.82-7.68-3.79-14.38-9.59-18.76-16.85-6.69-11.11-10.69-23.66-13.09-36.52-2.03-10.9-.46-20.35-.88-31.43-.19-5.32-.68-11.28-3-16.07-1.19-2.44-2.46-5.16-3.93-7.71-1.55-2.72-3.34-5.26-5.49-7.16-8.55-7.55-14.27-20.67-14.06-32.08.14-7.56 2.47-14.98 6.2-21.55 2.61-4.61 5.87-8.81 9.7-12.42a49.45 49.45 0 0 1 7.47-5.8c.48-.29.97-.58 1.45-.87.81-.47 2-.66 3.16-.62l.46 1.21c-11.67 4.97-20.99 17.08-24.28 29.27-3.45 12.85-.2 27.33 8.45 37.45 4.31 5.05 8.74 9.98 11.86 15.5 1.95 3.43 3.4 7.08 3.99 11.16 1.56 10.67.36 21.54 1.01 32.31 1.35 22.31 10.82 48.78 30.56 59.27 9.59 5.09 19.83 7.02 28.34 7.66ZM94.12 224.63l9.8 23s-.45.6-1.08 1.67c-4.85-10.59-12.34-26.36-18.57-42.5.63-.28 1.28-.54 1.93-.76l3.4 8 4.52 10.6Z"/><path class="cls-10" d="M81.33 133.67c.19.5.4 1.01.61 1.51l-.6.25-18.97 5.21-1.18.44c-1.58-4.2-3.16-8.41-4.74-12.59l.31-.11 20.33-5.45c1.41 3.58 2.81 7.16 4.23 10.73Z"/><path d="m130.37 399.33-.05.36c-5.74-.32-12.51-.61-18.58-1.62-2.94-1.35-6.61-3.17-9.07-4.18-2.54-1.04-5.09-2.09-7.47-3.46-9.08-5.22-14.81-14.99-18.8-24.48-.27-.65-.52-1.27-.77-1.9-5.56-13.96-7.44-29.41-5.17-44.29.93-5.98 2.49-11.96 1.83-17.97-1.22-11.35-12.67-18.92-17.79-29.12a46.98 46.98 0 0 1-2.1-4.83c-3.51-9.46-4.06-19.98-1.46-29.73 3.07-11.43 10.43-21.66 20.31-28.18-.57.17-1.11.36-1.68.53l-.02-.03c3.27-1.91 6.43-3.03 9.42-4.07.08.23.14.47.22.71-7.15 4.51-13 10.84-17.17 18.23-3.73 6.57-6.06 13.99-6.2 21.55-.21 11.42 5.5 24.53 14.06 32.08 2.15 1.89 3.93 4.44 5.49 7.16 1.47 2.55 2.74 5.27 3.93 7.71 2.32 4.79 2.8 10.75 3 16.07.42 11.08-1.15 20.54.88 31.43 2.4 12.86 6.4 25.41 13.09 36.52 7.02 11.63 19.95 19.47 33.38 21.42.24.04.48.06.71.08Z" style="fill:#e8833f"/><path class="cls-10" d="M72.77 111.94c1.45 3.65 2.89 7.33 4.33 11l-20.33 5.45-.31.11c-1.34-3.62-2.69-7.23-4.04-10.82l.65-.24 18.97-5.21.74-.29Z"/><path class="cls-10" d="M67.84 99.4c1.64 4.17 3.28 8.35 4.93 12.53l-.74.29-18.97 5.21-.65.24c-1.53-4.12-3.07-8.24-4.59-12.33l1.24-.46 17.36-4.91 1.42-.57Z"/><path class="cls-10" d="M63.04 87.16c1.59 4.08 3.2 8.15 4.81 12.24l-1.42.57-17.36 4.91-1.24.46c-1.57-4.21-3.13-8.41-4.69-12.59l.33-.13 18.97-5.21.62-.25Z"/><path class="cls-11" d="M32.97 68.62s-.6 1.12-.63 1.09c.39-.84.95-1.59 1.61-2.23.08-.08.17-.16.27-.25.08-.08.18-.17.27-.23.16-.13.38.09.54-.02-.1.17-.18.08-.3.26-.14.14-.25.28-.32.41-.25.43-.22.89-.08 1.46 1.4 3.75 2.8 7.51 4.2 11.29 1.53 4.09 3.06 8.21 4.59 12.35 0 .03.03.05.03.08 1.55 4.15 3.1 8.33 4.66 12.52 1.53 4.09 3.06 8.21 4.59 12.33 0 .03.03.05.03.08l1.29 3.45c.24.64.49 1.27.71 1.91h.02c.2.54.41 1.1.61 1.66.26.68.52 1.37.76 2.05.16.39.29.78.45 1.18.05.16.11.33.17.48 1.58 4.18 3.16 8.39 4.74 12.59 0 .02 0 .05.03.06 1.53 4.09 3.07 8.17 4.63 12.26 0 .03.03.08.04.11.81 2.09 1.59 4.18 2.38 6.24.79 2.08 1.57 4.15 2.37 6.23 1.95 5.11 3.91 10.21 5.87 15.28 1.42 3.69 2.86 7.38 4.28 11.04 1.4 3.61 2.82 7.19 4.21 10.75.4 1.01.79 2 1.19 2.99-.65-.26-1.51-.42-2.39-.45-11.41-29.55-23.08-63.33-31.86-85.27-.03-.06-.25-.66-.29-.74-.29-.86-.65-1.67-.95-2.53-.59-1.65-1.08-3.04-1.67-4.7-1.3-3.68-2.41-7.32-3.74-10.98-.75-2.04-1.39-4.02-2.15-6.06-.4-1.09-.54-1.57-.96-2.66-.36-.95-.83-2.34-1.19-3.28-.78-2.05-1.5-4.18-2.29-6.22-.38-.99-1.03-2.57-1.43-3.56-.58-1.5-3.58-9.4-4.18-10.92"/><path class="cls-10" d="M58.11 74.65c1.62 4.17 3.27 8.34 4.93 12.52l-.62.25-18.97 5.21-.33.13c-1.54-4.14-3.07-8.26-4.59-12.35l.92-.34 17.36-4.91 1.3-.51Z"/><path class="cls-11" d="M86.2 206.03c-.66.22-1.31.48-1.93.76l-.46-1.21c.89.03 1.75.19 2.39.45Z"/><path class="cls-6" d="M83.81 205.58c-1.15-.03-2.35.16-3.16.62-.48.29-.97.58-1.45.87-.08-.24-.14-.47-.22-.71-.93-3.02-1.71-6.09-2.8-9.07-9.6-26.11-43.96-127.36-43.84-127.58.04-.07.46-1.71.7-1.19C37.46 77.73 73 177.6 83.8 205.58Z"/><path class="cls-10" d="M52.62 62.65c.28.06.64.13.97.22l-.05.18c1.52 3.87 3.04 7.73 4.57 11.6l-1.3.51-17.36 4.91-.92.34c-1.4-3.78-2.8-7.54-4.2-11.29-.14-.57-.18-1.03.08-1.46l18.21-5ZM52.62 62.65l-18.21 5c.08-.13.18-.27.32-.41.08-.08.18-.17.3-.26 1.11-.82 3.68-1.02 5.04-1.39 3.51-.97 7.03-1.95 10.54-2.9.5-.14 1.06-.3 1.57-.14.09.03.25.07.43.1Z"/><path d="M78.98 206.37c-3 1.04-6.16 2.17-9.42 4.07a35.427 35.427 0 0 0-6.54 4.91c-2.21 2.11-4.76 4.88-6.94 7.95l-.54-.38c-.42.06-1.09.04-1.78-.02-1.3-.11-2.69-.33-2.69-.33-.17-1.18 2.35-4.16 2.86-5.24 4.28-9.1 12.26-16.38 21.69-19.82.18-.08.37-.15.56-.22.93 3.04 1.88 6.05 2.8 9.07Z" style="fill:#5e2800"/><path class="cls-11" d="M111.74 398.07c-1.61-.26-3.17-.59-4.65-.96-2.25-.58-4.47-1.28-6.64-2.13-4.63-1.76-9-4.19-12.81-7.39-.35-.3-.71-.62-1.07-.93-5.06-4.59-8.83-10.46-11.58-16.76a63.12 63.12 0 0 1-1.75-4.41c-3.01-8.37-4.91-14.02-6.41-22.78-1.09-6.28.09-11.71.51-15.06.64-5.11 1.17-10.31 2.12-15.36s2.63-10.37.51-15.06c-3.3-7.27-8.23-11.27-13.23-17.48-2.55-3.18-5.23-7.49-7.02-12.71-.36-1.03-.67-2.1-.95-3.22-.66-2.67-1.08-5.55-1.16-8.61-.19-8.13 1.35-14.85 3.65-22.67.92-3.1 2.7-6.28 4.81-9.21 2.19-3.07 4.73-5.84 6.94-7.95 2.22-2.09 4.4-3.67 6.54-4.91l.02.03c.57-.17 1.11-.36 1.68-.53-.36.23-.71.48-1.06.75-9.31 6.58-15.67 17.38-18.63 28.39-2.6 9.75-2.49 19.59.87 28.82.58 1.62 1.26 3.21 2.05 4.77 5.13 10.2 16.57 17.77 17.79 29.12.66 6.01-.9 11.99-1.83 17.97-2.28 14.88-.39 30.32 5.17 44.29 4.02 10.06 9.89 20.8 19.57 26.38 2.38 1.37 4.94 2.42 7.47 3.46 1.55.63 3.55 1.58 5.55 2.52.6.29 1.2.57 1.79.85.6.29 1.18.54 1.73.81Z"/><path d="m100.45 394.97-.12.32a104.718 104.718 0 0 1-38.88 3.91c-5.75-4.71-9.25-13.79-10.5-21.01-.07-.35-.12-.71-.18-1.06 2.27 4.07 6.41 8.9 9.68 10.33 4.12 1.81 8.76 2.19 13.24 1.8 4.38-.4 8.63-1.5 12.87-2.6.36.32.72.63 1.07.93 3.8 3.2 8.18 5.62 12.81 7.39Z" style="fill:#124100"/><path class="cls-11" d="M34.49 67c-.09.07-.19.15-.27.23-.1.09-.18.17-.27.25l-.12-.13c-7.74-4.82-14.22-13.52-14.22-13.52-.13-.26-.27-.53-.38-.81-.08-.15-.16-.3-.22-.46C14.06 42.29 7.68 22.41 6.52 17.61l-.04-.35c-.03-.23-.05-.46-.08-.68 0-.08 0-.17-.01-.25 0-.15 0-.3-.03-.44 0-.45 0-.93.02-1.43v-.02c.02-.52.07-1.06.13-1.62.08-.61.18-1.26.31-1.97.05-.26.1-.52.17-.8.27-1.23.65-2.6 1.16-4.11.02-.07.06-.14.07-.23v-.02c.15-.41.29-.82.46-1.25.82-.17 2.07-.96 2.74-1.1-.04.06-.41.7-.44.79 0 0-.02 0-.03.04-1.48 2.31-2.26 9.26-2.41 12.03 3.4 13.33 7.13 23.78 13.35 36.05 2.97 5.85 9.01 9.19 12.56 14.7l.04.06Z"/><path d="M56.08 223.3c-2.11 2.94-3.89 6.12-4.81 9.21-2.3 7.81-3.83 14.54-3.65 22.67.09 4.34.9 8.3 2.11 11.83l-.87.23c-1.13 5.37-2.01 10.77-2.68 16.2-3.87 31.01-.72 62.77 4.59 93.69.07.35.12.71.18 1.06 1.25 7.22 4.75 16.29 10.5 21.01-.23 0-.45-.03-.69-.05v-.04c-1.75-.82-3.51-1.6-5.28-2.42l.04-.07c-8.88-6.84-14.78-16.99-18.16-27.69-3.39-10.68-4.43-21.96-5.02-33.15-.92-16.97-.89-33.98.09-50.94.43-7.51 1.34-15.52 2.6-22.95.68-4 1.46-7.86 2.3-11.36 2.97-12.16 5.75-19.58 13.74-27.95 0 0 3.29.52 4.47.35l.54.38Z" style="fill:#347600"/><path class="cls-3" d="M34.53 67.38c.08-.08.39-.31.51-.39 1.11-.82 3.68-1.02 5.04-1.39 3.51-.97 7.03-1.95 10.54-2.9.5-.14 1.06-.3 1.57-.14.09.03.25.07.43.1-1.51-3.36-2.74-7.29-2.91-7.74.21.26.43-6.45.4-6.78l-2.16-6.75-2.08-6.51-1.49-4.69-1.89-5.95-1.55-4.85-1.96-6.14-.88-2.78-1.63-3.92C32.28 4.12 26.86 1.29 22.01.43l-.06.31-5.47 1.47c-1.27.34-3.99.51-5 1.33-.13.11-.26.23-.36.37-1.63 1.93-2.37 8.93-2.58 12.27 3.4 13.33 7.13 23.79 13.35 36.06 2.97 5.85 9.01 9.19 12.56 14.7m-3.82-13.16h-.02c-.07-.13-.13-.26-.2-.39-.88-1.71-14.29-35.23-14.75-37.21-.03-.14-.05-.29-.07-.45.98-1.18 2.31-2.39 3.27-1.61 2 1.65 14.27 35 14.7 36.8.45 1.86-.19 3.53-2.94 2.86Zm9.88-3.24c-.14-.06-.32-.11-.5-.19-.05-.11-.09-.22-.15-.34-.7-1.71-10.82-35.03-11.09-36.96-.03-.28-.05-.54-.03-.81.91-.99 2.05-1.83 2.83-1.06 1.77 1.75 11.48 35.01 11.8 36.79.32 1.82-.35 3.39-2.85 2.56Z"/><path d="M78.98 206.37c-3 1.04-6.16 2.17-9.42 4.07a35.427 35.427 0 0 0-6.54 4.91c-2.21 2.11-4.76 4.88-6.94 7.95l-.54-.38c-.42.06-1.09.04-1.78-.02.08-.73.17-1.4.25-1.88.33-1.87 6.67-5.22 9.04-7.68 2.38-2.46 8.04-5.43 10.74-10.46 1.22-2.27 1.7-4.09 1.84-5.38.18-.08.37-.15.56-.22.93 3.04 1.88 6.05 2.8 9.07Z" style="fill:#3a1902"/><path class="cls-9" d="M165.27 242.96c-.75 5.41-1.14 11.16 1.62 15.8 2.26 3.84 6.29 6.21 10.12 8.49 8.47 5.07 16.78 10.5 24.04 17.18 7.28 6.69 13.49 14.69 17.1 23.88 2.73 6.97 3.8 13.79 3.8 21.29.03 16.26-5.67 32.48-15.86 45.14-10.2 12.67-22.76 19.85-39.39 22.48-5.42.86-14.45 2.7-21.17 2.29-.44-.03-.89-.07-1.35-.1-8.51-.64-18.75-2.57-28.34-7.66-19.73-10.48-29.2-36.95-30.56-59.27-.65-10.77.55-21.64-1.01-32.31-1.57-10.65-8.86-18.47-15.85-26.66-8.65-10.12-11.9-24.6-8.45-37.45 3.29-12.19 12.46-24.22 24.12-29.2l-.51-1.44M165.44 241.58l-.15 1.15M165.27 242.96l.02-.23M113.98 202.76l2.74 3.18c1.29 1.49 2.66 3.03 4.21 4.32 1.88 1.64 4.03 2.89 6.5 3.16 6.44.69 11.95-5.56 18.29-5.8.41-.03.81-.02 1.22.02 4.04.36 7.34 3.38 9.84 6.61 6.18 8.04 9.26 18.38 8.52 28.48M110.67 198.9l.02.05.7.8 2.4 2.79"/><path class="cls-9" d="m86.2 206.03 3.4 8 4.52 10.6 9.8 23s-.45.6-1.08 1.67c-.77 1.31-1.79 3.3-2.53 5.66-1.67 5.38-1.88 8.18-1.11 11.85 2.63 12.58 16.97 21.43 30.12 17.65 9.59-2.74 16.79-12.3 16.79-22.3 0-9.96-7.11-18.44-16.68-21.2h-.05c-2.81-6.09-6.75-14.9-10.28-22.89-1.77-3.99-3.44-7.77-4.81-10.91-2.03-4.63-3.44-7.84-3.59-8.21"/><path class="cls-9" d="M81.09 205.99c-.48.29-1.41.79-1.89 1.08-7.15 4.51-13 10.84-17.17 18.23-3.73 6.57-6.06 13.99-6.2 21.55-.21 11.42 5.5 24.53 14.06 32.08 4.18 3.69 6.99 9.85 9.42 14.87 2.32 4.79 2.8 10.75 3 16.07.42 11.08-1.15 20.54.88 31.43 2.4 12.86 6.4 25.41 13.09 36.52 7.02 11.63 19.95 19.47 33.38 21.42.24.04.48.06.71.08.2.03.41.06.63.07 4.07.42 9.04.17 13.19.01"/><path class="cls-9" d="M141.48 399.16c-6.82.69-23.67-.08-29.74-1.09-1.61-.26-3.17-.59-4.65-.96-2.25-.58-4.47-1.28-6.64-2.13-4.63-1.76-9-4.19-12.81-7.39-.35-.3-.71-.62-1.07-.93-6.22-5.66-10.49-13.24-13.33-21.17-3.01-8.37-4.91-14.02-6.41-22.78-1.09-6.28.09-11.71.51-15.06.64-5.11 1.17-10.31 2.12-15.36.95-5.05 2.63-10.37.51-15.06-3.3-7.27-8.23-11.27-13.23-17.48-2.55-3.18-5.23-7.49-7.02-12.71a39.152 39.152 0 0 1-2.11-11.83c-.19-8.13 1.35-14.85 3.65-22.67.92-3.1 2.7-6.28 4.81-9.21 2.19-3.07 4.73-5.84 6.94-7.95 2.22-2.09 4.4-3.67 6.54-4.91 3.27-1.91 9.66-4.2 14.03-5.01"/><path class="cls-9" d="M111.74 398.07c-2.94-1.35-6.61-3.17-9.07-4.18-2.54-1.04-5.09-2.09-7.47-3.46-9.68-5.58-15.55-16.32-19.57-26.38-5.56-13.96-7.44-29.41-5.17-44.29.93-5.98 2.49-11.96 1.83-17.97-1.22-11.35-12.67-18.92-17.79-29.12-5.31-10.58-5.75-23.01-2.7-34.45 3.07-11.43 10.85-22.71 20.73-29.23-.57.17-2.38 1.31-2.95 1.48M105.6 252.05c-3.18 3.8-4.87 8.96-3.96 13.86.9 4.75 4.13 8.87 8.24 11.42 4.11 2.53 8.95 4.86 13.78 4.86 3.55-.02 7.22-1.88 10.35-3.58 4.87-2.66 8.09-8.03 8.41-13.6.52-8.7-4.11-15.81-11.37-19.21-.88-.42-1.79-.76-2.74-1.07-7.96-2.5-17.13.77-22.6 7.18-.04.04-.07.08-.11.14Z"/><path class="cls-9" d="M129.43 240.96c.41 1.59 1.1 3.12 1.98 4.49-.13.12-.24.23-.37.35M105.6 252.05l-1.67-4.43c-.13-.33-.24-.65-.37-.98M162.26 303.53c1.01-1 1.6-2.54 1.09-3.86-.51-1.33-2.05-2.06-3.49-2.07-1.43-.02-2.81.54-4.13 1.09-10.2 4.2-20.7 8.39-30.42 13.62-1.59.85-2.88 1.55-2.85 3.53 0 .76.38 1.68.76 2.3.92 1.57.7 1.33 2.39 1.03 5.19-.95 10.88-4.48 15.79-6.48 5.74-2.37 11.48-4.72 17.22-7.08 1.3-.53 2.64-1.09 3.65-2.08ZM86.2 206.03c-.4-.99-.78-1.98-1.19-2.99-1.4-3.56-2.81-7.14-4.21-10.75-1.43-3.66-2.87-7.35-4.28-11.04-1.96-5.07-3.92-10.18-5.87-15.28-1.59-4.14-3.16-8.29-4.75-12.47 0-.03-.03-.08-.04-.11-1.56-4.08-3.1-8.17-4.63-12.26-.02-.01-.03-.05-.03-.06-1.58-4.2-3.16-8.41-4.74-12.59-1.33-3.59-2.67-7.18-4.01-10.74 0-.03-.03-.05-.03-.08-1.53-4.12-3.07-8.24-4.59-12.33-1.56-4.18-3.11-8.37-4.66-12.52 0-.03-.03-.05-.03-.08-1.54-4.14-3.07-8.26-4.59-12.35-1.4-3.78-2.8-7.54-4.2-11.29M53.54 63.04c1.52 3.87 3.04 7.73 4.57 11.6 1.62 4.17 3.27 8.34 4.93 12.52 1.59 4.08 3.2 8.15 4.81 12.24 1.64 4.17 3.28 8.35 4.93 12.53 1.45 3.65 2.89 7.33 4.33 11 1.41 3.58 2.81 7.16 4.23 10.73.19.5.4 1.01.61 1.51 1.47 3.68 3.27 7.92 5.25 12.39 1.74 3.97 3.61 8.12 5.51 12.29 2.35 5.13 4.76 10.27 7.02 15.09h.02c1.81 3.85 3.54 7.5 5.09 10.74 2.09 4.37 3.55 8.07 4.75 10.52.66 2.12 1.42 3.48 1.52 3.69M51.65 119.57c-5.77-16.58-12.11-34.98-18.61-51.05"/><path class="cls-9" d="M53.59 62.87c-.33-.09-.69-.15-.97-.22-.19-.03-.35-.07-.43-.1-.51-.15-1.06 0-1.57.14-3.51.96-7.03 1.93-10.54 2.9-1.36.37-3.93.57-5.04 1.39-.12.09-.22.17-.3.26-.14.14-.25.28-.32.41-.25.43-.22.89-.08 1.46"/><path class="cls-9" d="M52.62 62.65c-1.51-3.36-2.29-7.05-2.45-7.5M50.16 55.15c-.29-1.15-.07-6.02-.05-7.01l-2.16-6.75-2.08-6.51-1.49-4.69-1.89-5.95-1.55-4.85-1.96-6.14-.88-2.78-1.63-3.92C32.28 4.12 26.86 1.29 22.01.43"/><path class="cls-9" d="M34.45 66.94c-3.55-5.51-9.59-8.85-12.56-14.7-6.23-12.27-9.95-22.73-13.35-36.06.09-4.62.95-10.33 2.58-12.27.11-.14.23-.26.36-.37 1.01-.82 3.63-1.3 4.9-1.64 1.82-.49 3.81-.99 5.63-1.48"/><path class="cls-9" d="M12.39 3.04c-.51-.18-2.7.76-3.53 1.19-.58.11-1.15.58-1.44.83"/><path class="cls-6" d="M33.95 67.49c-.66.64-1.22 1.39-1.61 2.23-5.13-4.46-11.26-8.46-15.64-13.67 0 0-.81-2.04-2.06-5.27l-1.68-4.38c-.78-2.05-1.64-4.32-2.53-6.7l-1.15-3.16c-1.12-3.05-2.24-6.2-3.28-9.22l-1.5-4.58c-.67-2.05-1.24-3.98-1.71-5.68l4.3-11.74h.02c.16-.15.36-.3.56-.47.29-.22.49-.31 1-.41-.17.43-.31.84-.45 1.25v.02c-.03.09-.07.16-.09.23-.52 1.51-.89 2.88-1.16 4.11-.06.28-.12.54-.17.8-.13.71-.23 1.36-.31 1.97-.07.58-.11 1.12-.13 1.62v.02c0 .5-.01.98-.01 1.43.03.14.04.29.03.44.01.08.01.16.01.25.03.23.05.46.08.68v.06c.05.41.11.81.18 1.18.04.23.1.43.15.64.12.64.28 1.26.46 1.86 2.36 8.36 7.72 23.12 11.73 31.57.06.15.14.31.22.46.12.28.25.55.38.81 0 0 6.47 8.7 14.22 13.52l.12.13Z"/><path class="cls-9" d="M55.54 222.92c-1.18.17-4.47-.35-4.47-.35-.17-1.18 2.35-4.16 2.86-5.24 4.37-9.28 12.57-16.67 22.25-20.04M51.07 222.58c-7.99 8.36-10.78 15.78-13.74 27.95-2.44 10-4.23 22.74-4.9 34.31-.97 16.96-1.01 33.97-.09 50.94.59 11.2 1.63 22.48 5.02 33.15 3.37 10.7 9.27 20.85 18.15 27.69"/><path class="cls-9" d="M61.45 399.2c-5.75-4.71-9.25-13.79-10.5-21.01-.07-.35-.12-.71-.18-1.06-6.24-36.34-9.49-73.8-1.92-109.89M60.77 399.11c-1.76-.82-3.52-1.6-5.29-2.42"/><path class="cls-9" d="M86.57 386.66c-4.25 1.11-8.49 2.2-12.87 2.6-4.48.39-9.12 0-13.24-1.8-3.27-1.43-7.41-6.26-9.68-10.33M100.33 395.29a104.718 104.718 0 0 1-38.88 3.91c-.23 0-.45-.03-.69-.05"/><path d="M145.72 207.62c-.7-.45-1.5-.82-2.35-1.11-2.44-.79-5.31-.94-7.64-.6-3.4.47-6.7 1.6-10.13 1.88-3.32.27-9.22-2.48-11.62-5.03-.04-.04-.09-.1-.13-.14l-.06-.07" style="fill:none;stroke-miterlimit:10;stroke-linecap:round;stroke-width:.75px;stroke:#000"/><path class="cls-9" d="M143.37 206.51c-3.66.75-8.57 3.68-11.44 4.5-3.36.96-8.01 1.15-11.01-.75-.29-.14-.57-.36-.82-.58M51.65 119.57c.05.07-.03-.06 0 0 8.78 21.94 20.74 56.46 32.15 86.01M84.26 206.79c6.23 16.13 13.73 31.91 18.57 42.5M40 79.91l17.33-4.9M44.54 92.32l17.88-4.91M49.06 104.87l17.36-4.9M53.95 117.19l18.08-4.97M76.58 123.07l-18.45 4.94M62.83 140.51l18.51-5.08M67.48 152.9l19.47-5.21M71.99 165.45l20.23-5.42M78.17 180.81l20.59-5.4M82.38 191.74l21.69-5.68M86.69 202.54l21.54-5.65M90.91 213.47l22.17-5.81M95.42 224.21l22.97-5.9M99.62 233.46l22.18-5.81M102.72 241.2l22.18-5.81M52.62 62.65l-18.21 5"/><path d="M35.03 66.98c1.11-.82 3.68-1.02 5.04-1.39 3.51-.97 7.03-1.95 10.54-2.9.5-.14 1.06-.3 1.57-.14.09.03.25.07.43.1-1.51-3.36-2.44-7.18-2.51-7.78-.07-1.03.03-6.41 0-6.73l-2.16-6.75-2.08-6.51-1.49-4.69-1.89-5.95-1.55-4.85-1.96-6.14-.88-2.78-1.63-3.92c-4.18-2.43-9.6-5.26-14.45-6.12l-.06.31-5.47 1.47c-1.27.34-3.99.51-5 1.33-.13.11-.26.23-.36.37-1.63 1.93-2.37 8.93-2.58 12.27 3.4 13.33 7.13 23.79 13.35 36.06 2.97 5.85 9.01 9.19 12.56 14.7l.04.06m-3.86-13.22h-.02c-.07-.13-.13-.26-.2-.39-.88-1.71-14.29-35.23-14.75-37.21-.03-.14-.05-.29-.07-.45.98-1.18 2.31-2.39 3.27-1.61 2 1.65 14.27 35 14.7 36.8.45 1.86-.19 3.53-2.94 2.86Zm9.88-3.24c-.14-.06-.32-.11-.5-.19-.05-.11-.09-.22-.15-.34-.7-1.71-10.82-35.03-11.09-36.96-.03-.28-.05-.54-.03-.81.91-.99 2.05-1.83 2.83-1.06 1.77 1.75 11.48 35.01 11.8 36.79.32 1.82-.35 3.39-2.85 2.56Z" style="fill:none;stroke-miterlimit:10;stroke-width:.75px;stroke:#000"/><path class="cls-1" d="M36.51 52.42c.16 1.2-.49 4.48-1.57 4.3-1.04-.15-2.57.3-4.32-2.95h.02c2.75.68 3.39-.99 2.94-2.85-.43-1.8-12.7-35.15-14.7-36.8-.96-.79-2.3.43-3.27 1.61-.24-1.93.66-3.88.66-3.88 2.91-1.59 4.36.93 4.9 2.13.52 1.18 14.95 35.52 15.36 38.44ZM45.63 49.57c.07 1.17-.77 4.27-1.77 4.02-.96-.25-2.43.07-3.84-3.24.18.08.36.13.5.19 2.5.83 3.17-.74 2.85-2.56-.32-1.79-10.02-35.05-11.8-36.79-.77-.77-1.91.07-2.83 1.06.03-1.73.89-3.31.89-3.31 2.84-1.28 4 1.25 4.41 2.45.42 1.19 11.43 35.35 11.59 38.18Z"/><path class="cls-7" d="m17.29 20.63 5.13-1.58s.72.56 1.04 1.72 0 2.23 0 2.23l-4.72 1.38-1.44-3.75ZM21.84 32.31l4.89-1.6s.79.28 1.22 1.15.15 2.37.15 2.37l-4.85 1.65-1.41-3.57ZM26.7 44.45l4.93-1.51s1.13.64 1.4 1.54-.01 2.36-.01 2.36l-4.68 1.53-1.64-3.92ZM29.86 16.77l4.42-1.46s.57.05.96 1.35-.03 2.32-.03 2.32l-4.46 1.27-.89-3.49ZM33.22 28.52l4.68-1.62s.93.45 1.2 1.49-.18 2.42-.18 2.42l-4.59 1.35-1.1-3.65ZM37.03 41.07l4.77-1.42s.59.07 1.18 1.51c.42 1.03-.21 2.35-.21 2.35l-4.6 1.25-1.14-3.69Z"/><path class="cls-9" d="m35.45 67.51-7.17-23.54M38.63 65.88 24.57 31.7M41.87 66.31 20.2 19.73M51.2 62.9 40.51 40.04M47.99 63.5 35.12 27.86M44.78 64.1 30.96 16.4M131.26 314.03 35.45 67.51M135.77 311.52 38.66 66.91M140.59 310.62 41.87 66.31M145.11 308.11 44.78 64.1M149.62 305.61 47.99 63.5M154.14 303.1 51.2 62.9"/><path class="cls-5" d="M19.37 19.99s.84.51 1.17 1.63c.3 1.03.09 2.2.09 2.2M31.51 16.22s.83.44 1.14 1.45c.28.92.05 1.97.05 1.97M32.18 16.09s.83.44 1.14 1.45c.28.92.05 1.97.05 1.97M32.87 15.77s.83.44 1.14 1.45c.28.92.05 1.97.05 1.97M35.56 27.82s.83.44 1.14 1.45c.28.92.05 1.97.05 1.97"/><path class="cls-5" d="M36.13 27.57s.83.46 1.14 1.49c.28.94.06 2.02.06 2.02M36.87 27.34s.84.46 1.14 1.5c.28.95.06 2.03.06 2.03M41.01 40.14s.84.46 1.14 1.5c.28.95.06 2.03.06 2.03M39.88 40.35s.84.46 1.14 1.5c.28.95.06 2.03.06 2.03M38.69 40.76s.84.46 1.14 1.5c.28.95.06 2.03.06 2.03M30.18 43.57s.84.46 1.14 1.5c.28.95.06 2.03.06 2.03M29.33 43.9s.84.46 1.14 1.5c.28.95.06 2.03.06 2.03M28.69 44.02s.84.46 1.14 1.5c.28.95.06 2.03.06 2.03M23.72 31.75s.63.52.94 1.56c.28.95.26 1.97.26 1.97M23.08 31.97s.63.52.94 1.56c.28.95.26 1.97.26 1.97M22.5 32.17s.63.52.94 1.56c.28.95.26 1.97.26 1.97M18.8 20.18s.84.48 1.16 1.55c.29.98.07 2.1.07 2.1"/><path class="cls-5" d="M18.26 20.43s.84.48 1.16 1.55c.29.98.07 2.1.07 2.1"/><path d="m5.62 18.32-1.31-.04s2.64 9.84 3.68 12.76 3.72 10.47 4.73 12.84 2.67 6.51 3.44 8.07 1.29 2.89 1.29 2.89l.99-1.11s-2.7-6.39-3.45-8.01-2.38-4.92-3.61-8.9c-1.22-3.98-2.93-8.03-3.57-10.4-.63-2.37-2.2-8.09-2.2-8.09Z" style="fill:#999"/><path class="cls-17" d="m7.66 26.72-1.82.64c-.09.03-.16.1-.22.17-.08.11-.12.26-.08.4.06.34.14.69.23 1.04.19 1.04.31 2.35-.29 2.65-.3.16-.61.23-.87.23-2.1.13-3.2-3.38-3.6-4.63-.34-1.08-1.13-3.2-.17-4.41.28-.37.73-.65 1.38-.81.64-.15 1.37 1.09 1.89 2.14 0 0 .02.01.03.05.16.32.3.63.41.85.03.09.09.15.17.2h.02c.15.1.32.14.48.09l1.76-.56.7 1.95Z"/><path class="cls-12" d="M5.54 27.93c.24.95.76 3.28-.06 3.69-.3.16-.61.23-.87.23.15-.53.28-1.17.27-1.51-.03-.68-1.17-2.91-1.37-3.94s-1.11-2.29-1.78-3.03c-.23-.26-.56-.44-.9-.56.28-.37.73-.65 1.38-.81.84-.19 1.86 2.05 2.33 3.04.03.09.11.16.19.21.16.43.31.79.42 1 .13.27.3.74.47 1.28-.08.11-.12.26-.08.4Z"/><path class="cls-21" d="m7.66 26.72-1.82.64c-.09.03-.16.1-.22.17-.08.11-.12.26-.08.4-.13-.54-.26-1.02-.33-1.33-.13-.49-.31-.96-.5-1.35h.02c.15.1.32.14.48.09l1.76-.56.7 1.95Z"/><path class="cls-9" d="m7.66 26.72-1.82.64c-.09.03-.16.1-.22.17-.08.11-.12.26-.08.4.06.34.14.69.23 1.04.19 1.04.31 2.35-.29 2.65-.3.16-.61.23-.87.23-2.1.13-3.2-3.38-3.6-4.63-.34-1.08-1.13-3.2-.17-4.41.28-.37.73-.65 1.38-.81.64-.15 1.37 1.09 1.89 2.14 0 0 .02.01.03.05.16.32.3.63.41.85.03.09.09.15.17.2h.02c.15.1.32.14.48.09l1.76-.56.7 1.95Z"/><path class="cls-17" d="m11.16 38.71-1.82.64c-.09.03-.16.1-.22.17-.08.11-.12.26-.08.4.06.34.14.69.23 1.04.19 1.04.31 2.35-.29 2.65-.3.16-.61.23-.87.23-2.1.13-3.2-3.38-3.6-4.63-.34-1.08-1.13-3.2-.17-4.41.28-.37.73-.65 1.38-.81.64-.15 1.37 1.09 1.89 2.14 0 0 .02.01.03.05.16.32.3.63.41.85.03.09.09.15.17.2h.02c.15.1.32.14.48.09l1.76-.56.7 1.95Z"/><path class="cls-12" d="M9.04 39.92c.24.95.76 3.28-.06 3.69-.3.16-.61.23-.87.23.15-.53.28-1.17.27-1.51-.03-.68-1.17-2.91-1.37-3.94S5.9 36.1 5.23 35.36c-.23-.26-.56-.44-.9-.56.28-.37.73-.65 1.38-.81.84-.19 1.86 2.05 2.33 3.04.03.09.11.16.19.21.16.43.31.79.42 1 .13.27.3.74.47 1.28-.08.11-.12.26-.08.4Z"/><path class="cls-21" d="m11.16 38.71-1.82.64c-.09.03-.16.1-.22.17-.08.11-.12.26-.08.4-.13-.54-.26-1.02-.33-1.33-.13-.49-.31-.96-.5-1.35h.02c.15.1.32.14.48.09l1.76-.56.7 1.95Z"/><path class="cls-9" d="m11.16 38.71-1.82.64c-.09.03-.16.1-.22.17-.08.11-.12.26-.08.4.06.34.14.69.23 1.04.19 1.04.31 2.35-.29 2.65-.3.16-.61.23-.87.23-2.1.13-3.2-3.38-3.6-4.63-.34-1.08-1.13-3.2-.17-4.41.28-.37.73-.65 1.38-.81.64-.15 1.37 1.09 1.89 2.14 0 0 .02.01.03.05.16.32.3.63.41.85.03.09.09.15.17.2h.02c.15.1.32.14.48.09l1.76-.56.7 1.95Z"/><path class="cls-17" d="m16.15 50.69-1.82.64c-.09.03-.16.1-.22.17-.08.11-.12.26-.08.4.06.34.14.69.23 1.04.19 1.04.31 2.35-.29 2.65-.3.16-.61.23-.87.23-2.1.13-3.2-3.38-3.6-4.63-.34-1.08-1.13-3.2-.17-4.41.28-.37.73-.65 1.38-.81.64-.15 1.37 1.09 1.89 2.14 0 0 .02.01.03.05.16.32.3.63.41.85.03.09.09.15.17.2h.02c.15.1.32.14.48.09l1.76-.56.7 1.95Z"/><path class="cls-12" d="M14.03 51.9c.24.95.76 3.28-.06 3.69-.3.16-.61.23-.87.23.15-.53.28-1.17.27-1.51-.03-.68-1.17-2.91-1.37-3.94s-1.11-2.29-1.78-3.03c-.23-.26-.56-.44-.9-.56.28-.37.73-.65 1.38-.81.84-.19 1.86 2.05 2.33 3.04.03.09.11.16.19.21.16.43.31.79.42 1 .13.27.3.74.47 1.28-.08.11-.12.26-.08.4Z"/><path class="cls-21" d="m16.15 50.69-1.82.64c-.09.03-.16.1-.22.17-.08.11-.12.26-.08.4-.13-.54-.26-1.02-.33-1.33-.13-.49-.31-.96-.5-1.35h.02c.15.1.32.14.48.09l1.76-.56.7 1.95Z"/><path class="cls-9" d="m16.15 50.69-1.82.64c-.09.03-.16.1-.22.17-.08.11-.12.26-.08.4.06.34.14.69.23 1.04.19 1.04.31 2.35-.29 2.65-.3.16-.61.23-.87.23-2.1.13-3.2-3.38-3.6-4.63-.34-1.08-1.13-3.2-.17-4.41.28-.37.73-.65 1.38-.81.64-.15 1.37 1.09 1.89 2.14 0 0 .02.01.03.05.16.32.3.63.41.85.03.09.09.15.17.2h.02c.15.1.32.14.48.09l1.76-.56.7 1.95Z"/></g></g></svg>