<svg id="Ebene_2" data-name="Ebene 2" xmlns="http://www.w3.org/2000/svg" viewBox="0 0 400 276.27"><defs><style>.cls-10,.cls-3,.cls-4,.cls-7,.cls-9{stroke-miterlimit:10}.cls-11{fill:gray}.cls-10{stroke:#1d1d1b;stroke-width:1.43px}.cls-12{fill:#c4e8e7;opacity:.6}.cls-3{fill:#00f59f}.cls-3,.cls-4,.cls-7,.cls-9{stroke-width:.71px}.cls-3,.cls-7{stroke:#000}.cls-4{stroke:#311b92}.cls-13,.cls-4{fill:#ffe1e1}.cls-14{fill:#999}.cls-7,.cls-9{fill:none}.cls-15{fill:#ccc}.cls-9{stroke:#b3b3b3}.cls-19{fill:#666}.cls-20{fill:#f2f2f2}.cls-21{fill:#311b92}.cls-10{fill:#333}</style></defs><g id="kopien"><g id="notebook"><path d="m392.01 270.06-381.67 3.66c-5.53.05-9.86-1.71-9.61-3.9l8.25-74.46c.15-1.39 3.84-2.54 8.19-2.57l301.16-1.83c4.23-.03 8.75 1.06 10.06 2.42L398 266.07c2.04 2.13-.64 3.93-5.99 3.98Z" style="fill:#494949;stroke:#1d1d1b;stroke-width:1.43px;stroke-miterlimit:10"/><path class="cls-10" d="M5.09 272.69s4.22 2.26 7.85 2.8c3.62.53 373-2.36 380.34-3.05s5.89-3.55 5.89-3.55L5.09 272.7Z"/><path style="stroke:#1d1d1b;stroke-width:1.43px;fill:gray;stroke-miterlimit:10" d="m238.33 266.85-90.17.56-6.99-23.74 83.84-.71 13.32 23.89z"/><path class="cls-19" d="m234.41 265.27-41.04.27-2.71-6.32 40.27-.28 3.48 6.33zM190.03 265.56l-39.65.25-1.9-6.29 38.91-.28 2.64 6.32z"/><g id="tastatur"><path d="M352.49 237.54 26.34 240.9c-2.65.03-5.43-1.57-5.33-3.06l2.53-36.51c.06-.89 1.13-1.48 2.7-1.49L316.87 198c1.71-.01 3.54.67 4.49 1.66l33.39 34.96c1.38 1.44.25 2.9-2.27 2.92Z" style="fill:#1a1a1a"/><path class="cls-11" d="m40.8 207.17-9.77.07c-2.01.01-3.62-.57-3.58-1.3l.19-3.49c.04-.71 1.68-1.29 3.64-1.3l9.57-.06c1.96-.01 3.57.55 3.57 1.26v3.48c0 .73-1.63 1.33-3.63 1.35ZM60.36 207.03l-9.73.07c-2 .01-3.64-.57-3.65-1.3l-.04-3.48c0-.7 1.59-1.29 3.55-1.3l9.53-.06c1.95-.01 3.59.55 3.64 1.25l.24 3.48c.05.72-1.54 1.33-3.54 1.34ZM79.69 206.9l-9.69.07c-1.99.01-3.67-.57-3.72-1.29l-.26-3.47c-.05-.7 1.5-1.29 3.45-1.3l9.5-.06c1.95-.01 3.61.55 3.71 1.25l.46 3.47c.1.72-1.45 1.33-3.44 1.34ZM98.94 206.76l-9.66.07c-1.98.01-3.69-.57-3.79-1.29l-.49-3.47c-.1-.7 1.41-1.28 3.36-1.3l9.46-.06c1.94-.01 3.64.55 3.78 1.25l.68 3.46c.14.72-1.36 1.32-3.34 1.34ZM118.13 206.63l-9.62.07c-1.98.01-3.72-.57-3.86-1.29l-.71-3.46c-.14-.7 1.32-1.28 3.26-1.29l9.43-.06c1.93-.01 3.66.55 3.84 1.24l.9 3.45c.19.72-1.27 1.32-3.24 1.33ZM137.24 206.49l-9.58.07c-1.97.01-3.74-.57-3.93-1.28l-.93-3.45c-.19-.7 1.24-1.28 3.17-1.29l9.39-.06c1.93-.01 3.69.55 3.91 1.24l1.12 3.44c.23.72-1.18 1.32-3.15 1.33ZM156.28 206.36l-9.55.07c-1.96.01-3.76-.56-4-1.28l-1.15-3.44c-.23-.7 1.15-1.27 3.07-1.29l9.36-.06c1.92-.01 3.71.54 3.98 1.24l1.34 3.44c.28.72-1.09 1.31-3.05 1.33ZM175.25 206.22l-9.51.07c-1.95.01-3.79-.56-4.07-1.28l-1.37-3.43c-.28-.7 1.07-1.27 2.98-1.28l9.32-.06c1.91-.01 3.73.54 4.05 1.24l1.56 3.43c.32.71-1 1.31-2.95 1.32ZM194.15 206.09l-9.48.07c-1.95.01-3.81-.56-4.14-1.27l-1.58-3.43c-.32-.69.98-1.27 2.89-1.28l9.29-.06c1.9-.01 3.75.54 4.11 1.23l1.77 3.42c.37.71-.92 1.31-2.86 1.32ZM212.97 205.96l-9.44.07c-1.94.01-3.84-.56-4.21-1.27l-1.8-3.42c-.36-.69.9-1.27 2.8-1.28l9.26-.06c1.9-.01 3.78.54 4.18 1.23l1.98 3.41c.41.71-.83 1.31-2.77 1.32ZM231.73 205.83l-9.41.07c-1.93.01-3.86-.56-4.28-1.27l-2.01-3.41c-.41-.69.81-1.26 2.71-1.28l9.22-.06c1.89-.01 3.8.54 4.24 1.23l2.2 3.4c.46.71-.74 1.3-2.67 1.32ZM250.42 205.7l-9.37.07c-1.93.01-3.88-.56-4.34-1.27l-2.22-3.4c-.45-.69.73-1.26 2.62-1.27l9.19-.06c1.88-.01 3.82.54 4.31 1.23l2.41 3.4c.5.71-.66 1.3-2.58 1.31ZM69.46 214.36l-9.95.08c-2.05.02-3.74-.6-3.77-1.36l-.14-3.65c-.03-.74 1.59-1.35 3.59-1.37l9.75-.07c2-.01 3.69.57 3.76 1.31l.35 3.64c.07.76-1.54 1.4-3.58 1.41ZM89.4 214.2l-9.91.08c-2.04.02-3.77-.59-3.85-1.35l-.38-3.64c-.08-.74 1.49-1.35 3.49-1.36l9.71-.07c1.99-.01 3.71.57 3.83 1.31l.59 3.64c.12.76-1.44 1.39-3.47 1.41ZM109.09 214.05l-9.88.08c-2.03.02-3.8-.59-3.92-1.35l-.62-3.63c-.12-.74 1.4-1.35 3.39-1.36l9.67-.07c1.98-.01 3.74.57 3.91 1.31l.82 3.63c.17.76-1.34 1.39-3.37 1.4ZM128.71 213.9l-9.84.08c-2.02.02-3.82-.59-4-1.35l-.85-3.63c-.17-.73 1.31-1.34 3.29-1.36l9.64-.07c1.98-.01 3.76.57 3.98 1.3l1.05 3.62c.22.75-1.25 1.39-3.27 1.4ZM148.26 213.74l-9.8.08c-2.01.02-3.85-.59-4.07-1.34l-1.08-3.62c-.22-.73 1.22-1.34 3.19-1.35l9.6-.07c1.97-.01 3.79.57 4.05 1.3l1.28 3.61c.27.75-1.16 1.38-3.17 1.4ZM167.72 213.59l-9.76.08c-2.01.02-3.87-.59-4.14-1.34l-1.31-3.61c-.26-.73 1.13-1.34 3.09-1.35l9.56-.07c1.96-.01 3.81.57 4.12 1.3l1.51 3.6c.31.75-1.06 1.38-3.07 1.39ZM187.12 213.44l-9.73.08c-2 .02-3.9-.59-4.22-1.34l-1.54-3.6c-.31-.73 1.04-1.33 3-1.35l9.53-.07c1.95-.01 3.84.57 4.19 1.29l1.73 3.59c.36.75-.97 1.38-2.97 1.39ZM206.44 213.29l-9.69.08c-1.99.02-3.92-.59-4.29-1.33l-1.76-3.59c-.36-.73.95-1.33 2.9-1.34l9.49-.07c1.95-.01 3.86.57 4.26 1.29l1.96 3.58c.41.75-.88 1.37-2.87 1.39ZM225.69 213.14l-9.65.07c-1.98.02-3.95-.59-4.36-1.33l-1.99-3.58c-.4-.72.86-1.33 2.8-1.34l9.46-.07c1.94-.01 3.88.56 4.33 1.29l2.18 3.58c.45.74-.79 1.37-2.77 1.38ZM244.87 212.99l-9.62.07c-1.98.02-3.97-.58-4.43-1.33l-2.21-3.57c-.45-.72.77-1.32 2.71-1.34l9.42-.07c1.93-.01 3.91.56 4.39 1.28l2.4 3.57c.5.74-.7 1.37-2.67 1.38ZM263.97 212.85l-9.58.07c-1.97.02-4-.58-4.5-1.32l-2.43-3.57c-.49-.72.69-1.32 2.62-1.33l9.39-.07c1.92-.01 3.93.56 4.46 1.28l2.62 3.56c.55.74-.61 1.36-2.58 1.38ZM283 212.7l-9.54.07c-1.96.02-4.02-.58-4.57-1.32l-2.65-3.56c-.54-.72.6-1.32 2.52-1.33l9.35-.07c1.92-.01 3.95.56 4.53 1.28l2.84 3.55c.59.74-.52 1.36-2.48 1.37ZM74.07 222.08l-10.2.09c-2.1.02-3.84-.62-3.89-1.42l-.2-3.84c-.04-.78 1.61-1.42 3.66-1.44l9.98-.08c2.05-.02 3.79.6 3.87 1.37l.42 3.83c.09.8-1.55 1.47-3.64 1.49ZM94.49 221.9l-10.16.09c-2.09.02-3.87-.62-3.97-1.42l-.45-3.83c-.09-.77 1.51-1.42 3.55-1.43l9.94-.08c2.04-.02 3.81.6 3.95 1.37l.66 3.82c.14.8-1.45 1.46-3.53 1.48ZM114.67 221.73l-10.12.09c-2.08.02-3.9-.62-4.04-1.42l-.7-3.82c-.14-.77 1.41-1.41 3.45-1.43l9.9-.08c2.03-.02 3.84.6 4.02 1.37l.91 3.81c.19.79-1.35 1.46-3.43 1.48ZM134.76 221.56l-10.08.09c-2.07.02-3.93-.62-4.12-1.41l-.94-3.81c-.19-.77 1.31-1.41 3.34-1.43l9.87-.08c2.02-.02 3.87.6 4.1 1.37l1.15 3.8c.24.79-1.25 1.46-3.32 1.47ZM154.78 221.39l-10.04.09c-2.06.02-3.95-.62-4.2-1.41l-1.18-3.8c-.24-.77 1.22-1.41 3.24-1.42l9.83-.08c2.01-.02 3.89.6 4.17 1.36l1.39 3.79c.29.79-1.15 1.45-3.21 1.47ZM174.72 221.22l-10 .09c-2.05.02-3.98-.62-4.28-1.41l-1.42-3.79c-.29-.77 1.12-1.4 3.14-1.42l9.79-.08c2.01-.02 3.92.59 4.25 1.36l1.63 3.78c.34.79-1.06 1.45-3.11 1.47ZM194.58 221.05l-9.96.08c-2.05.02-4.01-.62-4.35-1.4l-1.66-3.78c-.34-.76 1.03-1.4 3.03-1.42l9.75-.08c2-.02 3.94.59 4.32 1.36l1.87 3.77c.39.79-.96 1.45-3 1.46ZM214.36 220.88l-9.92.08c-2.04.02-4.03-.61-4.43-1.4l-1.9-3.77c-.38-.76.94-1.4 2.93-1.41l9.72-.08c1.99-.02 3.97.59 4.39 1.35l2.1 3.76c.44.78-.87 1.44-2.9 1.46ZM234.07 220.71l-9.88.08c-2.03.02-4.06-.61-4.5-1.4l-2.13-3.76c-.43-.76.85-1.39 2.83-1.41l9.68-.08c1.98-.02 3.99.59 4.46 1.35l2.34 3.75c.49.78-.77 1.44-2.8 1.46ZM253.7 220.55l-9.84.08c-2.02.02-4.08-.61-4.58-1.39l-2.36-3.75c-.48-.76.75-1.39 2.74-1.41l9.64-.08c1.98-.02 4.02.59 4.54 1.35l2.57 3.74c.53.78-.68 1.43-2.69 1.45ZM273.26 220.38l-9.81.08c-2.01.02-4.11-.61-4.65-1.39l-2.6-3.74c-.52-.76.66-1.39 2.64-1.4l9.61-.08c1.97-.02 4.04.59 4.61 1.34l2.8 3.73c.58.78-.58 1.43-2.59 1.45ZM292.74 220.21l-9.77.08c-2.01.02-4.13-.61-4.72-1.39l-2.82-3.73c-.57-.76.57-1.38 2.54-1.4l9.57-.08c1.96-.02 4.06.59 4.68 1.34l3.02 3.73c.63.78-.49 1.43-2.49 1.44ZM304.1 206.31l-16.55.12c-1.92.01-3.01.61-2.43 1.33l2.87 3.55c.6.74 1.39 1.33 2.65 1.33.08 0 1.79.13 2.51.64 1.23 1.24 4.68 5.49 4.66 5.47.64.78 2.8 1.4 4.79 1.38l13.51-.12c1.99-.02 3.06-.67 2.37-1.44l-6.61-7.45-.8-.91-2.34-2.63c-.64-.72-2.71-1.29-4.62-1.27ZM65.13 230.4l-10.48.1c-2.15.02-3.93-.66-3.95-1.5l-.09-4.04c-.02-.82 1.69-1.5 3.8-1.52l10.25-.09c2.1-.02 3.87.63 3.94 1.45l.32 4.03c.07.84-1.64 1.55-3.79 1.57ZM86.12 230.2l-10.44.1c-2.15.02-3.96-.65-4.04-1.49l-.35-4.03c-.07-.82 1.59-1.49 3.69-1.51l10.21-.09c2.09-.02 3.9.63 4.02 1.44l.58 4.02c.12.84-1.53 1.54-3.67 1.56ZM106.86 230.01l-10.4.1c-2.14.02-3.99-.65-4.12-1.49l-.61-4.02c-.12-.81 1.49-1.49 3.58-1.51l10.17-.09c2.09-.02 3.93.63 4.1 1.44l.84 4.01c.17.84-1.43 1.54-3.56 1.56ZM65.12 239.09l-10.77.11c-2.21.02-4.04-.69-4.06-1.58l-.08-4.26c-.02-.86 1.74-1.58 3.9-1.6l10.53-.1c2.16-.02 3.98.66 4.04 1.52l.33 4.25c.07.89-1.68 1.63-3.89 1.66ZM86.69 238.87l-10.72.11c-2.2.02-4.07-.69-4.15-1.57l-.36-4.25c-.07-.86 1.63-1.57 3.78-1.6l10.48-.1c2.15-.02 4.01.66 4.13 1.52l.6 4.24c.13.88-1.57 1.63-3.77 1.65ZM107.98 238.65l-10.68.11c-2.19.02-4.1-.69-4.23-1.57l-.64-4.24c-.13-.86 1.52-1.57 3.67-1.59l10.44-.1c2.14-.02 4.03.66 4.21 1.51l.87 4.23c.18.88-1.46 1.62-3.65 1.65ZM127.52 229.82l-10.36.1c-2.13.02-4.02-.65-4.2-1.49l-.87-4.01c-.18-.81 1.39-1.49 3.47-1.5l10.13-.09c2.08-.02 3.96.63 4.18 1.44l1.09 4c.23.83-1.32 1.54-3.44 1.56ZM148.09 229.62l-10.32.1c-2.12.02-4.05-.65-4.28-1.48l-1.12-4c-.23-.81 1.29-1.48 3.36-1.5l10.09-.09c2.07-.02 3.98.62 4.26 1.43l1.35 3.99c.28.83-1.22 1.53-3.33 1.55ZM168.58 229.43l-10.28.1c-2.11.02-4.08-.65-4.36-1.48l-1.38-3.99c-.28-.81 1.19-1.48 3.25-1.5l10.05-.09c2.06-.02 4.01.62 4.33 1.43l1.6 3.98c.33.83-1.12 1.53-3.22 1.55ZM188.99 229.24l-10.23.1c-2.1.02-4.1-.65-4.44-1.48l-1.63-3.98c-.33-.8 1.09-1.47 3.14-1.49l10.02-.09c2.05-.02 4.04.62 4.41 1.42l1.85 3.97c.39.83-1.01 1.52-3.11 1.54ZM209.32 229.05l-10.19.09c-2.09.02-4.13-.64-4.52-1.47l-1.88-3.97c-.38-.8.99-1.47 3.04-1.49l9.98-.09c2.05-.02 4.06.62 4.49 1.42l2.1 3.96c.44.83-.91 1.52-3 1.54ZM229.56 228.86l-10.15.09c-2.09.02-4.16-.64-4.6-1.47l-2.13-3.96c-.43-.8.89-1.47 2.93-1.48l9.94-.09c2.04-.02 4.09.62 4.56 1.42l2.34 3.95c.49.82-.81 1.52-2.89 1.54ZM249.73 228.68l-10.11.09c-2.08.02-4.18-.64-4.68-1.46l-2.37-3.95c-.48-.8.79-1.46 2.83-1.48l9.9-.09c2.03-.02 4.11.62 4.64 1.41l2.59 3.94c.54.82-.71 1.51-2.79 1.53ZM269.81 228.49l-10.07.09c-2.07.02-4.21-.64-4.76-1.46l-2.62-3.94c-.53-.8.7-1.46 2.72-1.48l9.86-.09c2.02-.02 4.14.62 4.71 1.41l2.83 3.93c.59.82-.62 1.51-2.68 1.53ZM322.24 227.93l-9.97.09c-2.05.02-4.28-.64-4.96-1.45l-3.25-3.91c-.66-.79.45-1.45 2.45-1.47l9.76-.08c2-.02 4.21.61 4.9 1.4l3.45 3.9c.72.81-.36 1.5-2.4 1.52ZM329.51 236.25l-10.22.1c-2.1.02-4.4-.67-5.12-1.52l-3.42-4.12c-.69-.83.43-1.53 2.48-1.55l10-.09c2.05-.02 4.32.64 5.06 1.47l3.63 4.11c.76.86-.33 1.58-2.43 1.6ZM349.8 236.04l-10.18.1c-2.09.02-4.43-.67-5.19-1.52l-3.67-4.11c-.74-.83.33-1.52 2.38-1.54l9.96-.09c2.04-.02 4.35.64 5.14 1.47l3.88 4.1c.81.85-.23 1.57-2.32 1.59ZM342.1 227.82l-9.93.09c-2.04.02-4.31-.63-5.03-1.45l-3.49-3.9c-.7-.79.36-1.45 2.35-1.46l9.72-.08c1.99-.02 4.23.61 4.98 1.4l3.69 3.9c.77.81-.26 1.49-2.3 1.51ZM334.66 219.86l-9.69.08c-1.99.02-4.19-.6-4.88-1.38l-3.31-3.71c-.67-.75.38-1.38 2.33-1.39l9.49-.07c1.95-.02 4.12.58 4.83 1.33l3.51 3.71c.73.77-.29 1.42-2.28 1.44ZM327.63 212.35l-9.46.07c-1.94.02-4.07-.58-4.73-1.31l-3.16-3.54c-.64-.72.4-1.31 2.3-1.32l9.27-.07c1.9-.01 4.01.56 4.68 1.27l3.35 3.53c.7.74-.32 1.35-2.26 1.37ZM320.94 205.2l-9.24.07c-1.9.01-3.97-.55-4.6-1.26l-3.01-3.37c-.61-.68.42-1.25 2.28-1.26l9.06-.06c1.86-.01 3.9.53 4.55 1.22l3.19 3.37c.66.7-.34 1.29-2.23 1.3ZM308.89 236.46l-10.26.1c-2.11.02-4.38-.67-5.04-1.53l-3.16-4.13c-.64-.83.53-1.53 2.59-1.55l10.04-.09c2.06-.02 4.3.64 4.98 1.48l3.38 4.12c.71.86-.44 1.58-2.54 1.6ZM246.73 237.24l-10.39.11c-2.14.02-4.29-.67-4.79-1.54l-2.39-4.17c-.48-.84.83-1.54 2.92-1.56l10.17-.1c2.08-.02 4.22.65 4.75 1.49l2.62 4.16c.55.87-.75 1.6-2.88 1.62ZM267.37 237.03l-10.35.11c-2.13.02-4.32-.67-4.87-1.54l-2.65-4.15c-.54-.84.73-1.54 2.81-1.56l10.13-.1c2.08-.02 4.25.65 4.83 1.48l2.87 4.14c.6.86-.64 1.59-2.77 1.61ZM287.92 236.82l-10.31.1c-2.12.02-4.35-.67-4.96-1.53l-2.91-4.14c-.59-.84.63-1.54 2.7-1.55l10.09-.1c2.07-.02 4.27.64 4.91 1.48l3.13 4.13c.65.86-.54 1.59-2.65 1.61ZM302.19 228.19l-22.11.21c-2.06.02-4.24-.64-4.83-1.46l-2.86-3.93c-.58-.79.6-1.46 2.62-1.47l21.65-.19c2.01-.02 4.18.61 4.83 1.41l3.22 3.92c.67.82-.46 1.5-2.51 1.52ZM225.4 237.46l-106.33 1.08c-2.19.02-4.13-.68-4.32-1.57l-.91-4.23c-.18-.85 1.41-1.57 3.55-1.59l103.99-.98c2.09-.02 4.19.65 4.67 1.49l2.35 4.17c.49.87-.86 1.6-2.99 1.62ZM269.05 205.56l-9.34.07c-1.92.01-3.91-.56-4.41-1.26l-2.43-3.4c-.49-.69.65-1.26 2.53-1.27l9.16-.06c1.88-.01 3.84.54 4.37 1.22l2.61 3.39c.54.71-.57 1.3-2.49 1.31ZM303.24 205.32l-24.94.18c-1.91.01-3.93-.56-4.48-1.26l-2.64-3.39c-.53-.69.56-1.25 2.44-1.27l24.46-.16c1.86-.01 3.88.53 4.49 1.22l2.99 3.38c.62.7-.42 1.29-2.32 1.3ZM49.22 214.51l-18.5.14c-2.06.02-3.71-.6-3.66-1.36l.2-3.66c.04-.74 1.72-1.36 3.74-1.37l18.11-.13c2.01-.01 3.66.58 3.69 1.31l.11 3.65c.02.76-1.63 1.4-3.68 1.41ZM43.33 230.53l-13.95.13c-2.16.02-3.9-.66-3.85-1.5l.23-4.05c.05-.82 1.82-1.5 3.93-1.52l13.64-.12c2.11-.02 3.84.63 3.85 1.45l.04 4.04c0 .84-1.75 1.55-3.91 1.57ZM42.81 239.16l-14.33.15c-2.22.02-4-.69-3.95-1.58l.25-4.27c.05-.86 1.87-1.58 4.04-1.6l14-.13c2.17-.02 3.94.66 3.95 1.52l.04 4.26c0 .89-1.8 1.64-4.01 1.66ZM53.19 222.26l-22.81.19c-2.11.02-3.8-.63-3.75-1.43l.21-3.85c.04-.78 1.77-1.43 3.83-1.44l22.32-.18c2.05-.02 3.76.6 3.79 1.38l.16 3.84c.03.8-1.66 1.47-3.75 1.49Z"/></g><path class="cls-10" d="M321.34 186.94 16.57 188.7c-4.45.03-8.14-3.39-8.2-7.59L5.96 7.79C5.91 3.86 9.38.68 13.68.72l294.71 2.72c4.1.04 7.67 3.2 7.95 7.04l12.16 168.98c.29 4.09-2.93 7.46-7.16 7.48Z"/><path d="m306.48 173.97-275.51 1.29c-4.43.02-8.11-3.38-8.18-7.55L20.35 20.65c-.07-3.95 3.4-7.14 7.7-7.11l267.66 2.21c4.12.03 7.7 3.21 7.97 7.07l9.98 143.7c.28 4.07-2.95 7.43-7.18 7.45Z" style="fill:#c1dbdb"/><path class="cls-15" d="m306.62 173.97-276.18 1.3c-4.14.02-7.58-3.16-7.64-7.05l-.02-1.1 290.85-1.18.05.72c.28 4-2.9 7.3-7.05 7.32ZM27.88 13.64l268.3 2.21c3.84.03 7.19 3 7.44 6.6l.97 14.03-284.05-1.86-.23-14.01c-.06-3.88 3.34-7.01 7.57-6.98Z"/><path class="cls-20" d="M185.31 32.76 57.82 31.9l-.18-7.85 127.31.95.36 7.76z"/><path style="fill:#b3b3b3" d="m313.62 165.94-5.81.02-8.85-129.51 5.67.04 8.99 129.45z"/><path class="cls-11" d="m307.81 165.96-285.08 1.16-2.19-132.5 278.42 1.83 8.85 129.51z"/><path class="cls-20" d="m251.77 150.87-172.22.48-2.74-101.47 169.12.9 5.84 100.09z"/><path class="cls-21" d="m79.55 151.35 98.17-.28-4.51-100.68-96.4-.51 2.74 101.47z"/><path class="cls-21" d="M168.58 151.1c-1.86-.11-5.5 0-7.36.02-4.09.05-7.65-.34-11.73.03-16.7.86-39.07.16-61.28-.17.39-7.54.37-18.17.03-26.19 1.13-11 .81-19.73.77-30.53 8.1.58 16.25.94 24.09-.26.38-6.8.37-13.08.16-19.03-4.45-.67-7.42-.58-11.91-.69-4.34-.12-8.7-.23-13.06-.34-.5-7.52-1.24-16.46-2.22-23.81 17.49-.33 35.11.8 52.33.47 4.9-.09 9.79-.19 14.69.12 3.93.24 7.94.74 11.72-.05.53.09 1.04 32.18 1.18 35.38.52 11.94 1.3 23.88 2.1 35.84.17 2.59.34 29.23.47 29.24Z"/><path d="M113.27 74.96c.21 5.95.22 12.23-.16 19.03-7.85 1.21-16 .85-24.09.26-.02-6.83-.26-13.61-.71-20.34 4.36.11 8.71.23 13.06.34 4.49.12 7.46.03 11.91.69Z" style="fill:#f50057;stroke:#000;stroke-width:.71px;stroke-miterlimit:10"/><g id="hand"><path class="cls-3" d="M122.29 93.73c-.87.79-1.47 1.32-2.69 1.43-1.43.12-1.98-1.29-2.37-2.75-.43-1.62-.9-3.01-1.52-4.53-.46-1.12-1-1.82 0-2.65-.52-.63-.92-1.3-1.36-2.08-.91-1.63-1.8-3.15-1.89-5.1-.04-.91-.07-1.82.08-2.7.07-.41.24-.82.38-1.22-1.79-1.28-4.2-3.3-4.05-5.82.15-2.57 1.38-6.35 3.87-7.17.69-.22 1.97-.54 2.63-.08.82.57.6 1.34.58 2.11-.03 1.48 1.28 2.93 1.42 4.55.09 1.02-.1 1.91-.16 2.92-.05.87.58 1.72.53 2.4l-.05.05c.26.47.33 1.15.55 1.66.75 1.72 1.94 2.93 1.69 4.93-.21 1.65-.51 1.74.57 3.04 1.17 1.41 1.52 2.37 1.66 4.22.11 1.52-.08 3.16.52 4.62.58 1.39.55 1.34-.39 2.2Z"/><path class="cls-7" d="M134.18 56.31c-.14-.23-.25-.46-.34-.65"/><path class="cls-3" d="M133.95 64.14c-.1 1.37-1.42 2.5-.69 3.73.41.69.67.56.68 1.48.01 1.13-.36 2.1-.62 3.18-.23.94-.49 2.12-.23 3.1.17.63.54.94.7 1.57.14.54.22 1.37.26 1.92.05.74-.6 1.65-.32 2.36.15.37.68.57.89 1.02.33.72.15 1.22.03 1.97-.27 1.83-.15 3.65-.26 5.53-.06 1.01-.14 2.92-.99 3.59-.72.58-2.05.23-2.87-.23-1.28-.71-1.29-1.06-1.42-2.5-.08-.94.04-1.92 0-2.82-.04-1.01-.49-2.14-.69-3.16-.23-1.19.19-1.62.5-2.64.43-1.43-.36-.67-.88-1.4-.26-.36.02-1.55.02-2.01.02-1.78-.59-3.34-.73-5.08-.08-.97-.28-2.2-.25-3.13.01-.59.38-1.14.78-1.63-.52-.79-.89-1.78-1.15-2.41-.92-2.29-.65-4.12.23-6.29.65-1.62 1.2-3.35 2.71-4.23.85-.49 1.84-1.1 2.8-1.26.91-.15 1.08.24 1.37.87l-.04.02c.32.73.64 1.58.83 2.37.52 2.12-.53 4.03-.68 6.1ZM148.08 77.08c0 1.1.45 2.16.28 3.28-.11.73-.5 1.31-.62 2.04-.08.55.05 1.1.03 1.65-.03 1.08-.46 2.08-.53 3.12-.05.67.24 1.4.21 2.03-.04.79-.27 1.05-.1 1.83.18.81.34.78-.01 1.58-.42.94-.83 1.73-1.07 2.77-.2.9-.26 1.9-.58 2.76-.67 1.82-1.57.92-2.48.02-1.16-1.14-1.76-1.69-1.98-3.38-.23-1.71-.06-3.42.49-4.95.42-1.15.08-2.41.12-3.7.05-1.56.07-3.15.19-4.7.07-.9.56-1.46.56-2.32 0-.54-.22-1.47-.34-2.02-.98-4.29-2.34-8.98 1.01-12.38.62-.63 1.34-1.04 1.9-1.75.59-.73.62-.77 1.51-.72.73.04 1.24.1 1.82.82.32.4.41.75.43 1.12v.2c.02.54.13 1.08.19 1.71.1 1.15.05 2.39-.06 3.52-.25 2.56-.97 4.82-.97 7.46Z"/><path class="cls-3" d="M162.57 84.28c-.33 2.4-1.3 4.83-2.32 6.76-.55.59-1.11 3-1.3 3.66-.43 1.49-.61 2.87-.85 4.39-.23 1.46-.91 2.91-1.31 4.33-.34 1.2-.08 2.58-.46 3.74-.34 1.06-.96 1.86-.99 3.05-.01.46.16.8.05 1.22-.06.25-.38.56-.47.81-.26.67-.12.77 0 1.46.11.7.12.51-.02 1.15-.16.72-.48 1.32-.57 2.04-.13 1.08.1 1.78-.46 2.71-1.07 1.77-2.43 2.03-1.69 4.45.29.95.31 1.88.3 2.85-.46.96-.53 2.09-.94 3.12-.53 1.29-1.03 2.79-1.32 4.19-.43 2.1-.61 3.9-1.82 5.63-1.26 1.8-2.89 2.62-4.56 3.9-1.92 1.47-4.85 2.79-7.02.99-1.05-.87-1.66-1.92-3.07-2.19-1.2-.24-2.34.64-3.2 1.53-1.7 1.74-3.73 1.15-5.92.74a12.13 12.13 0 0 1-5.87-2.92c-1.71-1.57-2.37-3.85-3.24-5.97-.55-1.33-1.51-2.48-2.34-3.67-.58-.83-1.02-1.23-1.83-1.7-.35-.21-1.24-.66-1.48-1-.29-.42-.12-1.21-.16-1.66-.05-.75-.32-1.35-.44-2.07h-.04c.46-1.88 1.98-3.35 1.77-5.51 1.33.56 3.02-.93 3.51-2.16.44-1.11-.14-1.7.93-2.28 1-.55 2.14-.45 3.17-.8.91-.3 1.78-.87 2.23-1.65.24-.42.2-.93.77-1.19.31-.15 1.02.07 1.44-.15 1.42-.72 1.37-2 .12-3.03-.71-.58-1.78-.62-2.4-1.2-.64-.6-.93-2.18-1.25-2.98-.19-.49-.26-1-.6-1.45-.3-.4-.86-.65-1.03-1.18-.5-1.52.69-3.63 1.61-4.58 1.49-1.56 3.1-1.11 5.01-1.37.75-.1 1.23-.23 1.97-.2.7.02 1.23-.36 1.84-.4.78-.05 1.38.75 2 1.15.98.63 1.48.41 2.68.16 2.21-.46 4.04 2.02 5.99 3 .54.27 1.01.21 1.6.62.71.49.98.52 1.76.77.96.31 2.41 1.22 3.16 1.91.77.71.34 1.77.95 2.57.51.67 1.58.82 2.18 1.56.28.34.5.59.7.77l.22-.06c.36.36 1.15.13 1.46-.19.51-.52.38-1.58.36-2.29-.05-1.42.79-1.94 1.42-3.06.58-1.01.46-1.77.44-2.93-.04-2.13.19-4.3 1.22-6.06.9-1.54 1.16-3.78.98-5.65-.22-2.39-.01-4.1 1.28-6.05.71-1.07 1.69-1.44 2.9-1.58 1.18-.13 2.16-.53 2.87.79.52.97.23 2.15.09 3.17Z"/><path class="cls-7" d="m160.25 91.03-.1.18M149.41 108.26s-.06-.05-.09-.08"/><path class="cls-3" d="M109.8 122.72c-1 1.82-3.43 1.1-4.85.15-1.06-.7-1.9-1.7-3.05-2.29-.73-.38-2.05-.4-2.66-.84-.89-.65-.32-1.88-1.14-2.56-.75-.62-1.26-.02-1.97-.78-.75-.81-.45-1.88-1.22-2.61-1.14-1.09-2.51-1.11-3.2-2.8-.4-.97-.36-2.67-.25-3.69.19-1.72.79-3.02 2.38-3.48 2.32-.68 4.24 1.12 5.65 3.04 1.71 2.32 2.08 5.15 4.31 7.11 1.54 1.35 4.27 1.68 4.61 2.83 2.1.38 2.23 4.41 1.39 5.94Z"/></g><path class="cls-4" d="M102.77 60.19c.83 1.66 1.15 3.47 1.95 4.96.05.12.09.23.14.35.14.35.27.71.4 1.06.06.18.12.33.17.46.09.26.15.41.15.41s-1.31.07-2.72.15l-.39.02c-.96.29-1.75.33-2.38.12-.08-.03-.15-.06-.23-.09-1.16-.61-1.45-1.65-1.48-2.69-.78.78-.22 1.82-.73 2.56-.09.07-.21.11-.37.12s-.37-.01-.63-.08l-.63.03-.69.03c-.2 0-.41.02-.62.03-1.05.17-2.91.43-3.18.17-.49-1.56-.79-3.22-.9-4.89 0-.14-.02-.28-.02-.42.21-2.49-.7-7.39 3.3-6.12h.35c1.16.03 2.26.03 3.36.04a2.137 2.137 0 0 0-.34.67c-.15.4-.2.79-.19 1.16 0 .07 0 .15.02.22.05.52.33 1.03.61 1.55-.01-.52-.03-1.03.55-1.61.04-.06.08-.11.12-.17.16-.23.32-.47.41-.75.06-.1.11-.2.16-.3.05-.1.09-.21.13-.32.16-.32.26-.53.26-.53l.93.05c.19.01.39.02.62.03h.55c1.2 0 2.5-.5 3.83-.24-.22 1.28-1.52 2.05-2.19 3.31-.04.08-.08.17-.11.26s-.06.18-.08.28c-.07.1-.12.16-.12.16ZM112.6 67.72c-1.39-.15-2.71.1-3.91-.31-.11-.03-.22-.07-.33-.11-.73-.28-1.22-.69-1.56-1.27-.07-.12-.13-.25-.19-.39-.13-.35-.24-.69-.32-1.03-.03-.11-.05-.23-.08-.34-.06-.14-.11-.27-.15-.4-.04-.97-.35-2.26.09-3.38l.03-.4c.01-.14 0-.27 0-.41.01-.1.03-.2.04-.3.02-.12.04-.23.07-.35.33-2.05 2.95-2.56 4.8-2.62.13 0 .26-.01.39-.02.42-.02.86-.03 1.34-.03h.29c1.56.32 3.4.05 4.74.76l.21.12c.68.04.46 1.06 1.16 1.42.03.07.06.15.09.22.41 1.02.47 2.08.67 3.04.02.07.03.15.05.22.52 1.06-.22 2.35-.19 3.29-.02.08-.05.15-.08.22-.27.64-.82 1.02-1.31 1.4-.1.07-.21.13-.32.19-.76.4-1.62.61-2.47.63h-.39c-.88-.02-1.68-.02-2.39-.12-.09 0-.19 0-.29-.01Zm.44-7.88c-.08.1-.16.21-.22.32-.05.12-.1.24-.14.36-.09.11-.16.22-.23.33-.39 1.02-.09 2.05.47 3.09.06-.05.12-.1.17-.15.76-.75.04-1.72.21-2.6-.01-.11-.02-.22-.04-.33-.01-.11-.03-.21-.05-.31 0-.1.02-.2.03-.3.02-.1.04-.2.08-.29-.07-.09-.17-.12-.3-.12ZM135.14 67.68c-1.51-.08-3.09-.08-4.71-.3h-.16c-.6-.03-1.13-.03-1.39-.03-.3-.78.18-1.81-.13-2.84h-.79c-.22 1.03.08 1.8.17 2.92v.16l-2.73.05h-.28c-.98-.3-2.53.48-2.81-.04-.26-.24-.39-.56-.45-.93l-.03-.23c.1-1.69.55-3.5-.2-5.21l-.03-.23-.03-.23c0-.07-.02-.13-.03-.2l-.03-.2c-.08-1.29-.92-2.57-.18-3.59 1-1.27 2.86-.5 4.41-.38.04 0 .09 0 .13.01.31.03.6.04.89.02h1.26l.04 2.11v.17c.19.65-.27 2.19.26 2.19 1.31 0-.07-1.54.5-2.43v-.17l.02-1.76s.81.02 1.84.05h.16c1.19-.03 2.99-.53 3.81.24.53.26.34 1.53.31 2.49v.16l.1 5.45v.14c.02.73.07 1.77.05 2.57v.05ZM147.49 67.72c-.52-.1-1.04-.11-1.53.02-.09-.02-.17-.03-.25-.05-1.76-.33-3.27-.32-4.89-.06h-.33c-3.94.75-3.28-1.83-3.55-4.67v-.16c-.1-2.05-.19-4.24-.25-5.42v-.2c.34-.35-.2-.6.2-.69h.17c.2 0 .48-.01.79-.02h.14c1.6-.39 3.44-.13 5-.12.02.38.04.76.07 1.13 0 .07.01.15.02.22.34 1.71.17 3.5.27 5.35 0 .07 0 .13.01.2.08-.02.16-.03.24-.04s.16-.03.23-.04c1.08-.17 2.02-.16 3.19-.09h.13l.53-.02s-.04.76-.08 1.66v.17c.34.95-.4 1.72-.07 2.72v.13ZM154.73 60.07c.14.13.15.39.17.65h1.1c.05 0 .1 0 .16-.01 1.08.27 2.3-1 2.88.02.85 1.36.49 2.18-.36 2.56-.07.03-.13.06-.2.08-.8.42-1.87-.1-2.98.17h-.12v.25c1.32.75 2.81-.27 4.06.45.08.02.15.03.23.05.15.03.29.05.43.06v.18c.06.88.19 3.24.19 3.24h-.73c-.07-.02-.13-.02-.21-.02-1.34.24-2.55.24-3.8.14-.08 0-.16-.01-.24-.02-.82 0-1.65 0-2.49-.02h-.23c-2.96.55-3.35-1.76-3.33-4.12 0-.05 0-.11-.01-.16-.05-.65-.09-1.32-.14-1.99 0-.06 0-.12-.01-.18.31-1.46-.05-3.25-.4-4.78 1.01 0 2.01 0 3.03.03h.22c1.34.34 2.47.21 3.6.08.07 0 .15-.02.22-.03 1.21-.06 2.99-.56 3.55.2.64.78.83 1.53.65 2.11-.02.06-.04.11-.07.17-.63 1.03-1.91 1.28-3.22.78h-.32c-.47-.02-.99-.02-1.51.09h-.13ZM101.91 136.35c-1.59-.42-3.54-.69-4.95-.67-.84.01-1 .06-.99.26s.1.24 1.6.47c4.33.68 4.84 1.15 4.91 3.54.01.45 0 .85-.06 1.21-.01.09-.03.18-.05.26-.45 2.23-2.95 2.26-4.92 2.32h-.18c-.3.01-.61.02-.93.02h-.95c-.11 0-.22 0-.33-.01-2.04.02-5.66.36-4.82-2.56 0-.11.01-.23.02-.34 0-.11.01-.22.02-.33 0-.07 0-.14.01-.21.13-.19.12-.76.11-1.04.85.55 1.96.54 3.15.86.11.02.23.04.34.05.79.11 1.56.18 2.21.17.35 0 .45-.09.44-.27 0-.23-.17-.28-.96-.38-.32-.05-.63-.09-.92-.14-.06 0-.11-.02-.17-.03-2.97.29-5.54-2.51-4.11-5.51.05-.1.1-.2.16-.29 2.02-3.46 8.01-1.6 11.5-1.48l.24.06.24.06-.62 3.98ZM115.02 136.18q-.33-.05-.55-.04c-.1 0-.19-.02-.29-.03-.68-.06-1.39-.07-1.96.33-.28 0 .04 1.12.08 1.62v.2c.02.41.03.85.05 1.3v.23c.02 1.15.35 2.84-.18 3.42-1.08.87-3.04.33-4.64.14h-.21c-.94-.03-1.63-.06-1.63-.06s.06-1.77.11-3.53v-.24c.91-2.44-.53-4.11-3-3.51 0-.28-.02-.84.08-1.06V133.12c.1-.48.08-1.04.08-1.04 1.91-.58 3.58-.32 5.47-.35h.3c.9 0 1.79 0 2.74.02h.22c1.86.01 3.27.02 3.27.02l.03 1.29v.22c-.15.35-.15.7-.11 1.05.01.09.02.17.04.26 0 .41.01.98.08 1.34v.25ZM121.79 143.48h-.2c-1.69 0-2.91-.13-3.79-.49-.09-.03-.17-.07-.25-.11-1.47-.6-1.83-2.16-1.95-3.68 0-.11-.02-.22-.02-.32.24-1.65-.64-3.32.32-5.03.03-.08.06-.15.09-.22.29-.65.73-1.11 1.39-1.44.07-.04.15-.07.23-.1 1.57-.77 3.5-.51 5.32-.67.1-.04.2-.07.3-.1 1.9-.54 3.97.27 5.26 1.91.05.08.1.15.15.23.19.32.35.69.47 1.11.03.11.06.21.09.33.04.1.07.19.1.29s.05.2.08.3c.19 1.86.55 3.82-.24 5.81-.04.09-.09.18-.14.27-.3.52-.72.94-1.29 1.17-.08.04-.17.08-.27.11-.08.03-.17.06-.26.09-1.75.37-3.41.4-5.02.54h-.38Zm.76-8.35c-.99.91-.12 2.02-.39 2.8V138.51c0 .07.01.13.02.19 0 .06.01.12.02.17 0 .07.02.13.02.18-.22.92.59.62.87.62-.02-.47-.03-.74 0-1.07 0-.07.01-.13.02-.2-.02-.21-.04-.41-.05-.6 0-.09-.02-.19-.02-.28-.06-.94-.09-1.5-.24-2.34a.359.359 0 0 0-.24-.05ZM136.6 140.29c.55 1.15-.21 2.57-1.29 2.86-1.34.58-2.48-.25-3.54 0-.1.01-.2.03-.29.05-.1.02-.19.05-.29.08-.12 0-.21-.02-.26-.08-.28-.44-.42-.93-.5-1.45-.01-.1-.03-.21-.04-.32.08-2.16-.01-4.41-.29-6.67l-.02-.28-.05-.79c0-.06 0-.13-.01-.19-.1-.66-.15-1.77-.15-1.77 2.43-.59 4.89-.34 7.36-.41.1 0 .21 0 .31-.01.41-.02.82-.04 1.22-.07h.22c2.54-.06 3.67.29 4.1 2.37l.03.18c-.25 1.68.95 3.9-1.15 4.95-.09.05-.17.09-.26.14-1.32.67-2.79 1.1-4.24 1.31-.1.01-.21.03-.31.04-.09 0-.18.02-.27.03-.09 0-.18.02-.28.03Zm-.15-5.47c.15.74.19 1.58.23 2.42.81-.29 1.56-1.7.7-2.52-.27 0-.54 0-.74.06-.06.01-.12.03-.19.05ZM150.25 140.1c-.02.87.59 1.99.06 2.27-1.03 1.14-3.24.61-4.79.78-.09 0-.17-.02-.26-.03-.34-.06-.65-.18-.93-.38-.42-.2-.11-1.21-.1-2.13v-.18c-.14-2.17-.79-4.4-.55-6.66 0-.12-.02-.23-.02-.35-.09-1.24-.15-2.09-.15-2.09h.51c.08-.02.17-.02.26-.02 2.16-.06 4.33-.08 6.36-.17.1 0 .21 0 .31-.01h.34c.26-.07.54-.13.82-.17.1-.01.19-.03.29-.04 1.32-.29 2.42.04 3.19.77.07.07.14.14.2.21 1.01.63.82 2.02 1.03 2.93 0 .09.01.19.02.28.09 1.48-.09 2.51-.77 3.26-.05.06-.11.11-.17.17-1.47 1.13-2.92 1.27-4.63 1.46-.11.01-.21.02-.32.04q-.22.1-.51.06c-.06 0-.12.01-.18.02Zm-.19-5.57c.12.77.17 1.52.21 2.27 0 .08 0 .17.01.25.54 0 .78-.57 1-.78.04-.09.07-.19.09-.28.11-.49 0-1.04-.15-1.46-.27 0-.81.01-.99-.05-.06.01-.12.03-.18.04ZM163.46 138.35l-2.51-.06h-.23c-.61.04-1.42.05-2.05-.05h-.7s-.12-1.2-.27-2.6l-.02-.22c-.92-2.27-.37-4.49 1.57-4.66.1 0 .21-.01.32 0 1.45.36 2.8.35 4.12.06.36 1.38-.36 2.77-.08 4.09v.22c-.08 1.69-.15 3.25-.15 3.25Zm-5.45 4.43c-.51-2.74.75-4.44 3.48-3.89.07 0 .14 0 .21-.01l2.24-.13.05.48.04.33c.02 1.22.92 2.61.14 3.18-.76.85-2.18-.25-3.6.05h-.3c-.71 0-1.44 0-2.09-.01H158Z"/><path class="cls-13" d="M92.62 79.18c1.31-.34 2.4.14 2.93.99.05.08.09.16.13.24.46.78.2 1.31 0 2.03-.02.05-.04.1-.07.16-.02.05-.05.1-.08.16-.07.08-.15.15-.24.22-.77.62-1.92.87-2.35.08-.17-.24-.26-.5-.31-.77-.02-.09-.03-.18-.04-.27.04-.82.01-1.87.02-2.68v-.15Zm1.03 3.2c.64.15.89-.38 1.16-.38-.02-.79-.07-2.65-1.12-1.85-.27 0 .03 1.06-.04 1.99v.25ZM96.5 79.15c.93-.07 1.73-.34 2-.08 1.11 1.32-.53.26-1.03 1.59h1.07c0 .26.01.53.02.79h-1.07c0 .26.01.53.02.79.54.26 2.15 0 1.36.53-2.37 1.86-2.45-1.32-2.36-3.43v-.19ZM99.57 79.18c.2-.07.4-.09.58-.07.06 0 .12.02.17.04.87.46.63 1.52 1.18 2.04.25-.79.21-2.11 1.55-2.11-.06.33 0 .71.1 1.1.01.06.03.11.04.17.34.63.6 1.53.26 2.17-.04.07-.08.14-.14.2-.42.33-1.22.59-.91-.48v-.17c0-.4 0-.83-.11-1.14.01.4-.11.79-.3 1.06-.05.07-.1.12-.16.17-.3.09-.57.09-.8.03a.609.609 0 0 1-.16-.16c-.19-.27-.26-.74-.45-1.1-.12.4-.04.79 0 1.19 0 .08.02.16.02.24.03.42.05.95-.85.89-.11-.04-.19-.1-.19-.2-.01-.47 0-.91.04-1.34 0-.09.01-.17.02-.25-.38-.26.42-.52.06-.76 0-.08.01-.17.02-.25.02-.34.03-.68.02-1.04v-.22Z"/><path class="cls-13" d="M105.77 83.24c-1.78.06-2.66-2.32-1.36-3.69.06-.06.12-.12.2-.17s.15-.1.23-.14c.22-.11.48-.16.79-.16s.57.05.8.16c.22.1.41.25.56.43s.26.4.34.66c.02.06.04.13.05.19.32 1.44-.17 2.76-1.38 2.7-.07 0-.14.01-.22.01Zm-.02-.84c.87-.69 1.09-2.01.01-2.27-.81-.26-1.03 1.32-.34 2.2.09.05.2.07.32.07ZM94.22 89.95c-.28.3-.57-.51-.96-.32-.08-.05-.15-.11-.21-.17-.62-.61-.45-1.65-.27-2.41.25-.8 1.32-1.07 2.14-.8a2.198 2.198 0 0 1 .44.44c.69 1.42.45 2.76-.95 3.26h-.18Zm-.02-.84c.51-.47.76-1.01.24-1.9-.06-.03-.14-.04-.24-.03a.93.93 0 0 0-.34.12c-.17 0-.33.42-.26.89.01.09.03.19.07.29.22-.11.23.15.33.55.06.05.13.07.2.07ZM96.6 88.27c-.02-.44.78-.71.77-1.24-.28-.27-1.33.8-1.34-.4 0-.07.01-.14.03-.21a.83.83 0 0 1 .06-.21h2.39l.11.15s-.26.47-.48.86c-.03.06-.06.11-.09.16.43.71 1.26 1.25.48 2.32-.8.54-1.59 1.07-2.42.27 0-.27-.01-.53-.02-.8.28.53.82.26 1.36.26.27 0 .26-.53.25-.8-.01-.53-.55-.27-.95-.17l-.13-.19ZM99.19 88.9l.25-.03c.08-.01.16-.01.23-.01s.15 0 .23.01l.25.03c.02.09.03.17.04.25 0 .08.02.16.02.23v.23c0 .08-.01.16-.03.25-.09.02-.17.03-.25.03s-.16.01-.23.01-.15 0-.23-.01l-.25-.03c-.02-.09-.03-.17-.04-.25 0-.08-.02-.16-.02-.23v-.23c0-.08.01-.16.03-.25ZM101.52 89.02v-.12c0-.07 0-.18-.01-.29-.07-.51-.07-.78-.09-1.31 0 .27-.26.27-.53.27-.28-.27-.28-.53-.29-.8.54 0 1.06-.53 1.33-.54 1.35.26.05 1.6.54 2.18v.61h.73c.14-.13.15.14.06.41v.21c0 .07-.02.14-.03.22h-2.42c-.04-.14-.06-.28-.06-.42 0-.13 0-.27.04-.41h.74Z"/><path class="cls-13" d="M105 89.91c-1.62-.23-1.96-2.36-1.18-3.43.52-.53 1.33-.53 1.87-.27 1.11 1.06 1.17 2.92-.51 3.69-.06 0-.12 0-.18.01Zm0-.83c.24-.2.51-.2.5-.47-.02-.53.21-1.86-.85-1.33-.54 0-.24 1.07.15 1.73.06.04.13.06.2.06ZM106.92 88.87h1c0 .27.03.8.03 1.07h-1.08c0-.26-.02-.53.01-.82 0-.08.02-.16.03-.25Z"/><path class="cls-19" d="M191.97 61.59c.15 3.17-2.47 5.73-5.86 5.72-3.39-.01-6.26-2.6-6.41-5.77-.15-3.17 2.48-5.72 5.87-5.7s6.25 2.59 6.4 5.76Z"/><path class="cls-14" d="M191.1 61.59c.13 2.72-2.12 4.92-5.03 4.9-2.91-.01-5.37-2.23-5.5-4.95-.13-2.72 2.13-4.91 5.03-4.89 2.9.01 5.36 2.23 5.49 4.94Z"/><path class="cls-19" d="M193.07 84.27c.15 3.2-2.48 5.78-5.88 5.78-3.41 0-6.29-2.61-6.43-5.81-.15-3.19 2.49-5.77 5.89-5.76 3.4.01 6.27 2.6 6.43 5.79Z"/><path class="cls-14" d="M192.19 84.27c.13 2.74-2.13 4.96-5.05 4.95-2.92 0-5.39-2.24-5.52-4.98-.13-2.74 2.14-4.95 5.05-4.95s5.38 2.23 5.51 4.97Z"/><path class="cls-19" d="M190.55 145.05c.09 1.84-1.41 3.33-3.34 3.34-1.93 0-3.57-1.48-3.66-3.32-.08-1.84 1.41-3.33 3.35-3.33 1.93 0 3.57 1.48 3.65 3.32Z"/><path class="cls-14" d="M190.05 145.05c.07 1.58-1.21 2.86-2.87 2.86-1.66 0-3.06-1.27-3.14-2.85-.07-1.58 1.21-2.86 2.87-2.86s3.06 1.27 3.14 2.84Z"/><path class="cls-19" d="m229.72 59.96-34.9-.16-.16-3.17 34.88.17.18 3.16zM230.98 82.83l-35.04-.1-.16-3.19 35.02.11.18 3.18z"/><path class="cls-14" d="M220.12 63.61 195 63.5l-.09-1.9 25.11.12.1 1.89zM240.73 86.45l-44.62-.11-.09-1.91 44.6.11.11 1.91zM235.24 90.03l-38.95-.08-.09-1.91 38.94.09.1 1.9zM241.14 93.65l-44.67-.09-.1-1.91 44.66.09.11 1.91zM241.35 97.25l-44.71-.07-.09-1.92 44.69.08.11 1.91zM228.85 100.85l-32.03-.04-.1-1.92 32.03.04.1 1.92zM241.96 108.1l-44.79-.03-.09-1.93 44.77.04.11 1.92zM239.91 111.72l-42.56-.01-.09-1.93 42.54.02.11 1.92zM242.38 115.36l-44.85-.01-.1-1.93 44.84.01.11 1.93zM233.73 118.99l-36.02.01-.1-1.94h36.02l.1 1.93zM242.79 122.63l-44.91.02-.09-1.93 44.89-.02.11 1.93zM212.46 126.3l-14.4.01-.09-1.94 14.39-.01.1 1.94zM203.75 145.6l-10.76.02-.05-1.15 10.75-.03.06 1.16z"/><path class="cls-19" d="m217.37 145.57-12.47.02-.06-1.15 12.47-.03.06 1.16z"/><path class="cls-14" d="m222.65 145.55-3.97.01-.06-1.15 3.97-.01.06 1.15z"/><path class="cls-19" d="m237.75 145.52-14.01.03-.06-1.15 14.01-.03.06 1.15z"/><path class="cls-9" d="m174.24 73.29 73.02.26M177.19 139.17l73.89-.14"/><path class="cls-12" d="M28.06 13.54c-4.3-.04-7.77 3.16-7.7 7.11l.52 31.18 95.37 123.05 62.54-.29L53.63 13.75l-25.58-.21ZM71.68 13.9l126.07 160.58 43.69-.2L115.53 14.26l-43.85-.36z"/><path d="m322.16 191.85-306.1 1.89c-.68 0-1.24-.52-1.25-1.16l-.06-4.07 307.06-1.77c.65 0 1.21.5 1.26 1.13l.2 2.83c.04.63-.45 1.14-1.1 1.15Z" style="fill:#6a6b6b;stroke:#1d1d1b;stroke-width:1.43px;stroke-miterlimit:10"/><path d="M167.11 8.29c.09 2.07-1.65 3.74-3.89 3.72-2.24-.02-4.13-1.72-4.22-3.79-.09-2.07 1.66-3.73 3.89-3.71 2.24.02 4.12 1.71 4.22 3.78Z" style="fill:#6a6b6b"/></g></g></svg>