<svg id="Ebene_2" data-name="Ebene 2" xmlns="http://www.w3.org/2000/svg" viewBox="0 0 400 367.08"><defs><style>.cls-1{fill:#474c52}.cls-1,.cls-10,.cls-11,.cls-3,.cls-4,.cls-5,.cls-9{stroke:#1d1d1b}.cls-1,.cls-11,.cls-13,.cls-9{stroke-miterlimit:10}.cls-1,.cls-11,.cls-9{stroke-width:2px}.cls-10,.cls-17,.cls-3,.cls-4,.cls-5{stroke-linecap:round;stroke-linejoin:round}.cls-10,.cls-3,.cls-4{stroke-width:1.6px}.cls-13{stroke:#000}.cls-3{fill:#839ca4}.cls-13{fill:#3d3d3d;stroke-width:1px}.cls-4{fill:#d3dadb}.cls-5{stroke-width:2.41px}.cls-17,.cls-5{fill:none}.cls-18{fill:#56595b}.cls-17{stroke:#e0e2e2;stroke-width:.8px}.cls-9{fill:#27292e}.cls-11{fill:#404345}.cls-10{fill:#1d1d1b}</style></defs><g id="kopien"><g id="mic"><g id="lautspr"><path d="M398.97 74.91c-.76 20.83-.28 65.51-1.44 86.33-3.16 56.17 1.16 94.83-1.96 144.22 0 .48-.04.96-.08 1.44-1.32.36-2.6.72-3.92 1.08h-.04c-5.93 1.64-11.73 3.55-17.62 5.35-54.78 16.88-38.28 11.29-94.06 24.42-28.79 6.74-83.45 17.95-113.52 28.65-.84-.2-1.68-.36-2.48-.52v-.04l-1.08-35.59-.96-32.44c-.24-7.62-.44-15.2-.68-22.82-.28-9.81-.56-19.67-.56-29.48.08-54.98 10.73-113.26 8.85-168.36l2.8-.12h.08c11.25-.6 22.38-1.64 33.48-4.31 68.35-16.6 92.1-18.27 161.81-27.73 10.41-1.4 20.78-2.79 31.15-4.23-2.48 16.52.92 16.48.24 34.15Z" style="fill:#292c30;stroke-width:1px;stroke:#000;stroke-miterlimit:10"/><path d="M398.85 40.08c-.04.24-.08.44-.12.68-10.37 1.44-20.74 2.83-31.15 4.23-69.71 9.46-93.46 11.13-161.81 27.73-11.09 2.67-22.22 3.71-33.48 4.31h-.08c-.96-.44-1.88-.8-2.84-1.16-.44-.2-.9-.46-1.36-.52-10.82-1.47-24-2.59-36.25-3.23-13.89-.68-28.5-3.16-43.31-3.84-.92-.04-1.84-.08-2.76-.16-28.51-1.36-57.78-3.39-84.53-8.22-.04-.6-.04-1.16-.08-1.76C94.1 42.3 141.35 35.08 230.61 19.4c8.09 1.2 16.14 2.35 24.23 3.43 25.91 3.55 51.94 6.54 77.92 9.58 22.02 2.55 44.09 5.11 66.11 7.66Z" style="stroke:#000;fill:#83898f;stroke-width:2px;stroke-miterlimit:10"/><path class="cls-1" d="M161.11 274.99c-.28-9.81-.56-19.67-.56-29.48.08-54.98 12.1-112.75 11.92-167.61.04-.44-1.49-1.09-1.53-1.53-.44-.2-2.48-.94-2.94-1.02-12.06-2.04-24-2.59-36.25-3.23-13.89-.68-28.5-3.16-43.31-3.84-.92-.04-1.84-.08-2.76-.16h-.04C57.13 66.76 27.9 64.73 1.15 59.9c3.44 83.86 12.77 160.7 8.25 242.65 21.9 2.75 43.73 6.06 65.43 9.85l2.76.48 2.76.48c.8.12 1.64.28 2.44.44.44.08.84.16 1.28.24.44.08.84.12 1.28.24.36.04.76.12 1.12.2 1.24.2 2.48.44 3.72.64 24.31 4.43 48.49 9.5 72.56 15.12l-.96-32.44c-.24-7.62-.44-15.2-.68-22.82Zm-33.16 3.31c-6.25 11.57-15.02 22.98-27.67 26.57-.76.2-1.52.4-2.28.56-3.88.76-7.85.84-11.81.36-.32 0-.64-.04-.96-.08-1.16-.12-2.28-.32-3.44-.52-.92-.2-1.84-.36-2.76-.56s-1.84-.44-2.72-.68c-19.58-5.07-39.12-18.35-42.85-38.18-2.12-11.49 1.32-23.26 5.73-34.07 3.64-8.98 9.01-14.16 17.94-19.43 4.69-2.79 12.41-5.15 20.26-4.99 1.12 0 2.28.04 3.44.12h.32c10.41.52 21.06 2.67 27.59 5.94 14.46 7.18 27.27 24.3 26.91 40.65-.16 8.58-3.64 16.76-7.69 24.3Zm8.41-113.14c-4.2 8.06-8.92 16.17-15.85 22.21-7.26 6.33-16.51 9.51-25.78 11.6-12.45 2.81-23.56-.11-35.32-4.01-7.23-2.4-13.05-5.07-17.47-11.48-1.14-1.66-2.18-3.39-3.2-5.12-7.41-12.61-9.65-27.73-8.81-42.33.32-5.39 1.04-10.81 2.52-16 4.64-16.24 17.38-29.64 32.84-36.27 6.53-2.79 13.17-3.99 19.74-3.99h.32c.92 0 1.8.04 2.72.08 9.21.52 18.38 3.23 27.31 7.1 4.85 2.07 9.61 4.67 13.45 8.26s6.77 8.06 9.01 12.81c8.45 17.83 7.65 39.62-1.48 57.13Z"/><path class="cls-11" d="M137.84 108.02c-2.24-4.75-5.17-9.22-9.01-12.81s-8.61-6.18-13.45-8.26c-8.93-3.87-18.1-6.58-27.31-7.1-.92-.04-1.8-.08-2.72-.08h-.32c-6.57 0-13.21 1.2-19.74 3.99-15.46 6.62-28.19 20.03-32.84 36.27-1.48 5.19-2.2 10.61-2.52 16-.84 14.6 1.4 29.72 8.81 42.33 3.94 6.71 7.98 11.83 15.38 14.74 10.35 4.07 21.15 7.48 32.4 6.95 10.82-.5 22.69-4.12 31.44-10.63 8.02-5.97 13.33-14.65 17.92-23.34.16-.31.32-.62.49-.93 9.13-17.51 9.93-39.3 1.48-57.13Zm-15.7 48.67c-4.52 9.38-10.17 18.83-19.1 24.26-8.25 4.99-18.78 5.94-27.95 2.91-9.21-2.99-16.98-9.81-21.58-18.31-3.28-6.02-5.01-12.77-6.57-19.47-1.32-5.78-2.52-11.69-2.12-17.59.8-11.73 8.25-22.42 18.1-28.88 9.93-6.5 28.11-13.56 39.4-7.14 12.61 7.26 25.87 26.17 26.31 40.85.28 8.18-2.92 16.04-6.49 23.38Z"/><path class="cls-9" d="M102.33 92.46c-11.29-6.42-29.47.64-39.4 7.14-9.85 6.46-17.3 17.16-18.1 28.88-.4 5.9.8 11.81 2.12 17.59 1.56 6.7 3.28 13.44 6.57 19.47 4.6 8.5 12.37 15.32 21.58 18.31 9.17 3.03 19.7 2.07 27.95-2.91 8.93-5.43 14.58-14.88 19.1-24.26 3.56-7.34 6.77-15.2 6.49-23.38-.44-14.68-13.7-33.59-26.31-40.85Zm15.3 49.11c-1.56 10.93-6.09 21.86-14.54 29.04-8.41 7.22-21.14 9.97-31.03 4.95-5.85-2.95-10.25-8.26-13.41-14-6.53-11.81-10.61-31.56-4.32-44.4 5.41-11.17 24.51-20.67 36.32-19.83 9.37.68 17.78 6.9 22.34 14.88 5.05 8.74 6.05 19.35 4.65 29.36ZM108.73 213.35c-6.53-3.27-17.18-5.43-27.59-5.94h-.32c-1.16-.08-2.32-.12-3.44-.12-7.85-.16-15.58 2.19-20.26 4.99-8.93 5.27-14.3 10.45-17.94 19.43-4.4 10.81-7.85 22.58-5.73 34.07 3.72 19.83 23.26 33.11 42.85 38.18.88.24 1.8.48 2.72.68s1.84.36 2.76.56c1.16.2 2.28.4 3.44.52 4.28.56 8.57.56 12.77-.28.76-.16 1.52-.36 2.28-.56 12.65-3.59 21.42-15 27.67-26.57 4.04-7.54 7.53-15.72 7.69-24.3.36-16.36-12.45-33.47-26.91-40.65Zm7.49 67.3c-9.33 13.13-26.75 19.99-42.57 16.68-5.69-1.16-11.21-3.59-15.62-7.42-6.29-5.47-12.53-10.01-15.94-17.63-3.36-7.54-4.12-19.39-1.4-27.21 1.84-5.35 4.32-9.46 7.49-12.81 1.4-2.15 2.92-2.95 5.21-4.51.12-.12.28-.2.44-.32 1.04-.72 2.2-1.6 3.6-2.87 3.04-2.71 6.41-5.11 10.17-6.7 2.84-1.2 5.89-1.99 8.97-2.39 15.98-2.15 32.88 5.9 41.24 19.63 8.37 13.76 7.73 32.44-1.6 45.56Z"/><path class="cls-1" d="M162.75 330.24c-24.07-5.63-48.25-10.69-72.56-15.12-.56-.08-1.12-.2-1.68-.28-.08 0-.12-.04-.2-.04-.6-.12-1.24-.2-1.84-.32-.36-.08-.76-.16-1.12-.2-.44-.12-.84-.16-1.28-.24-.44-.08-.84-.16-1.28-.24-.8-.16-1.64-.32-2.44-.44l-2.76-.48-2.76-.48c-21.7-3.79-43.53-7.1-65.43-9.85-.56 10.89-1.44 21.86-2.56 32.95 22.5 4.27 38.92 8.78 50.61 10.61-.68.64 12.17 2.47 22.46 4.03.16.04.36.08.52.08.48.12.96.2 1.44.24.36.04.72.12 1.04.16.36.08.72.12 1.08.2.32.04.6.08.88.16 4.61.76 7.81 1.4 7.45 1.72 29.27 6.54 43.09 6.94 71.52 13.13l-1.08-35.59ZM30.77 322.5c-1.12 1.48-3.52 1.72-5.09.68s-2.24-3.11-1.92-4.99c.24-1.24 1-2.51 2.24-2.83.96-.24 3.88.24 5.13 1 1.76.64.76 4.63-.36 6.14Zm25.19 4.67c-.32 1.91-2.52 3.27-4.44 2.87-1.96-.44-3.36-2.35-3.4-4.31 0-.92.44-1.84 1.08-2.51l.04-.04c.88-.84 2.08-1.28 3-.64h.04c1.96-.28 4 2.67 3.68 4.63Zm40.28 7.9c-.4 4.79-4.08 9.3-8.89 10.05-.72.12-1.44.16-2.16.08-.28 0-.56 0-.84-.04-.16 0-.32 0-.48-.04-.84-.12-1.68-.32-2.52-.56h-.04c-.48-.08-.92-.2-1.4-.36-2.36-.68-4.76-1.52-6.73-2.99-5.41-4.07-6.09-13.01-1.36-17.83 2.48-2.59 6.21-3.67 9.81-3.27.48.04 1.08.12 1.72.16l.96.12c.36.04.76.12 1.12.2.6.12 1.2.24 1.8.4.6.12 1.16.32 1.72.52.44.16.84.32 1.2.52.84.4 1.52.92 2 1.52 3.52 2.87 4.45 6.86 4.08 11.53Zm23.75 2.59c.44 1.95-1.32 2.79-3.24 2.87-1.36.04-2.72-.76-3.4-1.95s-.68-2.71-.12-3.99c.44-.92 1.24-1.6 2.28-1.6.56 0 1.16 0 1.68.2.48-.2 1.36.68 1.72 1.24.28.4.64.52.8 1 .44 1.2.52 1.32.28 2.23Zm18.22 5.94c-2.44.28-4.6-2.07-4.8-4.51-.08-.92.08-1.95.64-2.67 1.2-1.56 3.56-1.48 5.53-1.24 1.28.52 1.6 1.6 1.92 3.11.48 2.39-.84 5.03-3.28 5.31Z"/><path class="cls-11" d="M138.2 343.61c-2.44.28-4.6-2.07-4.8-4.51-.08-.92.08-1.95.64-2.67 1.2-1.56 3.56-1.48 5.53-1.24 1.28.52 1.6 1.6 1.92 3.11.48 2.39-.84 5.03-3.28 5.31ZM120.15 337.66c.01.59-.08 1.15-.32 1.58-.54.97-2.09 1.26-3.09 1.29-1.36.04-2.72-.76-3.4-1.95-1.24-2.18-.28-5.5 2.54-5.63 1.48-.07 2.91.85 3.61 2.15.36.65.64 1.64.66 2.57ZM30.77 322.5c-1.12 1.48-3.52 1.72-5.09.68-1.56-1.04-2.24-3.11-1.92-4.99.24-1.24 1-2.51 2.24-2.83.96-.24 3.88.24 5.13 1 1.76.64.76 4.63-.36 6.14Z"/><path class="cls-1" d="M55.96 327.17c-.32 1.91-2.52 3.27-4.44 2.87-1.96-.44-3.36-2.35-3.4-4.31 0-.92.44-1.84 1.08-2.51l.04-.04c.88-.84 2.08-1.28 3-.64h.04c1.96-.28 4 2.67 3.68 4.63Z"/><path d="M92.16 323.54c-1.28-1.64-4.08-2.47-6.73-2.95-.36-.08-.76-.16-1.12-.2l-.96-.12c-.64-.04-1.24-.12-1.72-.16-3.6-.4-7.33.68-9.81 3.27-4.73 4.83-4.04 13.76 1.36 17.83 1.96 1.48 4.37 2.31 6.73 2.99.48.16.96.28 1.44.36.84.24 1.68.44 2.52.56.16.04.32.04.48.04 1 .12 2 .12 3-.04 4.8-.76 8.49-5.27 8.89-10.05.36-4.67-.56-8.66-4.08-11.53Zm-.92 8.3h-.2c.2 2.31-.76 4.75-2.6 6.18-2.56 1.99-6.45 1.99-9.09.12-2.68-1.84-4-5.31-3.52-8.54.2-1.04.56-2.11 1.32-2.87.6-.56 1.4-.92 2.2-1.16 4.32-1.36 9.41.44 11.97 4.15.48.68.68 1.87-.08 2.11Z" style="fill:#404345;stroke:#000;stroke-width:2px;stroke-miterlimit:10"/><path class="cls-11" d="M91.5 331.89c-.15 2.24-1.48 4.89-3.07 6.13-2.56 1.99-6.45 1.99-9.09.12-3.38-2.4-5.29-8.23-1.97-11.47 2.35-2.29 6.32-1.83 9.14-.78 2.26.84 4.44 2.14 4.93 4.69.08.41.1.85.07 1.31Z"/><path class="cls-9" d="M106.25 281.41c-4.68 3.87-10.53 6.14-16.46 7.54-4.36 1.04-8.85 1.68-13.29 1.36-13.17-1-25.15-10.85-28.95-23.46-3.8-12.61.6-27.17 10.45-35.95 22.54-19.99 57.26-6.34 59.26 23.38.68 10.09-3.16 20.67-11.01 27.13Z"/><path class="cls-11" d="M117.82 235.09c-8.37-13.72-25.27-21.78-41.24-19.63-3.08.4-6.13 1.2-8.97 2.39-3.76 1.6-7.13 3.99-10.17 6.7-1.4 1.28-2.56 2.15-3.6 2.87-.16.12-.32.2-.44.32-1.92 1.36-3.64 2.83-5.21 4.51-3.16 3.35-5.65 7.46-7.49 12.81-2.72 7.82-1.96 19.67 1.4 27.21 3.4 7.62 9.65 12.17 15.94 17.63 4.41 3.83 9.93 6.26 15.62 7.42 15.82 3.31 33.24-3.55 42.57-16.68 9.33-13.13 9.97-31.8 1.6-45.56Zm-11.57 46.32c-4.68 3.87-10.53 6.14-16.46 7.54-4.36 1.04-8.85 1.68-13.29 1.36-13.17-1-25.15-10.85-28.95-23.46-3.8-12.61.6-27.17 10.45-35.95 22.54-19.99 57.26-6.34 59.26 23.38.68 10.09-3.16 20.67-11.01 27.13Z"/><path d="M93.64 139.74c-1.48 2.51-3.12 4.95-4.97 7.22-2.36 2.99-6.41 3.83-10.01 2.59-1.36-.52-2.48-1.56-3.36-2.75-2.08-2.91-2.44-4.43-2.6-8.02-.2-4.95.84-10.25 4.32-13.72 5.09-4.95 11.05-1.95 14.74 3.59 2.24 3.39 3.88 7.54 1.88 11.09Z" style="fill:#27292e"/><path d="M112.98 112.21c-4.56-7.98-12.97-14.2-22.34-14.88-11.81-.84-30.91 8.66-36.32 19.83-6.29 12.85-2.2 32.59 4.32 44.4 3.16 5.74 7.57 11.05 13.41 14 9.89 5.03 22.62 2.27 31.03-4.95 8.45-7.18 12.97-18.11 14.54-29.04 1.4-10.01.4-20.63-4.65-29.36Zm-14.7 34.03c-2.44 5.55-8.49 9.18-14.58 9.38-6.09.16-10.77-2.51-14.7-7.18-.92-1.12-1.76-2.35-2.2-3.75-.56-1.92-.96-3.59-.76-6.98.28-4.75 1.64-8.74 4.41-12.57 13.25-18.35 35.36 4.23 27.83 21.1Z" style="fill:#c2bcb8;stroke-width:2px;stroke-miterlimit:10;stroke:#1d1d1b"/><path class="cls-11" d="M70.45 125.14c-2.76 3.83-4.12 7.82-4.41 12.57-.2 3.39.2 5.07.76 6.98.44 1.4 1.28 2.63 2.2 3.75 3.92 4.67 8.61 7.34 14.7 7.18 6.09-.2 12.13-3.83 14.58-9.38 7.53-16.88-14.58-39.46-27.83-21.1Zm23.19 14.6c-1.48 2.51-3.12 4.95-4.97 7.22-2.36 2.99-6.41 3.83-10.01 2.59-1.36-.52-2.48-1.56-3.36-2.75-2.08-2.91-2.44-4.43-2.6-8.02-.2-4.95.84-10.25 4.32-13.72 5.09-4.95 11.05-1.95 14.74 3.59 2.24 3.39 3.88 7.54 1.88 11.09Z"/><path class="cls-18" d="m57.3 49.38-13.45 2.37s-6.11.9 0 2.57 14.83-1.17 19.55-1.17c3.8 0 16.77.13 20.83-1.01 3.12-.88 8.66-1.89 12.41-2.07s111.78-3.06 111.78-3.06 6.48-2.6 8.52-2.92c9.57-1.49 19.44-3.55 29.26-2.67 2.51.22 5 .64 7.44 1.27 2.22.58 3.3 1.39 5.11 2.56 2.57 1.67 5.61 2.79 8.46 3.9.2.08.4.15.6.23L253.75 38.2l-30.83-4.57h-53.01L57.3 49.38ZM210.91 22.85s6.89 1.06 9.1 1.39 8.35 1.36 10.73 2.55 6.13 3.35 8.01 3.63 8.35.96 8.35.96l-13.15-9.17-14.63-3.9-8.42 4.55ZM276.62 33.63c6.31-.02 12.64-.11 18.94.28 3.25.2 6.49.52 9.7 1.05 1.51.25 3.01.59 4.51.83 1.03.16 2.37.16 3.1 1.05 1.36 1.67 4.26.99 4.26.99L311 29.54l-25.05.89-9.34 3.21Z"/></g><path style="fill:none;stroke:#000;stroke-width:2px;stroke-miterlimit:10" d="M211.88 29.31h-.04"/><path class="cls-13" d="M233.95 32.22s18.07 1.93 22.36 4.62c4.69 2.94 10.99 8.63 15.93 10.41s22.41 1.44 26.84.17 15.51-3.95 16.53-7.02-2.39-5.25-7.67-6.71-12.1-1.81-18.91-1.47-13.8 2.32-21.13 1.47c-4.7-.55-22.45-2.06-27.26-4.38-5.57-2.69-18.95-8.31-21.14-7.93s-5.43 1.25-5.87 1.59-6.56-.68-6.56-.68 5.88-6.03 12.27-6.37c6.79-.36 18.4 6.96 22.83 8.83s21.13 4.35 25.22 4.55c4.09.2 13.72-1.67 20.66-2.17s19.34.34 22.45 1.53c4.36 1.67 8.92 4.78 10.14 8.23 1.11 3.14.77 7.38-5.37 9.76-6.13 2.38-13.97 4.07-19.25 4.75-5.28.68-20.36 1.36-25.13-.51s-13.04-8.4-16.1-10.14-22.15-4-22.15-4l1.33-4.53Z"/><path class="cls-13" d="M233.95 32.22c-.24 2.51-.52 5.94-1.24 6.86-1.28 1.68-20.46-.2-20.46-.2.28-.84.52-1.72.6-2.63.2-1.56.08-3.11-.28-4.63-.2-.8-.44-1.56-.68-2.31h19.34c1.6 0 2.84 1.36 2.72 2.91Z"/><path class="cls-3" d="M193.37 31.71c.84-1.22 2.75-1.73 3.97-.83.27.21.54.53.74.83.77 1.25.75 2.98-.18 4.13-.83 1.02-2.75 1.32-3.95.64-.13-.04-.22-.11-.34-.19-1.91-1.44-1.01-3.45-.24-4.58Zm19.74-.01c-.19-.75-.41-1.45-.64-2.16h-.04c-.52-1.6-1.27-3.13-2.02-4.62-.04-.11-.6-.67-1.16-1.27-6.7-1.6-5.92-1.72-15.98-2.46-19.47-1.42-35.71-3.39-55.22-5.89-5.09-.63-15.91-2.01-20.93-2.65l-.3-.04c.04.3.07.6.11.9 1.46 11.26.82 21.6-2.7 32.26.52.04 1.09.04 1.61.04 30.32.19 62.22.48 92.58.67.75-1.12 1.46-2.24 2.13-3.36.41-.75.86-1.53 1.24-2.28.37-.78.75-1.53 1.01-2.35.26-.78.49-1.6.56-2.46.19-1.45.07-2.91-.26-4.33Z"/><path class="cls-4" d="M193.37 31.72c.85-1.24 2.74-1.74 3.95-.85.3.24.55.53.76.85.77 1.25.76 2.97-.17 4.1-.85 1.03-2.77 1.33-3.97.67-.12-.06-.22-.12-.32-.21-1.93-1.42-1.02-3.44-.25-4.56Z"/><path class="cls-3" d="M91.83 45.72c.63-.04 1.26-.05 1.85-.05 6.85.04 13.71.07 20.56.11 3.52-10.68 4.16-21.04 2.69-32.3-.04-.29-.08-.57-.11-.86-6.77-.81-15.56-1.55-22.21-3.08 1.08 12.1.15 24.38-2.78 36.17Zm8.5-25.19c2.37.21 4.49.43 5.06.41 3.24-.1 2.93.28 6.13.79-.66-.1-.73 12.24-1.32 13.3-1.81 3.19-7.33.24-10.19 1.04-.33.1-.78.17-.92-.14-.13-.27.2-2.79.24-3.61.22-4.11.62-7.51 1.02-11.8Z"/><path class="cls-4" d="M100.32 20.53c2.37.21 4.49.43 5.06.41 3.24-.1 2.93.28 6.13.79-.66-.1-.73 12.24-1.32 13.3-1.81 3.19-7.33.24-10.19 1.04-.33.1-.78.17-.92-.14-.13-.27.2-2.79.24-3.61.22-4.11.62-7.51 1.02-11.8Z"/><path d="M193.94 36.49c.09.05.17.11.28.16" style="fill:none;stroke-width:1.6px;stroke-linecap:round;stroke-linejoin:round;stroke:#1d1d1b"/><path d="M89.73 7.65c.78.37 1.56.77 2.32 1.16.03 0 .06 0 .07.02.8.26 1.64.5 2.48.71 1.08 12.1.15 24.38-2.78 36.17-1.65.11-3.28.45-4.48 1.29.17-.44.32-.89.46-1.35 3.07-9.26 3.25-19.45 2.75-29.29-.15-2.85-.36-5.7-.8-8.51 0-.08-.02-.14-.03-.22Z" style="stroke-width:1.6px;stroke-linecap:round;stroke-linejoin:round;fill:#eaf0f2;stroke:#1d1d1b"/><path class="cls-10" d="M72.57 1.25c2.54.3 5.02 1.07 7.42 2.02.9.35 1.81.73 2.69 1.12.09.04.18.08.27.11 1.58.69 3.16 1.4 4.72 2.15h.02c.13.06.28.13.41.2.55.24 1.09.52 1.63.79 0 .08.02.14.03.22.14.86.26 1.73.34 2.6.13 1.05.21 2.09.28 3.13v.02c.07.78.12 1.56.16 2.34.02.14.02.28.03.41.08 1.62.14 3.26.18 4.91.03.9.04 1.8.04 2.7v.02c0 .43 0 .84-.01 1.25 0 1.55-.06 3.09-.15 4.62-.12 2.26-.34 4.48-.69 6.68-.22 1.61-.52 3.2-.9 4.79v.02c-.1.46-.23.94-.36 1.42-.25.97-.53 1.94-.85 2.9h-.03c-.56.47-1.13.93-1.73 1.35-.96.7-1.98 1.33-3.03 1.89h-.02c-.8.44-1.61.83-2.45 1.17-.74.3-1.52.58-2.3.83h-.02c-.55.17-1.1.32-1.67.46-2.28.56-4.63.83-6.98.77.04-.47.06-.94.1-1.41.02-.39.05-.79.08-1.18.03-.53.07-1.08.12-1.61 0-.29.03-.58.06-.86.07-.99.13-1.99.2-2.97v-.02c.07-1.03.16-2.07.23-3.11.02-.23.02-.46.04-.68.03-.38.06-.74.08-1.12l.08-.97c.08-1.11.15-2.2.23-3.3.02-.21.02-.44.04-.65.07-1.05.16-2.09.23-3.14.1-1.39.18-2.79.28-4.18.07-.89.13-1.77.19-2.67v-.03c.07-.95.15-1.92.24-2.88.05-.65.12-1.3.18-1.95.09-.95.19-1.9.27-2.86.04-.29.06-.57.09-.86.1-1.04.2-2.09.26-3.13.02-.1.03-.23.03-.33.07-.86.13-1.74.17-2.61.02-.24.02-.49.03-.73.02-.49.04-.99.05-1.49 0-.46.01-.91 0-1.37 0-.73-.02-1.46-.06-2.2 0-.06 0-.14-.01-.2-.03-.79-.08-1.59-.17-2.38ZM43.85 27.67v-.05c.06-1.84.32-3.68.74-5.47.42-1.7.98-3.38 1.73-4.98.02-.04.04-.1.06-.15.24-.56.52-1.12.82-1.65.83-1.55 1.82-3.02 2.94-4.38.08-.1.15-.19.24-.29 1.17-1.38 2.48-2.63 3.92-3.75h.02a27.01 27.01 0 0 1 4.54-2.92c1.85-.93 3.79-1.67 5.81-2.18.69-.17 1.39-.31 2.09-.44.57-.09 1.15-.17 1.73-.22.07.48.14.96.22 1.45.03.2.06.4.1.62.09.6.19 1.22.28 1.82.07.46.14.91.19 1.36.07.63.14 1.26.18 1.89.01.05.02.09.02.14 0 .11.01.2.02.31.05.83.06 1.65.06 2.47v.02c0 .26 0 .53-.02.79-.02.56-.03 1.11-.07 1.65-.04.87-.11 1.71-.21 2.56.01.06 0 .12-.01.17-.05.62-.1 1.24-.17 1.86-.04.5-.1.98-.15 1.48v.02c-.03.36-.06.71-.1 1.07-.1 1.07-.21 2.13-.31 3.2l-.27 2.72c-.12 1.32-.25 2.63-.39 3.95-.1 1.03-.2 2.06-.3 3.07l-.02.23c-.11 1.13-.22 2.27-.34 3.39-.03.35-.06.7-.1 1.03-.03.42-.08.83-.12 1.24-.02.27-.06.54-.08.8l-.24 2.31c-.02.3-.05.61-.09.89-.04.5-.08 1-.14 1.48-.08.74-.14 1.47-.21 2.19v.02c-.07.66-.14 1.31-.21 1.98v.02c-.03.32-.05.65-.1.97v.02c-.04.47-.09.92-.13 1.39-3.18-.52-6.29-1.63-9.09-3.24-1.12-.64-2.21-1.37-3.25-2.17a26.816 26.816 0 0 1-3.6-3.38c-.46-.56-.9-1.12-1.29-1.74-.27-.42-.53-.79-.78-1.15v-.02c-.08-.13-.16-.24-.24-.36-.86-1.27-1.55-2.31-2.11-3.68-.23-.55-.44-1.16-.63-1.86-.14-.53-.28-1.24-.4-2.07-.17-1.05-.32-2.28-.45-3.6-.02-.26-.06-.54-.09-.81Z"/><path class="cls-17" d="M70.82 34.25c.93-.73 1.6-1.79 2.1-2.89.07-.15.15-.31.21-.46.51-1.22.9-2.52 1.03-3.83.1-.88.12-1.77-.01-2.65v-.11a9.77 9.77 0 0 0-.82-2.73c-.36-.78-.82-1.51-1.4-2.17"/><path class="cls-17" d="M70.55 38.2a13.3 13.3 0 0 0 2.7-2.49c.98-1.18 1.78-2.54 2.36-3.97.58-1.43.93-2.97 1.03-4.52 0-.11.02-.23.01-.33.03-.77 0-1.55-.11-2.33-.11-.92-.32-1.85-.6-2.75h-.02c-.59-1.89-1.58-3.68-2.84-5.23-.25-.31-.52-.61-.8-.9"/><path class="cls-17" d="M70.4 40.29c.58-.21 1.16-.47 1.72-.77 1.38-.74 2.65-1.7 3.72-2.84 1.09-1.12 1.99-2.4 2.65-3.79.09-.18.17-.37.24-.56a14.22 14.22 0 0 0 1.14-4.8c.06-.92.05-1.86-.06-2.78h-.02c-.11-.95-.3-1.9-.61-2.81-.11-.34-.23-.69-.37-1.04-.63-1.5-1.49-2.88-2.45-4.21-.59-.83-1.23-1.64-1.86-2.44-.44-.57-.91-1.16-1.45-1.66h-.02c-.14-.15-.3-.28-.46-.39"/><path class="cls-17" d="M72.74 9.61c.78.55 1.5 1.25 2.17 1.93.42.43.85.88 1.27 1.32 1.14 1.24 2.24 2.54 3.18 3.93 1.06 1.58 1.92 3.27 2.44 5.09.07.26.14.54.19.82.15.73.25 1.45.29 2.19.06.98 0 1.97-.12 2.95-.25 1.69-.74 3.37-1.45 4.94-.1.24-.21.47-.32.69-.7 1.42-1.56 2.77-2.53 4.03-.74.96-1.53 1.89-2.37 2.76-.53.55-1.07 1.07-1.63 1.59-.1.1-.2.18-.3.28-.97.88-2.18 1.77-3.43 1.94h-.04s0 .02-.02.01h-.04"/><path class="cls-17" d="M69.93 47.06c1.61-.19 3.15-.75 4.56-1.58.82-.45 1.58-1 2.29-1.6.16-.14.35-.29.5-.45h.02c.69-.63 1.35-1.31 1.94-2.02.69-.8 1.33-1.63 1.95-2.49.4-.56.78-1.14 1.17-1.72.7-1.06 1.4-2.17 2.02-3.31h.02c.9-1.69 1.64-3.45 2.04-5.26.25-1.17.35-2.35.23-3.53-.03-.35-.08-.69-.16-1.05-.18-.82-.45-1.62-.78-2.4-.62-1.41-1.46-2.75-2.28-4.06-.18-.27-.34-.55-.51-.82-.57-.88-1.14-1.78-1.69-2.67-.28-.45-.57-.9-.87-1.34-.94-1.42-1.97-2.77-3.36-3.72-.09-.07-.17-.14-.26-.19-1.18-.77-2.52-1.21-3.91-1.49"/><path class="cls-17" d="M69.76 49.53c.99.1 2.06-.18 3.03-.58h.02c.08-.04.14-.06.21-.09 1.35-.56 2.64-1.26 3.87-2.06.84-.54 1.65-1.14 2.43-1.8.85-.71 1.65-1.5 2.41-2.32.76-.82 1.46-1.71 2.07-2.63.1-.13.19-.26.28-.39 1.01-1.53 1.84-3.19 2.6-4.86.26-.59.53-1.19.77-1.78.53-1.22 1.03-2.48 1.36-3.76.11-.42.19-.85.26-1.29.14-.92.15-1.85.06-2.77-.11-1.27-.42-2.53-.87-3.74-.27-.78-.61-1.53-.98-2.26-.45-.87-.96-1.71-1.5-2.53h-.02c-.92-1.43-1.99-2.78-3.07-4.12-.21-.26-.43-.52-.64-.78-.82-1.01-1.64-2.01-2.61-2.85-.26-.22-.53-.42-.81-.61-1.42-.97-3.09-1.47-4.73-1.97-.36-.11-.72-.21-1.08-.32"/><path class="cls-17" d="M90.5 31.05c-.1 1.79-.56 3.47-1.27 5.08-.77 1.75-1.85 3.4-3.11 4.93-.85 1.03-1.77 2-2.73 2.92-.66.65-1.36 1.26-2.05 1.86-.21.18-.43.38-.66.56-.69.57-1.41 1.12-2.15 1.64-.94.65-1.92 1.24-2.97 1.71-.25.12-.51.22-.76.3-1.63.61-3.39.91-5.12.68M72.74 3.62c.33.07.66.16.99.25 3.23.87 6.28 2.45 8.81 4.61 1.22 1.03 2.31 2.2 3.23 3.46.58.76 1.08 1.57 1.53 2.41.36.67.67 1.35.95 2.04.54 1.28.98 2.61 1.42 3.93.11.33.22.67.33 1.02.28.86.56 1.75.76 2.64V24M78.23 50.9h.02c.69-.37 1.35-.76 2.01-1.18h.02c.74-.46 1.45-.93 2.15-1.44h.02c.36-.27.72-.55 1.08-.83.61-.48 1.2-1 1.75-1.53 1.14-1.08 2.19-2.26 3.06-3.53.26-.34.49-.69.7-1.06v-.02M82.68 4.39c.11.1.23.22.32.33.85.95 1.51 2.04 2.22 3.11.3.47.63.92.98 1.34.6.73 1.28 1.38 1.94 2.05.58.57 1.18 1.13 1.71 1.74.18.21.36.41.51.64v.02M67.54 33.81c-.78-.9-1.27-2.04-1.51-3.26h-.02c-.23-1.1-.26-2.28-.17-3.38.01-.15.03-.32.05-.47.11-.94.31-1.86.59-2.76.29-.92.7-1.8 1.22-2.61.12-.2.26-.39.4-.58h.02c.23-.33.5-.64.77-.96v-.02"/><path class="cls-17" d="M67.18 37.42c-1.22-1.03-2.14-2.41-2.74-3.91-.06-.14-.13-.3-.18-.44-.32-.89-.54-1.83-.66-2.77-.18-1.19-.23-2.4-.19-3.6v-.11c.04-.96.12-1.9.32-2.82.03-.21.08-.42.14-.63.27-1.04.7-2.03 1.27-2.94a11.32 11.32 0 0 1 3.83-3.77c.1-.05.19-.11.27-.16"/><path class="cls-17" d="M66.96 39.69c-.85-.42-1.61-1.02-2.27-1.74h-.04c-.87-.92-1.56-2.03-2.03-3.2-.2-.49-.36-.99-.5-1.5-.28-1-.46-2.05-.56-3.09-.12-1.12-.17-2.25-.18-3.37v-.27c-.01-.95-.01-1.92.07-2.87.11-1.36.37-2.7.95-3.91.08-.19.17-.4.28-.59.63-1.14 1.49-2.07 2.48-2.88 1.28-1.02 2.78-1.81 4.29-2.54"/><path class="cls-17" d="M69.54 11.26v.02c-.35.18-.72.37-1.07.58-2.13 1.18-4.23 2.5-5.92 4.16-1 .95-1.85 2.03-2.49 3.27-.04.07-.07.13-.11.2-.62 1.26-.99 2.6-1.15 3.97-.13.98-.15 1.98-.08 3 .05 1.19.23 2.4.47 3.59.19 1.05.44 2.09.71 3.11.15.58.32 1.15.47 1.71.24.84.47 1.7.8 2.52.29.76.66 1.49 1.15 2.15.22.29.46.57.73.82 1.02 1.03 2.29 1.76 3.59 2.44"/><path class="cls-17" d="M66.42 45.18A9.72 9.72 0 0 1 63 43.85h-.02c-1.38-.83-2.59-1.97-3.59-3.27-.64-.83-1.17-1.73-1.6-2.66-.1-.24-.22-.49-.31-.73-.51-1.26-.85-2.55-1.07-3.88-.2-1.08-.31-2.17-.34-3.29h-.02c-.06-1.16-.04-2.32.03-3.49.01-.36.03-.74.06-1.11.04-.71.1-1.42.21-2.13.13-.98.33-1.97.64-2.92.18-.55.39-1.08.67-1.59.56-1.2 1.32-2.3 2.2-3.31.86-1.03 1.87-1.95 2.95-2.78.77-.59 1.58-1.15 2.42-1.66 1.37-.83 2.81-1.57 4.27-2.26"/><path class="cls-17" d="M69.27 6.45c-.59.45-1.18.92-1.75 1.4-1.18.94-2.36 1.88-3.54 2.83h-.02c-.48.39-.97.77-1.44 1.16-.84.68-1.69 1.36-2.47 2.1-.41.39-.82.82-1.19 1.26-.89 1.02-1.68 2.15-2.32 3.35-.82 1.46-1.46 3.02-1.9 4.64-.15.48-.26.97-.37 1.46-.13.67-.25 1.37-.31 2.05-.14 1.15-.19 2.29-.14 3.43.01 1.17.13 2.36.32 3.52.17 1.08.4 2.15.7 3.21.06.19.11.39.17.58.39 1.25.87 2.48 1.56 3.57h.02c.3.48.66.94 1.05 1.37.69.73 1.53 1.34 2.35 1.93.02 0 .01.02.03.02 1.77 1.3 3.71 2.63 5.84 3.02h.1c.07.02.15.03.26.04"/><path class="cls-17" d="M66 49.38v-.02c-.84-.13-1.73-.13-2.61-.24-1.33-.17-2.61-.62-3.78-1.3a12.75 12.75 0 0 1-3.17-2.54c-.35-.38-.68-.79-.99-1.19-.58-.78-1.09-1.61-1.52-2.47-.61-1.16-1.1-2.39-1.49-3.64h-.02c-.29-.88-.54-1.78-.76-2.68-.08-.33-.16-.67-.24-1.01-.26-1.26-.48-2.52-.6-3.81-.12-1.11-.17-2.22-.15-3.33.02-1.42.19-2.82.48-4.18.34-1.56.89-3.05 1.68-4.46.16-.28.32-.55.5-.81.84-1.3 1.84-2.47 2.91-3.6.7-.73 1.43-1.45 2.17-2.15.8-.77 1.6-1.56 2.48-2.24h.02c.16-.14.33-.26.49-.39 1.06-.77 2.22-1.37 3.37-1.98.14-.08.29-.14.43-.22 1.29-.67 2.59-1.34 3.88-2"/><path class="cls-17" d="M65.9 50.35v.02c-1.66.28-3.42-.25-5.06-.78-1.12-.37-2.23-.73-3.23-1.31-.23-.14-.46-.3-.68-.45-.76-.57-1.39-1.27-1.96-2.05-.37-.5-.72-1.05-1.06-1.58-.45-.72-.89-1.44-1.3-2.19-.67-1.15-1.29-2.33-1.85-3.53h-.02c-.55-1.17-1.04-2.36-1.48-3.58-.43-1.24-.79-2.5-1.06-3.8-.01-.05-.02-.08-.02-.12-.22-1.08-.37-2.18-.45-3.3-.11-1.65-.05-3.33.24-4.95.3-1.97.91-3.87 1.87-5.62.09-.16.18-.34.29-.49.85-1.47 1.93-2.8 3.09-4.04.35-.38.71-.77 1.07-1.13 1.04-1.06 2.11-2.08 3.25-3.01 1.27-1.1 2.6-2.09 4.02-2.95h.02a21.871 21.871 0 0 1 6-2.48h.02c.38-.11.75-.2 1.11-.32"/><path class="cls-17" d="M47.77 40.07v-.02c-.03-.14-.08-.28-.15-.41-.41-1.18-.86-2.36-1.19-3.56-.04-.11-.06-.22-.08-.34-.36-1.34-.57-2.71-.7-4.1-.1-1.17-.16-2.34-.18-3.52 0-.85-.01-1.71-.02-2.55 0-1.08 0-2.16.04-3.24.05-1.17.16-2.35.4-3.5.11-.56.26-1.12.44-1.67.02-.04.04-.1.06-.15.16-.5.37-.99.59-1.46.04-.09.09-.16.13-.25.55-1.08 1.27-2.06 1.98-3.04l.98-1.34M76.55 51.35c-.54-.49-1.13-.93-1.76-1.32-.64-.4-1.3-.78-1.99-1.08h-.02c-.94-.44-1.91-.78-2.91-1.03M56.68 48.51c.08-.02.17-.05.25-.07.23-.06.45-.12.69-.17.66-.17 1.33-.32 1.99-.45 2.05-.4 4.18-.59 6.25-.48h.1c.11 0 .17 0 .26.02M80.54 50.06c-.1-.13-.18-.23-.28-.34h-.02c-.53-.62-1.1-1.19-1.73-1.7-.51-.45-1.06-.85-1.64-1.22-.75-.5-1.54-.93-2.38-1.32-1.39-.63-2.86-1.1-4.37-1.39v-.02s0 .02-.01 0h-.02s0 .01-.02.01h-.04M66.55 43.69c-1.19-.04-2.39.02-3.56.15h-.02c-1 .1-1.96.26-2.96.47-1.2.25-2.4.58-3.58.96-.49.14-.97.32-1.46.49-.52.17-1.04.37-1.55.57M83.01 48.89h-.02c-.2-.2-.38-.38-.56-.61h-.02c-.59-.63-1.15-1.27-1.74-1.9-.45-.48-.9-.94-1.37-1.38-.48-.45-1-.89-1.55-1.27-.16-.1-.3-.21-.46-.3h-.02c-1.06-.68-2.21-1.2-3.42-1.59-.92-.3-1.85-.55-2.8-.75-.24-.05-.47-.1-.71-.13M66.88 40.49c-1.27-.12-2.56-.16-3.83-.13-1.22 0-2.44.09-3.66.22-.94.11-1.87.24-2.8.43h-.02c-.9.15-1.77.36-2.65.61-.44.1-.88.23-1.32.38-.94.27-1.85.6-2.77.96"/><path class="cls-17" d="m47.52 39.7.1-.05c1.03-.43 2.07-.84 3.13-1.19h.02c.55-.18 1.1-.34 1.66-.49h.02c.86-.23 1.72-.41 2.58-.53.82-.13 1.64-.22 2.47-.24l.37-.02c1.12-.02 2.21.06 3.32.21 1.17.14 2.33.34 3.49.56h.04c.44.1.87.19 1.31.27l1.08.23M86.04 47.01c-.24-.39-.5-.74-.78-1.08-.55-.72-1.19-1.38-1.87-1.95-.53-.48-1.07-.91-1.67-1.28a12.635 12.635 0 0 0-2.48-1.27c-1.2-.51-2.47-.87-3.74-1.16-.69-.18-1.4-.33-2.09-.48-.44-.1-.86-.19-1.29-.27-.54-.12-1.08-.24-1.64-.35M45.41 36.03c.31-.1.63-.18.94-.27.89-.26 1.8-.54 2.7-.8.08-.02.14-.05.22-.07.72-.2 1.44-.42 2.16-.6.8-.22 1.59-.42 2.4-.58.11-.02.22-.04.33-.05.75-.15 1.5-.26 2.26-.33 1.16-.12 2.32-.18 3.48-.16.75 0 1.5.03 2.23.09.77.06 1.56.14 2.32.27 1.03.13 2.05.32 3.08.53M70.78 34.9c.57.17 1.13.35 1.7.53.25.08.52.18.77.28.86.3 1.72.63 2.58.97.68.25 1.35.54 2.03.82.99.42 1.99.85 2.98 1.28.12.06.22.09.34.15.87.38 1.73.75 2.6 1.13.64.27 1.26.54 1.89.81.15.06.3.13.44.19.8.37 1.59.78 2.2 1.34.11.12.23.23.34.36M89.92 36.54c-.22-.15-.45-.28-.69-.41-.83-.49-1.68-.93-2.57-1.32-.75-.34-1.51-.64-2.28-.9h-.02c-1.19-.43-2.41-.81-3.65-1.12a70.47 70.47 0 0 0-5.1-1.04c-.89-.13-1.8-.27-2.69-.39-.64-.08-1.26-.16-1.88-.24M67.83 30.74c-.61-.08-1.2-.14-1.8-.19h-.02c-.8-.1-1.61-.18-2.41-.24-.68-.06-1.35-.11-2.04-.15-.79-.05-1.58-.1-2.38-.1-1.05-.06-2.07-.06-3.12-.03h-.02c-.2 0-.4 0-.6.01-.54.02-1.07.05-1.63.1-1 .07-2.02.17-3.01.33-.88.13-1.77.28-2.64.49-.86.19-1.7.42-2.54.71-.42.12-.85.25-1.26.43M43.93 28.48c.52-.13 1.03-.24 1.53-.35a78.433 78.433 0 0 1 5.2-1c1.1-.18 2.2-.32 3.31-.43.69-.08 1.4-.14 2.11-.16a21 21 0 0 1 1.12-.06c.51-.02 1.01-.02 1.52-.01.89 0 1.77.02 2.66.05.52.03 1.04.04 1.55.07.17.01.32.01.49.02.84.02 1.66.06 2.48.1.78.03 1.55.07 2.32.1M71.33 26.93c.95.03 1.89.08 2.83.14.82.04 1.66.1 2.48.16 1.08.09 2.16.19 3.23.31.76.08 1.53.19 2.28.31 1.44.21 2.87.46 4.26.81.8.19 1.59.39 2.38.62.6.17 1.21.37 1.8.59M90.75 25.24c-.55 0-1.08-.01-1.63-.03-.82-.02-1.65-.06-2.47-.1a213 213 0 0 1-4.37-.22c-.82-.04-1.64-.09-2.47-.14h-.02c-.94-.05-1.9-.11-2.85-.17-.14-.01-.27-.02-.41-.02l-2.39-.15c-.88-.06-1.75-.11-2.63-.15M68.49 24.07c-.67-.04-1.32-.09-1.99-.13-.93-.05-1.84-.1-2.77-.17l-2.28-.14c-.88-.06-1.76-.11-2.65-.17-.81-.05-1.63-.1-2.45-.17-.56-.03-1.13-.06-1.7-.11-1.16-.06-2.33-.14-3.5-.24-.29 0-.59-.03-.88-.06-.76-.05-1.54-.11-2.29-.19a26.19 26.19 0 0 1-3.38-.55M47.1 15.32s.06.04.1.05c.96.44 1.93.84 2.93 1.21 1.05.41 2.13.75 3.2 1.08 1.02.3 2.03.58 3.05.83.06.02.11.02.16.04.38.08.74.17 1.11.24.8.19 1.61.34 2.41.5.78.16 1.55.29 2.33.43.42.08.84.15 1.27.23.5.09.98.19 1.48.26.81.16 1.63.3 2.43.44.2.03.36.08.56.11h.02c.23.03.44.08.66.12M71.76 21.36c.51.09 1.04.16 1.57.22.64.08 1.27.15 1.93.2.23.02.44.04.67.04h.02c1.08.09 2.16.12 3.25.13.86 0 1.73-.03 2.6-.06 1.3-.05 2.61-.12 3.92-.21.85-.07 1.69-.14 2.54-.2.17 0 .32-.02.49-.04.42-.03.85-.07 1.26-.1.25-.03.48-.04.72-.06M90.52 15.95c-.75.18-1.51.32-2.27.44-.84.11-1.65.22-2.49.28h-.02c-.94.07-1.89.12-2.84.12-1.18.04-2.37.03-3.56 0-.99-.02-2-.06-2.99-.09h-.31c-.99-.04-1.98-.07-2.97-.11-.29 0-.59-.03-.88-.04M69.23 16.44c-.09 0-.17-.01-.26 0l-1.14-.05c-.88-.03-1.77-.07-2.67-.13-.87-.04-1.75-.13-2.61-.24-.91-.12-1.81-.29-2.69-.54-.33-.07-.66-.18-.99-.28-.16-.06-.34-.12-.51-.18-.73-.27-1.43-.59-2.12-.95-.32-.15-.63-.31-.96-.47-.69-.35-1.38-.69-2.07-1.05-1.03-.51-2.04-1.04-3.07-1.55l-.09-.05M53.4 6.52c.29.16.6.31.9.44h.02c1.06.51 2.14.98 3.22 1.44 1.11.46 2.22.88 3.35 1.28h.02c1.01.36 2.04.7 3.07 1H64c.09.04.15.06.24.08.33.1.67.19 1 .28 1.08.3 2.16.57 3.25.81.35.07.69.15 1.05.21M72.54 12.55c.17.01.32.04.48.05h.02c1.05.12 2.09.2 3.13.26 1.4.05 2.8.03 4.18-.07.78-.04 1.56-.13 2.33-.24 1.05-.16 2.08-.35 3.09-.62.8-.19 1.6-.43 2.37-.72.66-.22 1.31-.47 1.94-.76M69.45 8.34c-.65-.14-1.29-.3-1.93-.49-.79-.22-1.57-.48-2.32-.75-.55-.21-1.1-.42-1.63-.67-.68-.3-1.34-.63-2-.97h-.02c-.66-.33-1.32-.69-1.98-1.03-.23-.13-.48-.25-.72-.38M72.77 8.88c1.41.16 2.81.21 4.22.19.83-.02 1.64-.06 2.44-.15 1.05-.1 2.08-.24 3.11-.45.9-.17 1.81-.39 2.68-.65.97-.27 1.93-.59 2.86-.97M79.99 3.27c-2.06.44-4.15.65-6.26.6-.32-.01-.66-.02-.97-.05M68.79 3.27c-.42-.07-.81-.17-1.21-.3h-.02c-1-.28-1.98-.64-2.91-1.11"/><path class="cls-5" d="M72.57 1.25c2.54.3 5.02 1.07 7.42 2.02.9.35 1.81.73 2.69 1.12.09.04.18.08.27.11 1.58.69 3.16 1.4 4.72 2.15h.02c.13.06.28.13.41.2.55.24 1.09.52 1.63.79 0 .08.02.14.03.22.14.86.26 1.73.34 2.6.13 1.05.21 2.09.28 3.13v.02c.07.78.12 1.56.16 2.34.02.14.02.28.03.41.08 1.62.14 3.26.18 4.91.03.9.04 1.8.04 2.7v.02c0 .43 0 .84-.01 1.25 0 1.55-.06 3.09-.15 4.62-.12 2.26-.34 4.48-.69 6.68-.22 1.61-.52 3.2-.9 4.79v.02c-.1.46-.23.94-.36 1.42-.25.97-.53 1.94-.85 2.9h-.03c-.56.47-1.13.93-1.73 1.35-.96.7-1.98 1.33-3.03 1.89h-.02c-.8.44-1.61.83-2.45 1.17-.74.3-1.52.58-2.3.83h-.02c-.55.17-1.1.32-1.67.46-2.28.56-4.63.83-6.98.77.04-.47.06-.94.1-1.41.02-.39.05-.79.08-1.18.03-.53.07-1.08.12-1.61 0-.29.03-.58.06-.86.07-.99.13-1.99.2-2.97v-.02c.07-1.03.16-2.07.23-3.11.02-.23.02-.46.04-.68.03-.38.06-.74.08-1.12l.08-.97c.08-1.11.15-2.2.23-3.3.02-.21.02-.44.04-.65.07-1.05.16-2.09.23-3.14.1-1.39.18-2.79.28-4.18.07-.89.13-1.77.19-2.67v-.03c.07-.95.15-1.92.24-2.88.05-.65.12-1.3.18-1.95.09-.95.19-1.9.27-2.86.04-.29.06-.57.09-.86.1-1.04.2-2.09.26-3.13.02-.1.03-.23.03-.33.07-.86.13-1.74.17-2.61.02-.24.02-.49.03-.73.02-.49.04-.99.05-1.49 0-.46.01-.91 0-1.37 0-.73-.02-1.46-.06-2.2 0-.06 0-.14-.01-.2-.03-.79-.08-1.59-.17-2.38ZM43.85 27.67v-.05c.06-1.84.32-3.68.74-5.47.42-1.7.98-3.38 1.73-4.98.02-.04.04-.1.06-.15.24-.56.52-1.12.82-1.65.83-1.55 1.82-3.02 2.94-4.38.08-.1.15-.19.24-.29 1.17-1.38 2.48-2.63 3.92-3.75h.02a27.01 27.01 0 0 1 4.54-2.92c1.85-.93 3.79-1.67 5.81-2.18.69-.17 1.39-.31 2.09-.44.57-.09 1.15-.17 1.73-.22.07.48.14.96.22 1.45.03.2.06.4.1.62.09.6.19 1.22.28 1.82.07.46.14.91.19 1.36.07.63.14 1.26.18 1.89.01.05.02.09.02.14 0 .11.01.2.02.31.05.83.06 1.65.06 2.47v.02c0 .26 0 .53-.02.79-.02.56-.03 1.11-.07 1.65-.04.87-.11 1.71-.21 2.56.01.06 0 .12-.01.17-.05.62-.1 1.24-.17 1.86-.04.5-.1.98-.15 1.48v.02c-.03.36-.06.71-.1 1.07-.1 1.07-.21 2.13-.31 3.2l-.27 2.72c-.12 1.32-.25 2.63-.39 3.95-.1 1.03-.2 2.06-.3 3.07l-.02.23c-.11 1.13-.22 2.27-.34 3.39-.03.35-.06.7-.1 1.03-.03.42-.08.83-.12 1.24-.02.27-.06.54-.08.8l-.24 2.31c-.02.3-.05.61-.09.89-.04.5-.08 1-.14 1.48-.08.74-.14 1.47-.21 2.19v.02c-.07.66-.14 1.31-.21 1.98v.02c-.03.32-.05.65-.1.97v.02c-.04.47-.09.92-.13 1.39-3.18-.52-6.29-1.63-9.09-3.24-1.12-.64-2.21-1.37-3.25-2.17a26.816 26.816 0 0 1-3.6-3.38c-.46-.56-.9-1.12-1.29-1.74-.27-.42-.53-.79-.78-1.15v-.02c-.08-.13-.16-.24-.24-.36-.86-1.27-1.55-2.31-2.11-3.68-.23-.55-.44-1.16-.63-1.86-.14-.53-.28-1.24-.4-2.07-.17-1.05-.32-2.28-.45-3.6-.02-.26-.06-.54-.09-.81Z"/><path d="M68.48 1.21c.69-.07 1.38-.1 2.07-.09.67 0 1.36.05 2.02.13.8 7.58-.52 15.42-1.05 22.98-.64 9.3-1.3 18.59-1.94 27.89h-.21c-1.21-.04-2.4-.15-3.59-.37 1.1-11.14 2.2-22.3 3.29-33.45.33-3.26.65-6.54.41-9.82-.17-2.44-.66-4.85-.99-7.27Z" style="fill:#58b0ed;stroke-width:1.6px;stroke-linecap:round;stroke-linejoin:round;stroke:#1d1d1b"/></g></g></svg>