<svg id="Ebene_2" data-name="Ebene 2" xmlns="http://www.w3.org/2000/svg" viewBox="0 0 400.02 318.3"><defs><style>.cls-1{fill:#b7b7b7}.cls-2{fill:#fff}.cls-4{fill:none;stroke:#000;stroke-miterlimit:10;stroke-width:3.25px}</style></defs><g id="kopien"><g id="megafon_k"><path d="M369.77 170.73c-3.1-6.74-6.18-13.47-9.28-20.21a229.924 229.924 0 0 0-47.44 8.63 45.05 45.05 0 0 0 1.73-9.4c1.48-18.41-6.29-36.7-17.59-51.34-3.31-4.28-8.12-8.99-12.84-11.63a26.1 26.1 0 0 0-3.47-1.64c16.52-3.86 32.34-6.24 47.1-7.94 15.44-1.75 31.85-1.19 45.45 6.32 12.99 7.16 22.32 20.6 24.47 35.22 1.75 11.98-1.12 24.36-6.52 35.22-4.63 9.34-11.09 17.67-18.15 25.38-.89-2.96-2.16-5.84-3.44-8.59Z" style="fill:#304d77"/><path class="cls-1" d="M216.09 178.01c-30.49 6.81-64.6 11.25-95.37 14.45l-.04-.4c.54-.03 1.03-.1 1.55-.19 4.17-.78 7.82-3.35 10.63-6.49 4.98-5.52 7.79-12.94 7.72-20.36-.02-1.14-.1-2.26-.23-3.37l.34-.03c21.25-3.54 45.11-6.44 66.37-10.01l8 .31c.87 8.86 1.21 17.56 1.03 26.08Z"/><path class="cls-1" d="M214.51 146.84c.21 1.71.39 3.41.55 5.08l-8-.31c-21.25 3.56-45.12 6.47-66.37 10.01l-.34.03c-1.09-9-5.92-17.14-10.84-24.61-2.64-4.06-6.83-5.6-11.27-5.41l-.04-.92c29.27-8.02 58.73-15.31 88.37-21.81 3.64 11.98 6.35 24.7 7.95 37.94Z"/><path class="cls-2" d="M336.78 297.53c-2.7-2.39-5.33-5.53-5.04-9.1.15-1.79 1-3.42 1.62-5.12 2.34-6.32.55-11.85-.4-18.55-.84-5.82-3.26-9.1-3.9-17.55-1.29-16.89-6.86-12.76-12.4-16.9-2.57-1.91-6.45-3.16-7.28-6.24-.55-1.99-.19-4.11.19-6.14.51-2.77.78-6.82 1.33-10.88.82-5.46 2.19-11 5.53-13.65 7.08-5.61 17.43 2.69 24.49 4.29 3.36.76 7.03.73 9.97 2.52 2.72 1.65 4.35 4.54 5.64 7.46.22.44.38.9.58 1.33 7.18 17.43 11.14 35.98 15.04 54.41 2.15 10.07 4.28 20.13 6.41 30.19 1.13 5.2 2.07 11.18-1.22 15.38-2.59 3.33-7.27 4.51-11.47 3.99-4.23-.53-8.09-2.49-11.87-4.48-6.03-3.16-12.08-6.49-17.23-10.96Z"/><path class="cls-2" d="M356.53 207.67c-1.29-2.92-2.92-5.81-5.64-7.46-2.94-1.78-6.61-1.76-9.97-2.52-7.07-1.6-17.41-9.9-24.49-4.29-3.33 2.65-4.7 8.19-5.53 13.65-7.26-5.35-16.76-7.11-25.79-8.62-2.69-.45-5.38-.93-8.07-1.38 1.13-.3 2.25-.65 3.35-1.04 15.64-5.54 28.15-20.57 32.66-36.87 15.47-4.53 31.39-7.41 47.44-8.63 3.1 6.74 6.18 13.47 9.28 20.21 1.28 2.75 2.55 5.64 3.44 8.59 1.24 3.98 1.8 8.07.68 12.07-2.01 7.2-8.8 11.89-15.13 15.94-.63.4-1.5.76-1.97.23l-.25.1Z"/><path class="cls-2" d="M262.88 199.93c-11.04 2.36-24.6 3.94-35.03 8.21-7 2.87-12.65 7.56-17.23 13.35 3.32-13.59 5.21-28.23 5.47-43.49.18-8.52-.15-17.22-1.03-26.08-.16-1.67-.34-3.37-.55-5.08-1.6-13.24-4.31-25.96-7.95-37.94-3.72-12.34-8.44-23.9-13.96-34.47 6.95 6.79 18.53 12.19 27.54 13.36 10.8 1.43 21.61-1.57 32.3-3.54 9.43-1.73 19.64-2.56 28.44.88 1.19.46 2.36 1 3.47 1.64 4.72 2.64 9.53 7.35 12.84 11.63 11.3 14.64 19.07 32.93 17.59 51.34a45.71 45.71 0 0 1-1.73 9.4c-4.5 16.3-17.01 31.33-32.66 36.87-1.1.39-2.22.75-3.35 1.04-4.65 1.27-9.45 1.9-14.17 2.87Z"/><path d="M140.58 165.02c.07 7.42-2.74 14.84-7.72 20.36-2.82 3.14-6.47 5.71-10.63 6.49-.52.09-1.01.16-1.55.19-5.43.39-10.88-2.33-14.71-6.3-4.19-4.3-6.74-9.94-8.84-15.58-.94-2.53-1.84-5.13-1.94-7.83-.07-2.59.58-5.16 1.24-7.67 1.98-7.41 4.5-15.42 10.98-19.52 3.27-2.08 7.14-3.41 10.83-3.54 4.44-.19 8.63 1.35 11.27 5.41 4.92 7.47 9.75 15.61 10.84 24.61.14 1.11.21 2.24.23 3.37Z" style="fill:#e2e2e2"/><path class="cls-2" d="M210.62 221.49c-11.85 49.19-41.95 85.15-80.95 89.81-57 6.79-111.41-55.81-121.53-139.84C-2.02 87.45 35.97 13.79 92.98 7c38.77-4.63 76.34 22.89 99.62 67.42 5.52 10.58 10.24 22.14 13.96 34.47-29.63 6.5-59.1 13.78-88.37 21.81l.04.92c-3.7.13-7.56 1.46-10.83 3.54-6.48 4.1-9 12.12-10.98 19.52-.66 2.51-1.31 5.09-1.24 7.67.1 2.7.99 5.3 1.94 7.83 2.11 5.63 4.65 11.27 8.84 15.58 3.83 3.97 9.28 6.68 14.71 6.3l.04.4c30.77-3.2 64.88-7.64 95.37-14.45-.27 15.26-2.16 29.9-5.47 43.49Z"/><path d="M206.56 108.9c3.64 11.98 6.35 24.7 7.95 37.94.21 1.71.39 3.41.55 5.08.87 8.86 1.21 17.56 1.03 26.08-.27 15.26-2.16 29.9-5.47 43.49-11.85 49.19-41.95 85.15-80.95 89.81-57 6.79-111.41-55.81-121.53-139.84C-2.02 87.45 35.97 13.79 92.98 7c38.77-4.63 76.34 22.89 99.62 67.42 5.52 10.58 10.24 22.14 13.96 34.47Z" style="fill:none;stroke:#000;stroke-miterlimit:10;stroke-width:12.99px"/><path class="cls-4" d="M206.56 108.9c-29.63 6.5-59.1 13.78-88.37 21.81M120.72 192.46c30.77-3.2 64.88-7.64 95.37-14.45M118.24 131.63c-3.7.13-7.56 1.46-10.83 3.54-6.48 4.1-9 12.12-10.98 19.52-.66 2.51-1.31 5.09-1.24 7.67.1 2.7.99 5.3 1.94 7.83 2.11 5.63 4.65 11.27 8.84 15.58 3.83 3.97 9.28 6.68 14.71 6.3.54-.03 1.03-.1 1.55-.19 4.17-.78 7.82-3.35 10.63-6.49 4.98-5.52 7.79-12.94 7.72-20.36-.02-1.14-.1-2.26-.23-3.37-1.09-9-5.92-17.14-10.84-24.61-2.64-4.06-6.83-5.6-11.27-5.41ZM140.69 161.62c21.25-3.54 51.85-12.25 73.1-15.81"/><path class="cls-4" d="M192.6 74.43c6.95 6.79 18.53 12.19 27.54 13.36 10.8 1.43 21.61-1.57 32.3-3.54 9.43-1.73 19.64-2.56 28.44.88 1.19.46 2.36 1 3.47 1.64 4.72 2.64 9.53 7.35 12.84 11.63 11.3 14.64 19.07 32.93 17.59 51.34a45.71 45.71 0 0 1-1.73 9.4c-4.5 16.3-17.01 31.33-32.66 36.87-1.1.39-2.22.75-3.35 1.04-4.65 1.27-9.45 1.9-14.17 2.87-11.04 2.36-24.6 3.94-35.03 8.21-7 2.87-12.65 7.56-17.23 13.35"/><path class="cls-4" d="M280.87 85.13c16.52-3.86 32.34-6.24 47.1-7.94 15.44-1.75 31.85-1.19 45.45 6.32 12.99 7.16 22.32 20.6 24.47 35.22 1.75 11.98-1.12 24.36-6.52 35.22-4.63 9.34-11.09 17.67-18.15 25.38"/><path class="cls-4" d="M357.53 207.12c.27-.65-1.22-.11-.75.45.48.53 1.35.17 1.97-.23 6.33-4.06 13.12-8.74 15.13-15.94 1.12-4 .57-8.09-.68-12.07-.89-2.96-2.16-5.84-3.44-8.59-3.1-6.74-6.18-13.47-9.28-20.21a229.924 229.924 0 0 0-47.44 8.63M277.04 197.06c2.69.45 5.38.93 8.07 1.38 9.03 1.51 18.53 3.27 25.79 8.62"/><path class="cls-4" d="M310.9 207.05c-.55 4.06-.82 8.11-1.33 10.88-.37 2.03-.74 4.15-.19 6.14.83 3.08 4.71 4.32 7.28 6.24 5.54 4.14 11.11 0 12.4 16.9.65 8.45 3.07 11.73 3.9 17.55.95 6.7 2.75 12.23.4 18.55-.62 1.7-1.48 3.33-1.62 5.12-.29 3.57 2.33 6.71 5.04 9.1 5.15 4.46 11.2 7.79 17.23 10.96 3.77 1.99 7.64 3.95 11.87 4.48 4.2.52 8.88-.65 11.47-3.99 3.28-4.21 2.35-10.19 1.22-15.38-2.13-10.06-4.25-20.12-6.41-30.19-3.9-18.43-7.86-36.98-15.04-54.41-.2-.44-.36-.89-.58-1.33-1.29-2.92-2.92-5.81-5.64-7.46-2.94-1.78-6.61-1.76-9.97-2.52-7.07-1.6-17.41-9.9-24.49-4.29-3.33 2.65-4.7 8.19-5.53 13.65Z"/></g></g></svg>