<svg id="Ebene_2" data-name="Ebene 2" xmlns="http://www.w3.org/2000/svg" viewBox="0 0 302.93 400"><defs><style>.cls-1{fill:none;stroke:#383838;stroke-miterlimit:10}</style></defs><g id="kopien"><g id="namen"><path d="M302.17 118.59c0 69.99-18.66 137.18-40.02 203.49-8.01 24.85-15.47 52.81-26.41 77.03-13.59-3.4-28.34-5.92-38.79-8.16-41.98-9.05-77.94-22.97-121.9-22.92-18.29.03-34.03-2.48-51.75-.77-6.73.66-14.48 2.98-21.66 5.03 5.61-9.18 7.51-27.77 10.23-35.58 6.19-17.7 12.66-34.38 17.05-52.65 11.03-45.82 20.98-90.58 24.28-137.67 2.26-32.01-1.72-61.45-7.83-92.73-2.03-10.4-3.87-22.68-8.58-31.13 24.35 9.86 59.71 8.76 84.36 8.87 39.87.18 79.7-4.27 117.9-14.95 12.88-3.6 29.11-7.36 40.85-15.4 20.45 31.88 22.26 81.19 22.26 117.53Z" style="fill:#e5e5e5;stroke:#000;stroke-width:1.51px;stroke-miterlimit:10"/><path class="cls-1" d="M89 61.79c-.98 1.01.36 11.32 1.02 14.35M79.78 61.28c5.25 0 13.03-1.95 16.4-1.54M96.69 62.3c-.53-2.9.36 2.95.5 3.7.39 2.18.73 4.34 1.58 6.39-.51-2.44-.04-4.77 2.16-5.92 2.61 1.49 2.39 5.56 2.93 7.1M111.04 68.45c-.57-3.99-6.68 2.78-1.15 5.79 6.92 3.77 5.52-10.32-.39-5.79M115.65 67.94c1.24 1.74 1.97 4.4 2.97 6.51-.77-2.04-.58-4.37 1.23-5.92 2.3.84 3.32 2.97 3.47 5.4.66-7.69 5.77-2.78 5.65 1.18M140.24 69.99c-.29-4.88-8.19-2.1-7.19 2.3 1.28 5.65 6.42-.2 6.29-3.16-.35 2.42-.41 8.79 2.95 7.01"/><path class="cls-1" d="M148.95 68.96c-2.26-1.16-4.78.13-5.57 2.47 12.23 2.46 1.44 9.73-2.11 5.21M94.13 93.56c-1.94 7.42-8.15 11.63-11.6 17.9 3.6-3.3 9.05 2.54 12.63-.48M100.28 103.81c-.72 1.23-.51 5.62-.51 8.2M101.81 94.58c-.95 1.16-1.51 2.6-1.54 4.1M105.4 101.24c-1.24 2.88-.48 8.09-.54 11.63.76-2.28.83-11.58 5.8-8.19 1.96 1.34.84 7.7.99 9.83.67-.18 1.03-.63 1.43-.97M122.82 105.34c-2-3.56-7.21 2.56-5.63 6.15 2.47 5.62 6.15-2.56 6.15-5.99-.98 5.57 4.08 14.67 8.2 5.48M92.08 130.96c-2.81-1.9-8.6-1.66-7.71 3.07.76 4.07 7.25 3.58 6.61 9.13-2.77.95-4.44.86-7.11.47-2.38-.34-1.58-2.79-4.6-1.41M95.15 137.62v7.17M95.15 133.01c.54-1.12 1.45-1.88 2.56-2.05M98.23 137.11c1.88 1.13 2.1 6.36 2.05 9.07.11-2.2.86-4.2 2.55-5.54 1.29 1.08 1.95 2.78 1.95 4.53 1.44-9.09 8.19-3.72 6.29 3.24.74-.24 1.24-.76 1.51-1.56M119.75 140.7c-4.32-.58-7.64 6.29-3.35 8.22 5.15 2.3 8.74-7.06 1.81-8.22M124.36 138.65v8.04c-.4-2.51 2.43-6.4 5.13-4.67s-.29 5.87-.97 7.81c1.86.31 3.78.13 5.58-.42M137.17 145.82c2.44.55 8.31-2.74 4.62-5.02-3.15-1.94-5.25 2.71-5.63 4.76-1.38 7.47 9.26 11.99 11.26 3.33M95.15 165.8c2.16-6.72-11.49-.21-13.45 2.44-6.99 9.43 3.41 16.6 11.91 8.84M98.23 174.52c1.09-.34 8.96-1.88 6.3-4.76-1.64-1.78-4.25 1.12-5.16 2.31-4.59 6.05 2.61 13.44 6.55 4.5M108.99 170.42c-.4 3.94.09 7.2-.51 11.12-.55-7.77 10.01-12.04 6.64-1.04 1.05-3.17 3.92-6.48 7.62-6.43 1.34 2.95-1.12 3.52-1.4 6.34-.74 7.53 6.1 4.01 10.2-1.28M80.8 195.01c-2.36 2.8-5.57 9.04-6.66 12.81M77.22 194.5c2.98-.92 9.95-.39 13.32 1.02"/><path class="cls-1" d="M76.71 200.13c3.4 2.25 7.81.3 10.76 2.56M91.56 202.7c-6.39 2.4 3.28 9.64 4.1 2.72 0 5.05 2.27 16.1-4.63 17.03-2.54.34-4.05-.03-3.79-2.57.42-3.98 8.39-5.5 10.98-6.41M100.28 202.7c.94 0 .68 4.17-.04 6.51.43-2.63 3.93-8.41 7.25-5.52 1.74 1.52-.2 8.2-1.06 7.21M113.08 202.7c-.67 3.02-1.34 6.34-1.55 9.58 1.77-5.72 1.67-8.71 7.61-5.9.51 3.58-.63 6.51-2.97 9.02 3.97 2.35 10.97 1.2 13.82-2.45M71.58 231.39c.49-.57 1.14-.89 1.05-1.1-2.01 5.96-4.17 12.55-5.66 18.52"/><path class="cls-1" d="M69.02 229.34c1.89 2.01 10.77 1.67 13.32 1.54M68.51 239.08c2.05 1.75 5.97 1.04 8.78 1 1 .46-.11.26-.58.54M65.43 248.3c4.13 1.6 9.85-.14 13.32 1.54M88.49 231.39c-.49 3.66-2.41 6.9-3.33 10.5-.91 3.55-.02 5.87-.18 9.39 1.89.69 4.04.84 6.07.6M93.1 244.2c1.53 1.21 7.02 1.95 7.59-1.14.65-3.5-4.92-2.45-6.21-.52-3.21 4.79 4.26 14.47 9.38 8.32M106.42 242.66c-.69 1.99-1.07 8.93-.11 11.74.36-3.99 0-8.36 5.67-8.08 1.17 2.87-1 4.02-.69 6.34.15 1.15-1.38 1.05-.38 2.41 1.79 2.44 6.39.42 7.3-1.66M119.75 246.25c-.33 3.64-2.65 18.07 5.64 9.74M123.84 231.9c-.93 1.66-1.83 3.28-2.05 5.12M54.67 289.29c.42-5.03 3.6-12.15 5.76-16.85 1.93 2.31.27 6.34.83 9.38.46 2.51 1.89 7.85 3.55 9.55.18-.68.21-1.37.1-2.07"/><path class="cls-1" d="M56.21 282.12c2.27.66 5.44 1.13 6.66-.51M72.09 274.94c.43 3.16-4.3 7.71-4.58 11.78-.44 6.2 8.6 7.6 8.17 2.56M80.29 284.16c1.8.85 3.59.31 4.67-1.52-3.48-4.67-7.24 1.09-7.24 4.85 0 8.39 10.68 9.21 11.28.77M90.54 283.65c-1.43 8.42 7.36 8.06 7.17 1.69.72 5.64 6.23 18.65-.77 22.09-2.3 1.13-5.86.77-6.43-2-1.02-4.96 8.57-8.14 10.78-11.03M104.37 285.7c1.34 2.24-.23 6.13-.03 9.07 1.26-4.78 3.22-7.3 8.23-7.34 1.74 3.9-2.05 7.4-.42 11.02 2.02-.17 3.92-1.1 5.53-2.5M129.48 288.78c-2.89-2.81-10.85 2.46-8.73 6.42 2.87 5.36 7.45-4.72 8.25-6.75-1.43 7.96 1.01 14.08 9.71 6.48M51.09 315.42c.28-.69.24-1.31-.12-1.84-2.42 4.94-4.07 10.7-6.58 15.5 1.66-4.95 3.75-16.1 10.73-15.62.46 3.13-4.8 12.07-7.56 7.19 5.72.68 3.8 13.07 9.16 11.18M70.04 322.59c-1.8-.46-3.62-.83-5.46-1.13-1.61 1.63-6.38 7.67-4.18 10.24 4.06 4.75 7.34-5.75 7.07-8.45.06 4.54-3.03 19.17 7.17 10.09"/><path class="cls-1" d="M77.73 325.67c1.16 4.91 4.5 13.9.38 18.5-2.25 2.51-7.91 2.4-7.68-2.19.01.29-.05.54-.21.77l-.7-2.73M79.27 319.52c1.89-.52 4.05-1.25 4.61-2.56M104.37 323.11c0-.46 0-.93.02-1.39-3.03 4.92-9 9.71-9.79 15.59 4.63-6.51 13.96-7.4 18.48-12.65"/><path class="cls-1" d="M105.4 328.74c-1.71 2.21.12 9.94 1.54 12.81M119.75 329.25c-1.52 1.73-5.61 6.34-2.33 8.17 3.79 2.11 9.56-6.89 11.09-9.53-4.75 5.77-2.36 17.4 5.07 8.02M138.19 327.2c.51 4.41-2.73 8.31-3.1 12.63 1.12-1.75 5.43-8.57 7.99-7.49s.66 6.65-.33 8.51c2.22-3.32 4.77-8.75 9.73-7.96.91 4.15-2.6 7.72-2.97 11.66 1.99.07 3.85-.79 5.59-1.98M163.3 335.4c-.71-3.06-8.26-.03-7.97 4.63.49 7.64 9.25-.13 9.4-4.59-3.66 3.88-1.3 8.28 3.69 8.16M171.5 336.43c.92 2.69-1.59 8.63-1.54 12.17-.63-6.93 7.99-13.67 13.83-9.1M155.61 282.63c-.09-1.73-.73 1.36-1.32 2.35-1.08 1.82-1.96 3.55-2.87 5.35-1.47 2.9-3.05 6.51-4 9.21M161.76 282.63c.03.44-.47 1.17.02.19-.06 7.13-7.52 14.81-6.56 21.37.48-.36.62-.88.4-1.57"/><path class="cls-1" d="M149.46 291.34c3.85 1.25 9.76.58 13.83 2.05M175.08 293.9c-2.64-3.71-11.5-.65-12.25 3.89-1.5 9.08 9.04.8 10.38-2.28-1.42 1.31-2.97 4.02-2.24 6.07 1.29 3.64 4.55.87 7.19 3.09M186.36 287.24c-1.84 2.58-4.21 11.58-5.13 15.75.4-6.14 13.61-11.42 17.86-15.01-.54-.04-.78.2-1.45.28"/><path class="cls-1" d="M188.92 294.92c0 3.28-1.56 14.59 3.59 12.81M198.65 299.02a20.02 20.02 0 0 1-1.02 6.15M200.19 294.41c0-1.88 0-.14 0 0M204.29 298.51c.4 2.88-1.62 8.75-3.37 11.87 1.63-3.92 3.81-9.03 8.4-9.74 1.38 3.17.1 6.38-.98 9.52 1.59-4.37 5.18-6.91 9.71-5.94-.1 3.51-3.55 5.92-3.63 9.6 3.55-.05 7.25-.73 10.87-.97M151 241.64c.19-.66.07-1.2-.36-1.6-1.36 2.96-3.18 5.58-4.51 8.52-.59 1.29-2.16 6.93-1.79 5.37"/><path class="cls-1" d="M142.29 239.08c6.36-5.62 16.82-1.23 17.42 7.29.73 10.34-19.86 14.54-19.4 6.13 1.07-.03.65-.6 1.47-1.12"/><path class="cls-1" d="M162.27 250.86c3.37.59 7.93-1.53 8.12-5.05-13.15-.61-12.3 19.06 3.67 9.66"/><path class="cls-1" d="M174.57 246.25c-.93 3.41-2.6 7.15-3.5 10.58 1.54-3.9 3.76-9.03 9.06-7.94.81 2.74.49 5.43-.88 7.98.94-2.39 6.37-11.62 9.58-6 1.72 3.02-4.62 7.29-4.97 10.67 3.54.98 7 2.24 10.7 1.11"/><path class="cls-1" d="M194.55 255.47c2.73 1.96 7.58 2.02 8.13-1.96-3.35-1.88-7.42-.07-8.01 4.01-1.36 9.31 11.81 6.51 14.74 1.02"/><path class="cls-1" d="M213 243.69c-.27 5.85-5.81 10.56-6.29 15.88-.7 7.75 10.04 3.83 14.49 2.56"/><path class="cls-1" d="M204.8 250.35c3.17-.98 8.08 0 11.78 0M219.15 252.4c.41 2.62-.95 8.21-1.54 11.63.2-6.83 5.84-7.27 11.27-6.51M232.47 255.47c-2.39 2.11-3.22 7.11-3.07 10.25M240.67 257.52c-3.15.31-9.72 4.99-7.04 8.58 3.57 4.78 8.43-3.02 7.99-6.45-1.88.41-1.79-.81-2.48-1.1M246.3 259.57c-.58 3.38-6.88 10.07-.51 11.16 3.16.54 4.5-1.98 6.17-4.39 1.23-1.77 3.43-3.94 1.51-4.2M231.44 249.32c2.86-1.13 5.29-2.73 8.2-3.59M154.59 198.6c-1.03 5.15-5.26 12.39-7.74 18.01.54.61.22-.28.56-.59"/><path class="cls-1" d="M149.98 198.6c3.36 3.14 11.77-.88 16.4 1.02M150.49 206.28c3.08 1.46 8.37.31 11.78-1.02M146.39 215.51c4.52 1.28 10.95 2.67 15.37 1.02M166.88 207.31c-2.11 3.59-2.19 7.45-1.54 10.76"/><path class="cls-1" d="M165.35 212.94c1.94-1.93 5.2-4.54 8.2-3.07M177.13 208.84c-2.49 4.66-5.93 14.36 3.59 10.25M179.18 201.16c-.87 1.75-1.75 3.36-2.56 5.12M186.87 199.11c-2.39 5.9-2.56 12.76-2.97 18.91.94-.97 1.98-2.57 2.46-4.05"/><path class="cls-1" d="M183.28 212.43c3.16-1.32 8.99-3.67 12.51-5.35.89-.03 1.36-.54 1.84-.79"/><path class="cls-1" d="M189.43 209.36c-.72 3.67 1.45 8.97 3.07 12.81M205.31 212.43c-1.66.1-3.14.63-4.42 1.59 11.25 9.35-4.92 10.3-4.88 4.64-.48-.12-1.01.05-1.46-.08M216.59 213.97c-1.23-.64-6.93-1.25-7.23 1.54-.28 2.56 4.97 2.73 6.1 4.61 3.95 6.55-7.12 9.03-10.15 3.59.77-.9 1.93-1.73 3.08-2.06M226.83 214.48c-5.19-1.07-10.84 6.81-5.12 9.13 5.64 2.29 6.87-5.64 7.11-9.05-1.65.14-3.34.29-5.06.43M235.03 210.89c-1.27 3.92-2.71 8.16-4.15 12.13 2.2-4.18 5.69-8.92 10.72-9.5 2.25 4.51-2.31 4.98-2.64 8.67-.59 6.57 8.24 1.71 10.93-1.05M165.86 166.32c-5.67 4.63-14.26 14.59-18.96 21.52"/><path class="cls-1" d="M151 166.83c-1.19 2.66 1.94 9.48 4.1 11.27M165.86 177.08c-1.58 2.85-1.88 7.78-2.05 9.74M175.08 167.85c-1.93 2.65-4.14 10-5.17 14.04-.55 2.16-2.51 4.14-.49 6.22 2.85 2.91 8.35-.79 9.76-3.35M184.31 175.03c-1.1 2.75-1.53 6.49-1.56 9.55 2.12-3.75 4.08-7.36 8.11-9.5 1.33 2.5 1.35 5.14.35 7.72.75-1.83 3.81-8.23 6.95-6.78 3.26 1.5-.99 6.98-1.49 9.19 3.94.42 7.3-.54 10.19-3.52"/><path class="cls-1" d="M217.1 175.54c-3.74-4.71-12.31-.4-10.8 5.34 2.27 8.62 11.37-3.25 11.85-7.73-1.07 2.22-2.84 6.12-2.48 8.7.83 5.93 6.55 6.48 10.65 1.9M227.86 173.49c3.7-.02 7.48.37 11.22.6-1.44 5.2-7.44 7.45-10.02 12.13 4.52.24 9.27-.31 13.66.59M174.06 134.55c-1.08 4.49-2.61 9.62-4.1 13.83"/><path class="cls-1" d="M166.88 131.99c7.79-7.06 16.87 1.05 14.86 10-1.89 8.42-14.23 13.38-19.51 5.41a7.5 7.5 0 0 1 2.09-1.57M186.87 139.16c0 2.54-1.28 8.4 1.53 9.63 3.4 1.49 5.61-3.52 6.08-5.99-5.61 4.58 3.87 10.36 8.79 2.51"/><path class="cls-1" d="M202.75 130.45c2 3.69-.82 10.17-1.06 14.53 1.13-6.25 10.85-8.85 9.8-.47-1.05 8.32-9.83 5.16-12.83.29M223.76 141.21c.11-.69.09-1.38-.08-2.05-5.68-1.05-11.39 5.97-5.81 9.95 6.96 4.97 10.89-9.77 2.82-10.46"/><path class="cls-1" d="M229.39 138.65c-.59 2.38-3.81 6.6-2.59 9.22 1.86 3.97 8.08 1.07 8.74-2.56M234.52 128.4c-1.09 1.56-2.58 3.03-3.59 4.61M245.79 136.09c-3.07-1.54-6.68.67-5.27 4.13 1.08 2.66 6.1 1.7 7.09 4.84 1.84 5.85-9.34 5.87-12.06 2.3M159.2 97.66c-.82-2.86-5.06-3.35-7.29-1.68-4.75 3.57.47 4.46 3.07 6.66 7.59 6.43-2.31 10.86-8.6 6.8M169.45 103.29c-3.21-1.44-8.14.89-8.71 4.61-1.05 6.95 11.78 3.39 12.3-2.05M177.64 89.97c-2.31 1.91-4.64 14.41-4 18.4 5.42-4.46 1.44-9.93 11.1-9.11-.51 3.62-3.66 6.43-2.93 10.61 3.74.47 8.15-.52 10.68-3.51M195.58 99.71c.15 3.55-1.48 7.44.1 10.68 3.24-1.46 6.51-5.64 7.49-9.1-2.89 4.1-.97 12 5.73 10.21M217.61 100.22c-.96-.49-4.59-.87-5.15 1-.79 2.66 4.38 3.08 5.31 5.04 2.76 5.79-7.87 6.52-8.36 1.14M226.83 92.02c-.55 5.83-2.51 8.74-4 13.88-.37 1.29-1.94 2.99-1.02 4.46 1.81 2.9 10.08 1.23 11.68-.92"/><path class="cls-1" d="M220.68 97.66c3.13 1.17 7.02.38 10.25-.51M230.93 103.81c2.8-1.08 5.47-2.41 8.01-3.99-4.15-.38-10.8 2.97-8.03 8.35 1.45 2.81 6.68 2.9 9.76 2.81"/><path class="cls-1" d="M241.69 100.22c.14 4.09-1.59 7.73-1.54 11.86 3.03-5.74 5.58-11.65 13.32-7.25M180.72 57.69c-1.69-1.91-6.54-2.56-8.34-.13-2.9 3.93 3.67 4.06 5.47 7.03 2.95 4.86-.34 7.12-4.98 7.67s-6.62-1.23-9.05-4.83M185.33 60.77c-.02 2.7-1.52 7.64-1.42 11.23 1.41-2.65 1.26-7.54 4.95-8.63.76 1.71 1.18 3.69 1.19 5.55 1.35-1.7 3.51-8.01 7.1-5.36 2.3 1.7-.38 6.84-.98 8.91 2.99.18 5.91-1.31 8.64-2.48M208.9 61.79c-.23.55-2.61 5.72-1.51 7.45 1.6 2.51 8.16 1.62 10.22.24M212.49 48.98a41.3 41.3 0 0 0-1.02 4.61M222.73 45.4c-.16 1.16-8.24 20.03-5.16 22.98 3.55 3.41 11.38-3.68 12.85-5.56"/><path class="cls-1" d="M215.56 56.16c3.27-.39 8.18-.49 10.76-2.56M234.01 44.88c-.05 7.49-3.89 14.59-3.61 21.88 1.62-3.71 13.42-18.58 12.6-7.26-.24 3.33-6.76 6.13-5.41 9.98 2.34 6.69 17.01-2.66 18.97-6.16"/></g></g></svg>