<svg id="Ebene_2" data-name="Ebene 2" xmlns="http://www.w3.org/2000/svg" viewBox="0 0 398.79 400.01"><defs><style>.cls-1,.cls-2{fill:#fff;stroke:#000;stroke-miterlimit:10;stroke-width:3px}.cls-2{fill:#ffff34}</style></defs><g id="kopien"><g id="weste"><path class="cls-2" d="M395.28 237.28c-4.57-.66-9.15-1.33-13.72-1.99-10.85-1.55-21.72-3.13-32.65-3.94-21.51-1.57-43.13-.17-64.64 1.24-29.26 1.93-58.53 3.83-87.79 5.76-61.91 4.06-123.91 8.12-185.33 16.93-2.83-17.17-5.97-33.75-9.42-49.04 15.85-8.14 31.72-16.28 47.59-24.43 5.04-2.59 10.25-5.32 13.72-9.78 4.63-5.95 5.48-13.94 5.72-21.46 1.63-46.28-10.91-93.83-6.28-139.93 8.08.68 16.18 1.37 24.3.93 8.08-.41 16.06-1.91 24.03-3.4 10.11-1.89 20.21-3.79 30.32-5.7 2.87-.54 5.77-1.08 8.68-.97 3.22.12 6.34 1.02 9.46 1.76 5.52 1.31 11.12 2.15 16.74 2.67 2.93.25 5.89.39 8.82.52.45 0 .87.02 1.22.06h5.54c12.94-.12 25.96-1.53 38.81-3.05 2.54-.29 5.17-.58 7.65.04 1.88.48 3.6 1.47 5.27 2.42 10.66 6.01 21.89 11.35 33.87 13.84 14.49 3 29.45 1.74 44.18.46l18.35-1.62c.64-2.57 2.21.97 2.85-1.62.66-2.67.19 4.62.48 7.35 3.86 38.51-4.77 77.92 3.22 115.77 2.29 10.88 6.47 22.19 15.52 28.65 9.44 6.73 23.5 7.73 29.2 17.86 2.5 4.41 2.75 9.74 2.96 14.83.45 11.37.89 23.39 1.32 35.8Z"/><path class="cls-1" d="M396.21 268.77c-33.15-3.26-67.73-2.61-101.68-1.93-45.49.92-90.98 1.84-136.47 2.77-38.03.77-76.15 1.54-113.79 4.36-9.93.75-20 1.64-29.99 1.55-1-6.82-2.82-18.25-3.91-24.91 61.41-8.8 124.19-8.2 186.12-12.26 29.26-1.91 58.52-3.83 87.78-5.76 21.52-1.41 43.13-2.82 64.64-1.24 10.94.79 21.81 2.37 32.66 3.94 4.58.66 9.15 1.32 13.72 1.97.34 10.27.66 20.82.94 31.5Z"/><path class="cls-2" d="M396.98 305.17c-7.05-.58-14.14-1.05-21.25-1.41-20.38-1.05-40.91-1.22-61.4-1.4-68.85-.58-138.03-1.16-206.26 3.52-21.33 1.46-42.52 3.42-63.68 5.39-8.36.78-16.71 1.55-25.07 2.32-1.51-12.72-3.19-25.49-5.04-38.07 9.99.08 20.06-.81 29.99-1.55 37.64-2.82 75.76-3.59 113.79-4.36 45.49-.93 90.98-1.85 136.47-2.77 33.95-.69 68.53-1.34 101.68 1.93.32 12.04.59 24.24.77 36.4Z"/><path class="cls-1" d="M397.28 337.53c-82.69-5.71-165.75-6.09-248.5-1.14-33.69 2.02-67.38 4.94-100.59 10.95-8.24 1.49-16.48 3.18-24.78 4.3-1.19-12.46-2.55-25.21-4.08-38.03 8.36-.77 16.71-1.54 25.07-2.32 21.16-1.97 42.35-3.94 63.68-5.39 68.23-4.67 137.42-4.09 206.26-3.52 20.49.18 41.02.35 61.4 1.4 7.11.36 14.2.83 21.25 1.41.17 10.86.28 21.7.3 32.35Z"/><path class="cls-2" d="M396.47 394.2c-28.48-2.96-57.12-4.03-85.75-4.23-24.29-.16-48.57.31-72.83-.57-44.82-1.6-89.61-7.8-134.35-4.79-25.82 1.75-51.39 6.55-76.34 13.45-.98-14.64-2.25-30.3-3.8-46.44 8.3-1.12 16.54-2.81 24.78-4.3 33.21-6.01 66.9-8.92 100.59-10.95 82.75-4.95 165.81-4.56 248.5 1.14.05 19.82-.18 39.01-.8 56.68Z"/><path d="M136.85 104.09c6.29-1.22 7.4 1.45 9.72 4.4 1.02 1.72 1.39 3.2 2.88 5.25.11 2.27.31 5.3.71 6.56-.32 3.61-.1 4.59-.66 7.16-.23 2.92-1.16 3.83-2.93 4.65-1.85 3.33-6.89 4.47-9.72 4.4-4.25-.11-6.78-.73-9.67-4.4-1.79-2.68-2.81-6.93-3.6-11.81.43-2.4-.26-4.86.97-6.38.14-2.51 1.38-3.88 2.64-5.43 2.18-3.04 6.64-4.36 9.67-4.4Zm0 26.4c1.89-.53 4.05-1.75 4.97-2.77 2.5-2.13 3.49-4.55 1.86-7.42.74-2.45-.95-4.6-1.86-7.4-1-1.29-1.58-3.32-4.97-2.78-.99-.15-3.49-.03-4.97 2.78-1.89 1.41-.6 2.61-1.86 7.4.7 3.37.97 5.32 1.86 7.42 1.14 1.55 3.43 3.72 4.97 2.77ZM164.78 104.7c3.45-.99 4.51.12 8.04 2.64 2.69.88 3.15 5.33 2.82 7.58.04 5.27-2.44 7.17-5.97 9.02-.53-.81 2.12 4.04 3.26 5.98 1.38 3.5 1.46 4.2 3.26 5.98-1.11.95-8.6.29-6.87 0 .85 0-7.29-10.07-5.62-11.01.31 1.69-1.86-.46-1.82 0 .02.23 2.35 9.46 0 11.01.85.32-4.8.32-6.31 0-1.05-1.65-1.93-1.19.19-4.98.69-2.8.3-6.47-.19-10.63.19-3.81.43-7.61.38-10.98-.15-3.05-1.37-4.56-.38-4.62.44-.06 8.7 1.42 9.21 0Zm-2.9 5.5c1.47.14-1.14 9.69 0 9.45-.14-.66 2.21.58 2.77 0 1.97.45 4.43-1.94 4.54-4.72.42-4.81-2.61-3.81-4.24-4.72-.32-1.23-3.36-.29-3.07 0ZM181.56 135.9c1.95 1.03.35-1.03.24-5.3.7-3.36-2.28-6.54-.24-10.31 1.08-6.37.07-7.07-.14-10.92-.71-3 1.58-4.21.14-4.68-1.01.15 7.62-.56 8.86 0 4.34-.8 8.69.32 10.73 4.13 1.13 2.87 2.53 6.65 3.76 11.47-.04 5.07-.8 8.1-3.73 11.48-2.73 2.12-5.45 1.94-10.71 4.13 1.27 1.05-8.07.75-8.91 0Zm6.4-25.7c-.81.1 1.82 4.73 0 10.1.91 4.25-.78 11.41 0 10.1-.18 1.53.27 0 2.42 0 3.99-.07 5.03-.86 5.95-2.69 2-2.88 3.5-3.71 2.09-7.41-.87-2.39-2.59-5.18-2.1-7.41-2.93-1.32-2.24-4.1-5.99-2.69 1.11.15-1.84 1.63-2.38 0ZM218.79 121.17c-1.62 1.64-1.46-1.01-2.12-2.56-.09-.47.57 2.47 0 8.65.39 3.16.81 8.75 0 8.65 1-.07-6.16-.21-6.31 0-.12.48-.85-.57-.11-5.01-1.33-2.14.56-6.28.11-10.83-1.6-4.67-1.05-8.23-.49-10.86-1.26-1.93 1.2-4.13.49-4.98.8.04 1.73-.04.91 0 2.35.43 3.13 3.13 6.53 7.71 2.51 3.15 8.04 8.64 6.53 7.71 1.27 1.2 2.92.97 2.12 2.6 2.12-1.74.83-3.95-.04-3.51-1.39-1.58 1.3-3.15 0-7.02.31-2.19-1.95-7.68 0-7.02.09 2.1 6.76.02 6.36 0-.29.56.08 1.95.22 5.21.21 3.35-.02 6.65-.22 10.63.67 4.88.72 7.98-.04 11.15.05 1.87.67 4.76.04 4.7-.52.04-1.12 1.97-.91 0-.04 1.32-3.6-4.7-6.53-7.61-4.96-3.86-7.75-7.39-6.53-7.61ZM239.76 135.9c-.96-.36.22-1.56.04-4.99-.61-3.47.24-6.42-.04-10.61-1.42-3.7-.15-8.54.27-10.85.1-3.07.44-4.76-.27-4.75.83-.73 3.11.24 8.65 0 3.36.75 9.42-.04 8.65 0 1.02-.84.48 5.22 0 5.5.11 2.18-11.11.05-10.89 0-.08 1.54-.25 7.27 0 7.24.45-.26 9.25.88 9.25 0 .62.96-.41 4.82 0 5.29 1.94.59-8.56.63-9.25 0 .72.78-.55 7.31 0 7.67-.59.04 11.57.72 11.46 0 .28-.63-.42 6.27 0 5.5.89-.51-4.86.65-8.93 0-4.33.66-8.76-1.25-8.93 0ZM272.27 104.7c3.21-1.03 7.09.3 8.04 2.64 3.1 1.36 2.6 3.37 2.82 7.58-.56 4.37-2.35 8.18-5.97 9.02-.38-.06.61 3.03 3.26 5.98 1.06 1.74 2.91 6.03 3.26 5.98-.97.35-7.55-.46-6.87 0 .87-.75-5.92-11.01-5.62-11.01.13-.05-1.11-.24-1.82 0 .86-.16 1.06 10.27 0 11.01 1.01-.6-5.5-.07-6.31 0 2.64-.41.43-1.45-.06-5.05.44-1.49-.46-6.98.06-10.55.86-3.4-.88-7.37.1-10.77-.32-3.47-.42-4.79-.1-4.83-.65.62 9.05-1.44 9.21 0Zm-2.9 5.5c.71-.48 1.45 8.88 0 9.45.6.34 3.16 1.05 2.77 0 3.58 1.2 4.67-2.48 4.54-4.72.15-3.39-2.13-4.66-4.24-4.72-1.58-.51-2.62.77-3.07 0Z"/></g></g></svg>