<svg id="Ebene_2" data-name="Ebene 2" xmlns="http://www.w3.org/2000/svg" viewBox="0 0 400 163.89"><defs><style>.cls-1{stroke:#51514f;stroke-linecap:round;stroke-linejoin:round;stroke-width:1.21px;fill:none}.cls-2{fill:none;stroke:#1d1d1b;stroke-miterlimit:10;stroke-width:1.82px}.cls-3{fill:#e2decf}.cls-4{fill:#fff9e2}.cls-5{fill:#bfbaaa}</style></defs><g id="kopien"><g id="paper"><path class="cls-3" d="M125.81 90.5a7.72 7.72 0 0 0-.53-.61c.15.24.34.46.53.61Zm81.02 17.96c.12.22.27.41.46.58-.15-.19-.29-.39-.46-.58Zm.05 21.34c-23.62-3.93-46.94-9.54-69.78-16.72-1.36-.44-2.69-.85-4.05-1.31h-.02c-16.09-5.19-31.92-11.14-47.77-17.06-16.89-6.36-33.86-12.69-50.78-19.05-.61-.24-1.24-.51-1.89-.78-8.45-3.79-18.62-11.75-25.12-17.57 13.42 4.98 28.52 2.6 42.09-1.99 13.57-4.56 26.41-11.26 40.22-15.12 8.76-2.45 17.82-3.74 26.6-6.04 20.95-5.49 40.32-16.89 55.27-32.57 9.68 19.27 32.89 27.06 54.1 31.04 42.43 7.96 85.87 8.06 129.03 8.13 13.13.02 26.67-.05 38.76-5.17-10.1 7.6-20.17 15.19-30.29 22.84h-.02c-13.42 10.1-26.84 20.19-40.29 30.32-5.75 4.34-11.63 8.79-17.31 13.5-.05.02-.07.05-.12.1-12.38 10.15-23.98 21.26-32.35 34.15-9.51-.32-19.03-.92-28.5-1.8-12.65-1.14-25.24-2.79-37.77-4.88Z"/><path class="cls-4" d="M207.29 109.04c-.19-.17-.34-.36-.46-.58.17.19.32.39.46.58Z"/><path class="cls-3" d="M75.44 112.24c-10.75-1.75-21.46-4.03-32.18-6.14-13.47-2.62-26.97-4.93-40.61-5.44 1.99-1.46 5.05-3.37 8.3-5.15 7.86 1.21 15.75 2.45 23.59 3.67 3.83.61 8.01 1.09 11.65.07h.02c16.36 5.22 32.69 10.41 49.13 15.46-6.65-.51-13.28-1.38-19.9-2.48Z"/><path class="cls-5" d="M168.45 147.61c3.5 4.71 9.66 7.28 15.49 6.48 2.31-.34 4.51-1.19 6.46-2.43.27.22.51.46.75.7-9.98 8.37-23.67 12.21-36.51 10-2.96-.51-5.87-1.31-8.74-2.26-.02 0-.05-.02-.07-.02-5.24-3.16-10.19-6.31-14.68-9.22-1.19-.78-2.38-1.53-3.5-2.26 1 .44 2.01.83 3.03 1.19 12.21 4.32 26.21 3.76 37.77-2.18Z"/><path class="cls-5" d="M95.47 114.72c33.81 10.36 67.84 20 102.33 27.48-.41.73-.8 1.46-1.14 2.23 0 .05-.02.12-.07.17-.15.34-.32.66-.49 1-1.33 2.45-3.35 4.56-5.7 6.07-2.26-2.06-5-3.64-7.82-4.81-5.41-2.23-11.26-3.2-16.82-5-4.15-1.33-8.16-3.11-12.21-4.68-4.37-1.7-8.81-3.16-13.25-4.64-5.34-1.75-10.66-3.52-16-5.27-7.31-2.4-14.61-4.81-22.09-6.55-9.17-2.14-18.88-3.4-26.77-8.47 6.63 1.09 13.25 1.97 19.9 2.48h.12Z"/><path class="cls-3" d="M113.94 139.99a636.458 636.458 0 0 0-70.68-33.88c10.73 2.11 21.43 4.39 32.18 6.14 7.89 5.07 17.6 6.33 26.77 8.47 7.48 1.75 14.78 4.15 22.09 6.55 5.34 1.75 10.66 3.52 16 5.27 4.44 1.48 8.88 2.94 13.25 4.64 4.05 1.58 8.06 3.35 12.21 4.68 5.56 1.8 11.41 2.77 16.82 5 2.82 1.17 5.56 2.74 7.82 4.81a16.508 16.508 0 0 1-6.46 2.43c-5.83.8-11.99-1.77-15.49-6.48-11.55 5.95-25.56 6.5-37.77 2.18-1.02-.36-2.04-.75-3.03-1.19-.02 0-.05-.02-.07-.05-5.58-3.62-10.24-6.67-13.64-8.57ZM372.65 58.31c5.63-.07 11.26-.12 16.89-.19-3.83 2.77-8.01 4.85-12.38 6.6-5.51 2.21-11.31 3.91-17.01 5.8 3.01-5.07 7.38-9.34 12.5-12.21ZM382.24 66.01c4 .9 8.08 1.48 12.16 1.77 0 0-40.68 16.38-58.93 27.99-14.83 9.42-27.5 21.7-40.36 33.74 4.39-8.71 10.7-16.55 17.86-23.25 10.34-9.68 22.45-17.23 34.66-24.47 10.95-6.48 22.21-12.84 34.59-15.78h.02Z"/><path class="cls-5" d="M377.17 64.72c1.67.49 3.35.92 5.05 1.29-12.38 2.94-23.64 9.3-34.59 15.78-12.21 7.23-24.32 14.78-34.66 24.47-7.16 6.7-13.47 14.54-17.86 23.25-3.93 3.71-7.89 7.38-11.92 10.95l-.07.07a223.07 223.07 0 0 1-6.02 5.12 46.05 46.05 0 0 0-14.34-4.1c-1.5-.17-2.99-.27-4.49-.34-5.44-.32-10.87-.44-16.31-.56-1.63-.05-3.52-.19-4.56-1.43 2.33-1.67 4.76-3.18 7.26-4.54 9.47.87 18.98 1.48 28.5 1.8 8.37-12.89 19.98-24.01 32.35-34.15.05-.05.07-.07.12-.1 7.23-4.83 14.47-9.64 21.7-14.47 7.57-5.07 15.22-10.15 23.57-13.76 3.01-1.31 6.14-2.43 9.27-3.47 5.7-1.89 11.5-3.59 17.01-5.8Z"/><path class="cls-5" d="M363.24 58.41c3.13-.02 6.29-.07 9.42-.1-5.12 2.86-9.49 7.14-12.5 12.21-3.13 1.04-6.26 2.16-9.27 3.47-8.35 3.62-16 8.69-23.57 13.76-7.23 4.83-14.47 9.64-21.7 14.47 5.68-4.71 11.55-9.15 17.31-13.5C336.38 78.6 349.8 68.5 363.22 58.4h.02Z"/><path class="cls-3" d="M277.09 145.64c-1.84 1.53-3.71 3.03-5.63 4.51-1.31 1-2.65 1.99-3.98 2.99-.75-.44-1.53-.83-2.33-1.19-10.17-5.02-21.29-8.11-32.6-9 1.55-1.31 3.16-2.57 4.83-3.74 1.04 1.24 2.94 1.38 4.56 1.43 5.44.12 10.87.24 16.31.56 1.5.07 2.99.17 4.49.34 4.95.58 9.83 1.97 14.34 4.1Z"/><path class="cls-3" d="M237.39 139.21a67.577 67.577 0 0 0-4.83 3.74 59.386 59.386 0 0 0-5.49 5.05c-9.81-1.75-19.56-3.69-29.27-5.8-34.49-7.48-68.52-17.11-102.33-27.48h-.12c-16.43-5.05-32.77-10.24-49.13-15.46h-.02c-1.36-.44-2.74-.87-4.1-1.31-6.43-2.06-13.16-4.34-19.3-7.38-7.09-3.47-13.45-7.94-17.72-14.13 4.2 2.21 9.32 2.06 14.37 1.24 16.67 5.73 36.87 11.46 52.18 17.18 14.9 5.58 29.85 11.17 45.41 14.42 5.29 1.09 10.61 1.94 15.97 2.48h.02c1.36.46 2.69.87 4.05 1.31 22.84 7.18 46.17 12.79 69.78 16.72 12.52 2.09 25.12 3.74 37.77 4.88-2.5 1.36-4.93 2.86-7.26 4.54Z"/><path class="cls-4" d="M196.1 145.59c-.51 1.12-.97 2.28-1.38 3.45a36.184 36.184 0 0 1-3.57 3.33c-.24-.24-.49-.49-.75-.7 2.35-1.5 4.37-3.62 5.7-6.07ZM125.27 89.89c.19.19.36.39.53.61-.19-.15-.39-.36-.53-.61Z"/><path class="cls-5" d="M133.02 111.76c-5.36-.53-10.68-1.38-15.97-2.48-15.56-3.25-30.51-8.84-45.41-14.42-15.32-5.73-35.51-11.46-52.18-17.18 2.99-.49 5.92-1.21 8.67-1.82 1.46-.32 2.91-.66 4.34-.97.05 0 .1-.02.12-.02.66.27 1.29.53 1.89.78C51.4 82.01 68.36 88.34 85.26 94.7c15.85 5.92 31.67 11.87 47.77 17.06ZM42.09 97.95c1.36.44 2.74.87 4.1 1.31-3.64 1.02-7.82.53-11.65-.07-7.84-1.21-15.73-2.45-23.59-3.67 4.17-2.28 8.71-4.34 11.84-4.95 6.14 3.03 12.86 5.32 19.3 7.38Z"/><path class="cls-2" d="M32.58 74.86c-8.45-3.79-18.62-11.75-25.12-17.57 13.42 4.98 28.52 2.6 42.09-1.99 13.57-4.56 26.41-11.26 40.22-15.12 8.76-2.45 17.82-3.74 26.6-6.04 20.95-5.49 40.32-16.89 55.27-32.57 9.68 19.27 32.89 27.06 54.1 31.04 42.43 7.96 85.87 8.06 129.03 8.13 13.13.02 26.67-.05 38.76-5.17-10.1 7.6-20.17 15.19-30.29 22.84"/><path class="cls-2" d="M305.61 102.22c5.68-4.71 11.55-9.15 17.31-13.5 13.45-10.12 26.87-20.22 40.29-30.32h.02c3.13-.02 6.29-.07 9.42-.1 5.63-.07 11.26-.12 16.89-.19-3.83 2.77-8.01 4.85-12.38 6.6"/><path class="cls-2" d="M244.64 134.67c9.47.87 18.98 1.48 28.5 1.8 8.37-12.89 19.98-24.01 32.35-34.15.05-.05.07-.07.12-.1 7.23-4.83 14.47-9.64 21.7-14.47 7.57-5.07 15.22-10.15 23.57-13.76 3.01-1.31 6.14-2.43 9.27-3.47 5.7-1.89 11.5-3.59 17.01-5.8 1.67.49 3.35.92 5.05 1.29"/><path class="cls-2" d="M382.24 66.01c4 .9 8.08 1.48 12.16 1.77 0 0-40.68 16.38-58.93 27.99-14.83 9.42-27.5 21.7-40.36 33.74-3.93 3.71-7.89 7.38-11.92 10.95l-.07.07a223.07 223.07 0 0 1-6.02 5.12c-1.84 1.53-3.71 3.03-5.63 4.51-1.31 1-2.65 1.99-3.98 2.99-.75-.44-1.53-.83-2.33-1.19-10.17-5.02-21.29-8.11-32.6-9"/><path class="cls-2" d="M133.04 111.76c1.36.46 2.69.87 4.05 1.31 22.84 7.18 46.17 12.79 69.78 16.72 12.52 2.09 25.12 3.74 37.77 4.88-2.5 1.36-4.93 2.86-7.26 4.54a67.577 67.577 0 0 0-4.83 3.74 59.386 59.386 0 0 0-5.49 5.05c-9.81-1.75-19.56-3.69-29.27-5.8M22.8 90.57C15.71 87.1 9.35 82.63 5.08 76.44c4.2 2.21 9.32 2.06 14.37 1.24 2.99-.49 5.92-1.21 8.67-1.82 1.46-.32 2.91-.66 4.34-.97.05 0 .1-.02.12-.02.66.27 1.29.53 1.89.78 16.92 6.36 33.88 12.69 50.78 19.05 15.85 5.92 31.67 11.87 47.77 17.06M46.22 99.26c16.36 5.22 32.69 10.41 49.13 15.46"/><path class="cls-2" d="M43.26 106.1c-13.47-2.62-26.97-4.93-40.61-5.44 1.99-1.46 5.05-3.37 8.3-5.15 4.17-2.28 8.71-4.34 11.84-4.95 6.14 3.03 12.86 5.32 19.3 7.38 1.36.44 2.74.87 4.1 1.31M127.65 148.6s-.05-.02-.07-.05c-5.58-3.62-10.24-6.67-13.64-8.57a636.458 636.458 0 0 0-70.68-33.88c10.73 2.11 21.43 4.39 32.18 6.14 6.63 1.09 13.25 1.97 19.9 2.48h.12c33.81 10.36 67.84 20 102.33 27.48-.41.73-.8 1.46-1.14 2.23 0 .05-.02.12-.07.17-.15.34-.32.66-.49 1"/><path class="cls-2" d="M196.1 145.59c-.51 1.12-.97 2.28-1.38 3.45a36.184 36.184 0 0 1-3.57 3.33c-9.98 8.37-23.67 12.21-36.51 10-2.96-.51-5.87-1.31-8.74-2.26-.02 0-.05-.02-.07-.02-5.24-3.16-10.19-6.31-14.68-9.22-1.19-.78-2.38-1.53-3.5-2.26 1 .44 2.01.83 3.03 1.19 12.21 4.32 26.21 3.76 37.77-2.18 3.5 4.71 9.66 7.28 15.49 6.48 2.31-.34 4.51-1.19 6.46-2.43 2.35-1.5 4.37-3.62 5.7-6.07ZM133.02 111.76h.02M46.19 99.26h.03M382.24 66.01h-.02"/><path class="cls-1" d="M87.26 75.88c-2.38-2.6-4.3-5.61-5.63-8.86 1.38 1.12 3.06 1.89 4.81 2.23M88.31 68.65c1.63.58 3.23 1.19 4.85 1.77.07-1.43.15-2.89.22-4.34 2.16 1.36 4.81 1.97 7.35 1.7M100.32 62.85c1.87 1.19 4.83 2.16 5.87.19.17-.32.27-.68.53-.92 1.12-1.02 2.38 1.48 3.86 1.55M111.92 62.73c2.01-.92 4.03-1.84 6.02-2.74 2.35-1.07 5.1-2.16 7.45-1.04M129.18 56.9c1.02-.02 2.01-.07 3.03-.1.1-.78.17-1.53.27-2.31.92 1.48 3.45.58 4.03-1.04.58-1.65-.05-3.42-.51-5.1s-.68-3.67.51-4.93c2.62 3.59 7.38 5.51 11.77 4.68.1-1.36.22-2.74.32-4.13.44 1.43 1.89 2.48 3.37 2.4.51-1.29.78-2.67.83-4.05 2.11 1.21 5.15.32 6.26-1.84.7-1.33 1.41-2.65 2.11-3.96.53.36 1.07.73 1.58 1.09.8-.7 2.11-.7 2.89 0 .07-1 .17-1.99.24-2.99 1.33.7 2.72 1.41 4.22 1.41 1.5.02 3.13-.87 3.4-2.33.07-.36.02-.8-.29-.97s-.78.29-.51.53M109.93 87.29c-.92-1.36-1.65-2.86-2.16-4.47a6.269 6.269 0 0 0 3.08 2.89c.39-1.87.53-3.79.41-5.7 1.14 1.09 2.28 2.18 3.42 3.3.22-1.6.44-3.35 1.58-4.47 1.14-1.14 3.54-1 3.93.58 1.02-.8 1.67-2.06 1.72-3.35 1.72 1.24 4.08.73 6.12.17 3.28-.92 6.55-1.84 9.85-2.77 1.21-1.46 1.7-3.52 1.24-5.39 1.19-.07 1.67 1.58 2.65 2.26 1.38.95 3.37-.39 3.71-2.01.32-1.65-.44-3.28-1.17-4.76 2.26.07 4.27-1.29 6.09-2.57 1.55-1.09 3.08-2.18 4.61-3.25 1.24-.87 2.45-1.75 3.64-2.67 2.23-1.77 4.27-3.81 6.04-6.04M125.81 90.5c1.38 1.09 3.98.32 4.88-1.41 1.02-1.97.56-4.34.05-6.5 2.48-.34 4.34 3.54 6.67 2.62.7-.27 1.17-.92 1.63-1.53 3.5-4.66 8.79-7.6 13.93-10.39 1.09-.58 2.31-1.19 3.52-.92 1.38.32 2.74 1.7 3.96.97 1.02-.63.78-2.14.8-3.33.02-3.33 3.74-6.04 6.92-5.1.58-1.77 1.17-3.54 1.77-5.34.66.73 1.67 1.09 2.62.95.07-2.4 2.67-4.42 5.02-3.86 1.19.29 2.38 1.09 3.52.68 1.07-.36 1.53-1.58 1.8-2.67.68-2.69 1.04-5.46 1.09-8.23 1.07 1.63 2.21 3.3 3.96 4.17 1.72.85 4.22.51 5.07-1.21l3.42 1.75c1.41-3.79 2.52-7.67 3.33-11.63M125.81 90.5a7.72 7.72 0 0 0-.53-.61c.15.24.34.46.53.61ZM127.94 92.85c-.7-.8-1.41-1.58-2.14-2.35M148.26 93.04c1.75 1.26 3.52 2.55 5.29 3.81-.51-1.77-.34-3.71.49-5.34.85.56 1.7 1.14 2.57 1.72-.41-2.52 1.63-4.71 3.52-6.43.92-.85 1.84-1.7 2.77-2.52 3.57-3.28 7.18-6.58 11.41-8.96 1.12-.63 2.31-1.21 3.16-2.16 1.65-1.87 1.77-4.81 3.64-6.43 1.48-1.29 3.62-1.38 5.53-1.82s4.03-1.72 4-3.71c1.33.32 2.67.66 3.98.97-.44-1.09.49-2.28 1.53-2.79s2.26-.63 3.25-1.24 1.67-1.63 2.35-2.57c2.09-2.86 4.59-5.41 7.06-7.94 1.7-1.72 3.37-3.45 5.07-5.17M164.47 105.25c-.29-.63-.58-1.24-.87-1.87 1.63 1.29 3.16 2.72 4.51 4.3.07-1.24.15-2.48.24-3.69 2.01.17 4.03.34 6.07.51-.51-1.24 0-2.79 1.14-3.47 1.17-.68 2.77-.41 3.62.61-.41-1.82 1.53-3.74 3.35-3.28-.75-1.8 1.04-4.05 2.96-3.74.07-.95.15-1.87.24-2.82 1.87-.7 3.71-1.48 5.53-2.28.7-.29 1.19-1.58.44-1.5M182.89 112.9c2.96-1.5 6.41-2.04 9.66-1.5-.85-2.94.8-6.09 3.13-8.08 2.33-1.99 5.39-3.13 8.45-3.18-3.08-6.24 7.11-13.16 4.37-19.56 1.63-.07 3.28-.12 4.9-.17.22-2.52.05-5.07-.44-7.55 3.74 1.17 7.4-1.75 10.22-4.44 2.31-2.18 4.61-4.39 6.94-6.58 1.6-1.55 3.37-3.62 2.69-5.73 1.84 1.26 4.13-.8 5.39-2.67 1.89-2.77 3.79-5.56 5.68-8.35M207.29 109.04c1.12 1.36 2.23 2.69 3.35 4.05-.58-3.03.63-6.36 3.03-8.3 2.72-2.21 6.92-2.99 8.18-6.26.32-.8.46-1.75 1.12-2.31 1.31-1.09 3.35.29 5-.22 2.43-.75 1.87-4.3 2.62-6.75.68-2.18 2.65-3.67 4.22-5.29 1.6-1.65 2.99-4.03 2.06-6.14 2.09.39 4.25.44 6.33.15-.34-1.94-1.41-3.76-2.91-5.07.29-2.43 3.45-3.35 5.85-2.91 2.4.46 4.73 1.67 7.16 1.33 3.57-.53 5.85-5.12 4.08-8.28 4.66 1.84 9.3 3.71 13.96 5.56a62.73 62.73 0 0 0-7.79-17.01c1.8.39 3.76.8 5.49.1 1.72-.7 2.91-3.01 1.8-4.49M207.29 109.04c-.19-.17-.34-.36-.46-.58.17.19.32.39.46.58Z"/><path class="cls-1" d="M210.2 109.36c-.87.56-2.14.39-2.91-.32M241.9 120.13c-.78-1.99-2.14-3.79-3.86-5.1.63 3.06 2.55 5.83 5.17 7.48-1.09-.75-.78-2.55.17-3.45.97-.9 2.33-1.21 3.54-1.7 1.24-.49 2.5-1.38 2.65-2.69.22-1.6-1.31-3.28-.56-4.68.34-.66 1.04-1.02 1.6-1.5 2.18-1.97 1.36-5.75 3.11-8.13.73-1.02 1.87-1.67 2.67-2.62 1.19-1.41 1.58-3.3 2.26-5.02.66-1.7 1.94-3.45 3.76-3.62M260.71 111.37c-.36-1.87-.44-4.34 1.31-5.12.68-.32 1.48-.24 2.23-.44 1.75-.49 2.74-2.38 3.03-4.17.32-1.8.15-3.67.66-5.44 1.48-5.19 8.06-7.33 10.34-12.26.73-1.53 1.24-3.54 2.86-4.03.87-.27 1.84.02 2.74-.15 1.38-.29 2.26-1.6 3.4-2.45 1.12-.85 3.16-1 3.57.36 2.09-1.38 3.59-3.64 4.1-6.09.44-2.23.15-4.71 1.41-6.6 1.26-1.87 5.12-1.72 5.02.56 3.81-5.53 10.05-9.3 16.67-10.1.46-.97.92-1.92 1.38-2.89"/></g></g></svg>