<svg id="Ebene_2" data-name="Ebene 2" xmlns="http://www.w3.org/2000/svg" viewBox="0 0 332.28 400.01"><defs><style>.cls-1{fill:none}.cls-1,.cls-3{stroke:#000;stroke-width:2.01px}.cls-1,.cls-3,.cls-5{stroke-miterlimit:10}.cls-3{fill:#00f59f}.cls-5,.cls-6{fill:#ffe1e1}.cls-5{stroke:#311b92;stroke-width:4.02px}</style></defs><g id="kopien"><g id="werbeplakate_Kopie_2" data-name="werbeplakate Kopie 2"><path d="M318.33 395.6c-7.18-.54-14.38-.96-21.56-.98-15.82-.04-31.56 1.87-47.32 3-82.68 5.94-165.56-9.39-248.37-7.59 2-28.02 6.46-56.06 9.9-83.96 5.17-42.05 8.02-84.36 8.76-126.71 31.33 2.44 62.98 4 93.76-.66 2.42-27.07 3.29-52.28 3.29-76.32-17.49-2.7-29.21-2.34-46.89-2.81-17.07-.47-34.16-.92-51.22-1.38-1.31-30.49-3.64-60.93-6.9-91.27l1.04-.12c69.64-1.74 139.29-3.49 208.93-5.25 19.92-.5 39.86-1.01 59.73.17 16.01.94 32.25 2.95 47.91-.49h.06c-12 50-10.65 102.39-9.2 153.93.31 10.58.6 21.19 2.01 31.69 1.44 10.67 4.02 21.16 5.78 31.78 9.74 58.45-5.16 117.77-9.72 176.97Z" style="fill:#311b92;stroke-miterlimit:10;stroke:#000;stroke-width:2.01px"/><path d="M116.79 102.39c0 24.04-.87 49.25-3.29 76.32-30.78 4.66-62.43 3.1-93.76.66.48-27.05.12-54.13-1.06-81.17 17.07.46 34.16.91 51.22 1.38 17.68.48 29.4.12 46.89 2.81Z" style="fill:#f50057;stroke-miterlimit:10;stroke:#000;stroke-width:2.01px"/><g id="hand"><path class="cls-3" d="M149.51 177.82c-3.52 3.14-5.98 5.23-10.76 5.63-5.62.46-7.57-5.17-8.89-10.97-1.46-6.46-3.08-12-5.29-18.09-1.64-4.48-3.65-7.3.38-10.62-1.96-2.54-3.45-5.23-5.05-8.35-3.34-6.55-6.66-12.69-6.75-20.56-.04-3.68-.01-7.37.69-10.93.33-1.67 1.04-3.31 1.66-4.96-6.91-5.18-16.18-13.42-15.25-23.7.94-10.5 6.35-26.05 16.35-29.44 2.76-.93 7.92-2.27 10.51-.38 3.18 2.32 2.19 5.51 2 8.68-.36 6.06 4.65 12.04 4.99 18.67.22 4.16-.71 7.81-1.07 11.92-.32 3.55 2.04 7 1.74 9.79l-.19.19c.96 1.92 1.13 4.66 1.93 6.75 2.7 6.98 7.25 11.89 5.94 19.97-1.09 6.67-2.27 7 1.79 12.25 4.4 5.68 5.62 9.54 5.87 16.95.2 6.08-.83 12.65 1.29 18.45 2.04 5.54 1.96 5.33-1.87 8.74Z"/><path class="cls-1" d="M203.42 25.6c-.53-.97-.91-1.89-1.24-2.71"/><path class="cls-3" d="M200.99 58.07c-.67 5.64-6.16 10.3-3.47 15.34 1.52 2.82 2.57 2.29 2.43 6.06-.17 4.61-1.82 8.62-3.07 13-1.1 3.84-2.34 8.66-1.49 12.63.54 2.54 1.98 3.83 2.49 6.37.44 2.21.62 5.55.69 7.78.07 3-2.68 6.68-1.7 9.54.51 1.48 2.61 2.32 3.34 4.12 1.18 2.9.35 4.92-.25 7.95-1.42 7.35-1.27 14.68-2.08 22.18-.44 4.04-1.12 11.68-4.57 14.34-2.96 2.28-8.12.89-11.28-.96-4.92-2.85-4.9-4.26-5.16-10-.16-3.76.48-7.67.51-11.26.03-4.06-1.57-8.57-2.16-12.7-.69-4.78 1.02-6.52 2.43-10.63 1.98-5.75-1.32-2.71-3.25-5.64-.96-1.47.35-6.27.45-8.12.38-7.22-1.77-13.56-2.01-20.63-.14-3.97-.72-8.95-.46-12.79.15-2.41 1.7-4.65 3.4-6.67-1.95-3.22-3.26-7.29-4.16-9.89-3.28-9.4-1.86-16.94 2.02-25.93 2.9-6.74 5.42-13.91 11.66-17.58 3.5-2.07 7.61-4.61 11.53-5.28 3.69-.63 4.3.98 5.36 3.6l-.15.08c1.14 3.03 2.26 6.58 2.88 9.85 1.68 8.78-2.93 16.71-3.92 25.26ZM255 111.04c-.25 4.47 1.31 8.77.38 13.34-.6 2.96-2.3 5.31-2.92 8.25-.46 2.22-.06 4.45-.24 6.69-.34 4.35-2.3 8.37-2.81 12.59-.33 2.68.63 5.62.38 8.16-.32 3.15-1.31 4.2-.81 7.33.52 3.26 1.19 3.13-.4 6.33-1.86 3.74-3.69 6.89-4.82 11.03-.98 3.57-1.43 7.55-2.87 10.97-3.03 7.21-6.39 3.64-9.79.04-4.33-4.57-6.6-6.76-7.15-13.47-.55-6.84.44-13.66 2.97-19.76 1.9-4.59.8-9.66 1.23-14.87.52-6.29.93-12.72 1.75-18.98.47-3.63 2.56-5.93 2.7-9.39.1-2.18-.57-5.97-.95-8.2-3.01-17.5-7.52-36.74 6.66-50.77 2.64-2.61 5.62-4.33 8.06-7.24 2.54-3.04 2.68-3.2 6.26-3.01 2.95.17 5 .39 7.17 3.39 1.2 1.66 1.49 3.12 1.48 4.61 0 .04-.01.09-.01.13 0 .23-.01.46-.03.71-.06 2.22.29 4.45.37 7.06.14 4.72-.33 9.85-1.03 14.49-1.59 10.5-4.99 19.75-5.59 30.55Z"/><path class="cls-3" d="M311.39 140.37c-1.95 9.69-6.43 19.52-11 27.24-2.33 2.38-5.18 12.03-6.1 14.67-2.07 5.93-3.13 11.44-4.46 17.51-1.28 5.79-4.31 11.55-6.24 17.14-1.65 4.75-.92 10.18-2.69 14.77-1.61 4.18-4.23 7.28-4.63 11.98-.15 1.8.43 3.15-.09 4.79-.31.97-1.62 2.17-2.06 3.16-1.18 2.62-.63 3-.37 5.7.28 2.72.36 1.98-.36 4.48-.8 2.79-2.19 5.14-2.7 7.95-.77 4.22 0 6.93-2.43 10.53-4.6 6.84-9.96 7.78-7.6 17.15.93 3.68.79 7.28.53 10.99-2.01 3.68-2.51 8.01-4.36 11.94-2.32 4.93-4.61 10.62-6.02 15.96-2.13 7.99-3.2 14.82-8.23 21.32-5.23 6.76-11.68 9.75-18.39 14.49-7.67 5.42-19.15 10.23-27.15 3.32-3.86-3.34-6.04-7.3-11.37-8.43-4.56-.97-9.08 2.3-12.52 5.56-6.8 6.45-14.45 4.1-22.74 2.47-7.85-1.54-15.85-5.5-21.97-11.28-6.32-5.99-8.49-14.61-11.55-22.67-1.92-5.04-5.45-9.45-8.45-14.02-2.1-3.2-3.75-4.72-6.79-6.56-1.31-.8-4.65-2.56-5.53-3.88-1.06-1.59-.32-4.6-.39-6.33-.11-2.87-1.06-5.18-1.41-7.91l-.13-.04c1.99-7.15 8.02-12.7 7.5-21 5.03 2.19 11.77-3.48 13.81-8.19 1.85-4.26-.32-6.57 3.89-8.8 3.94-2.08 8.32-1.68 12.39-3 3.57-1.15 7.02-3.32 8.91-6.34 1.01-1.64.92-3.6 3.17-4.6 1.24-.56 3.94.31 5.63-.52 5.63-2.75 5.65-7.74.96-11.79-2.67-2.29-6.82-2.48-9.15-4.77-2.42-2.36-3.3-8.54-4.42-11.72-.69-1.92-.87-3.93-2.13-5.69-1.12-1.56-3.27-2.57-3.86-4.65-1.72-5.97 3.22-14.27 6.96-18.01 6.09-6.13 12.32-4.35 19.83-5.34 2.96-.4 4.87-.9 7.76-.77 2.75.11 4.9-1.42 7.31-1.55 3.08-.18 5.28 3 7.66 4.6 3.74 2.51 5.76 1.65 10.51.67 8.78-1.79 15.53 8.08 23.02 12.03 2.08 1.1 3.94.86 6.18 2.48 2.7 1.94 3.75 2.07 6.78 3.1 3.74 1.26 9.23 4.87 12.06 7.62 2.89 2.83.97 7 3.2 10.17 1.86 2.64 6.04 3.29 8.25 6.2 1.03 1.35 1.82 2.32 2.59 3.05l.88-.23c1.35 1.44 4.5.53 5.8-.71 2.13-2.02 1.85-6.2 1.91-9.01.11-5.61 3.54-7.63 6.32-12.04 2.53-3.99 2.21-7 2.4-11.62.34-8.47 1.75-17.11 6.27-24.15 3.95-6.17 5.5-15.16 5.25-22.68-.32-9.64.92-16.57 6.58-24.44 3.12-4.36 7.15-5.85 12.05-6.41 4.76-.53 8.84-2.15 11.35 3.22 1.83 3.93.38 8.72-.45 12.87Z"/><path class="cls-1" d="m300.39 167.61-.43.73M300.42 167.58l-.03.03M253.35 235.86c-.11-.1-.21-.2-.33-.3"/><path class="cls-3" d="M96.86 290.67c-4.05 6.93-13.28 4.07-18.62.39-3.98-2.73-7.1-6.58-11.45-8.88-2.77-1.48-7.81-1.6-10.11-3.33-3.35-2.52-1.04-7.22-4.11-9.88-2.79-2.42-4.83-.11-7.46-3.09-2.78-3.15-1.55-7.27-4.41-10.12-4.26-4.26-9.51-4.38-12.04-10.92-1.46-3.78-1.17-10.38-.64-14.34.89-6.67 3.33-11.73 9.49-13.52 9.01-2.62 16.25 4.49 21.48 11.99 6.35 9.09 7.45 20.08 15.84 27.72 5.77 5.28 16.24 6.64 17.42 11.07 8.05 1.54 8.03 17.07 4.62 22.9Z"/></g><path class="cls-5" d="M77.11 42.14c3.09 6.8 4.14 14.23 7.16 20.35.17.48.33.96.49 1.44.49 1.44.98 2.89 1.45 4.34.23.73.44 1.36.61 1.89l.53 1.67s-5.18.29-10.8.61l-1.54.09c-3.82 1.18-6.95 1.37-9.4.51-.31-.11-.6-.23-.89-.38-4.51-2.5-5.57-6.74-5.57-10.99C56 64.85 58.1 69.1 56 72.13c-.36.28-.84.46-1.49.5s-1.46-.06-2.48-.32c-.78.03-1.62.07-2.5.11l-2.73.12c-.8.03-1.61.07-2.43.11-4.14.69-11.51 1.75-12.56.69-1.8-6.37-2.83-13.13-3.09-19.94-.02-.57-.04-1.14-.05-1.7 1.04-10.2-2.12-30.37 13.64-25.19l1.38.03c4.59.1 8.97.1 13.35.1-.32.42-.59.87-.82 1.33-.23.46-.43.94-.59 1.44-.62 1.66-.89 3.28-.88 4.81 0 .31.02.61.04.91.15 2.13 1.2 4.26 2.25 6.38 0-2.12 0-4.25 2.35-6.64l.51-.69c.67-.94 1.31-1.94 1.71-3.1.24-.41.46-.83.66-1.26.2-.43.39-.87.54-1.32.67-1.32 1.11-2.2 1.11-2.2l3.71.2c.74.04 1.57.08 2.44.13h2.18c4.76.01 10.02-2.11 15.28-1.05-1.05 5.31-6.31 8.49-9.13 13.7-.18.34-.34.69-.47 1.06-.14.37-.26.75-.36 1.15l-.48.65ZM115.14 72.92c-5.5-.62-10.76.44-15.49-1.25-.45-.14-.87-.29-1.28-.45-2.84-1.14-4.75-2.82-6.01-5.2-.26-.49-.5-1.02-.7-1.58a38.81 38.81 0 0 1-1.15-4.24c-.1-.47-.18-.93-.26-1.4-.22-.56-.41-1.1-.56-1.64-.04-3.97-1.09-9.28.79-13.91.07-.54.12-1.08.16-1.64s.06-1.12.06-1.69c.06-.41.13-.82.21-1.23.09-.49.2-.96.32-1.43 1.58-8.49 12.1-10.61 19.5-10.89l1.56-.09c1.66-.08 3.45-.13 5.36-.15.38 0 .77 0 1.16-.01 6.19 1.29 13.58.14 18.84 3.07.28.15.55.32.81.5 2.71.15 1.66 4.39 4.42 5.87.12.3.24.6.34.91 1.48 4.2 1.53 8.59 2.19 12.53.05.3.11.6.17.9 1.9 4.35-1.25 9.66-1.27 13.55-.1.32-.22.62-.35.92-1.17 2.63-3.45 4.21-5.44 5.76-.43.27-.86.53-1.3.76-3.1 1.66-6.55 2.5-9.91 2.59-.52.01-1.04 0-1.56-.02-3.5-.09-6.65-.09-9.47-.48-.37-.02-.76-.03-1.15-.05Zm2.88-32.37c-.35.43-.65.88-.92 1.32-.22.49-.42.99-.6 1.49-.37.45-.68.91-.95 1.38-1.72 4.2-.66 8.44 1.44 12.69.26-.2.5-.4.71-.61 3.12-3.1.4-7.06 1.21-10.71a52.755 52.755 0 0 0-.25-2.64c.03-.41.09-.82.18-1.23.09-.41.2-.81.36-1.21-.28-.35-.66-.48-1.17-.48ZM205.08 72.6c-6.05-.31-12.36-.31-18.8-1.21-.21-.01-.42-.03-.63-.04-2.4-.12-4.5-.12-5.55-.12-1.05-3.18 1.05-7.43 0-11.68h-3.15c-1.05 4.25 0 7.43.15 12-.01.42-.02.66-.02.66s-5.3.11-10.92.23l-1.13.02c-3.86-1.24-10.17 1.94-11.22-.18-.99-1-1.46-2.3-1.65-3.8-.04-.3-.06-.61-.08-.92.68-6.95 2.78-14.38.07-21.44l-.09-.95-.09-.95c-.02-.27-.05-.54-.07-.81s-.05-.54-.07-.81c-.13-5.33-3.28-10.64-.13-14.88 4.21-5.31 11.57-2.12 17.79-1.66.18.02.35.03.53.05 1.22.11 2.42.15 3.56.08.6 0 1.16-.02 1.68-.02l3.4-.05s-.11 4.3-.23 8.81c0 .24-.01.48-.02.71.64 2.7-1.46 9.07.64 9.07 5.26 0 0-6.37 2.43-10.09.01-.23.03-.46.04-.69.22-3.9.42-7.3.42-7.3s3.27.08 7.42.17l.66.02c4.81-.16 12.17-2.28 15.32.9 2.1 1.06 1.05 6.37.76 10.33 0 .22-.01.45-.02.68-.2 6.91-.46 15.67-.66 22.54 0 .2-.01.39-.02.58-.07 3.02-.07 7.27-.32 10.56v.21ZM254.72 72.72c-2.07-.43-4.17-.43-6.17.07-.34-.07-.68-.14-1.01-.2-7.03-1.36-13.08-1.31-19.65-.2-.22 0-.43 0-.65-.01-.24 0-.47 0-.7-.01-15.95 3.12-12.8-7.5-13.34-19.24v-.67c.05-8.48.1-17.57.13-22.48v-.81c1.46-1.45-.64-2.51.97-2.88l.69-.02 3.2-.07c.18 0 .37 0 .56-.01 6.56-1.65 13.92-.59 20.23-.59 0 1.59 0 3.18.03 4.73 0 .31.01.61.02.92 1 7.09-.05 14.52-.05 22.2v.82c.33-.07.65-.13.97-.19s.64-.11.95-.16c4.4-.71 8.21-.67 12.89-.4.18 0 .35-.02.51-.02l2.13-.1s-.31 3.13-.69 6.88c-.02.23-.05.47-.07.71 1.17 3.9-1.98 7.09-.9 11.21-.04.36-.07.56-.07.56ZM285.78 40.95c.52.56.52 1.62.52 2.68 1.05 0 3.15 0 4.48.02l.65-.06c4.34 1.1 9.59-4.21 11.7.04 3.11 5.65 1.44 9.07-2.11 10.67-.27.12-.56.24-.85.34-3.35 1.73-7.56-.39-12.13.74-.31.02-.49.03-.49.03s-.05.53-.09 1.05c5.16 3.1 11.47-1.15 16.37 1.82.31.07.61.13.91.19.6.12 1.18.21 1.74.24v.73c-.04 3.66-.12 13.41-.12 13.41l-2.95-.06-.84-.02c-5.48 1.01-10.38.99-15.41.58-.31-.03-.63-.05-.95-.08-3.33.03-6.68.05-10.06-.07-.31-.01-.61-.02-.92-.04-12.06 2.3-13.11-7.26-12.48-17v-.67c-.03-2.68-.07-5.48-.1-8.23v-.76c1.6-6.08.54-13.51-.51-19.87 4.09 0 8.18 0 12.29.08.29 0 .59.01.88.02 5.36 1.38 10 .83 14.61.28.31-.04.61-.07.92-.11 4.95-.27 12.31-2.39 14.41.79 2.43 3.27 2.99 6.38 2.1 8.79-.09.24-.19.48-.31.7-2.85 4.31-8.1 5.37-13.3 3.31-.2 0-.4 0-.6.01l-.69.02c-1.92-.09-4.03-.09-6.14.37-.33.03-.52.04-.52.04ZM65.14 342.15c-5.98-1.66-13.36-2.77-18.72-2.77-3.17 0-3.78.18-3.78.92s.37.92 6.04 1.85c16.35 2.77 18.24 4.56 18.24 13.54 0 1.7-.1 3.2-.35 4.53-.06.33-.13.66-.21.97-1.93 8.32-11.39 8.32-18.86 8.42-.22 0-.44.01-.66.02-1.12.03-2.29.04-3.53.04-1.15 0-2.36-.02-3.59-.07l-1.24-.06c-7.7-.02-21.37 1.04-17.94-9.81.04-.43.07-.86.11-1.28l.1-1.24c.02-.27.04-.53.07-.78.5-.71.5-2.83.5-3.89 3.15 2.12 7.36 2.12 11.84 3.37l1.28.21c2.97.47 5.87.75 8.33.75 1.34 0 1.71-.31 1.71-.99 0-.86-.61-1.05-3.6-1.48-1.22-.19-2.38-.37-3.46-.56-.22-.04-.43-.08-.64-.11-11.25.93-20.71-9.69-15.06-20.91.2-.38.4-.75.62-1.1 7.97-12.99 30.56-5.68 43.79-5.05.31.07.61.15.92.22.31.08.61.15.92.23l-2.81 15.02ZM115.09 342.12q-1.24-.21-2.09-.19c-.36-.04-.73-.08-1.1-.11-2.59-.25-5.31-.32-7.52 1.16-1.05 0 0 4.25.08 6.13v.76l.03 4.89v.88c-.12 4.33.93 10.7-1.17 12.82-4.21 3.18-11.57 1.06-17.62.27-.26-.01-.52-.03-.78-.04-3.57-.18-6.19-.31-6.19-.31l.82-13.24.06-.9c3.73-9.14-1.53-15.51-10.99-13.39 0-1.06 0-3.18.41-4.02 0-.25.02-.51.02-.78.05-1.68.11-3.59.16-5.37 0-.25.02-.51.02-.75.43-1.82.43-3.94.43-3.94 7.36-2.12 13.67-1.06 20.91-1.07.38 0 .76.01 1.14.02 3.43.05 6.82.1 10.46.22.28 0 .55.01.83.02l12.5.23-.07 4.9c0 .28 0 .56-.01.84-.63 1.33-.68 2.65-.56 3.96.03.33.07.66.12.99-.09 1.57-.09 3.69.11 5.09-.01.59-.01.93-.01.93ZM139.88 369.98h-.75c-6.45-.08-11.07-.66-14.36-2.03-.32-.13-.63-.27-.93-.42-5.52-2.32-6.66-8.21-6.9-13.94-.02-.41-.03-.82-.04-1.22 1.16-6.2-2-12.56 1.9-19.01.12-.29.24-.57.38-.84 1.19-2.45 2.96-4.19 5.52-5.4.28-.14.58-.26.88-.39 6.15-2.84 13.51-1.78 20.51-2.29.39-.13.77-.25 1.16-.36 7.39-1.99 15.22 1.2 19.93 7.5.18.29.36.59.53.9.67 1.24 1.21 2.65 1.64 4.25.11.4.21.81.3 1.24.12.36.23.73.32 1.1s.17.75.24 1.12c.42 7.05 1.47 14.48-1.89 21.98-.18.34-.37.68-.58 1-1.23 1.94-2.91 3.5-5.13 4.33-.33.14-.68.28-1.03.41-.32.12-.66.23-1.01.33-6.77 1.3-13.08 1.3-19.24 1.75-.23 0-.46 0-1.46.01Zm4.18-31.47c-3.92 3.41-.76 7.65-1.91 10.58 0 .26-.02.51-.03.76-.02.5-.05.97-.08 1.42 0 .25.02.49.03.71.01.23.03.44.04.65.02.25.04.48.06.69-.99 3.45 2.16 2.39 3.22 2.39 0-1.77 0-2.8.15-4.03.03-.25.07-.5.11-.77-.04-.79-.08-1.54-.11-2.26-.02-.36-.03-.71-.05-1.05-.1-3.56-.1-5.69-.54-8.87-.24-.17-.53-.23-.9-.22ZM197.13 358.79c1.9 4.36-1.26 9.67-5.46 10.73-5.26 2.12-9.46-1.06-13.58-.19-.38.04-.76.11-1.13.19-.38.08-.75.18-1.12.3-.45-.01-.79-.1-.99-.3-.99-1.66-1.46-3.52-1.65-5.5-.04-.4-.07-.79-.09-1.2.69-8.16.69-16.66 0-25.26l-.02-1.07c-.02-1.06-.04-2.07-.06-3.02 0-.25-.01-.49-.01-.73-.27-2.5-.27-6.75-.27-6.75 9.46-2.12 18.93-1.06 28.45-1.21.4-.01.8-.02 1.2-.04 1.59-.05 3.18-.12 4.74-.21.29 0 .57-.01.85-.01 9.83-.11 14.15 1.29 15.4 9.25.03.22.07.45.1.68-1.31 6.39 2.89 14.88-5.42 18.76-.34.17-.69.34-1.04.5-5.21 2.46-10.94 4.02-16.58 4.74-.4.05-.8.1-1.19.14l-1.04.09-1.07.09Zm.41-20.76c.44 2.83.44 6.01.44 9.2 3.15-1.06 6.31-6.37 3.15-9.55-1.05 0-2.1 0-2.87.18-.23.05-.47.11-.73.17ZM249.76 358.79c-.26 3.3 1.84 7.55-.26 8.61-4.21 4.25-12.62 2.12-18.63 2.7-.33-.03-.66-.08-.98-.14-1.29-.24-2.47-.7-3.52-1.5-1.58-.8-.2-4.58.06-8.05.02-.23.03-.46.03-.69-.09-8.24-2.19-16.73-.78-25.31 0-.45-.02-.9-.03-1.33-.1-4.73-.16-7.98-.16-7.98l1.97-.03c.31 0 .65-.01 1.03-.02 8.39-.12 16.81-.12 24.72-.38.4-.01.8-.03 1.2-.04.46 0 .9-.01 1.31-.02 1.02-.25 2.11-.46 3.24-.61.38-.05.76-.1 1.14-.14 5.21-1.06 9.4.27 12.23 3.1.26.26.5.53.74.81 3.78 2.47 2.72 7.78 3.34 11.27v1.08c0 5.63-.93 9.57-3.75 12.37-.22.21-.44.42-.68.63-5.96 4.2-11.61 4.67-18.26 5.3l-1.26.12q-.86.37-1.99.19l-.72.06Zm.46-21.19c.3 2.93.33 5.81.33 8.67v.96c2.1 0 3.15-2.12 4.06-2.9.17-.34.31-.71.41-1.08.53-1.86.26-3.98-.26-5.57-1.05 0-3.15 0-3.83-.22-.23.04-.46.09-.71.15ZM301.42 352.81l-9.76-.37-.89-.03c-2.37.13-5.52.13-7.96-.3-.41-.02-.78-.03-1.11-.04l-1.58-.06s-.21-4.55-.45-9.89l-.04-.85c-3.05-8.72-.39-17.19 7.21-17.77.4-.03.81-.04 1.24-.02 5.58 1.46 10.83 1.46 16.09.4 1.05 5.31-2.1 10.62-1.3 15.68l-.09.84c-.71 6.45-1.37 12.4-1.37 12.4Zm-22.19 16.52c-1.33-10.42 3.92-16.79 14.39-14.56.28-.01.56-.02.83-.04l8.74-.38.09 1.85.06 1.25c-.21 4.64 2.94 9.95-.21 12.07-3.15 3.18-8.41-1.06-13.96 0H288c-2.75-.02-5.58-.06-8.09-.16l-.68-.03Z"/><path class="cls-6" d="M35.09 119.39c5.14-1.38 9.37.57 11.36 3.99.18.31.34.64.49.97 1.71 3.14.66 5.27-.18 8.14-.09.21-.18.42-.28.63-.1.21-.21.42-.32.63-.3.31-.62.6-.96.88-3.06 2.49-7.59 3.48-9.17.3-.63-.96-.98-2.01-1.15-3.08-.06-.36-.1-.72-.12-1.08.22-3.27.22-7.52.34-10.76v-.62Zm3.72 12.83c2.47.59 3.53-1.53 4.58-1.53 0-3.18 0-10.62-4.21-7.43-1.05 0 0 4.25-.35 7.96-.02.62-.03 1-.03 1ZM50.26 119.3c3.64-.3 6.8-1.36 7.85-.3 4.21 5.31-2.1 1.06-4.21 6.37h4.21v3.18H53.9v3.18c2.1 1.06 8.41 0 5.26 2.12-9.46 7.43-9.46-5.31-8.9-13.78v-.78ZM62.31 119.4c.8-.3 1.59-.37 2.3-.27.24.03.46.08.68.15 3.34 1.85 2.29 6.1 4.4 8.22 1.05-3.18 1.05-8.49 6.31-8.49-.26 1.33-.07 2.85.28 4.43.05.23.1.45.16.68 1.25 2.54 2.15 6.16.75 8.71-.16.28-.34.55-.55.81-1.69 1.3-4.84 2.36-3.52-1.92 0-.22.01-.44.02-.67.05-1.59.13-3.34-.29-4.59 0 1.59-.53 3.18-1.31 4.25-.2.27-.41.5-.64.69-1.2.37-2.26.37-3.15.13-.25-.16-.45-.38-.63-.66-.7-1.1-.93-2.99-1.64-4.4-.53 1.59-.26 3.18-.13 4.78.03.32.05.64.06.96.08 1.7.08 3.82-3.41 3.56-.43-.15-.72-.4-.72-.8 0-1.9.13-3.66.3-5.37.03-.34.07-.68.11-1.02-1.46-1.04 1.69-2.1.32-3.04l.09-1.02c.12-1.36.19-2.75.18-4.2.03-.56.04-.89.04-.89Z"/><path class="cls-6" d="M86.15 135.76c-7 .23-10.16-9.33-4.91-14.82.24-.25.5-.48.79-.68s.59-.38.92-.54c.87-.42 1.92-.64 3.12-.64s2.24.21 3.11.64c.87.42 1.59 1.01 2.15 1.75s.99 1.62 1.26 2.64c.07.25.13.51.18.78 1.09 5.79-1.02 11.1-5.76 10.83-.28.03-.57.04-.87.04Zm.02-3.38c3.49-2.76 4.54-8.07.33-9.13-3.15-1.06-4.21 5.31-1.6 8.84.36.2.78.3 1.26.29ZM40.31 162.41c-1.13 1.17-2.18-2.02-3.7-1.3-.3-.21-.56-.44-.8-.68-2.34-2.44-1.59-6.56-.84-9.59 1.05-3.18 5.26-4.25 8.41-3.18.33.27.63.55.91.84.28.3.53.61.77.93 2.53 5.66 1.48 10.97-4.03 12.96-.23.02-.47.03-.72.02Zm0-3.33c2.02-1.87 3.07-3.99 1.13-7.54-.25-.12-.55-.16-.92-.1-.37.05-.82.2-1.34.47-.66 0-1.31 1.66-1.11 3.55.04.38.11.76.23 1.15.88-.45.88.61 1.25 2.2.23.18.49.27.78.28ZM49.74 155.77c-.04-1.74 3.11-2.8 3.11-4.93-1.05-1.06-5.26 3.18-5.2-1.6.03-.27.07-.55.13-.82.06-.28.14-.56.25-.85h9.34l.4.62-1.96 3.41c-.13.22-.25.44-.37.64 1.62 2.85 4.77 4.97 1.62 9.22-3.15 2.12-6.31 4.25-9.46 1.06v-3.18c1.05 2.12 3.15 1.06 5.26 1.06 1.05 0 1.05-2.12 1.05-3.18 0-2.12-2.1-1.06-3.68-.69l-.49-.75ZM59.77 158.29c.34-.04.66-.08.97-.11s.61-.04.91-.04.6.01.9.04.63.07.97.11c.06.34.1.67.13.98.03.31.04.62.04.91s-.01.6-.04.91c-.03.31-.07.64-.13.98-.34.06-.66.1-.97.13s-.61.04-.9.04-.6-.01-.91-.04-.63-.07-.97-.13c-.06-.34-.1-.67-.13-.98-.03-.31-.04-.62-.04-.91s.01-.6.04-.91c.03-.31.07-.64.13-.98ZM68.83 158.78v-1.64c-.2-2.05-.2-3.11-.2-5.23 0 1.06-1.05 1.06-2.1 1.06-1.05-1.06-1.05-2.12-1.05-3.18 2.1 0 4.21-2.12 5.26-2.12 5.26 1.06 0 6.37 1.85 8.7V158.8h2.83c.58-.51.58.55.2 1.65 0 .27-.02.55-.05.84s-.08.57-.15.86h-9.45c-.13-.58-.2-1.14-.2-1.69 0-.52.07-1.07.2-1.65h2.87Z"/><path class="cls-6" d="M82.3 162.39c-6.31-.93-7.36-9.42-4.21-13.66 2.1-2.12 5.26-2.12 7.36-1.06 4.21 4.25 4.21 11.68-2.43 14.69-.23.02-.47.04-.72.04Zm.09-3.32c.96-.8 2.01-.8 2.01-1.86 0-2.12 1.05-7.43-3.15-5.31-2.1 0-1.05 4.25.36 6.91.23.17.49.26.78.26ZM89.96 158.26c.75.02 2.85.02 3.9.02v4.25h-4.21c0-1.06 0-2.12.16-3.28.03-.31.08-.64.14-.99Z"/></g></g></svg>