<svg id="Ebene_2" data-name="Ebene 2" xmlns="http://www.w3.org/2000/svg" viewBox="0 0 400 126.07"><defs><style>.cls-1{fill:none}.cls-1,.cls-2,.cls-3,.cls-6,.cls-7,.cls-8{stroke:#1d1d1b;stroke-linecap:round;stroke-linejoin:round;stroke-width:1.57px}.cls-2{fill:#999}.cls-3{fill:#b3b3b3}.cls-6{fill:#ccc}.cls-7{fill:#1a1a1a}.cls-8{fill:#333}</style></defs><g id="kopien"><g id="schluess"><g id="ring"><path class="cls-3" d="M210.9 20.37v.06c-2.07.5-4.14 1.19-5.95 1.82-3.2-7.16-11.22-13.06-18.8-15-7.58-1.88-16.42-.56-24.06 1.13-2.26.5-4.07 2.64-6.02 3.95-.5-.25-1-.44-1.5-.63-1.32-.44-2.63-.82-4.01-1 .75-1.19 1.82-2.26 3.13-3.14 3.07-2.07 6.2-4.08 9.78-4.9 9.21-2.07 17.8-2.89 26.82-.06s17.17 8.79 20.62 17.77Z"/><path class="cls-1" d="M152.5 17.48c-.06.25-.06.5-.06.75M150.56 10.7h-.06"/></g><g id="auto"><path d="M337.42 29.41c-23.5-9.04-48.25-13.5-73.38-14.5-9.46-.38-17.86 1.57-25.94 4.58-1.5.57-2.95 1.19-4.45 1.82-2.26 1-4.51 2.07-6.71 3.14h-.06c-5.45 2.7-10.9 5.71-16.61 8.6-.19.06-.31.19-.5.25-1.44.75-2.82 1.63-3.57 3.08-.06.06-.06.19-.06.25-.06.5-.19 1.13-.31 1.82v.06c0 .56.13 1.07.38 1.63.44 1.26 1.38 2.39 2.51 3.14 2.19 1.51 4.95 1.82 7.64 2.13 26.82 2.95 53.7 5.9 80.52 8.85 4.32.44 8.77.94 13.03.57 2.19-.25 4.32-.63 6.39-1.38 3.63-1.26 6.71-3.45 9.4-6.15 1-.94 1.88-1.95 2.76-3.08 3.57-4.33 6.45-9.6 9.02-14.63 0-.13 0-.19-.06-.19Zm-38.59 12.15c-1.44 1.7-2.95 3.45-4.95 4.46-4.2 2.07-7.69 2.47-12.2 1.28-5.2-1.38-15.06-1.05-20.51-1.68-6.52-.75-13.1-1.32-19.43-2.57-6.71-1.32-13.16-3.39-18.86-7.28 3.13-4.71 10.39-8.68 15.72-10.62 7.9-2.95 15.85-5.96 24.25-6.91 4.32-.5 8.59-.44 12.78.06 6.02.63 11.84 2.13 17.73 3.89 2.13.57 4.2 1.26 6.33 1.95 2.26.75 9.02 1.51 9.65 4.14.69 2.76-8.57 11.09-10.52 13.28Z" style="fill:#4d4d4d;stroke:#1d1d1b;stroke-linecap:round;stroke-linejoin:round;stroke-width:1.57px"/><path class="cls-8" d="M339.62 46.86c-3.7-.88-7.46-1.76-11.15-2.64 3.57-4.33 6.45-9.6 9.02-14.63 1.82 5.52 2.57 11.43 2.13 17.26ZM310.42 72.79c-4.64.57-9.34.06-13.97-.44l-64.48-6.78c-9.71-1-19.86-2.2-28.7-5.96-.56-2.89-.75-5.78-.75-8.66.06-1.26.13-2.45.25-3.64.06-1 .19-2.01.38-3.01 0-.19.06-.38.06-.57.19-.94 2.32-4.14 2.57-5.08q0-.06.06-.13c0 .56.13 1.07.38 1.63.44 1.26 1.38 2.39 2.51 3.14 2.19 1.51 4.95 1.82 7.64 2.13 26.82 2.95 53.7 5.9 80.52 8.85 4.32.44 8.77.94 13.03.57.13 5.96.31 11.93.5 17.95Z"/><path class="cls-8" d="M328.27 64.38c-3.95 3.45-8.4 6.28-13.41 7.66-1.44.38-2.95.69-4.45.75-.19-6.03-.38-11.99-.5-17.95 2.19-.25 4.32-.63 6.39-1.38 3.63-1.26 6.71-3.45 9.4-6.15.81 5.52 1.63 11.11 2.51 16.64 0 .13 0 .31.06.44Z"/><path class="cls-2" d="M339.93 65.51c-3.7-.75-7.39-1.32-11.22-1.51-.13-.06-.31-.06-.5-.06-.88-5.52-1.69-11.11-2.51-16.64 1-.94 1.88-1.95 2.76-3.08 3.7.88 7.46 1.76 11.15 2.64.17.04-.4 5.32-.41 5.82-.06 3.12.51 6.15.65 9.25.05 1.19.08 2.39.08 3.58Z"/><path class="cls-2" d="M354.48 69.39c-4.82-1.38-9.65-2.76-14.54-3.89 0-2.87-.14-5.75-.45-8.61-.17-1.61-.41-3.28-.39-4.92s.46-3.4.52-5.12c.88.19 1.82.38 2.69.63 2.32.56 4.64 1.07 6.96 1.63 1.13.25 2.32.5 3.45.82-.38 2.76-.31 5.65.06 8.41.06.31.06.63.19.94.5 3.33 1.44 6.84 1.5 10.11Z"/><path d="M398.47 77.99c-3.89-1.63-12.22-3.2-16.42-3.26-9.4-.06-18.49-2.7-27.57-5.34-.06-3.26-1-6.78-1.5-10.11 3.89.94 7.52 2.64 10.72 5.02 1.19.88 2.57 1.95 4.01 1.57 2.51-.63 3.82-5.02 6.02-3.7 1.13 2.89 3.2 5.4 5.83 7.03 2.32-.63 3.32-4.65 5.51-3.77.5.19.88.63 1.19 1.07 1.19 1.57 2.44 3.14 3.63 4.71 2.63-1.88 5.33-3.64 8.15-5.34.94 4.21 1.88 8.79.44 12.12Z" style="fill:#666;stroke:#1d1d1b;stroke-linecap:round;stroke-linejoin:round;stroke-width:1.57px"/><path class="cls-2" d="M398.03 65.88c-2.82 1.7-5.51 3.45-8.15 5.34-1.19-1.57-2.44-3.14-3.63-4.71-.31-.44-.69-.88-1.19-1.07-2.19-.88-3.2 3.14-5.51 3.77-2.63-1.63-4.7-4.14-5.83-7.03-2.19-1.32-3.51 3.08-6.02 3.7-1.44.38-2.82-.69-4.01-1.57-3.2-2.39-6.83-4.08-10.72-5.02-.13-.31-.13-.63-.19-.94-.38-2.76-.44-5.65-.06-8.41 14.79 3.45 29.58 6.91 44.37 10.36v.13c.13 1.63.56 3.52.94 5.46Z"/><path class="cls-8" d="M203.13 44.29c-.19 1-.31 2.01-.38 3.01-.13 1.19-.25 2.45-.25 3.64-1.25-.75-2.32-1.76-3.57-2.7 1.57-1.13 3.01-2.45 4.2-3.95ZM238.1 19.49c-1.5.57-2.95 1.19-4.45 1.82-2.26 1-4.51 2.07-6.71 3.14h-.06c-2.26-.31-4.51-.31-6.83-.25-2.88.13-5.83.38-8.58 1.19-2.01.5-3.95 1.32-5.64 2.51-.38.25-.75.56-1.13.88-2.51 2.26-4.26 5.59-4.2 8.85-2.07 3.01-4.07 3.95-7.77 5.21-.75-2.26-.44-4.9-.06-7.34.44-2.7.94-5.59 2.76-7.72.94-1.13 2.19-2.01 3.45-2.76 1.44-.88 3.57-1.82 6.08-2.76 1.82-.63 3.89-1.32 5.95-1.82 5.51-1.51 11.28-2.51 14.6-2.13 3.45.38 8.71.13 12.6 1.19ZM275.77 18.45c-.3 1.35-3.09 1.78-4.23 2.21-4.7 1.75-9.1 3.63-13.3 6.4-5.78 3.81-12.43 10.37-16.49 15.98-6.71-1.32-13.16-3.39-18.86-7.28 3.13-4.71 10.39-8.68 15.72-10.62 7.9-2.95 15.85-5.96 24.25-6.91 3.64-.41 9.29-1.23 12.92.22ZM309.35 28.28c.69 2.76-8.57 11.09-10.52 13.28-1.44 1.7-2.95 3.45-4.95 4.46-4.2 2.07-7 1.28-12.2 1.28s-15.06-1.05-20.51-1.68c3.45-4.52 10.2-9.62 15.09-12.7 5.7-3.58 11.4-7.16 17.11-10.73 2.13.57 4.2 1.26 6.33 1.95 2.26.75 9.02 1.51 9.65 4.14Z"/><path class="cls-8" d="M293.37 22.19c-5.7 3.58-11.4 7.16-17.11 10.73-4.89 3.08-11.64 8.18-15.09 12.7-6.52-.75-13.1-1.32-19.43-2.57.69.14 2.1-2.47 2.42-2.9 1.12-1.49 4.08-4.55 5.42-5.84a63.13 63.13 0 0 1 20.95-13.42c2.12-.82 4.52-1.89 6.78-2.2 2.1-.29 4.57.54 6.65 1 3.17.7 6.3 1.57 9.4 2.5Z"/></g><path class="cls-8" d="M164.85 19.68c-.44-.63-.88-1.26-1.38-1.82l-.06-.06a21.098 21.098 0 0 0-7.33-5.46c-.5-.25-1-.44-1.5-.63-1.32-.44-2.63-.82-4.01-1h-.06c-11.03-2.01-22.87 3.08-32.59 7.47-5.2 2.45-10.72 5.08-13.6 9.98-1.07 1.76-1.63 3.77-1.75 5.78-.25 3.26.63 6.59 2.38 9.29 1.25 1.88 2.82 3.45 4.76 4.46h.06c1.32.82 2.76 1.32 4.26 1.57h.06c4.01.94 8.4.38 12.53-.31.81-.13 1.69-.31 2.51-.5.94-.13 1.82-.31 2.76-.56h.06c.19-.06.38-.06.56-.13 1.19-.25 2.38-.5 3.51-.82.69-.19 1.38-.31 2.07-.5.06 0 .13 0 .13-.06.5-.13 1-.25 1.44-.38.44-.13.88-.25 1.32-.38l2.63-.75c1.75-.5 3.45-1.07 5.14-1.69.56-.19 1.19-.38 1.75-.63 2.19-.75 4.32-1.63 6.45-2.51 1.94-.82 3.89-1.7 5.58-3.08 3.95-3.01 5.33-6.65 5.01-10.23v-.06c-.19-2.45-1.19-4.83-2.69-6.97Zm-12.09 9.73c-.13.25-.19.38-.38.5-2.26 2.7-7.83 4.02-11.09 4.71-1 .19-2.01.44-3.07.44h-.06c-.63 0-1.25-.06-1.88-.25-1.57-.5-2.95-2.13-2.57-3.77.25-1.07 1.13-1.88 2.01-2.57 3.89-3.2 8.33-6.28 13.35-6.15 4.01.13 5.95 3.95 3.7 7.09Z"/><path class="cls-1" d="M152.75 29.4c-.12.26-.2.4-.34.55-2.26 2.68-7.89 3.96-11.12 4.7-1.02.17-2.02.4-3.07.4h-.06c-1.05-.22-1.84-1.92-1.73-3 .11-1.08.88-2.08 1.79-2.7.91-.62 2.02-.93 3.06-1.22 2.36-.71 4.72-1.42 7.06-2.19.45-.1.88-.26 1.31-.18.84.1 1.52.77 1.96 1.43.46.72.91 1.44 1.14 2.21ZM1.74 75.64l-.14-.09"/><path class="cls-2" d="M15.01 80.73c-.28.06-.49.17-.71.22l.82 3.63c-.6.19-1.2.39-1.79.64-3.79-2.01-8.92-1.91-11.61-5.23-.33-1.21-.67-2.43-.94-3.66.3-.24.59-.49.96-.69 2.94 1.62 6.58 3.2 9.79 4.17 1.13.33 2.31.65 3.49.91Z"/><path class="cls-6" d="M104.93 43.24c-10.76 4.2-21.47 8.39-32.23 12.6-2.42.96-4.84 1.92-7.27 2.82C48.28 65.43 31 72.17 13.85 78.93c-.75.29-1.57.59-2.32.88-3.21-.97-6.84-2.55-9.79-4.17 1.52-1.05 3.61-1.64 5.51-2.07 9.25-2.1 18.35-5.1 27.02-8.95 3.89-1.7 8.39-4.6 8.01-8.86 2.51 1.01 5.24 1.92 7.89 1.49 2.71-.44 5.32-2.62 5.36-5.32 2.44 3.03 7.6 2.03 10.18-.84 2.61-2.94 3.4-6.99 4.3-10.77 3.44 1.74 7.16 2.89 10.91 3.45.24-2.58 1.43-5.08 3.24-6.9 2.37 3.75 8.11 2.21 12.11.19 2.1-1.06 4.15-2.12 6.26-3.12-.2 3.27.67 6.6 2.4 9.31Z"/><path class="cls-7" d="M152.75 29.4c-.23-.77-.69-1.49-1.14-2.21-.44-.66-1.12-1.33-1.96-1.43-.43-.08-.86.08-1.31.18-2.34.77-4.7 1.48-7.06 2.19-1.05.3-2.15.6-3.06 1.22-.91.62-1.68 1.61-1.79 2.7-.11 1.08.69 2.78 1.73 3.01-.64.03-1.25-.07-1.87-.22-1.58-.52-2.95-2.15-2.62-3.81.29-1.06 1.16-1.85 2.05-2.58 3.85-3.16 8.3-6.28 13.31-6.13 4.02.14 6 3.98 3.71 7.08Z"/><path class="cls-1" d="M152.75 29.4c-.12.26-.2.4-.34.55-2.26 2.68-7.89 3.96-11.12 4.7-1.02.17-2.02.4-3.07.4h-.06c-1.05-.22-1.84-1.92-1.73-3 .11-1.08.88-2.08 1.79-2.7.91-.62 2.02-.93 3.06-1.22 2.36-.71 4.72-1.42 7.06-2.19.45-.1.88-.26 1.31-.18.84.1 1.52.77 1.96 1.43.46.72.91 1.44 1.14 2.21Z"/><path class="cls-2" d="M106.23 52.1c-24.34 8.93-48.75 17.52-73.16 26.11-5.96 2.12-11.98 4.25-17.95 6.36l-.82-3.63c.22-.05.43-.16.71-.22h.06c11.29-4.22 24.94-8.84 36.15-12.91 17.36-6.35 34.74-12.64 52.39-18.23.7 1.02 1.59 1.87 2.62 2.52Z"/><path class="cls-6" d="M109.68 47.68c-2.02.64-4.05 1.27-6.07 1.91-17.65 5.59-35.03 11.88-52.39 18.23-11.2 4.07-24.86 8.69-36.15 12.9h-.06c-1.17-.25-2.36-.57-3.49-.9.75-.29 1.56-.59 2.32-.88 17.15-6.77 34.43-13.51 51.58-20.27 2.43-.9 4.85-1.86 7.27-2.82 10.76-4.2 21.47-8.39 32.23-12.6 1.23 1.83 2.82 3.41 4.75 4.44Z"/><path class="cls-7" d="M170.36 33.11c-.56 2.83-2.13 5.15-4.26 7.09-.44.44-.94.82-1.38 1.19-.5-.38-1-.82-1.38-1.07-1.19.44-2.01 1.57-2.13 3.33-.88.5-1.69.94-2.57 1.32-7.96 3.64-16.61 5.65-25.25 7.22-3.26.63-6.52 1.13-9.78 1.63-3.95.63-7.96 1.26-11.97.5-1.88-.38-3.82-1.13-5.39-2.26a7.696 7.696 0 0 1-2.63-2.51c2.01-.63 4.01-1.26 6.08-1.88h.06c1.32.82 2.76 1.32 4.26 1.57h.06c4.01.94 8.4.38 12.53-.31.81-.13 1.63-.31 2.51-.5.88-.13 1.82-.31 2.76-.56h.06c1.38-.31 2.76-.63 4.07-.94.69-.19 1.38-.31 2.07-.5 5.01-1.32 9.96-2.89 14.73-4.77 1.13-.44 2.32-.88 3.45-1.38h.06c.19-.06.38-.13.56-.25h.06c1.94-.82 3.89-1.7 5.58-3.08 3.95-3.01 5.33-6.65 5.01-10.23.75 1.63 1.69 3.26 2.38 5.02.13.44.31.94.44 1.38Z"/><path d="M168.23 51.57h-.13c-1.13.25-2.26.13-3.32-.38-.88-.5-1.69-1.19-2.26-2.13-.44-.57-.75-1.26-.94-2.01-.38-1.32-.5-2.45-.38-3.39.13-1.76.94-2.89 2.13-3.33.81-.38 1.75-.38 2.76-.13 1.5.38 3.07 1.38 4.32 2.95.5.63 1 1.38 1.38 2.2 2.13.69 4.26.94 6.89.88 1.94 0 3.57-.19 5.08-.5-.06-.13-.06-.19-.06-.31-.88-6.72-3.82-12.87-8.02-17.7a30.213 30.213 0 0 0-10.84-8.04c-3.89-1.7-8.08-2.45-12.35-2.2-2.51.06-5.08.5-7.58 1.32-10.4 3.26-15.04 17.14-13.22 27.81.06.44.13.82.25 1.26.25 1.51.75 3.01 1.44 4.33.13.31.31.63.5.94.25.38.44.75.69 1.07-1.5.31-3.01.5-4.45.82.44 2.83.81 5.65 1.32 8.54-.69-2.01-3.57-1.82-4.7-.13-1.13 1.7-.94 4.02-.5 6.15-1.57-.13-3.13-.25-4.7-.31.69 2.01.63 3.83.81 6.09-3.2-.57-6.14-.06-9.4.75v4.77c-1.07-.57-2.32-.94-3.7-1.13 0 .94.06 1.82.06 2.76-1.19-.13-2.26-.44-3.38-.94.31 4.14-.31 7.03.06 11.11-2.69-.82-4.39-.38-7.02-1.19-.13 1.7-.25 3.26-.38 4.9-1.69-.57-3.32-1.07-5.08-1.57.13 2.51.31 4.96.44 7.41-1.25-.44-2.57-.88-3.95-1.32 1 3.39.5 2.45.81 6.03.06.44-.25 3.2-.25 3.64-.31-.13-1.88-.5-2.19-.69-1.57-.5-2.26-.69-3.57-1.82.19 1.38 1.5 4.9.63 5.78a62.002 62.002 0 0 0-8.02-5.65c.06.56.06 1.13.13 1.76h-.13c.69 4.9 1.31 10.55 1.94 15.32.56-.19 1.19-.44 1.75-.56 1.44-.5 3.68-.49 5.25-.74h.06c4.7-1.07 8.66-1.58 13.36-1.02.63.19 1.38.25 1.94 0 .56-.19 1.01-1.32 1.44-1.76 5.51-5.27 9.71-11.99 15.16-17.39 1.82-1.88 3.89-3.58 5.83-5.46 5.2-5.08 9.52-11.17 14.29-16.82 3.95-4.65 8.4-8.98 13.54-11.8h.06c1.75.88 3.76 1.26 5.7 1.38 5.64.44 11.53-.63 16.42-3.89 4.64-3.01 8.27-8.04 9.4-13.87-5.2.44-10.46-.06-15.35-1.76Z" style="fill:#e2e1d5"/><path class="cls-1" d="M134.58 54.21c-.25-.31-.44-.69-.69-1.07-.19-.31-.38-.63-.5-.94-.69-1.32-1.19-2.82-1.44-4.33-.13-.44-.19-.82-.25-1.26-1.82-10.67 2.82-24.55 13.22-27.81a26.55 26.55 0 0 1 7.58-1.32c4.26-.25 8.46.5 12.34 2.2 4.01 1.76 7.71 4.39 10.84 8.04 4.2 4.83 7.14 10.99 8.02 17.7 0 .13 0 .19.06.31M183.58 53.33c-1.13 5.84-4.76 10.86-9.4 13.87-4.89 3.26-10.78 4.33-16.42 3.89-1.94-.13-3.95-.5-5.7-1.38H152"/><path class="cls-3" d="M211.47 25.39c0 2.32-.31 4.65-1 6.34-.19.56-.44 1.07-.69 1.57-1.44.75-2.82 1.63-3.57 3.08-.06.06-.06.19-.06.25-.31.57-.38 1.19-.31 1.82v.06q-.06.06-.06.13c-.25.94-2.38 4.14-2.57 5.08 0 .19-.06.38-.06.57-1.19 1.51-2.63 2.83-4.2 3.95-2.76 2.13-5.89 3.64-9.65 4.39-1.88.38-3.76.63-5.7.69-5.2.44-10.46-.06-15.35-1.76h-.13c-1.94-.63-3.76-1.44-5.58-2.51-.44-.57-.75-1.26-.94-2.01-.38-1.32-.5-2.45-.38-3.39.13-1.76.94-2.89 2.13-3.33.38.25.88.69 1.38 1.07 1.32 1.07 2.82 2.26 3.38 2.51 1.32.63 2.51 1.13 3.7 1.44 2.13.69 4.26.94 6.89.88 1.94 0 3.57-.19 5.08-.5 2.63-.5 4.95-1.38 8.02-2.51l.94-.38c3.7-1.26 5.7-2.2 7.77-5.21.38-.44.69-.94 1-1.51 1.19-2.07 3.01-4.65 3.2-7.35.38-.31.75-.63 1.13-.88 1.69-1.19 3.63-2.01 5.64-2.51Z"/><path class="cls-1" d="M168.11 51.57c-1.13.25-2.26.13-3.32-.38-.88-.5-1.69-1.19-2.26-2.13 1.82 1.07 3.63 1.88 5.58 2.51ZM171.8 45.35c-1.19-.31-2.38-.82-3.7-1.44-.56-.25-2.07-1.44-3.38-2.51-.5-.38-1-.82-1.38-1.07.81-.38 1.75-.38 2.76-.13 1.5.38 3.07 1.38 4.32 2.95.5.63 1 1.38 1.38 2.2ZM86.36 123.94c-1.52.29-3.77.26-5.23.77-.59.14-1.19.36-1.78.58-.59-4.78-1.17-11.13-1.83-15.98M151.99 69.72c-5.16 2.82-9.58 7.17-13.55 11.8-4.76 5.65-9.06 11.73-14.28 16.8-1.92 1.88-3.97 3.62-5.82 5.5-5.42 5.36-9.65 12.09-15.14 17.38-.46.43-.93 1.55-1.46 1.77-.59.22-1.32.14-1.98 0-4.14.38-8.01.38-13.34.97"/><path class="cls-1" d="M134.6 54.22c-1.52.29-3.04.51-4.49.8.46 2.82.86 5.65 1.32 8.54-.66-2.03-3.57-1.81-4.69-.14-1.12 1.74-.93 4.05-.46 6.15-1.59-.14-3.17-.22-4.76-.29.73 2.03.66 3.84.86 6.08-3.24-.58-6.15-.07-9.39.72v4.78c-1.12-.58-2.38-.94-3.7-1.09 0 .94.07 1.81.07 2.75-1.19-.14-2.31-.43-3.44-.94.33 4.13-.26 7.02.07 11.08-2.64-.8-4.36-.36-7.01-1.16-.13 1.67-.26 3.26-.4 4.85-1.65-.51-3.3-1.01-5.02-1.52.13 2.46.26 4.92.4 7.39-1.26-.43-2.58-.87-3.9-1.3.99 3.4.46 2.46.79 6.01.07.43-.18 2.14-.18 2.57-.33-.07-2.01.08-2.34-.06-1.59-.51-2.17-.27-3.49-1.35.2 1.38 1.52 4.85.59 5.72-2.58-2.1-5.22-3.98-8-5.65.07.58.07 1.16.13 1.81M86.36 123.94h.07c10.05-10.28 19.3-21.56 29.34-31.77 1.39-1.45 2.78-2.82 4.16-4.2 4.3-4.42 8.59-8.76 12.89-13.11 3.77-3.84 7.6-7.67 11.37-11.51M81.13 124.7c9.29-11.66 19.4-22.64 29.78-33.32 10.11-10.41 20.53-20.13 28.85-32.09"/></g></g></svg>