<svg id="Ebene_2" data-name="Ebene 2" xmlns="http://www.w3.org/2000/svg" viewBox="0 0 249.53 400.01"><defs><style>.cls-1{fill:#cae0e0;opacity:.6}.cls-5,.cls-6,.cls-8{stroke-linecap:round;stroke-linejoin:round;stroke:#1d1d1b;stroke-width:1.45px}.cls-10{fill:#666}.cls-5{fill:none}.cls-6{fill:#e6e6e6}.cls-8{fill:#b3b3b3}</style></defs><g id="kopien"><path class="cls-5" d="M237.5 221.67c-4.6-37.28-9.88-74.49-14.54-111.65-3.87-30.86-6.44-61.91-10.16-92.81-.63-5.32-1.65-11.26-5.99-14.31C203.41.46 198.9.6 194.74.87c-22.91 1.47-45.7 4.38-68.54 6.93-.29.04-.6.05-.89.09-25.5 2.83-50.99 5.19-76.6 4.54-6.97-.15-14.06-.52-20.75 1.45a26.17 26.17 0 0 0-6.37 2.84c-3.99 2.54-7.19 6.25-8.35 10.82-2.3 9.54 1.23 17.12.29 29.09 1.41 20.5 2.82 41.03 4.23 61.55 2.31 33.16 4.61 66.35 6.89 99.52 1.2 17.12 2.37 34.27 3.58 51.39 1.89 27.28 3.75 54.54 5.64 81.79.3 4.16.59 8.38 1.24 12.59 3.61 4.24 8.75 7.26 14.08 8.9 7.8 2.39 16.08 2.31 24.22 2.18 24.76-.41 49.63-.79 73.98-5.23.34-.07.71-.14 1.09-.22.34-.04.69-.11 1.06-.21.31-.07.63-.11.94-.18.31-.07.63-.11.94-.18 6.11-1.16 12.19-2.5 18.37-3.46 20.09-3.06 40.64-1.91 60.62-5.46 6.4-1.15 12.96-2.91 18.32-6.5v-.35c-1.41-43.83-5.85-87.51-11.22-131.09ZM73.7 16.54c.89.08 1.75.63 2.65.78.83 1.34.9 3.24-.15 4.44-1.43 1.72-4.61 1.37-5.61-.66-.97-2.01.92-4.82 3.11-4.55Zm-19.39.82c1.18-.69 2.89-.34 3.6.83 1.42.97 1.65 3.53.26 4.69-1.62 1.37-4.41.43-5.15-1.59-.51-1.38 0-3.15 1.29-3.93ZM39.94 219.58c2.62 8.52 4.82 17.26 4.53 26.14-.12 3.8-.7 7.53-1.06 11.31-.41 4.38-.51 8.79-.47 13.2.02 3.63 1.04 8.21 1.32 11.82.39 5.02-.17 8.29.24 12.42 1.72 17.37.31 34.5 6.85 50.68.32.81.7 1.64 1.38 2.14.97.69 2.26.56 3.41.43 5.84-.77 11.74-1.55 17.58-2.29.03-.03.08-.04.11-.04s.09-.03.12 0c11.56-2.51 23.41-3.45 35.2-4.36 6.59-.51 13.18-1.01 19.77-1.5 4.48-.33 8.97-.66 13.45-.97.46-.04.89-.06 1.33-.08.25-.03.54-.05.83-.06h.14c24.19-1.67 48.46-2.87 72.72-3.64 3.65-.13 7.29-1.18 10.81-2.48 1.76-.65 3.49-1.36 5.16-2.04.88-.36 1.76-.73 2.31-1.51.74-1.06.63-2.48.46-3.78-1.86-15.95-3.75-31.93-5.64-47.91-.07-.56-.13-1.12-.2-1.67-.84-7.41-1.72-14.82-2.39-22.27-.73-7.98-1.18-16.02-1.72-24.03l-.24-3.43c-.75-10.42-1.71-20.83-2.66-31.22-.52-5.64-1.02-11.29-1.54-16.93-1.95-21.21-3.91-42.38-6.09-63.56-2.18-20.93-4.61-41.86-7.56-62.71h.03c0-.05-.01-.24-.05-.58-.04-.28-.09-.68-.19-1.18-.04-.15-.07-.32-.11-.51-.05-.17-.09-.34-.14-.54-.03-.13-.07-.26-.11-.41 0-.03-.02-.07-.03-.1-.07-.25-.15-.52-.24-.8-.51-6.11-1.26-8.48-1.78-15.64-.24-3.5-1.31-6.12-2.61-9.36-10.56-.71-21.17-.46-31.74-.09-13.05.44-26.09 1.01-39.09 1.91l-.38.03c-2.44.15-4.89.32-7.33.51-2.04.15-4.08.31-6.12.5-1.62.13-3.25.27-4.87.43-2.42.22-4.84.47-7.26.72-1.23.12-2.47.25-3.7.4-1.7.18-3.4.38-5.1.58-4.7.54-9.4 1.1-14.11 1.57-7.07.73-14.14 1.27-21.19 1.3-4.67.02-9.34-.19-13.98-.73-.02 0-.04 0-.06-.01-.73-.08-1.47-.17-2.2-.28-.73-.09-1.47-.2-2.2-.32-2.84.22-5.68.53-8.51.9-2.78.37-5.78.88-7.75 2.89-2.61 2.72-2.48 7.01-2.17 10.79 1.87 22.15 3.72 44.33 5.56 66.47l.36 4.16c1.72 19.93 3.85 39.76 5.68 59.63 0 .02 0 .03.01.05.57 6.22 1.12 12.45 1.6 18.68.7 8.77 1.29 17.54 1.71 26.34l-.14.05m110.95 124.66c-.15-.11-.32-.19-.5-.24m3.34 3.08v.03c1.09 1.59 1.77 3.46 2.29 5.31.37 1.36.68 2.72.59 4.1-.28 3.43-3.03 6.27-6.21 7.39-.91.32-1.82.51-2.74.63-2.41.23-4.86-.14-7.22-.75-2.06-.54-4.13-1.34-5.65-2.82-2.12-2.08-2.93-5.38-2.29-8.3.64-2.94 2.56-5.49 5.03-7.16 1.91-1.33 4.15-2.11 6.44-2.37.29-.04.58-.05.87-.06.51-.02 1.06-.01 1.58.03l.72.06h.09"/><path d="M58.16 22.88c-1.62 1.37-4.41.43-5.15-1.59-.51-1.38 0-3.15 1.29-3.93 1.18-.69 2.89-.34 3.6.83 1.42.97 1.65 3.53.26 4.69Z" style="fill:#333;stroke:#1d1d1b;stroke-width:1.45px;stroke-linecap:round;stroke-linejoin:round"/><path d="M235.67 328.73c-.55.78-1.42 1.16-2.3 1.52-1.67.68-3.4 1.38-5.16 2.03-3.52 1.3-7.16 2.34-10.81 2.48-24.25.77-48.52 1.97-72.72 3.64h-.14c-.29.02-.57.03-.83.07-.43.02-.86.03-1.32.08-11.08.77-22.15 1.62-33.23 2.48-11.79.91-23.64 1.85-35.2 4.36-.03-.03-.09 0-.12 0s-.09 0-.11.03c-5.84.75-11.74 1.52-17.58 2.3-1.15.13-2.44.27-3.41-.43-.68-.5-1.06-1.33-1.37-2.14-6.34-16.09-5.75-33.62-6.85-50.68-1.22-18.89-2.44-37.78-3.65-56.66-.8-21.86-2.82-43.75-4.23-65.58-1.36-21.12-4.21-41.57-5.95-62.57C28.85 87.51 27 65.34 25.13 43.2c-.31-3.78-.44-8.07 2.17-10.79 1.97-2 4.97-2.52 7.75-2.89 2.83-.37 5.67-.68 8.51-.9 19.42 3.18 39.27.04 58.85-2.1 9.86-1.1 19.75-1.94 29.66-2.58 13-.9 26.04-1.48 39.09-1.91 10.57-.37 21.18-.62 31.74.09 1.3 3.25 2.37 5.87 2.62 9.36.52 7.16 1.27 9.53 1.78 15.64.81 2.54.86 3.97.84 4.11 2.95 20.85 5.38 41.78 7.56 62.71 2.18 21.17 4.14 42.35 6.09 63.55.52 5.64 1.02 11.29 1.54 16.93.95 10.39 1.91 20.8 2.67 31.22.65 9.14 1.13 18.32 1.95 27.45.68 7.45 1.55 14.86 2.4 22.27 1.96 16.54 3.91 33.07 5.84 49.58.16 1.31.27 2.73-.47 3.78Z" style="fill:#ccc;stroke:#1d1d1b;stroke-width:1.45px;stroke-linecap:round;stroke-linejoin:round"/><path class="cls-10" d="m117.64 194.22-14.01.07c-3.22.34-6.07-1.79-6.37-4.74l-1.76-17.42c-.3-2.95 2.07-5.62 5.28-5.96l13.71-3.02 3.15 31.07ZM146.16 205.69l-26.31-11.8-3.14-31.07 23.41-16.79 6.04 59.66zM155.69 172.04c.38 5.75.58 11.63.03 17.36-.11 1.09-1.2 1.8-2.23 1.47-1.32-.42-2.64-.83-3.95-1.25-.89-.28-1.38-1.23-1.14-2.14 1.34-5.15 1.93-10.44 1.15-15.69-.5-3.41-1.61-6.73-3.21-9.79-.45-.85-.09-1.91.75-2.37.95-.52 1.9-1.05 2.85-1.58.83-.46 1.86-.17 2.34.66.91 1.57 1.67 3.23 2.2 4.99.81 2.7 1.03 5.52 1.21 8.33ZM172.25 194.28c-.77.47-1.25.76-2.02 1.24-1.09-.22-2.18-.45-3.26-.69l-1.3-2.1c.41-2.15.63-4.35.69-6.53.17-6.91-1.18-13.75-2.52-20.54-.73-3.75-1.51-7.55-3.18-10.98-.11-.23-.23-.45-.35-.68-.45-.83-.17-1.87.64-2.35.98-.58 1.96-1.15 2.94-1.73.78-.46 1.76-.22 2.28.52.85 1.19 1.63 2.44 2.25 3.77 1.11 2.4 1.67 5.01 2.22 7.61 2.26 10.71 4.49 21.97 1.59 32.46Z"/><path class="cls-1" d="M102.37 26.5c-6.39.7-12.8 1.49-19.23 2.14l143.24 203.61c-.14-2.2-.28-4.41-.44-6.61-.75-10.42-1.71-20.84-2.67-31.22-.52-5.64-1.02-11.29-1.54-16.93-.56-6.06-1.13-12.11-1.69-18.16L131.65 23.95c-9.78.63-19.54 1.46-29.27 2.55ZM217.39 334.76c3.65-.14 7.29-1.18 10.81-2.48 1.76-.65 3.49-1.36 5.16-2.03.88-.35 1.76-.74 2.3-1.52.74-1.05.63-2.48.47-3.78-1.86-15.95-3.75-31.93-5.64-47.91L61.94 29.9c-6.17.02-12.31-.31-18.42-1.31-2.84.22-5.68.53-8.51.9-2.78.37-5.78.89-7.75 2.89-2.6 2.73-2.48 7.01-2.17 10.79 1.87 22.14 3.72 44.32 5.56 66.46 1.75 21.01 4.59 41.46 5.95 62.57.42 6.47.89 12.94 1.36 19.41l90.95 147.91c4.48-.33 8.96-.69 13.44-1 .46-.05.89-.06 1.32-.08.26-.04.54-.05.83-.06h.14c24.19-1.67 48.46-2.88 72.72-3.65Z"/><path class="cls-5" d="M235.67 328.73c-.55.78-1.42 1.16-2.3 1.52-1.67.68-3.4 1.38-5.16 2.03-3.52 1.3-7.16 2.34-10.81 2.48-24.25.77-48.52 1.97-72.72 3.64h-.14c-.29.02-.57.03-.83.07-.43.02-.86.03-1.32.08-11.08.77-22.15 1.62-33.23 2.48-11.79.91-23.64 1.85-35.2 4.36-.03-.03-.09 0-.12 0s-.09 0-.11.03c-5.84.75-11.74 1.52-17.58 2.3-1.15.13-2.44.27-3.41-.43-.68-.5-1.06-1.33-1.37-2.14-6.34-16.09-5.75-33.62-6.85-50.68-1.22-18.89-2.44-37.78-3.65-56.66-.8-21.86-2.82-43.75-4.23-65.58-1.36-21.12-4.21-41.57-5.95-62.57C28.85 87.51 27 65.34 25.13 43.2c-.31-3.78-.44-8.07 2.17-10.79 1.97-2 4.97-2.52 7.75-2.89 2.83-.37 5.67-.68 8.51-.9 19.42 3.18 39.27.04 58.85-2.1 9.86-1.1 19.75-1.94 29.66-2.58 13-.9 26.04-1.48 39.09-1.91 10.57-.37 21.18-.62 31.74.09 1.3 3.25 2.37 5.87 2.62 9.36.52 7.16 1.27 9.53 1.78 15.64.81 2.54.86 3.97.84 4.11 2.95 20.85 5.38 41.78 7.56 62.71 2.18 21.17 4.14 42.35 6.09 63.55.52 5.64 1.02 11.29 1.54 16.93.95 10.39 1.91 20.8 2.67 31.22.65 9.14 1.13 18.32 1.95 27.45.68 7.45 1.55 14.86 2.4 22.27 1.96 16.54 3.91 33.07 5.84 49.58.16 1.31.27 2.73-.47 3.78Z"/><path class="cls-8" d="M137.18 390.19c.51 2.02 2.53 3.09 4.67 3.39-6.77.58-14.58.28-21.35.88-12.07 1.04-24.15 2.11-36.15 3.69-11.42 1.54-22.22 1.77-34.07-1h0c-6.77-1.12-5.41-.07-10.64-4.57-11.85-10.25-13.81-22.93-14.71-36.97-1.13-17.43-2.37-26.16-3.81-43.52-1.38-16.68-2.15-33.53-3.47-50.26-.43-5.44-.83-10.86-1.17-16.3-1.08-16.07-1.78-32.16-2.11-48.26-.26-12.63-2.5-31.5-3.82-44.06-.83-7.88-1.11-21.57-2.17-29.41-1.3-9.53-2.19-19.1-3.09-28.67-1.37-14.54-2.73-29.09-4.1-43.63C.57 44.55.01 37.1 3.38 30.99 7.7 23.21 12.93 18.8 21.6 16.73c-8.19 5.22-9.07 13.52-8.54 22.67 3.44 59.49 7.52 118.87 11.6 178.32 1.2 17.12 2.37 34.27 3.58 51.39 1.89 27.28 3.75 54.54 5.64 81.79.3 4.16.59 8.38 1.24 12.59.5 3.57 1.24 7.11 2.43 10.53 2.57 7.38 7.4 14.29 14.42 17.56 3.19 1.51 6.67 2.14 10.19 2.39l3.56-.25c26.14-2.73 52.25-5.5 78.44-7.62-1.06.24-2.05.57-3.01 1.05-2.18 1.05-3.49.65-3.94 3.06Z"/><path class="cls-6" d="M248.73 353.2c.14 3.88.17 7.85-.9 11.56-2.46 8.38-10.3 14.17-18.56 16.58-8.28 2.41-17.04 2.07-25.62 2.01-12.49-.14-24.99.36-37.48 1.15h-.2c-6.22-.14-13.67.81-17.86 1-1.32.08-2.67.25-3.95.59h-.03c-26.19 2.12-52.3 4.89-78.44 7.62l-3.56.25c-3.52-.25-6.99-.88-10.19-2.39-7.02-3.27-11.85-10.18-14.42-17.56-1.19-3.43-1.92-6.96-2.43-10.53 3.61 4.24 8.75 7.26 14.08 8.9 7.8 2.39 16.08 2.31 24.22 2.18 24.76-.41 49.63-.79 73.98-5.23.34-.07.71-.14 1.09-.22.34-.04.69-.11 1.06-.21.31-.07.63-.11.94-.18.31-.07.63-.11.94-.18 6.11-1.16 12.19-2.5 18.37-3.46 20.09-3.06 40.64-1.91 60.62-5.46 6.4-1.15 12.96-2.91 18.29-6.5 0 .03.03.06.03.09Z"/><path class="cls-8" d="M243.5 377.34c-.91 1.69-9.51 9.26-11.74 9.97-7.16 2.29-11.44 1.4-18.06 1.73-16.65.84-26.11 2.03-43.99 2.64.98-.34 7.05 0 6.99-1.62.42-4.13-4.46-5.38-10.5-5.56 12.49-.79 24.98-1.29 37.48-1.15 8.58.06 19.64-.38 27.92-2.79 8.26-2.41 13.8-7.42 16.25-15.8 1.07-3.72 1.04-7.69.9-11.56.37 10.02-.96 16.2-5.23 24.14Z"/><path class="cls-6" d="M146.36 342.07c-.52-.04-1.07-.05-1.58-.03-.29.01-.58.02-.87.06-2.29.26-4.53 1.05-6.44 2.37-2.47 1.67-4.39 4.22-5.03 7.16-.64 2.92.17 6.22 2.29 8.3 1.52 1.48 3.59 2.28 5.65 2.82 2.36.61 4.81.98 7.22.75.92-.12 1.83-.3 2.74-.63 3.18-1.12 5.93-3.96 6.21-7.39.09-1.38-.22-2.74-.59-4.1-.52-1.85-1.2-3.71-2.29-5.31v-.03c-.49-.74-1.06-1.42-1.71-2.01-.36-.3-.75-.59-1.13-.83-.15-.11-.32-.19-.5-.24-.35-.16-.7-.29-1.08-.4-.69-.21-1.39-.37-2.08-.46h-.09m.6 8.12c1.09.72 1.85 2.04 1.81 3.39-.1 2.08-1.88 3.9-3.91 4.15-2.98.41-5.88-2.79-5.16-5.7.38-1.45 1.58-2.49 2.98-2.92"/><path class="cls-6" d="M147.68 350.24c1.09.72 1.85 2.04 1.81 3.39-.1 2.08-1.88 3.9-3.91 4.15-2.98.41-5.88-2.79-5.16-5.7.38-1.45 1.58-2.49 2.98-2.92"/><path class="cls-5" d="M147.69 350.23c-1.08-1.11-2.84-1.54-4.29-1.08"/><path d="M76.19 21.76c-1.43 1.72-4.61 1.37-5.61-.66-.97-2.01.92-4.82 3.11-4.55.89.08 1.75.63 2.65.78.83 1.34.9 3.24-.15 4.44Z" style="fill:#4d4d4d;stroke:#1d1d1b;stroke-width:1.45px;stroke-linecap:round;stroke-linejoin:round"/><path d="M137.11 18.64c-.43.02-.93-.25-1.53-.21-13.36.96-22.9 1.22-35.68 2.75-1.43.2-5.55-.27-6.81-1.01-1.26-.71-1.97-2.64-.97-3.73 5.82-.63 11.61-1.25 17.42-1.88 7.22-.77 14.44-1.56 21.6-2.65.32-.04.57-.08.89-.09 5.98-.25 9.02 6.67 5.08 6.81Z" style="fill:#666;stroke:#1d1d1b;stroke-width:1.45px;stroke-linecap:round;stroke-linejoin:round"/><path d="M176.68 390.06c-1.48 1.95-4.29.74-8.66 1.46h-.03c-4.25.16-8.5.5-12.77.89-4.44.4-8.92.77-13.36 1.17-2.14-.3-4.16-1.36-4.67-3.39.46-2.41 1.77-2.01 3.94-3.06.96-.47 1.96-.8 3.01-1.05h.03c2.95-.23 5.91-.46 8.87-.68 4.33-.31 8.61-.62 12.94-.9h.2c6.05.17 10.93 1.42 10.5 5.55Z" style="stroke-miterlimit:10;fill:#4d4d4d;stroke:#1d1d1b;stroke-width:1.45px"/><path class="cls-5" d="M153.03 385.4c-2.96.23-5.91.46-8.87.68 1.28-.34 2.63-.51 3.95-.59 4.19-.19 11.64-1.14 17.86-.99-4.33.28-8.61.59-12.94.9ZM167.99 391.52c-6.75 1.1-15.87 1.24-23.89 2.1-.72.09-1.49.06-2.25-.03 4.45-.4 8.92-.77 13.36-1.17 4.27-.39 8.52-.73 12.77-.89Z"/></g></svg>