<svg id="Ebene_2" data-name="Ebene 2" xmlns="http://www.w3.org/2000/svg" viewBox="0 0 400 345.19"><defs><style>.cls-1{fill:none}.cls-1,.cls-2{stroke-miterlimit:10;stroke-width:.73px;stroke:#000}.cls-4{fill:#ffe1e1;stroke:#311b92;stroke-width:2.44px}.cls-4,.cls-5{stroke-linecap:round;stroke-linejoin:round}.cls-6{fill:#dbc6ab}.cls-5{fill:#b29e80;stroke:#1d1d1b;stroke-width:.7px}.cls-2{fill:#00f59f}.cls-7{fill:#1d1d1b}</style></defs><g id="kopien"><g id="transp"><g id="leiste1"><path class="cls-5" d="M86.69 277.76h0l7.41 26.95 3.28 11.92h.01l7.76 28.21c.94-.2 1.76-.37 2.43-.53 3.29-.74 8.07-2.25 11.92-4.63l-3.9-14.16-1.46-5.28-34.73-125.93"/><path class="cls-5" d="m86.69 277.76-22.28-80.83v-.01l-7.26-26.36v-.01L15.6 19.71l18.17-5.5 17.37 72.2v.03l6.06 27.26 22.22 80.59v.02"/><path class="cls-6" d="m105.16 344.84-4.68-2.71-6.34-17.84-2.43-8.88-2.56-9.32v-.01l-22.34-81.61v-.01l-7.35-26.8v-.03L11.29 21.67l4.31-1.96 41.55 150.84v.01l7.26 26.36v.01l22.28 80.83v.01l7.41 26.94 3.28 11.92h.02l7.76 28.21z"/><path class="cls-7" d="M100.48 342.47c-.16 0-.29-.1-.34-.26l-11.33-36.03s-.01-.06-.01-.09l-22.33-81.53s-.01-.06-.01-.09l-7.33-26.72s-.01-.06-.01-.09L10.96 21.77c-.04-.16.04-.34.19-.41l4.31-1.97a.349.349 0 0 1 .48.22l41.55 150.84s.01.06.01.09l29.52 107.12s.01.06.01.09l10.66 38.69s.03.05.04.08l7.76 28.21c.03.1.01.2-.04.28-.05.08-.14.14-.23.16l-4.68-2.72h-.06ZM11.71 21.87 59.8 197.54s.01.06.01.09l7.33 26.74s.01.06.01.09l22.33 81.53s.01.06.01.09l11.23 35.65 3.99 2.84-7.64-27.76s-.03-.05-.04-.08l-10.7-38.86s-.01-.06-.01-.09L56.8 170.66s-.01-.06-.01-.09L15.37 20.2l-3.67 1.67Z"/></g><g id="leiste1-2" data-name="leiste1"><path class="cls-5" d="M374.29 269.91h0l-1.87 27.89-.83 12.33h-.01l-1.95 29.2c-.97 0-1.8-.01-2.49-.03-3.37-.07-7.9-4.06-12.61-4.42l.99-12.38.37-5.46 8.78-130.34M374.29 269.91l5.62-83.65v-.01l1.83-27.28v-.01l10.48-156.1L377.24.35l-5.15 76.39v.03l-1.79 26.5-5.62 83.41v.01"/><path class="cls-6" d="m369.64 339.33 4.31-2.24 2.37-20.1.6-9.19.63-9.64v-.01l5.54-84.43v-.01l1.82-27.73-.01-.03L395.02 5.84l-2.8-2.98-10.48 156.1v.01l-1.83 27.28v.01l-5.62 83.65v.01l-1.86 27.88-.83 12.34h-.01l-1.95 29.19z"/><path class="cls-7" d="m373.96 337.43-4.31 2.25c-.1 0-.19-.04-.26-.11a.37.37 0 0 1-.1-.26l1.95-29.2s0-.06.02-.09l2.69-40.04v-.09l7.46-110.86v-.09L391.87 2.83c0-.1.06-.2.14-.26.08-.06.19-.08.29-.06l2.8 2.99c.17.04.28.19.27.36L385.25 185.9v.09l-1.83 27.65v.09l-5.54 84.35v.09l-3.61 38.92c-.01.16-.13.29-.28.32h-.06ZM392.54 3.29 382.08 158.9v.09l-7.46 110.86v.09l-2.69 40.21s0 .06-.02.09l-1.92 28.73 3.61-2.23 3.59-38.53v-.09l5.54-84.35v-.09l1.82-27.66v-.09l10.1-179.81-2.11-2.83Z"/></g><path d="M11.53 31.53c.75-.43 1.53-.83 2.31-1.19 4.06-1.86 8.47-2.81 12.85-3.66 5.25-1.01 10.61-1.91 15.97-1.49 5.44.43 10.88 1.05 16.32 1.5 14.94 1.23 29.88 2.44 44.83 3.56 10.07.76 20.15 1.52 30.24 2.03 24.92 1.25 109.01 5.59 140.16-3.74 31.15-9.33 67.2-17.43 80.32-18.67 11.18-1.06 29.88 2.85 35.14 4.03.93.21 3.7 1 4.44 1.6l4.65 12.08s-7.63-3.74-8.61 9.57c-.54 7.35-4.76 107.22-4.76 107.22s.21 19.48 4.67 23.66-27.41-12.45-47.34-14.32c-19.93-1.87-91.57-9.17-118.36-7.7-26.79 1.47-69.15-7.08-99.05 0-29.9 7.08-54.57 16.94-54.57 16.94l-13.97 7.63s-3.86 4.4-5.66 11.82c-1.8 7.42-4.29-5.93-6.79-20.43-2.49-14.5-11.84-55.59-19.31-73.03-7.42-17.39-23.7-45.52-23.79-45.7 0 0 2.92-5.03 4.46-6.88 1.62-1.96 3.65-3.56 5.85-4.83Z" style="fill:#f50057;stroke-width:2.44px;stroke-linecap:round;stroke-linejoin:round;stroke:#000"/><g id="hand"><path class="cls-2" d="M317.08 73.91c-1.29 1.14-2.19 1.9-3.94 2.04-2.06.17-2.77-1.87-3.26-3.98-.54-2.34-1.13-4.35-1.94-6.56-.6-1.63-1.34-2.65.14-3.85-.72-.92-1.26-1.9-1.85-3.03-1.22-2.38-2.44-4.6-2.47-7.46-.02-1.34 0-2.67.25-3.97.12-.61.38-1.2.61-1.8-2.53-1.88-5.93-4.87-5.59-8.6.35-3.81 2.33-9.45 5.99-10.68 1.01-.34 2.9-.82 3.85-.14 1.17.84.8 2 .73 3.15-.13 2.2 1.7 4.37 1.83 6.77.08 1.51-.26 2.83-.39 4.32-.12 1.29.75 2.54.64 3.55l-.07.07c.35.7.41 1.69.71 2.45.99 2.53 2.66 4.31 2.18 7.24-.4 2.42-.83 2.54.66 4.44 1.61 2.06 2.06 3.46 2.15 6.15.08 2.21-.3 4.59.47 6.69.75 2.01.72 1.93-.69 3.17Z"/><path class="cls-1" d="M336.83 18.69c-.2-.35-.33-.69-.45-.98"/><path class="cls-2" d="M335.94 30.47c-.24 2.05-2.26 3.74-1.27 5.57.56 1.02.94.83.89 2.2-.06 1.67-.67 3.13-1.13 4.72-.4 1.39-.86 3.14-.55 4.58.2.92.72 1.39.91 2.31.16.8.23 2.01.25 2.82.03 1.09-.98 2.42-.62 3.46.19.54.96.84 1.22 1.49.43 1.05.13 1.79-.09 2.89-.52 2.66-.47 5.33-.76 8.05-.16 1.46-.41 4.24-1.67 5.2-1.08.83-2.97.32-4.13-.35-1.8-1.04-1.8-1.55-1.89-3.63-.06-1.36.18-2.78.19-4.09.01-1.47-.57-3.11-.79-4.61-.25-1.73.38-2.36.89-3.86.72-2.09-.48-.98-1.19-2.05-.35-.53.13-2.28.17-2.95.14-2.62-.65-4.92-.74-7.48-.05-1.44-.26-3.25-.17-4.64.06-.87.62-1.69 1.25-2.42-.71-1.17-1.19-2.64-1.52-3.59-1.2-3.41-.68-6.14.74-9.41 1.06-2.44 1.98-5.04 4.27-6.38 1.28-.75 2.79-1.67 4.22-1.91 1.35-.23 1.58.36 1.97 1.3l-.06.03c.42 1.1.83 2.39 1.05 3.57.62 3.19-1.07 6.06-1.44 9.16ZM355.73 49.69c-.09 1.62.48 3.18.14 4.84-.22 1.08-.84 1.93-1.07 2.99-.17.81-.02 1.61-.09 2.43-.12 1.58-.84 3.04-1.03 4.57-.12.97.23 2.04.14 2.96-.12 1.14-.48 1.53-.3 2.66.19 1.18.44 1.14-.15 2.3-.68 1.36-1.35 2.5-1.77 4-.36 1.3-.53 2.74-1.05 3.98-1.11 2.62-2.34 1.32-3.59.02-1.59-1.66-2.42-2.45-2.62-4.89-.2-2.48.16-4.96 1.09-7.17.7-1.67.29-3.5.45-5.39.19-2.28.34-4.62.64-6.89.17-1.32.94-2.15.99-3.41.04-.79-.21-2.17-.35-2.97-1.1-6.35-2.76-13.33 2.44-18.42.97-.95 2.06-1.57 2.95-2.62.93-1.1.98-1.16 2.29-1.09 1.08.06 1.83.14 2.63 1.23.44.6.55 1.13.54 1.67v.05c0 .08 0 .17-.01.26-.02.81.11 1.61.14 2.56.05 1.71-.12 3.57-.38 5.26-.58 3.81-1.83 7.16-2.05 11.08Z"/><path class="cls-2" d="M376.39 60.32c-.71 3.52-2.36 7.08-4.03 9.88-.86.86-1.9 4.36-2.24 5.32-.76 2.15-1.15 4.15-1.64 6.35-.47 2.1-1.58 4.19-2.29 6.22-.6 1.72-.34 3.69-.99 5.36-.59 1.52-1.55 2.64-1.7 4.35-.06.65.16 1.14-.03 1.74-.11.35-.59.79-.75 1.15-.43.95-.23 1.09-.14 2.07.1.99.13.72-.13 1.63-.29 1.01-.8 1.87-.99 2.89-.28 1.53 0 2.51-.89 3.82-1.68 2.48-3.65 2.82-2.78 6.22.34 1.34.29 2.64.2 3.99-.74 1.34-.92 2.91-1.6 4.33-.85 1.79-1.69 3.85-2.21 5.79-.78 2.9-1.17 5.38-3.02 7.73-1.92 2.45-4.28 3.54-6.74 5.26-2.81 1.97-7.02 3.71-9.95 1.2-1.41-1.21-2.21-2.65-4.17-3.06-1.67-.35-3.33.83-4.59 2.02-2.49 2.34-5.29 1.49-8.33.89-2.88-.56-5.81-1.99-8.05-4.09-2.31-2.17-3.11-5.3-4.23-8.22-.71-1.83-2-3.43-3.09-5.08-.77-1.16-1.37-1.71-2.49-2.38-.48-.29-1.7-.93-2.03-1.41-.39-.58-.12-1.67-.14-2.3-.04-1.04-.39-1.88-.52-2.87l-.05-.02c.73-2.59 2.94-4.61 2.75-7.62 1.84.79 4.31-1.26 5.06-2.97.68-1.55-.12-2.38 1.43-3.19 1.44-.75 3.05-.61 4.54-1.09 1.31-.42 2.57-1.2 3.26-2.3.37-.59.34-1.3 1.16-1.67.45-.2 1.44.11 2.06-.19 2.06-1 2.07-2.81.35-4.28-.98-.83-2.5-.9-3.35-1.73-.89-.85-1.21-3.1-1.62-4.25-.25-.7-.32-1.42-.78-2.06-.41-.57-1.2-.93-1.41-1.69-.63-2.17 1.18-5.18 2.55-6.53 2.23-2.22 4.51-1.58 7.26-1.94 1.08-.14 1.79-.33 2.84-.28 1.01.04 1.8-.51 2.68-.56 1.13-.06 1.94 1.09 2.81 1.67 1.37.91 2.11.6 3.85.24 3.22-.65 5.69 2.93 8.43 4.36.76.4 1.44.31 2.27.9.99.7 1.37.75 2.48 1.12 1.37.46 3.38 1.77 4.42 2.77 1.06 1.03.36 2.54 1.17 3.69.68.96 2.21 1.19 3.02 2.25.38.49.67.84.95 1.11l.32-.08c.5.52 1.65.19 2.13-.26.78-.73.68-2.25.7-3.27.04-2.03 1.3-2.77 2.31-4.37.93-1.45.81-2.54.88-4.21.12-3.07.64-6.21 2.3-8.76 1.45-2.24 2.01-5.5 1.92-8.23-.12-3.5.34-6.01 2.41-8.87 1.14-1.58 2.62-2.12 4.41-2.32 1.74-.19 3.24-.78 4.16 1.17.67 1.42.14 3.16-.17 4.67Z"/><path class="cls-1" d="m372.36 70.2-.16.26M372.37 70.19h-.01M355.12 94.96s-.08-.07-.12-.11"/><path class="cls-2" d="M297.79 114.84c-1.49 2.51-4.86 1.48-6.82.14-1.46-.99-2.6-2.39-4.19-3.22-1.02-.54-2.86-.58-3.71-1.21-1.23-.92-.38-2.62-1.5-3.58-1.02-.88-1.77-.04-2.73-1.12-1.02-1.14-.57-2.64-1.62-3.67-1.56-1.55-3.48-1.59-4.41-3.96-.54-1.37-.43-3.76-.24-5.2.33-2.42 1.22-4.25 3.48-4.9 3.3-.95 5.95 1.63 7.87 4.35 2.33 3.3 2.73 7.28 5.8 10.06 2.12 1.91 5.95 2.41 6.38 4.02 2.95.56 2.94 6.19 1.69 8.31Z"/></g><path class="cls-4" d="M105.9 112.28c-6.62-2.06-14.76-3.79-20.6-4.28-3.45-.29-4.09-.16-4.02.66.08.8.5 1.08 6.74 2.61 18.01 4.15 20.17 6.37 20.92 14.52.14 1.47.16 2.69 0 3.73-.04.26-.09.5-.14.74-1.37 6.03-11.39 5.38-19.31 5.39h-.7c-1.18-.01-2.42-.04-3.74-.07-1.22-.03-2.5-.09-3.82-.17-.44-.03-.88-.05-1.33-.08-8.17-.23-22.55.24-20.26-10.41-.01-.42-.03-.84-.04-1.25-.01-.41-.03-.82-.04-1.21l-.03-.77c.45-.61.19-2.72.06-3.78 3.66 2.74 8.18 3.46 13.12 5.27.46.13.93.25 1.4.37 3.24.83 6.37 1.41 9.02 1.66 1.44.13 1.8-.1 1.73-.71-.09-.78-.76-1-4.02-1.74-1.34-.32-2.59-.63-3.78-.95-.24-.06-.47-.13-.7-.19-11.93-.51-23.5-13.2-18.75-23.66.17-.37.35-.72.54-1.06 7.18-13.32 32.98-5.88 47.5-4.12.34.1.69.21 1.03.32.34.11.68.22 1.03.33-.62 7.02-1.22 13.3-1.81 18.86ZM160.11 110.91c-1.36-.14-1.36-.14-2.28-.06-.39-.02-.8-.03-1.2-.05-2.82-.1-5.78 0-8.1 1.79-1.14.1.22 4.66.4 6.5.01.25.03.51.04.77.09 1.55.18 3.14.28 4.68.02.27.03.53.05.8.09 4 1.52 8.83-.6 10.21-4.3 2.12-12.21.66-18.7.18-.28 0-.56-.02-.83-.03-3.8-.13-6.6-.24-6.59-.24 0 .02-.05-4.03-.08-9.94v-.8c3.38-8.28-2.77-16.21-12.91-13.81-.09-1.2-.26-3.72.12-4.75-.01-.31-.03-.63-.04-.96-.08-2.07-.18-4.53-.26-6.91-.01-.34-.02-.68-.04-1.01.32-2.44.16-5.47.16-5.47 7.93-3.09 14.96-1.65 22.92-1.77h1.26c3.77.01 7.51.03 11.52.11h.91c7.82.03 13.76.01 13.76.01s.05 2.93.12 6.48c0 .35.01.72.02 1.08-.64 1.74-.63 3.38-.45 4.98.05.4.11.8.17 1.19-.04 1.91.05 4.39.33 5.94.01.67.02 1.05.02 1.05ZM187.55 136.49h-.8c-6.85-.04-11.76-.51-15.3-1.56-.34-.1-.68-.21-1-.33-5.94-1.75-7.41-6.39-7.89-11.92-.03-.39-.07-.79-.09-1.18 1.01-6.13-2.68-12.95 1.32-21.2.12-.37.25-.72.38-1.07 1.21-3.13 3.09-5.46 5.86-7.13.31-.19.63-.36.96-.53 6.67-3.87 14.81-2.69 22.51-3.52.42-.17.85-.32 1.27-.45 8.11-2.42 16.79 1.12 21.92 7.13.2.28.39.57.57.88.73 1.22 1.31 2.62 1.77 4.24.11.4.22.82.32 1.26.13.37.25.74.35 1.12.1.38.18.76.26 1.15.41 7.3 1.46 15.38-2.17 24.07-.19.4-.4.78-.62 1.16-1.32 2.25-3.12 4.06-5.48 5.02-.35.16-.72.32-1.1.47-.34.14-.7.26-1.07.38-7.18 1.53-13.87 1.54-20.41 2.01-.24 0-.48.01-1.54.02Zm3.93-32.22c-4.2 4.19-.7 8.45-1.89 11.63 0 .27-.01.54-.02.8-.01.52-.03 1.02-.06 1.49.01.26.03.5.05.74l.06.66c.02.25.05.48.08.7-1 3.6 2.36 2.23 3.49 2.14-.03-1.81-.04-2.87.1-4.17.03-.26.06-.53.11-.81-.06-.82-.11-1.61-.15-2.36l-.06-1.11c-.16-3.77-.19-6.08-.72-9.55-.26-.17-.58-.2-.98-.15ZM248.63 121.55c1.89 5.25-1.64 12.62-6.13 14.04-5.62 2.8-10.02-1.31-14.41-.11-.4.06-.81.14-1.2.24-.4.1-.8.22-1.19.37-.48-.01-.84-.11-1.05-.35-1.03-1.98-1.51-4.15-1.7-6.43-.04-.45-.06-.92-.08-1.38.81-9.47.91-18.78.25-27.54 0-.37-.01-.74-.01-1.09-.02-1.08-.03-2.11-.04-3.07v-.73c-.28-2.51-.24-6.66-.24-6.66 10.43-2.37 20.84-1.56 31.32-2l1.32-.06c1.75-.08 3.5-.17 5.23-.27.32 0 .63-.02.94-.03 10.82-.15 15.52.24 16.45 6.7.03.19.05.38.07.57-1.75 5.37 2.31 14.44-6.83 19.69-.38.23-.75.44-1.14.66-5.72 3.27-11.92 5.6-17.99 6.84-.43.09-.85.17-1.28.25-.37.06-.74.12-1.12.18-.38.06-.76.12-1.15.18Zm1.07-22.92c.39 2.7.29 5.95.19 9.42 3.43-1.49 7.05-7.33 3.73-10.05-1.14.08-2.29.17-3.13.4-.25.07-.52.14-.8.23ZM304.99 119.98c-.52 4.4 1.39 10.74-.93 12.37-4.79 6.51-13.55 3.18-19.97 4.03-.35-.06-.69-.13-1.03-.22-1.35-.38-2.58-1.1-3.65-2.3-1.63-1.22.04-6.86.51-11.56.03-.31.06-.63.08-.93.38-11.08-1.44-20.38.57-27.77.01-.39.03-.76.04-1.12.15-3.91.26-5.97.26-6 0 0 .8-.02 2.17-.06l1.13-.03c9.24-.23 18.5-.33 27.22-.54l1.33-.03c.5 0 .99-.01 1.44-.02 1.14-.17 2.36-.31 3.62-.42.42-.04.84-.07 1.27-.1 5.84-.71 10.33.05 13.16 2.31.26.21.5.43.73.66 3.91 2.05 2.22 6.78 2.54 10.35-.03.35-.06.72-.1 1.09-.56 5.73-1.96 10.25-5.26 13.36-.25.24-.52.47-.8.7-6.81 4.69-12.89 5.19-20.06 5.8-.45.04-.9.08-1.36.13q-.95.48-2.14.22c-.25.02-.51.05-.77.07ZM307.11 96c.1 2.69-.09 5.58-.31 8.72-.03.35-.05.7-.07 1.05 2.27.03 3.58-2.27 4.62-3.05.21-.36.4-.73.54-1.11.72-1.91.61-3.99.17-5.46-1.15-.03-3.44-.06-4.15-.27-.25.04-.51.08-.78.13ZM361.03 117.49s-5.08-1.16-10.46-2.17c-.31-.06-.63-.12-.95-.18-2.56-.22-5.96-.66-8.53-1.47-.44-.07-.84-.13-1.19-.19-1.06-.16-1.69-.26-1.69-.26s.24-5.53.53-11.16c.01-.3.03-.59.04-.89-2.43-9.45 1.31-15.58 9.76-16.2.44-.03.9-.03 1.37-.02 5.98 1.3 11.75 1.63 17.67.54.49 6.04-3.62 11.55-3.36 17.28-.07.31-.14.62-.2.93-1.56 7.06-2.99 13.76-2.99 13.77Zm-25.57 18.49c-.38-15.1 5.93-21.81 16.95-17.59l.9.09c5.05.51 9.44 1.13 9.44 1.13l-.13 2.14c-.03.44-.05.92-.09 1.45-.79 5.4 1.9 11.75-1.71 14-3.73 3.75-8.8-1.65-14.82-.6-.41-.02-.83-.04-1.24-.05-2.91-.13-5.92-.28-8.57-.5-.46-.04-.72-.06-.72-.06ZM99.23 50.01c2.61 3.65 3.74 9.2 6.21 14.84.14.44.28.88.42 1.34.42 1.36.84 2.78 1.25 4.26.2.74.38 1.41.52 1.96.29 1.12.46 1.79.46 1.79s-3.71.31-7.73.69c-.37.03-.73.07-1.1.1-2.68 1.31-4.92 1.53-6.73.63a5.38 5.38 0 0 1-.66-.38c-3.39-2.58-4.41-6.6-4.67-10.24-2.09 2.91-.31 6.74-1.63 9.86-.24.29-.58.48-1.04.53-.46.06-1.05-.02-1.8-.25-.56.05-1.16.11-1.79.17-.63.06-1.29.12-1.95.19-.57.05-1.15.11-1.74.17-2.93.78-8.14 1.74-8.97.97-1.78-4.71-3.05-9.11-3.77-13.73-.06-.38-.11-.77-.17-1.15-.03-7.24-3.93-20.19 8.2-17.47.35-.01.69-.03 1.03-.04 3.42-.14 6.68-.29 9.94-.41-.21.16-.38.34-.53.53-.15.19-.26.39-.35.6a3.67 3.67 0 0 0-.35 2.19c.02.15.05.29.09.44.24 1.04 1.15 2.08 2.06 3.19-.13-1.2-.26-2.36 1.33-3.64.11-.12.22-.23.33-.35.44-.47.85-.94 1.08-1.43.15-.18.29-.35.42-.52.12-.17.24-.34.33-.51.42-.49.7-.77.7-.78h4.6c.55 0 1.09-.02 1.63-.03 3.54-.08 7.35-.65 11.32-.38-.55 1.44-4.3 2.67-6.12 5.29-.11.17-.21.36-.3.55-.08.19-.15.4-.21.62l-.32.37ZM128.11 75.62c-3.98-.74-7.71.33-11.17-1.52-.33-.16-.64-.32-.94-.5-2.09-1.23-3.53-3.03-4.54-5.38-.21-.49-.4-.99-.58-1.53-.41-1.36-.74-2.65-1.01-3.88-.09-.41-.17-.81-.25-1.21-.19-.48-.34-.94-.48-1.38-.2-3.3-1.21-7.1-.03-9.7.03-.31.05-.61.05-.91 0-.3 0-.6-.03-.9a6.95 6.95 0 0 1 .28-1.31c.8-3.74 8.55-3.74 14.05-3.88h1.16c1.24 0 2.57 0 3.99.03.29 0 .57 0 .87.01 4.64.61 10.12.23 14.08 1.82.21.09.41.18.61.28 2.02.17 1.31 2.36 3.37 3.43.09.18.19.36.27.55 1.15 2.56 1.24 5.4 1.78 8.15.04.21.09.42.13.63 1.44 3.17-.79 6.77-.75 9.88-.07.25-.15.48-.24.7-.81 2.02-2.43 3.23-3.84 4.51-.3.22-.61.43-.93.63-2.2 1.38-4.67 2.15-7.07 2.18-.38 0-.75 0-1.12-.04-2.51-.14-4.78-.18-6.81-.62l-.83-.06Zm1.17-25.52c-.24.22-.46.45-.64.69-.15.27-.28.55-.4.83-.26.24-.48.5-.66.77-1.14 2.46-.23 5.55 1.42 9.09.18-.14.35-.29.5-.44 2.19-2.25.1-5.31.59-7.56-.03-.29-.07-.58-.12-.85-.04-.28-.09-.54-.14-.8.01-.24.04-.48.1-.71.05-.23.13-.46.23-.67-.21-.22-.5-.31-.88-.34ZM192.74 77.36c-4.34-.26-8.88-.39-13.5-1.09-.15-.01-.3-.03-.45-.04-1.72-.15-3.24-.22-3.99-.26-.74-1.96.81-4.42.08-7.23l-2.29-.3c-.78 2.68-.04 4.82.05 7.63-.01.26-.02.41-.02.41s-3.81-.08-7.85-.15c-.27 0-.54 0-.81-.01-2.78-1.04-7.3 1.22-8.07-.44-.72-.81-1.07-1.87-1.22-3.06-.03-.24-.05-.48-.07-.73.42-5.38 1.9-10.46-.14-15.49-.02-.21-.05-.43-.07-.64s-.05-.43-.07-.64l-.06-.54-.06-.54c-.13-3.53-2.53-6.85-.23-9.09 3.08-2.92 8.61-1.09 13.23-.5.13.02.26.03.39.05.91.11 1.8.17 2.65.15.45 0 .86.02 1.25.03l2.53.05-.22 6.61c0 .17-.01.35-.02.52.45 2.07-1.12 6.36.42 6.57 3.86.58.04-4.5 1.86-7.08l.03-.52c.19-2.92.36-5.61.36-5.61s2.43.15 5.52.35l.49.03c3.57.06 9.1-1.82 11.38 1.25 1.54 1.09.65 5.95.35 9.11 0 .18-.02.37-.03.55-.29 5.66-.66 11.55-.95 15.22 0 .11-.02.21-.02.32-.11 1.65-.2 3.69-.45 5.05v.09ZM228.42 77.93a27.42 27.42 0 0 0-4.44.02l-.72-.06c-4.99-.38-9.35-.47-14.11-.21-.16 0-.31 0-.46-.01-.17 0-.34-.01-.5-.01-11.55.8-9.01-2.34-9.11-9.92 0-.14.01-.28.02-.43.25-5.35.51-13.13.65-17.88 0-.27.02-.53.02-.78 1.12-1.35-.42-2.46.79-2.8h.52c.61 0 1.44-.01 2.38-.02h.41c4.94-1.63 10.39-.49 15.09-.44-.06 1.76-.13 3.45-.16 5.03 0 .31-.01.63-.02.93.46 7.16-.61 13.28-.91 17.98l-.03.5.72-.09c.24-.03.47-.05.7-.08 3.24-.33 6.02-.29 9.42-.17.13 0 .25-.02.37-.02l1.56-.1s-.38 1.98-.84 3.82l-.09.35c.66 1.83-1.78 3.09-1.19 4.24-.05.1-.07.15-.07.15ZM252.82 58.5c.35.38.28 1.21.21 2.01.77-.13 2.32-.4 3.29-.57.16-.04.32-.09.48-.14 3.1.18 7.36-4.58 8.59-1.92 1.85 3.37.37 6.04-2.33 7.78-.21.13-.42.26-.64.38-2.56 1.73-5.48 1.02-8.89 2.32-.23.05-.36.08-.36.08l-.14.66c3.54 1.31 8.42-2.31 11.78-1.32.22-.01.43-.02.65-.04.43-.03.84-.08 1.24-.16a1587.587 1587.587 0 0 1-1.17 9.34l-2.11.08c-.19 0-.39.01-.6.02-4.01.79-7.52.79-11.11.73-.22 0-.45 0-.67-.01-2.39.08-4.81.14-7.23.15h-.66c-8.78.68-9.03-1.36-8.07-7.04 0-.13.02-.25.03-.38.12-1.55.23-3.37.36-5.36 0-.19.02-.37.03-.55 1.49-4.48 1.12-11.11.67-18.06 3.05-.05 6.09-.11 9.14-.12h.65c3.9 1.28 7.39.49 10.85-.2.23-.05.46-.09.69-.14 3.7-.54 9.34-2.43 10.66-.14 1.55 2.25 1.72 4.25.88 6.12-.09.19-.18.37-.28.55-2.44 3.55-6.37 5.42-10.05 4.57l-.44.09c-.17.04-.34.07-.51.11-1.41.19-2.96.45-4.54 1.06-.25.06-.39.09-.38.09Z"/></g></g></svg>